<svg xmlns="http://www.w3.org/2000/svg" viewBox="0 0 377.18 335.29"><defs><style>.cls-1{fill:#caeafc;}.cls-2{fill:#b3b3b3;}.cls-3{fill:#fff;}.cls-4{fill:#78c2ea;}.cls-5{stroke:#000;stroke-linecap:round;stroke-linejoin:round;}</style></defs><g id="レイヤー_2" data-name="レイヤー 2"><g id="レイヤー_1-2" data-name="レイヤー 1"><path class="cls-1" d="M66.24,193.85s71.65-22.06,82.61-31.58,12.39-8.52,12.39-8.52,5.88,3.23,11.19,12.33S189,204.93,189,204.93s5.14,11.25-13.61,12.94-53.06,34.74-53.06,34.74S77.18,239.54,75.12,228.7,66.24,193.85,66.24,193.85Z"/><path class="cls-1" d="M6.89,178.07A10.05,10.05,0,0,1,17,170.15c9.84.29,25.13.6,25.68-.28.82-1.3-.86-8.44-.86-8.44s24.13-4.23,26,9-6.53,51.72,22.68,63.08,24.25,11.38,46.25,16.55,29.57,15.81,40.91,32.24c0,0,7,7.05,11.28,8S70.3,378.25,20.15,307.75C20.15,307.75-10.22,256.58,6.89,178.07Z"/><path class="cls-1" d="M2.24,42.52C3,39.82,9.35,9,43.81,4.12s60.74-7.21,70.91,3.38c9.9,10.31-11,25.75-12.23,25.5S80.09,47.72,54.68,49.22c0,0-28.58,45.22-39.56,31.5C14.74,80.25-6.88,73.42,2.24,42.52Z"/><path class="cls-1" d="M208.62,285.5s1.5-33.5,20.87-32.88,55.5,13,54.75,25.63-3.87,29.37-15.87,23.5-38-11.13-50.19-10.75S208.62,285.5,208.62,285.5Z"/><path d="M216,257.28c-7-3.34-14-6.6-20.95-10-8.76-4.24-17.51-8.5-26.8-11.51a100.64,100.64,0,0,0-18-3.74,1.33,1.33,0,0,0-.84.25q-10.83,7.26-21.65,14.55c-.07,0-.1.17-.25.42,2.73.62,5.4,1.21,8.07,1.83s5.06,1.22,7.59,1.84A44,44,0,0,1,166,264.48c3.72,4.13,7,8.61,10.52,13,1.61,2,3.05,4.22,4.7,6.23a17.32,17.32,0,0,0,7.46,5.5c.76.28,1.45.73.94,1.56-.2.33-1.19.44-1.69.26a16.82,16.82,0,0,1-7.25-5c-1.91-2.19-3.65-4.54-5.41-6.86-2.09-2.73-4.07-5.54-6.17-8.25-7.95-10.24-18.1-16.92-31-19.19-19-3.34-36.35-11.12-53.31-19.92-.46-.24-1-1.1-.93-1.44.38-1,1.23-.59,2-.25,7.87,3.7,15.67,7.53,23.62,11,4.42,1.94,9.1,3.27,13.64,4.95a3,3,0,0,0,3.09-.48c6.63-4.51,13.33-8.9,20-13.38,2.37-1.6,4.78-3.17,7-5a50.51,50.51,0,0,1,21-10,96.81,96.81,0,0,0,11.34-3.43c3.61-1.34,4.4-4,2.85-7.2-2.47,1.27-4.88,2.68-7.43,3.77a140.53,140.53,0,0,1-22.54,7.32c-.26.06-.56.23-.76.15a12.05,12.05,0,0,1-1.46-.78c.34-.38.62-1,1-1.1,3-.87,6.07-1.5,9-2.5,5.27-1.77,10.53-3.61,15.69-5.7,2-.8,3.61-2.36,5.37-3.62a1,1,0,0,0,.29-.88c-.78-2.57-1.61-5.12-2.48-7.86l-1.63,1.08a62.74,62.74,0,0,1-29.44,10.35c-.86.08-2.32.74-2.45-.74s1.46-1.17,2.38-1.25a61.07,61.07,0,0,0,29.06-10.48c.31-.2.6-.42.89-.64a4,4,0,0,0,.34-.41c-1.41-3.17-2.87-6.42-4.39-9.83a11.07,11.07,0,0,0-1,.68c-6.57,5.76-14.38,9.07-22.67,11.46-1.65.47-3.28,1-4.93,1.48-.73.21-1.69.62-1.87-.52-.07-.39.72-1.18,1.26-1.36,3.74-1.26,7.55-2.34,11.29-3.62a47,47,0,0,0,16.83-10.06c-1.79-3.51-3.57-7-5.41-10.57-.52.35-1,.65-1.44,1a78.58,78.58,0,0,1-26.11,12,2.69,2.69,0,0,1-1.21.22,1.76,1.76,0,0,1-1.06-.83c-.09-.21.34-.86.66-1a19.35,19.35,0,0,1,2.4-.67,77.44,77.44,0,0,0,24.7-11.72c.34-.24.65-.5,1.17-.9-1.52-3-3-6-4.67-9.17-.66.46-1.1.79-1.55,1.09q-10.56,7-21.13,13.91a3.14,3.14,0,0,1-1.23.63,1.47,1.47,0,0,1-1.13-.51,1.19,1.19,0,0,1,.2-1.08,5.92,5.92,0,0,1,1.29-.86l22.14-14.27c-2.13-3.86-5.73-5-8.59-2.79-14.05,11-30,18.22-46.73,24-13.4,4.68-26.9,9.1-40.79,13.78.75,4.26,1.42,9,2.46,13.74a55.59,55.59,0,0,0,9,20.75c.28.38.14,1.07.19,1.62-.62-.18-1.49-.17-1.81-.58a51.7,51.7,0,0,1-7.57-14.8,95.91,95.91,0,0,1-4.39-23.73c-.48-6.44-.8-12.89-1.23-19.33a8.63,8.63,0,0,0-6.23-8.13,31.84,31.84,0,0,0-16.79-1,1.46,1.46,0,0,0-.82,1.13c0,1.55.25,3.1.44,5.09,1.17-.82,2.17-1.41,3-2.16.6-.5,1.18-1.16,1.79-.39.26.31,0,1.34-.37,1.78a16.14,16.14,0,0,1-2.24,1.92c4.63,6.21,5.86,13.68,7,21,1.49,9.77,2.41,19.63,3.53,29.45,1.3,11.46,3.17,22.78,7.9,33.44a2,2,0,0,1-.27,1.82c-.93.63-1.2-.36-1.49-1a85.66,85.66,0,0,1-6.72-24.13c-1.32-10-2.31-20.06-3.49-30.08a109,109,0,0,0-4.35-21.7,57.82,57.82,0,0,0-3.33-7c-.2-.4-.42-.8-.46-.88-4.38.21-8.58.54-12.78.58-5.31.05-10.62-.15-15.94-.23-.8,0-1.61-.19-1.43-1.14.07-.35,1-.78,1.53-.78,7.4,0,14.79,0,22.19,0,1.28,0,2.57-.21,3.93-.33-.21-2.2-.44-4.25-.59-6.31A103.76,103.76,0,0,1,43,134.67c1.36-6.88,3-13.71,4.58-20.56.06-.25.06-.57.22-.74.37-.4.81-.73,1.22-1.1.23.54.75,1.13.65,1.59-.93,4.22-2,8.4-2.94,12.61-.85,3.86-1.57,7.75-2.33,11.63-.11.55-.12,1.11-.23,2.14,3.31-.67,6.45-1.09,9.47-1.93A43,43,0,0,0,72.7,126.85c.4-.41.82-.8,1.18-1.24,9.93-12.19,19.91-24.35,28.46-37.59,5.82-9,8.8-19,9.9-29.62.82-7.86,1.55-15.75,2.88-23.54.72-4.19,2.61-8.18,4-12.25.23-.67.59-1.66,1.65-1.11s.48,1.32.12,2c-3.27,6.42-4.53,13.36-5.31,20.43-.14,1.28-.25,2.57-.4,4.16l1.7-.76c17.51-7.79,35.05-7.57,52.56-.08,5.34,2.28,9.51,5.79,11,11.73.23.91.4,1.83.62,2.85,1.83.11,3.69.18,5.54.36,12.71,1.23,20.08,10.54,18.56,23.31a52,52,0,0,1-6,18.13c-3.25,6.18-8.38,10.11-14.91,12.32q-3.39,1.16-6.86,2.11c-.82.22-1.2.51-1.3,1.41-.2,1.81-.52,3.6-.87,5.39a9.08,9.08,0,0,1-5.13,6.67,41.15,41.15,0,0,1-12.71,3.63,104.54,104.54,0,0,1-19.91,1.41,39,39,0,0,1-14.42-3.1c-1.47-.66-2.86-1.48-4.27-2.28a13.38,13.38,0,0,1-7-10.29c-1.26-9.06-2.54-18.13-3.73-27.21-.42-3.19-.61-6.41-.93-9.83a4.49,4.49,0,0,0-.5.55A135.14,135.14,0,0,1,93.85,103.6c-4.84,6.26-9.66,12.54-14.55,18.77-4.54,5.78-9.71,10.86-16.29,14.35a44.68,44.68,0,0,1-17.86,5.18c-1,.07-1.45.36-1.51,1.43-.26,5.14-.58,10.28-.87,15.42a14,14,0,0,0,.07,1.48c2.8-.17,5.49-.53,8.17-.44a41,41,0,0,1,8.19,1c6.7,1.61,9.39,5,9.8,11.88q.5,8.41,1,16.84c0,.51.11,1,.2,1.74,3.21-.95,6.29-1.83,9.35-2.77a459.66,459.66,0,0,0,49.78-17.89A130.88,130.88,0,0,0,155.62,155c1.55-1.16,3.08-2.32,5.15-2.39.28,0,.61-.33.81-.59,3.39-4.15,6.81-8.29,10.13-12.5a16.87,16.87,0,0,1,7.57-5.53c11.21-4.2,22.37-8.52,33.56-12.77,1.76-.67,3.55-1.39,5.5.06,1.44-3.54,2.84-6.93,4.21-10.34,2.72-6.75,5.39-13.53,8.14-20.27a19.11,19.11,0,0,1,2.24-4.09c3.22-4.34,7.71-5.54,12.78-4.48,6.21,1.3,12.37,2.87,18.55,4.29,4,.93,8,1.77,12,2.72a18.3,18.3,0,0,1,4,1.38c4.14,2.09,5.51,5.36,4,9.74-2,5.64-4.07,11.24-6.16,16.85q-4.24,11.4-8.58,22.77a2.22,2.22,0,0,0,.29,2.4c1.5,2.1,1.42,4.37.13,6.72,2.93.59,5.77,1.1,8.59,1.72A64.1,64.1,0,0,1,295.58,157a44.92,44.92,0,0,1,13.71,11.43,2.37,2.37,0,0,0,1.76.77c23-1.85,43.6,4.21,62,18,.55.41,1.64.8.84,1.78s-1.48.22-2.15-.28c-17-12.9-36.27-18.67-57.58-17.74a4.92,4.92,0,0,0-4.44,2.42,100.64,100.64,0,0,1-9.62,12.07c-9.53,10.27-19.27,20.34-28.93,30.49-.39.41-.77.84-.88.95,1,3.09,2,5.91,2.89,8.77a6.23,6.23,0,0,0,4,4.44c.88.3,1.73.71,2.58,1.09a6.84,6.84,0,0,1,4,4.68,16.6,16.6,0,0,1,.47,1.81,7.16,7.16,0,0,0,4.33,5.51c4.05,2,5.31,4.72,4.09,9.09a54.66,54.66,0,0,1-2.8,7.26c-1.63,3.71-3.39,7.37-5.09,11.06a1.62,1.62,0,0,0,0,.39c3.54,1.34,7.14,2.66,10.71,4.06A312.74,312.74,0,0,1,339,296.26a3.85,3.85,0,0,1,1.15.79,1.15,1.15,0,0,1,.14,1.09,1.51,1.51,0,0,1-1.15.45A2.88,2.88,0,0,1,338,298a312.37,312.37,0,0,0-52.4-24.51c-.58-.21-1.13-.5-1.78-.8a29.46,29.46,0,0,0,1,3.59c.16.4.88.64,1.39.81a181.35,181.35,0,0,1,29.63,13.21c.36.21.84.34,1.05.65s.46,1,.29,1.28-.85.39-1.28.35a3.19,3.19,0,0,1-1.1-.56,177,177,0,0,0-28.32-12.69l-1.48-.49c-.61,3.59-1.23,7.11-1.78,10.64-.12.76-.16,1.63-1.15,1.4-.37-.09-.84-1-.77-1.53.36-2.72.82-5.45,1.36-8.15,1-4.89-.64-8.79-4.46-11.84a22.75,22.75,0,0,0-3.35-2.28c-10.34-5.48-21-10.16-32.62-12.2a49.33,49.33,0,0,0-18.17.06,10.23,10.23,0,0,0-8.15,6.86,125,125,0,0,0-6.89,24.6c-.09.5-.71.91-1.08,1.36-.29-.52-.89-1.1-.81-1.56a103.6,103.6,0,0,1,7.68-26.77C215.19,258.71,215.64,258,216,257.28ZM143.5,134.72c3.31-.38,9.13-.84,14.88-1.78a61.72,61.72,0,0,0,10.16-2.87,7.49,7.49,0,0,0,5-6.33c.56-3.44,1.17-6.88,1.52-10.34,1.28-12.43,2.53-24.86,3.62-37.3a110.65,110.65,0,0,0,.43-13.38,13.88,13.88,0,0,0-7-11.84,29.1,29.1,0,0,0-4.28-2.25c-16.36-6.56-32.73-6.86-49.06.13-3.75,1.6-3.69,1.63-4,5.71-.69,8.11-1.78,16.15-5,23.72a6.58,6.58,0,0,0-.59,3.55c1.52,12.34,3,24.69,4.37,37.05.62,5.65,3.5,9.39,8.5,11.89C128,133.7,134.35,134.72,143.5,134.72Zm91.6-40c-10.69,27.4-21.32,54.67-32,82.18l38,10.51c.4-5,.83-9.66,1.14-14.33.41-6.08,2.53-11.64,5-17.08,1.12-2.43,3.34-2.84,5.6-1.45,1.42.86,2.81,1.64,3.27,3.91,6.68-18.42,13.18-36.32,19.67-54.22ZM221.63,253.49l2.18-.45a49,49,0,0,1,15.24-.61c8.94,1,17.33,3.88,25.52,7.45a97.7,97.7,0,0,1,9.3,4.42c3.06,1.75,5.89,3.92,8.86,5.93,2-4.41,4.27-9.11,6.41-13.84a26.39,26.39,0,0,0,1.59-4.55c.88-3.5.12-5.36-3.1-6.89-3-1.42-4.81-3.52-5.26-6.81a6.45,6.45,0,0,0-5-5.76c-3.68-1-5.51-3.56-6.4-7.14a23.75,23.75,0,0,0-2.32-5.92c-2.05-3.61-3.41-3.83-7.1-1.93a18.07,18.07,0,0,1-4.08,1.41c-1.09.25-1.78-.3-2.15-1.48A40.16,40.16,0,0,1,254,202.49c.48-7.38,1-14.75,1.36-22.13.2-4.6,0-9.22,0-13.89a6.56,6.56,0,0,1-6.85-.83,1.94,1.94,0,0,1-.64-1.74c.47-.86,1.13-.23,1.81.1a35.23,35.23,0,0,0,3.85,1.39c.07-3.11.26-5.74-1.05-8.11a2.93,2.93,0,0,0-2-1.4c-.55,0-1.33.88-1.66,1.55a34.69,34.69,0,0,0-1.27,3.68c-.84,2.37-2.18,4.68-2.47,7.11-.94,7.9-1.76,15.83-2.15,23.77a60.67,60.67,0,0,1-6.29,25.08c-3,5.87-6.2,11.65-9.25,17.51A55,55,0,0,0,221.63,253.49Zm2.23-54.23c-.54-.19-.92-.34-1.31-.45L199.82,192a6.73,6.73,0,0,1-4.61-9.06q5.65-15.79,11.32-31.58c1.55-4.34,3.14-8.67,4.68-12.92-2.74,1.25-5.47,2.45-8.15,3.76a7,7,0,0,0-2.1,1.59,8.63,8.63,0,0,1-5.08,2.82c-2.22.4-2.7,1-3,3.31a7.1,7.1,0,0,1-.61,2.23,1.3,1.3,0,0,1-1.22.44c-.31-.14-.52-.8-.51-1.23a15,15,0,0,1,.48-1.63c.69-3.74,1.28-4.3,4.93-5.24a6.28,6.28,0,0,0,3-1.53,13.26,13.26,0,0,1,5.58-3.57,21.55,21.55,0,0,0,11.39-9.31A12.35,12.35,0,0,0,217.5,125c.27-2.23-.91-3-3-2.16L179.61,136a13,13,0,0,0-5.7,4c-3.49,4.27-6.95,8.58-10.41,12.88-.08.11-.06.29-.09.42,3.92,2.63,5.79,4.76,8.17,9.46,1.85,3.66,3.57,7.4,5.45,11.05,5.92,11.48,11.69,23,14,35.86a49.69,49.69,0,0,1,6.53-1.45,56.64,56.64,0,0,0,22.36-6.9c1-.53,2-.94,3-1.43C223.15,199.73,223.44,199.52,223.86,199.26Zm44.65,16.49c.28-.25.48-.41.65-.59,10.37-10.92,20.79-21.78,31-32.79,2.9-3.1,5.31-6.67,8-10a1.41,1.41,0,0,0-.11-2.15c-2.45-2.48-4.64-5.27-7.35-7.4-9.44-7.42-20.68-10.25-32.29-11.81a4.81,4.81,0,0,0-3.57,1.64c-.91,1.07-1.13,2.72-1.68,4.2,1.07-.05,2-.15,2.92-.14,3,.05,4.54,1.42,4.77,4.42a6,6,0,0,1-3.55,6.09c-2.72,1.41-5.52,2.68-8.29,4-1.86.89-2.32,4.54-.73,5.93a3.89,3.89,0,0,1-.09,6.21,2.78,2.78,0,0,0-.91,1.73c-.26,2.85-.42,5.71-.56,8.56-.27,5.51-.64,11-.68,16.52,0,2.23.71,4.46,1.16,7.06,1.5-.71,2.65-1.17,3.71-1.77C263.52,214,266.06,213.35,268.51,215.75Zm-28.71-13c-2.58-.34-4.84-.54-7.05-1-1.53-.29-3-1-4.5-1.29a4,4,0,0,0-2.33.19c-3.46,1.56-6.89,3.21-10.3,4.88a44.16,44.16,0,0,1-13.57,4c-3.58.5-7.09,1.53-10.62,2.37a4.36,4.36,0,0,0-1.3.8c-1.5,1.06-2.84,2.52-4.5,3.15a105.46,105.46,0,0,1-10.74,3.26c-5.83,1.51-11.53,3.25-16.51,6.78-.31.22-.59.48-1.12.91a115.1,115.1,0,0,1,63,22.76c1.42-8.21,5-15.24,8.72-22.24,3.27-6.09,6.13-12.39,9-18.66A44.13,44.13,0,0,0,239.8,202.74Zm1.31-13.28c-4.42-1.2-8.6-2.32-12.76-3.47-8.37-2.32-16.75-4.64-25.12-7-2.39-.67-2.61-1.21-1.75-3.47q2.46-6.5,5-13Q219.79,128.26,233.11,94c.37-1,.88-1.36,1.84-1.24a18.93,18.93,0,0,1,2,.32q14.61,3.39,29.21,6.79c3.6.83,7.22,1.57,10.83,2.36,1,.21,1.93.41,1.39,1.81-2.79,7.29-5.63,14.56-8.32,21.88-3.8,10.36-7.46,20.76-11.25,31.13-.46,1.26-1.66,2.33-1.83,3.59-.21,1.54.31,3.17.56,5.19.3-.71.43-1,.54-1.28q10.69-28.5,21.38-57c1-2.68,2-5.36,2.9-8.08,1.06-3.19.15-5.51-2.83-7A18.36,18.36,0,0,0,275.42,91c-5-1.17-9.95-2.25-14.92-3.39-5.23-1.19-10.41-2.57-15.67-3.6s-9.26,1.12-11.65,6c-.39.79-.73,1.61-1.06,2.43l-12.24,30.42a3.11,3.11,0,0,0-.38,1.32c.36,3.92-1.57,6.89-3.91,9.72a5.1,5.1,0,0,0-.93,1.4q-8.83,24.27-17.62,48.57a4.66,4.66,0,0,0,3.4,6.27c1,.27,2,.53,3,.83,9.93,3,19.84,6,29.78,8.89a13.68,13.68,0,0,0,4.75.57,3,3,0,0,0,2.25-1.65C240.71,195.72,240.84,192.65,241.11,189.46Zm-63-82.36c.56-.2,1.15-.36,1.7-.6a24.81,24.81,0,0,0,14.67-16.93,17.85,17.85,0,0,0-.94-13.08A9.61,9.61,0,0,0,183.7,71l-2.56.32C180.12,83.18,179.11,95.07,178.08,107.1Zm-1.26,9.05c1.05-.28,2-.55,2.94-.78,10-2.38,16.8-8.23,20.27-18,2-5.58,3.71-11.14,3.17-17.18a18,18,0,0,0-21.88-16v5.24a11.56,11.56,0,0,1,14.4,7,18.41,18.41,0,0,1,1.42,6.33c.09,11.25-5.13,19.43-14.94,24.77-1.54.84-3.72,1.21-4.54,2.48s-.65,3.61-.89,5.47C176.76,115.66,176.79,115.76,176.82,116.15ZM152.38,230.33c2,.31,3.78.55,5.52.85C168.29,233,178,237,187.44,241.41q14.49,6.79,29,13.59a2.39,2.39,0,0,0,3.07-.85,2.43,2.43,0,0,0-.81-3.2,112.79,112.79,0,0,0-62.29-22.24A5,5,0,0,0,152.38,230.33Zm106.13-61.09c2.8-1.33,5.27-2.41,7.66-3.65,2.12-1.1,3-2.72,2.65-4.65-.21-1.32-.85-2.27-2.35-2.16-1.22.09-2.45.28-3.66.49a1.16,1.16,0,0,0-.77.59C260.88,162.85,259.77,165.85,258.51,169.24Zm9.68-25.8c-.81,2.17-1.48,3.95-2.2,5.86C268.6,148.44,269.45,146.36,268.19,143.44Z"/><path d="M363.3,273.41c-1.43,1-1.73-.12-2.17-1-5.11-10.35-9.82-20.92-15.47-31-4.28-7.63-7.66-15.62-11.21-23.54-1.74-3.87-2.4-8.24-3.44-12.41a2.91,2.91,0,0,1,1.26-3.43,3.44,3.44,0,0,1,4,.18,19,19,0,0,1,2.47,2.36c2,2.09,4,4.18,5.89,6.33a8.28,8.28,0,0,1,.88,1.79q4.62,8.58,9.25,17.15c.47.87,1.16,1.62,1.57,2.51a8.55,8.55,0,0,1,.4,2.13,4.41,4.41,0,0,0,.26,1.28c4.88,9.12,9.81,18.22,14.68,27.34,1,1.84,2.35,3.65,1.27,6-.12.25.24.76.43,1.11,1.05,2,2.13,3.93,3.18,5.91,1.21,2.27.77,4-1.49,5.24a26.82,26.82,0,0,1-4,1.73c-1.4.49-2.38-.12-3.08-1.39C366.48,279,365,276.34,363.3,273.41Zm7.95-6.51c-.41-.89-.67-1.56-1-2.19L355,236.41c-1.35-2.49-4.21-2.66-5.89-.33a20.24,20.24,0,0,1-1.31,2.11c-.81.86-.57,1.55-.11,2.47q7,14,13.94,28.08c.22.45.45.89.71,1.43C364.69,266.33,366.42,265.68,371.25,266.9Zm-17.52-34.2.21-.37c-3.49-6.37-7-12.75-10.51-19.09a1.69,1.69,0,0,0-1.39-.59,8.16,8.16,0,0,0-5.27,2.76,1.87,1.87,0,0,0-.34,2.35c2.42,5.18,4.76,10.41,7.13,15.61.64,1.41,1.29,2.81,2.11,4.57C347.41,234.46,349.33,231.58,353.73,232.7Zm16,47.63,0,.52c.33.08.71.33,1,.23a34,34,0,0,0,3.69-1.66c1-.51,1-1.35.48-2.27-1.34-2.41-2.68-4.81-4-7.25a3,3,0,0,0-3.1-1.64,3.4,3.4,0,0,0-3.12,2,1.89,1.89,0,0,0,0,1.42c1.38,2.55,2.83,5.06,4.36,7.74.7-1.85,1.89-2.83,3.73-2.69a1.52,1.52,0,0,1,1,.75,1.1,1.1,0,0,1-.36,1C372.23,279.18,371,279.74,369.72,280.33Zm-28.79-69.94c-1.52-1.83-3.06-3.73-4.64-5.58a3.44,3.44,0,0,0-1.35-1,2.07,2.07,0,0,0-1.57,0,1.53,1.53,0,0,0-.39,1.37c.7,2.86,1.5,5.69,2.24,8.41Z"/><path d="M45.77,45.77a19.61,19.61,0,0,0,8.63,1.3c10.69-.52,20.81-3.48,30.64-7.48a105.66,105.66,0,0,0,27.25-16.28c.32-.26.62-.66,1-.73a1.71,1.71,0,0,1,1.34.21c.2.2.06.95-.17,1.28a6.08,6.08,0,0,1-1.29,1.12A110,110,0,0,1,59.61,48.68c-4.29.65-8.8,1.21-12.81-.56-4.62-2-9.51-2.29-14.24-3.47-3.54-.88-6.89-2.55-10.31-3.91-.76-.31-1.52-.89-.83-1.74.23-.3,1.33-.22,1.83.06a36.84,36.84,0,0,0,16.38,4.67c10.08.53,19.6-2,28.89-5.58A143.86,143.86,0,0,0,103.11,19a2.78,2.78,0,0,1,.89-.61c.4-.1,1.11-.11,1.2.08a2.17,2.17,0,0,1,0,1.38c-.07.25-.44.42-.69.61C90,31.19,74.35,39.51,56.77,43.94c-1.77.45-3.56.79-5.36,1.09S47.93,45.49,45.77,45.77Z"/><path d="M76.89,48.86c-4.94,1.15-10,2.29-15,3.5a7.5,7.5,0,0,0-5,3.91c-1.38,2.67-2.63,5.42-3.92,8.14-.34.73-.58,1.6-1.62,1.2s-.56-1.23-.28-1.86c1.13-2.51,2.24-5,3.48-7.49a11.18,11.18,0,0,1,7.84-6.15c5.74-1.28,11.49-2.51,17.23-3.79a9.76,9.76,0,0,0,1.84-.69,44.58,44.58,0,0,1,6.21-2.79,8.65,8.65,0,0,1,8.38,2.27,6,6,0,0,1,.5,9,23,23,0,0,1-5,3.72A48.54,48.54,0,0,0,80,67c-5.19,5.76-7.43,12.77-8.74,20.2-.71,4-1.43,8.1-2.21,12.13-.4,2.06-.82,4.29-3.24,4.9s-4.07-.92-5.51-2.54c-2.75-3.1-3.24-6.91-2.91-10.84.24-2.8,1-5.56,1.1-8.35.12-2.45-.31-4.93-.42-7.41a4.91,4.91,0,0,1,.45-1.51c.48.29,1.22.49,1.38.9,1.09,2.86.93,5.83.58,8.79s-1,6.18-1.08,9.29a20.15,20.15,0,0,0,1,5.48,6.05,6.05,0,0,0,1.25,2.14c.93,1.14,2.06,2.32,3.65,2S66.77,100.21,67,99c1.08-5.51,2-11,3.19-16.55C72.66,70.63,79.7,62.31,90,56.47a27.35,27.35,0,0,0,4.3-2.8c3-2.52,2.55-6-.79-8a7.72,7.72,0,0,0-7.91-.11,48.63,48.63,0,0,0-5.71,3.78C78.26,50.55,78.12,50.59,76.89,48.86Z"/><path d="M13.41,190.73a3.85,3.85,0,0,1,0-1.39,5.91,5.91,0,0,1,.87-1.34c.35.43,1,.83,1,1.3.29,2.59.44,5.19.63,7.78,1.38,18.95,3,37.89,6.94,56.52A92.71,92.71,0,0,0,26.88,267a21,21,0,0,0,8,9.94,1.81,1.81,0,0,1,.68,1.55c-.41,1-1.16.48-1.8.06A25.22,25.22,0,0,1,25,267.8c-2.67-5.71-3.89-11.84-5-18a433.53,433.53,0,0,1-5.68-47.25c-.29-3.95-.61-7.89-.91-11.84Z"/><path d="M28.18,172.62a11.22,11.22,0,0,1,.92,1.29A43.13,43.13,0,0,1,34,189.78c.69,7.39,1,14.83,1.3,22.25.28,7.75.28,15.5,1.86,23.14a48.34,48.34,0,0,0,4.6,13c.25.48,0,1.24-.08,1.87-.55-.3-1.35-.47-1.61-.93a48.55,48.55,0,0,1-5.94-20.83c-.54-8.14-.68-16.31-.94-24.48-.24-7.6-.76-15.18-3.17-22.46-.78-2.36-1.87-4.62-2.84-6.91C26.71,173.44,27,172.59,28.18,172.62Z"/><path d="M41.86,63.26A58.45,58.45,0,0,1,23,57.62a56.59,56.59,0,0,1-16.23-12c-.29-.3-.7-.58-.81-.94a1.68,1.68,0,0,1,.1-1.34c.21-.22.91-.13,1.31,0s.58.57.87.87A55.27,55.27,0,0,0,40.77,61.09c.31,0,.7,0,.91.18a10,10,0,0,1,1.1,1.23Z"/><path d="M29.75,36.53l-.94-1.05c.44-.34.83-.86,1.33-1,5.72-1.53,11.6-2.62,17.15-4.61,6.2-2.21,12.11-5.23,18.15-7.9.19-.08.36-.29.54-.28.55,0,1.09.12,1.64.19-.24.53-.34,1.34-.74,1.55-3.51,1.81-7,3.64-10.64,5.23a114.66,114.66,0,0,1-24.71,7.58C31.07,36.33,30.61,36.39,29.75,36.53Z"/><path d="M33,74c-2.26-.6-4.47-1-6.56-1.76A32.33,32.33,0,0,1,6.72,53.43a2.67,2.67,0,0,1-.36-1c0-.4.22-1.06.45-1.11a1.82,1.82,0,0,1,1.3.36c.26.17.3.64.45,1,4.5,10.57,12.35,17,23.68,19.07.36.07.82,0,1,.26a1.92,1.92,0,0,1,.65,1.22C33.93,73.44,33.34,73.7,33,74Z"/><path d="M2,62.63c.25.38.72.76.72,1.14.06,6.47,3.94,10.47,8.88,13.77,1.37.92,2.91,1.6,4.3,2.51.44.29.63,1,.94,1.46-.59.11-1.3.5-1.73.3a30,30,0,0,1-11-8.27A14.5,14.5,0,0,1,.8,64.35a5.53,5.53,0,0,1,.64-1.73Z"/><path class="cls-2" d="M235.1,94.71l40.7,9.52c-6.49,17.9-13,35.8-19.67,54.22-.46-2.27-1.85-3-3.27-3.91-2.26-1.39-4.48-1-5.6,1.45-2.51,5.44-4.63,11-5,17.08-.31,4.67-.74,9.33-1.14,14.33l-38-10.51C213.78,149.38,224.41,122.11,235.1,94.71Z"/><path class="cls-3" d="M241.11,189.46c-.27,3.19-.4,6.26-.88,9.28a3,3,0,0,1-2.25,1.65,13.68,13.68,0,0,1-4.75-.57c-9.94-2.91-19.85-5.92-29.78-8.89-1-.3-2-.56-3-.83a4.66,4.66,0,0,1-3.4-6.27q8.76-24.3,17.62-48.57a5.1,5.1,0,0,1,.93-1.4c2.34-2.83,4.27-5.8,3.91-9.72a3.11,3.11,0,0,1,.38-1.32L232.12,92.4c.33-.82.67-1.64,1.06-2.43,2.39-4.84,6.34-7,11.65-6s10.44,2.41,15.67,3.6c5,1.14,10,2.22,14.92,3.39a18.36,18.36,0,0,1,4.11,1.43c3,1.54,3.89,3.86,2.83,7-.9,2.72-1.9,5.4-2.9,8.08q-10.68,28.5-21.38,57c-.11.29-.24.57-.54,1.28-.25-2-.77-3.65-.56-5.19.17-1.26,1.37-2.33,1.83-3.59,3.79-10.37,7.45-20.77,11.25-31.13,2.69-7.32,5.53-14.59,8.32-21.88.54-1.4-.43-1.6-1.39-1.81-3.61-.79-7.23-1.53-10.83-2.36Q251.55,96.51,237,93.09a18.93,18.93,0,0,0-2-.32c-1-.12-1.47.28-1.84,1.24q-13.29,34.27-26.64,68.53-2.52,6.47-5,13c-.86,2.26-.64,2.8,1.75,3.47,8.37,2.38,16.75,4.7,25.12,7C232.51,187.14,236.69,188.26,241.11,189.46ZM253.6,88.89c-.41.38-1,.66-1,1a1.38,1.38,0,0,0,.7,1.13c2.77.86,5.56,1.66,8.36,2.38a1.33,1.33,0,0,0,1.19-.58,1.31,1.31,0,0,0-.51-1.21C259.48,90.67,256.6,89.81,253.6,88.89Zm-33,105,1.21-1c-.46-.37-.87-1-1.39-1.06-2-.45-2.51-1.68-1.33-3.51.25-.39.08-1.06.11-1.6-.54.1-1.23,0-1.59.33a3.78,3.78,0,0,0-1,4.27C217.31,192.81,218.52,193.6,220.63,193.85Z"/><path class="cls-3" d="M178.08,107.1c1-12,2-23.92,3.06-35.8L183.7,71a9.61,9.61,0,0,1,9.81,5.51,17.85,17.85,0,0,1,.94,13.08,24.81,24.81,0,0,1-14.67,16.93C179.23,106.74,178.64,106.9,178.08,107.1Z"/><path class="cls-4" d="M353.73,232.7c-4.4-1.12-6.32,1.76-8.06,5.24-.82-1.76-1.47-3.16-2.11-4.57-2.37-5.2-4.71-10.43-7.13-15.61a1.87,1.87,0,0,1,.34-2.35,8.16,8.16,0,0,1,5.27-2.76,1.69,1.69,0,0,1,1.39.59c3.54,6.34,7,12.72,10.51,19.09Z"/><path d="M143,74.42a58,58,0,0,1-24.9-5.4,4.39,4.39,0,0,1-1.23-.66c-.25-.24-.5-.8-.38-1a1.48,1.48,0,0,1,1.06-.67,3.2,3.2,0,0,1,1.28.48,53.93,53.93,0,0,0,42.77,1.64,30.09,30.09,0,0,0,7.15-4,8.61,8.61,0,0,0,3.58-7.44c0-.46.52-.93.8-1.39.4.44,1.11.86,1.14,1.33a9.81,9.81,0,0,1-1.85,6.31,17,17,0,0,1-6.75,5.64A53.83,53.83,0,0,1,143,74.42Z"/><path d="M253.6,88.89c3,.92,5.88,1.78,8.72,2.73a1.31,1.31,0,0,1,.51,1.21,1.33,1.33,0,0,1-1.19.58c-2.8-.72-5.59-1.52-8.36-2.38a1.38,1.38,0,0,1-.7-1.13C252.61,89.55,253.19,89.27,253.6,88.89Z"/><path d="M220.63,193.85c-2.11-.25-3.32-1-3.95-2.58a3.78,3.78,0,0,1,1-4.27c.36-.31,1.05-.23,1.59-.33,0,.54.14,1.21-.11,1.6-1.18,1.83-.71,3.06,1.33,3.51.52.11.93.69,1.39,1.06Z"/><path class="cls-4" d="M250.09,155.68s-3.35,1.54-1.9,8.07a.45.45,0,0,0,.3.33l4.66,1.36a.42.42,0,0,0,.55-.37C253.86,163,254.19,155.5,250.09,155.68Z"/><path class="cls-5" d="M271.75,264.83s-4.6,18.19-6.94,19.69Z"/><path class="cls-5" d="M261.48,260.23S255.27,281.16,254,282Z"/><path class="cls-5" d="M250.47,255.65s-7.65,18.93-7.39,23.7Z"/><path class="cls-5" d="M238.8,253.33s-4.61,12.36-4.22,16.71Z"/></g></g></svg>