<svg xmlns="http://www.w3.org/2000/svg" width="82.063" height="75.505" viewBox="0 0 82.063 75.505">
  <g id="猫の無料アイコン5" transform="translate(82.063 75.505) rotate(180)">
    <path id="パス_19" data-name="パス 19" d="M80.829,47.435c-1.7,1.02-4.762,6.974-5.443,7.654S70.792,57.3,70.792,57.3l-2.211,6.974c-4.254-.51-6.8-7.314-6.974-7.825,0,0-.427-11.823-19.309-7.23-13.533,3.292-21.673,6.476-28.509.058a9.054,9.054,0,0,0-.933,2.285,20.062,20.062,0,0,0-.466,5.018c0,.931.017,1.911.019,2.94a31.507,31.507,0,0,1-.648,7.055,21.521,21.521,0,0,1-3.53,7.853,2.552,2.552,0,0,1-4.161-2.955,16.4,16.4,0,0,0,2.714-6.019,26.673,26.673,0,0,0,.523-5.935c0-.966-.019-1.945-.019-2.94a24.845,24.845,0,0,1,.63-6.3A14.007,14.007,0,0,1,10.4,45.2,21.8,21.8,0,0,1,8.02,28.042L2.555,19.349a1.461,1.461,0,0,1-.2-.512L.023,6.006A1.446,1.446,0,0,1,.636,4.55L7.2.1a.578.578,0,0,1,.848.233L9.386,3.19a.583.583,0,0,1-.1.641L7.565,5.666a1.447,1.447,0,0,0-.334,1.395l2.859,9.782a1.455,1.455,0,0,0,.551.773l3.844,2.734a1.446,1.446,0,0,0,2.182-1.713l-1.7-4.261a1.444,1.444,0,0,1,.225-1.452L24.861,1.164h7.247a.579.579,0,0,1,.58.578V5.349a.58.58,0,0,1-.58.579H29.816a1.451,1.451,0,0,0-1.279.77l-3.924,6.579a1.446,1.446,0,0,0,.125,1.549l3.518,4.648a1.449,1.449,0,0,0,1.153.573h9.809a1.45,1.45,0,0,0,1.38-1.885L37.434,8.2a1.443,1.443,0,0,1,.029-.961l2.028-5.225h6.294V3.375L44.745,6.647a1.441,1.441,0,0,0,.021.938L49.009,19.1a1.448,1.448,0,0,0,1.358.947H54.7a1.446,1.446,0,0,0,1.042-.445L67.729,3.035H75.9c2.042,0,1.252,4.073-.68,4.254-3.659.34-8.335,10.546-10.377,14.119s3.953,14.633,8.505,15.139c4.593.51,6.974,2.383,7.655,4.935C82.36,43.012,82.531,46.414,80.829,47.435Z" transform="translate(0 0)" fill="#c3e3f7"/>
  </g>
</svg>
