<svg xmlns="http://www.w3.org/2000/svg" width="90.228" height="74.315" viewBox="0 0 90.228 74.315">
  <g id="コーヒーブレイクアイコン" transform="translate(0 -45.148)">
    <path id="パス_20" data-name="パス 20" d="M90.062,66.476a12.146,12.146,0,0,0-4.154-7.521,11.711,11.711,0,0,0-7.526-2.69,12.306,12.306,0,0,0-3.718.579c-2.254-7.8-14.014-11.7-33.7-11.7-22.6,0-34.76,5.138-34.075,15.414a66.241,66.241,0,0,0,6.76,24.018,27.941,27.941,0,0,0-5.621,2.731,20.054,20.054,0,0,0-5.22,4.74A13.757,13.757,0,0,0,.1,98.4,9.784,9.784,0,0,0,0,99.77a10.682,10.682,0,0,0,.871,4.16,16.5,16.5,0,0,0,4.968,6.249,38.5,38.5,0,0,0,14.095,6.682,82.556,82.556,0,0,0,21.648,2.6c12.816-.007,22.857-2.228,29.939-5.649a26.105,26.105,0,0,0,8.381-6.059,14.3,14.3,0,0,0,2.391-3.729,10.547,10.547,0,0,0,.881-4.154,9.2,9.2,0,0,0-.046-.935,13.463,13.463,0,0,0-2.54-6.545A21.758,21.758,0,0,0,72.1,85.649a30.109,30.109,0,0,0-3.635-1.422c.21-.415.418-.831.616-1.247A14.745,14.745,0,0,0,74.435,84a15.178,15.178,0,0,0,6.107-1.3,16.715,16.715,0,0,0,6.88-5.633,14.821,14.821,0,0,0,2.806-8.5A13.122,13.122,0,0,0,90.062,66.476Zm-49.1-14.138c13.431,0,24.316,2.763,24.316,6.166s-10.886,6.165-24.316,6.165S16.649,61.909,16.649,58.5,27.534,52.338,40.962,52.338ZM71.969,92.626a13.763,13.763,0,0,1,3.6,3.349,7.337,7.337,0,0,1,1.42,3.559,3.314,3.314,0,0,1,.017.339,4.327,4.327,0,0,1-.385,1.727,10.441,10.441,0,0,1-3.192,3.831,32.907,32.907,0,0,1-11.875,5.5A76.69,76.69,0,0,1,41.581,113.3c-12.15.007-21.357-2.153-27.281-5.057a19.88,19.88,0,0,1-6.384-4.583,8.162,8.162,0,0,1-1.366-2.124,4.541,4.541,0,0,1-.387-1.764,3.735,3.735,0,0,1,.036-.51,7.622,7.622,0,0,1,1.536-3.507,15.956,15.956,0,0,1,6.109-4.613A23.966,23.966,0,0,1,16.9,90.011a38.491,38.491,0,0,0,3.8,4.665A32.858,32.858,0,0,0,24.75,98.29c-1.338.784-2.109,1.664-2.109,2.6,0,3.262,9.2,5.908,20.548,5.908s20.547-2.646,20.547-5.908c0-1.473-1.887-2.816-4.986-3.851.8-.694,1.619-1.475,2.472-2.358a38.585,38.585,0,0,0,4.016-4.97A22.582,22.582,0,0,1,71.969,92.626Zm9.46-21.556a8.368,8.368,0,0,1-2.876,3.369,7.347,7.347,0,0,1-4.118,1.339,6.6,6.6,0,0,1-2.356-.462,70.307,70.307,0,0,0,2.08-8.191,6.089,6.089,0,0,1,1.872-1.937,4.426,4.426,0,0,1,2.352-.706,3.5,3.5,0,0,1,2.263.785,3.922,3.922,0,0,1,1.3,2.506,5.077,5.077,0,0,1,.061.785A6.062,6.062,0,0,1,81.429,71.07Z" transform="translate(0 0)" fill="#c3e3f7"/>
  </g>
</svg>
