<svg id="ドラムのアイコン1" xmlns="http://www.w3.org/2000/svg" width="67.55" height="86.267" viewBox="0 0 67.55 86.267">
  <path id="パス_4" data-name="パス 4" d="M55.542,281.347v19.2c0,5.272,4.018,10.017,10.429,13.335v-24.1A25.174,25.174,0,0,1,55.542,281.347Z" transform="translate(-55.542 -232.411)" fill="#c3e3f7"/>
  <path id="パス_5" data-name="パス 5" d="M144.445,367.706a50.825,50.825,0,0,0,15.747,3.02v-24.4a53.76,53.76,0,0,1-15.747-2.846Z" transform="translate(-129.277 -284.486)" fill="#c3e3f7"/>
  <path id="パス_6" data-name="パス 6" d="M266.2,370.754a51.186,51.186,0,0,0,16.4-3.046V343.479a54.125,54.125,0,0,1-16.4,2.868Z" transform="translate(-230.234 -284.487)" fill="#c3e3f7"/>
  <path id="パス_7" data-name="パス 7" d="M392.024,289.78v24.1c6.411-3.316,10.429-8.061,10.429-13.333v-19.2A25.163,25.163,0,0,1,392.024,289.78Z" transform="translate(-334.902 -232.411)" fill="#c3e3f7"/>
  <path id="パス_8" data-name="パス 8" d="M252.185,245.547a3.418,3.418,0,1,0,4.822-.332A3.417,3.417,0,0,0,252.185,245.547Z" transform="translate(-218.2 -203.054)" fill="#c3e3f7"/>
  <path id="パス_9" data-name="パス 9" d="M293.763,87l-4.753,6.71,1.5,1.31,6-5.627a71.625,71.625,0,0,0,5-5.186L314.24,69.605a2.081,2.081,0,0,0-.2-2.937l-.154-.135a2.083,2.083,0,0,0-2.937.2L298.22,81.341A71.952,71.952,0,0,0,293.763,87Z" transform="translate(-248.561 -55.336)" fill="#c3e3f7"/>
  <path id="パス_10" data-name="パス 10" d="M186.578,219.6a3.418,3.418,0,1,0,1.811,4.482A3.419,3.419,0,0,0,186.578,219.6Z" transform="translate(-160.448 -182.241)" fill="#c3e3f7"/>
  <path id="パス_11" data-name="パス 11" d="M272.794,123.908c-.358.844-.74,1.681-1.131,2.515a51.521,51.521,0,0,1,9.3,1.274c.306-.365.612-.729.924-1.087l2.422-2.78a51.742,51.742,0,0,0-10.662-1.931Z" transform="translate(-234.901 -101.299)" fill="#c3e3f7"/>
  <path id="パス_12" data-name="パス 12" d="M123.092,140.274c0-4.713-3.344-9.007-8.823-12.235l-3.112,3.43c.089.045.182.09.27.138,4.721,2.537,7.429,5.7,7.429,8.668s-2.708,6.132-7.429,8.671c-5.732,3.079-13.79,4.847-22.111,4.847s-16.378-1.768-22.109-4.847c-4.722-2.539-7.43-5.7-7.43-8.671s2.709-6.131,7.43-8.668a43.249,43.249,0,0,1,14.677-4.372c.541-1.634,1.142-3.262,1.8-4.86-15.972,1.442-28.144,8.905-28.144,17.9,0,10.027,15.122,18.156,33.775,18.156S123.092,150.3,123.092,140.274Z" transform="translate(-55.542 -101.129)" fill="#c3e3f7"/>
  <path id="パス_13" data-name="パス 13" d="M211.717,34.5l3.957-7.208a71.57,71.57,0,0,0,3.146-6.485l7.569-17.832a2.08,2.08,0,0,0-1.1-2.729L225.1.167a2.081,2.081,0,0,0-2.729,1.1L214.8,19.1a71.956,71.956,0,0,0-2.481,6.767l-2.437,7.854Z" transform="translate(-183.523 -0.001)" fill="#c3e3f7"/>
</svg>
