<svg xmlns="http://www.w3.org/2000/svg" width="98.782" height="64.072" viewBox="0 0 98.782 64.072">
  <g id="ゲームの素材9" transform="translate(-0.001 -89.953)">
    <path id="パス_21" data-name="パス 21" d="M98.4,132.376l-.013-.063-.015-.064L93.255,110.5l-.02-.08-.02-.081A27.544,27.544,0,0,0,66.645,89.953H32.139A27.543,27.543,0,0,0,5.57,110.339l-.022.081-.019.08L.415,132.248l-.015.063-.013.063A17.85,17.85,0,0,0,12.356,153.05l.306.1a17.868,17.868,0,0,0,20.911-7.9l4.352-6.433.108-.161.1-.168a.863.863,0,0,1,.745-.435H59.909a.863.863,0,0,1,.745.435l.1.168.108.161,4.352,6.433a17.87,17.87,0,0,0,20.921,7.9l.3-.1A17.852,17.852,0,0,0,98.4,132.376ZM84.76,147.919l-.3.1a12.475,12.475,0,0,1-14.683-5.643l-4.45-6.579a6.259,6.259,0,0,0-5.422-3.137H38.875a6.26,6.26,0,0,0-5.422,3.137L29,142.373a12.473,12.473,0,0,1-14.681,5.643l-.3-.1a12.482,12.482,0,0,1-8.356-14.435l5.114-21.748A22.109,22.109,0,0,1,32.139,95.348H66.645A22.109,22.109,0,0,1,88,111.736l5.114,21.748A12.483,12.483,0,0,1,84.76,147.919Z" transform="translate(0 0)" fill="#c3e3f7"/>
    <path id="パス_22" data-name="パス 22" d="M98.943,172.061H92.634v7.246H85.387v6.307h7.247v7.248h6.309v-7.248h7.247v-6.307H98.943Z" transform="translate(-68.799 -66.069)" fill="#c3e3f7"/>
    <path id="パス_23" data-name="パス 23" d="M348.592,171.975a3.97,3.97,0,1,0-3.969-3.969A3.969,3.969,0,0,0,348.592,171.975Z" transform="translate(-277.984 -59.737)" fill="#c3e3f7"/>
    <path id="パス_24" data-name="パス 24" d="M306.373,206.247a3.971,3.971,0,1,0,3.97,3.969A3.971,3.971,0,0,0,306.373,206.247Z" transform="translate(-243.928 -93.775)" fill="#c3e3f7"/>
    <path id="パス_25" data-name="パス 25" d="M348.592,248.459a3.97,3.97,0,1,0,3.971,3.972A3.969,3.969,0,0,0,348.592,248.459Z" transform="translate(-277.984 -127.813)" fill="#c3e3f7"/>
    <path id="パス_26" data-name="パス 26" d="M390.8,206.247a3.971,3.971,0,1,0,3.971,3.969A3.97,3.97,0,0,0,390.8,206.247Z" transform="translate(-312.032 -93.775)" fill="#c3e3f7"/>
  </g>
</svg>
