<svg id="レイヤー_1" data-name="レイヤー 1" xmlns="http://www.w3.org/2000/svg" xmlns:xlink="http://www.w3.org/1999/xlink" viewBox="0 0 200 200"><defs><style>.cls-1{fill:none;}.cls-2{fill:#fff;}.cls-3{fill:#7f7a75;}.cls-4{clip-path:url(#clip-path);}.cls-5{fill:#aaa49f;}</style><clipPath id="clip-path"><rect class="cls-1" x="3.88" y="3.74" width="141.86" height="171.23" transform="translate(149.63 178.72) rotate(-180)"/></clipPath></defs><rect class="cls-2" x="1.98" y="1.98" width="145.53" height="174.33"/><path class="cls-3" d="M147.51,178.3H2a2,2,0,0,1-2-2V2A2,2,0,0,1,2,0H147.51a2,2,0,0,1,2,2V176.31A2,2,0,0,1,147.51,178.3ZM4,174.33H145.53V4H4Z"/><g class="cls-4"><ellipse class="cls-5" cx="132.26" cy="48.32" rx="58.15" ry="54.97"/><ellipse class="cls-5" cx="31.88" cy="120.34" rx="69.08" ry="65.3"/></g><rect class="cls-2" x="72.49" y="125.9" width="125.53" height="72.11"/><path class="cls-3" d="M198,200H72.49a2,2,0,0,1-2-2V125.9a2,2,0,0,1,2-2H198a2,2,0,0,1,2,2V198A2,2,0,0,1,198,200ZM74.47,196H196V127.89H74.47Z"/><polyline class="cls-5" points="195.98 151.21 195.98 196.03 102.98 196.03"/></svg>