<?xml version="1.0" encoding="utf-8"?>
<!-- Generator: Adobe Illustrator 26.0.2, SVG Export Plug-In . SVG Version: 6.00 Build 0)  -->
<svg version="1.1" id="レイヤー_1" xmlns="http://www.w3.org/2000/svg" xmlns:xlink="http://www.w3.org/1999/xlink" x="0px"
	 y="0px" viewBox="0 0 1131.2 707.6" style="enable-background:new 0 0 1131.2 707.6;" xml:space="preserve">
<style type="text/css">
	.st0{fill:#FFFFFF;}
	.st1{fill:#777777;}
	.st2{fill:#A1A1A1;}
	.st3{fill:#414141;}
	.st4{fill:none;stroke:#000000;stroke-miterlimit:10;}
</style>
<g>
	<rect class="st0" width="1131.2" height="707.6"/>
	<g id="レイヤー_2_00000124133702392624288240000009513026534041908865_">
		<g id="レイヤー_1-2">
			<rect x="348.9" y="623.4" class="st1" width="196.8" height="38"/>
			<path class="st2" d="M498,623.4H397.9c2.8-4.3,7.2-13.3,11.7-33c2.9-13,5-27,6.5-38.1h63.4c1.1,10.4,2.8,23.4,5.2,35.7
				C489.8,613.4,495.2,620.9,498,623.4z"/>
			<path class="st3" d="M85.7,46.1h725.6c6.6,0,11.9,5.3,11.9,11.9v448.2l0,0H73.7l0,0V58.1C73.7,51.5,79.1,46.1,85.7,46.1z"/>
			<rect x="97.1" y="75.8" class="st0" width="700.3" height="400.8"/>
			<path class="st3" d="M73.7,476.8h749.5l0,0v72.8c0,6.5-5.3,11.8-11.8,11.8l0,0H85.5c-6.5,0-11.8-5.3-11.8-11.8c0,0,0,0,0,0V476.8
				L73.7,476.8L73.7,476.8z"/>
			<path class="st3" d="M1057.5,315.4v328.2c0,8.6-7,15.7-15.7,15.7H887.8c-11.6,0-21-9.4-21-21V315.4c0-11.6,9.4-21,21-21h148.7
				C1048.1,294.4,1057.5,303.8,1057.5,315.4z"/>
			<path class="st0" d="M882.6,302.6h159c5.5,0,9.9,4.4,9.9,9.9v328.7c0,5.5-4.4,9.9-9.9,9.9h-159c-5.5,0-9.9-4.4-9.9-9.9V312.5
				C872.7,307,877.1,302.6,882.6,302.6z"/>
			<path class="st3" d="M988,302.6c0,1.6-1.3,2.9-2.9,2.9c0,0,0,0,0,0h-48c-1.6-0.1-2.9-1.5-2.8-3.1c0.1-1.5,1.3-2.7,2.8-2.8h48
				C986.7,299.7,988,301,988,302.6z"/>
			<g id="レイヤー_2-2">
				<g id="レイヤー_1-2-2">
					<path d="M897.3,478.4v-1.5h2.4v-24.5h-2.4v-1.5h8.3c0.9,0,1.8,0.2,2.7,0.4c1,0.2,2,0.7,2.9,1.2c0.8,0.6,1.6,1.4,2.1,2.2
						c0.6,1,0.9,2.2,0.9,3.3c0.1,2-0.8,4-2.3,5.4c-1.7,1.4-4,2.1-6.2,2h-4.3v11.5h3.9v1.5L897.3,478.4z M901.3,463.9h4.1
						c1.1,0,2.3-0.2,3.4-0.5c0.8-0.3,1.6-0.8,2.2-1.5c0.5-0.5,0.9-1.1,1.1-1.8c0.2-0.6,0.3-1.3,0.3-2c0-0.8-0.2-1.5-0.5-2.2
						c-0.4-0.7-0.9-1.3-1.5-1.8c-1.4-1.1-3.2-1.7-5-1.7h-4.1L901.3,463.9z"/>
					<path d="M926.2,478.1c-1,0.4-2,0.6-3.1,0.6c-1.1,0-2.1-0.2-3.1-0.6c-0.9-0.4-1.7-0.9-2.4-1.6c-0.7-0.7-1.3-1.5-1.7-2.4
						c-0.4-1-0.6-2-0.6-3c-0.1-1.1,0.1-2.1,0.5-3.1c0.4-0.9,1-1.7,1.6-2.4c0.7-0.7,1.5-1.2,2.4-1.6c1.9-0.8,4.1-0.8,6.1,0
						c0.9,0.4,1.7,0.9,2.4,1.6c0.7,0.7,1.2,1.5,1.6,2.4c0.4,1,0.6,2,0.6,3c0,1-0.2,2-0.6,3c-0.4,0.9-1,1.7-1.6,2.4
						C927.8,477,927.1,477.6,926.2,478.1z M920.8,476.6c2.3,1,5,0.4,6.7-1.3c1.1-1.1,1.8-2.7,1.7-4.3c0-0.8-0.2-1.6-0.5-2.4
						c-0.6-1.5-1.8-2.7-3.3-3.3c-1.5-0.6-3.2-0.6-4.8,0c-1.5,0.6-2.6,1.8-3.2,3.3c-0.3,0.8-0.5,1.6-0.5,2.4c0,0.8,0.2,1.6,0.5,2.4
						c0.3,0.7,0.8,1.4,1.3,1.9C919.4,475.8,920,476.3,920.8,476.6z"/>
					<path d="M934.7,478.4v-1.5h3.1v-11.7h-2.8v-1.5h4.2l0.1,2.1v1.7c0.3-0.6,0.7-1.2,1.1-1.7c0.4-0.5,1-0.9,1.5-1.3
						c0.5-0.3,1.1-0.6,1.7-0.8c0.6-0.2,1.2-0.3,1.8-0.3v1.6c-0.8,0-1.5,0.1-2.2,0.4c-0.7,0.2-1.3,0.6-1.8,1.1c-1.2,1-1.9,2.4-1.9,4
						v6.5h2.9v1.5L934.7,478.4z"/>
					<path d="M952.7,478.4v-13.2h-3.3v-1.6h3.4V454h1.6v9.6h4.5v1.6h-4.6v11.7h3.2v1.5H952.7z"/>
					<path d="M962.7,478.4v-1.5h2.4v-11.7h-2.4v-1.6h2.4V458c0-1.3,0.2-2.6,0.6-3.9c0.4-1.1,1-2.1,1.7-2.9c0.7-0.7,1.6-1.3,2.6-1.7
						c1-0.4,2.1-0.7,3.2-0.7v1.5c-0.9,0-1.7,0.2-2.6,0.6c-0.8,0.3-1.5,0.8-2.1,1.5c-0.6,0.7-1.1,1.5-1.4,2.4c-0.4,1-0.5,2.1-0.5,3.2
						v5.7h4.9v1.6h-5v11.7h3.6v1.5H962.7z"/>
					<path d="M986.4,478.1c-1.9,0.8-4.1,0.8-6,0c-0.9-0.4-1.7-0.9-2.4-1.6c-1.5-1.4-2.3-3.4-2.4-5.4c0-2.1,0.8-4,2.2-5.5
						c0.7-0.7,1.5-1.2,2.4-1.6c1-0.4,2-0.6,3.1-0.6c1,0,2.1,0.2,3,0.6c0.9,0.4,1.7,0.9,2.4,1.6c0.7,0.7,1.2,1.5,1.6,2.4
						c0.4,1,0.6,2,0.6,3c0,1-0.2,2-0.6,3c-0.4,0.9-1,1.7-1.6,2.4C988.1,477,987.3,477.6,986.4,478.1z M981,476.6
						c2.3,1,5,0.4,6.7-1.3c0.6-0.5,1-1.2,1.3-1.9c0.3-0.8,0.5-1.6,0.5-2.4c0-1.6-0.7-3.2-1.9-4.3c-0.6-0.6-1.2-1-2-1.3
						c-0.8-0.3-1.6-0.5-2.4-0.5c-0.8,0-1.6,0.1-2.4,0.5c-0.7,0.3-1.4,0.8-1.9,1.3c-0.6,0.6-1,1.2-1.3,2c-0.3,0.8-0.5,1.6-0.5,2.4
						c0,0.8,0.2,1.6,0.5,2.4c0.3,0.7,0.8,1.4,1.3,1.9C979.5,475.9,980.2,476.3,981,476.6L981,476.6z"/>
					<path d="M994.9,478.4v-1.5h2.9v-26.5h-2.8v-1.5h4.5v28.1h3.1v1.5H994.9z"/>
					<path d="M1006.3,478.4v-1.5h3v-11.7h-3v-1.5h4.7v13.3h2.9v1.5L1006.3,478.4z M1011.1,459.3c-0.2,0.2-0.5,0.4-0.9,0.4
						c-0.3,0-0.6-0.1-0.9-0.4c-0.5-0.5-0.5-1.3,0-1.9c0.2-0.2,0.5-0.4,0.9-0.4c0.3,0,0.6,0.1,0.9,0.4
						C1011.6,457.9,1011.6,458.8,1011.1,459.3C1011.1,459.3,1011.1,459.3,1011.1,459.3L1011.1,459.3z"/>
					<path d="M1028.5,478.1c-2,0.8-4.1,0.8-6.1,0c-0.9-0.4-1.7-0.9-2.4-1.6c-0.7-0.7-1.3-1.5-1.7-2.4c-0.4-1-0.6-2-0.6-3
						c0-2.1,0.9-4.1,2.4-5.5c0.7-0.7,1.5-1.2,2.4-1.6c1.9-0.8,4.1-0.8,6.1,0c0.9,0.4,1.7,0.9,2.4,1.6c0.7,0.7,1.2,1.5,1.7,2.4
						c0.4,1,0.6,2,0.6,3c0,1-0.2,2-0.6,3c-0.4,0.9-1,1.7-1.7,2.4C1030.3,477.1,1029.4,477.7,1028.5,478.1z M1023,476.6
						c3.1,1.3,6.8-0.2,8.1-3.3c0.3-0.7,0.4-1.4,0.5-2.2V471c0-1.7-0.7-3.2-1.8-4.4c-0.6-0.5-1.2-1-1.9-1.3c-0.8-0.3-1.6-0.5-2.4-0.5
						c-0.8,0-1.6,0.1-2.4,0.5c-0.7,0.3-1.4,0.8-1.9,1.3c-1.1,1.2-1.8,2.7-1.8,4.3c0,0.8,0.2,1.6,0.5,2.4
						C1020.5,474.8,1021.6,475.9,1023,476.6L1023,476.6z"/>
					<path d="M901.6,505.1v-0.5h1.5v-4.8l-2.4-4.1l-2.5-3.9h-1.4v-0.5h3.7v0.5h-1.7l2.2,3.6l2.1,3.6l0.2,0.5l0,0l0.2-0.5l4.3-7.2
						h-1.6v-0.5h3.7v0.5h-1.4l-2.4,4.1l-2.4,4.1v4.8h1.6v0.5L901.6,505.1z"/>
					<path d="M914.5,504.9c-0.5,0.2-1,0.3-1.5,0.3c-0.5,0-1-0.1-1.5-0.3c-0.5-0.2-0.9-0.5-1.2-0.9c-0.4-0.4-0.7-0.8-0.9-1.2
						c-0.4-1-0.4-2.1,0-3c0.2-0.5,0.5-0.9,0.9-1.3c0.3-0.4,0.8-0.7,1.2-0.9c1-0.4,2.1-0.4,3.1,0c0.5,0.2,0.9,0.5,1.3,0.9
						c0.4,0.4,0.7,0.8,0.9,1.3c0.4,1,0.4,2.1,0,3c-0.2,0.5-0.5,0.9-0.9,1.2C915.4,504.4,915,504.7,914.5,504.9z M911.7,504.4
						c0.8,0.3,1.8,0.3,2.6,0c0.4-0.2,0.8-0.4,1.1-0.7c0.3-0.3,0.5-0.7,0.7-1.1c0.2-0.4,0.3-0.8,0.3-1.3c0-0.5-0.1-0.9-0.3-1.3
						c-0.4-0.8-1-1.4-1.8-1.8c-0.4-0.2-0.8-0.2-1.3-0.2c-0.4,0-0.9,0.1-1.3,0.2c-0.4,0.2-0.7,0.4-1.1,0.7c-0.3,0.3-0.6,0.7-0.7,1.1
						c-0.3,0.8-0.3,1.8,0,2.6C910.3,503.4,910.9,504.1,911.7,504.4L911.7,504.4z"/>
					<path d="M918.3,505.1v-0.5h1.5v-6.4h-1.5v-0.5h1.9v2c0.3-0.6,0.7-1.2,1.3-1.5c0.6-0.4,1.3-0.6,2-0.6c0.6,0,1.3,0.2,1.7,0.6
						c0.4,0.4,0.7,1,0.7,1.6v4.8h1.5v0.5h-3.6v-0.5h1.6v-4.8c0-1-0.8-1.7-1.8-1.7c-0.4,0-0.8,0.1-1.2,0.2c-0.4,0.1-0.7,0.3-1,0.6
						c-0.3,0.2-0.5,0.5-0.7,0.9c-0.2,0.4-0.3,0.8-0.3,1.1v3.7h1.5v0.5L918.3,505.1z"/>
					<path d="M934.3,504.9c-0.5,0.2-0.9,0.3-1.4,0.3c-1,0-2-0.4-2.8-1.1c-0.4-0.4-0.7-0.8-0.9-1.2c-0.4-1-0.4-2.1,0-3
						c0.2-0.5,0.5-0.9,0.9-1.2c0.4-0.4,0.8-0.7,1.2-0.9c0.5-0.2,1-0.3,1.6-0.3c0.4,0,0.8,0.1,1.1,0.2c0.4,0.1,0.7,0.3,1,0.6
						c0.3,0.2,0.5,0.5,0.7,0.8c0.2,0.3,0.4,0.7,0.5,1l-3.2,1.3l-3.2,1.3c0.2,0.6,0.7,1.1,1.2,1.5c0.6,0.4,1.2,0.6,1.9,0.5
						c0.4,0,0.8-0.1,1.2-0.2c0.4-0.2,0.7-0.4,0.9-0.7l0.4,0.4C935.1,504.5,934.7,504.8,934.3,504.9z M931.4,498.3
						c-0.5,0.2-0.9,0.6-1.1,1c-0.3,0.4-0.5,0.8-0.6,1.3c-0.1,0.5-0.1,1,0,1.5l3.1-1.2l3-1.2c-0.2-0.5-0.6-1-1.1-1.3
						c-0.5-0.3-1-0.5-1.6-0.5C932.4,497.9,931.9,498.1,931.4,498.3z"/>
					<path d="M938.9,510.1v-0.5h1.6c0.4-0.7,0.7-1.5,1.1-2.2c0.4-0.7,0.7-1.5,1.1-2.2c-0.6-1.2-1.2-2.4-1.7-3.5
						c-0.5-1.1-1.2-2.4-1.7-3.5h-1.5v-0.5h3.5v0.5h-1.4c0.5,1.1,1,2.1,1.6,3.2c0.5,1.1,1.1,2.1,1.6,3.2c0.5-1.1,1.1-2.1,1.6-3.2
						l1.6-3.3h-1.1v-0.5h3.1v0.5h-1.4l-2.8,5.7l-2.8,5.7h1.3v0.5L938.9,510.1z"/>
					<path d="M956.9,505.1v-2c-0.2,0.6-0.7,1.2-1.2,1.5c-1.1,0.7-2.5,0.8-3.7,0.3c-0.5-0.2-0.9-0.5-1.2-0.9
						c-1.1-1.1-1.5-2.8-0.9-4.3c0.2-0.5,0.5-0.9,0.9-1.2c0.4-0.4,0.8-0.7,1.2-0.9c0.5-0.2,1-0.3,1.5-0.3c0.7,0,1.5,0.2,2.1,0.6
						c0.6,0.4,1,0.9,1.3,1.5v-2h0.4v7h1.6v0.5L956.9,505.1z M952.1,498.3c-0.4,0.2-0.8,0.4-1.1,0.7c-0.3,0.3-0.5,0.7-0.7,1.1
						c-0.2,0.4-0.3,0.8-0.3,1.3c0,0.9,0.3,1.8,1,2.4c1,0.9,2.4,1.2,3.6,0.7c0.4-0.2,0.8-0.4,1.1-0.7c0.3-0.3,0.6-0.7,0.7-1.1
						c0.2-0.4,0.3-0.9,0.3-1.3c0-0.5-0.1-0.9-0.3-1.3c-0.2-0.4-0.4-0.8-0.7-1.1c-0.3-0.3-0.7-0.6-1.1-0.7c-0.4-0.2-0.9-0.2-1.3-0.2
						C953,498,952.6,498.1,952.1,498.3L952.1,498.3z"/>
					<path d="M960.3,505.1v-0.5h1.6v-6.4h-1.5v-0.5h1.9v0.9c0,0.2,0,0.4,0,0.5c0,0.2,0,0.4,0,0.5c0.6-1.3,1.9-2.1,3.3-2.1
						c0.6,0,1.2,0.2,1.6,0.6c0.4,0.4,0.7,0.9,0.7,1.4c0.3-0.6,0.7-1.1,1.3-1.5c0.6-0.4,1.3-0.6,2-0.5c0.6,0,1.3,0.2,1.7,0.6
						c0.4,0.4,0.7,1,0.7,1.6v4.8h1.6v0.5h-3.6v-0.5h1.6v-4.8c0-1-0.8-1.7-1.8-1.7c-1.2,0-2.3,0.6-2.9,1.7c-0.2,0.3-0.3,0.7-0.3,1.1
						v3.8h1.6v0.5H966v-0.5h1.6v-4.8c0-1-0.8-1.7-1.8-1.7c-0.4,0-0.8,0.1-1.2,0.2c-0.4,0.1-0.7,0.3-1,0.6c-0.6,0.5-1,1.3-1,2.1v3.7
						h1.6v0.5L960.3,505.1z"/>
					<path d="M983.8,505.1v-2c-0.2,0.6-0.7,1.2-1.2,1.5c-0.3,0.2-0.7,0.4-1,0.5c-0.4,0.1-0.8,0.2-1.2,0.2c-0.5,0-1-0.1-1.5-0.3
						c-0.9-0.4-1.6-1.1-2.1-2.1c-0.4-1-0.4-2.1,0-3c0.2-0.5,0.5-0.9,0.9-1.2c0.4-0.4,0.8-0.7,1.2-0.9c1.2-0.5,2.6-0.4,3.7,0.3
						c0.6,0.4,1,0.9,1.3,1.5v-2h0.4v7h1.5v0.5L983.8,505.1z M979.1,498.3c-0.4,0.2-0.7,0.4-1,0.7c-0.3,0.3-0.5,0.7-0.7,1.1
						c-0.2,0.4-0.3,0.8-0.3,1.3c0,0.9,0.3,1.8,0.9,2.4c0.3,0.3,0.7,0.5,1.1,0.7c0.4,0.2,0.8,0.3,1.3,0.3c0.4,0,0.9-0.1,1.3-0.3
						c0.4-0.2,0.8-0.4,1.1-0.7c0.3-0.3,0.6-0.7,0.7-1.1c0.3-0.8,0.3-1.8,0-2.6c-0.2-0.4-0.4-0.8-0.7-1.1c-0.3-0.3-0.7-0.6-1.1-0.7
						c-0.4-0.2-0.9-0.2-1.3-0.2C979.9,498,979.5,498.1,979.1,498.3L979.1,498.3z"/>
					<path d="M993.2,505.1v-0.5h1.3v-12.8h-1.3v-0.5h4.2c1,0,1.9,0.3,2.7,0.9c0.4,0.3,0.8,0.7,1,1.1c0.3,0.5,0.4,1.1,0.4,1.7
						c0.1,1.8-1.2,3.4-3,3.6l2.9,6.3h1.7v0.5h-2.1l-3.1-6.7h-2.9v6.2h1.9v0.5L993.2,505.1z M995.1,497.9h2.2c0.6,0,1.2-0.1,1.8-0.3
						c0.4-0.2,0.8-0.4,1.2-0.8c0.3-0.3,0.5-0.6,0.6-1c0.1-0.3,0.2-0.7,0.2-1.1c0-0.4-0.1-0.8-0.3-1.1c-0.2-0.4-0.5-0.7-0.8-1
						c-0.3-0.3-0.7-0.5-1.2-0.7c-0.5-0.2-1-0.2-1.5-0.2h-2.2L995.1,497.9z"/>
					<path d="M1004.6,505.1v-0.5h1.6v-6.4h-1.6v-0.5h2.1v7h1.5v0.5L1004.6,505.1z M1006.8,495.4c-0.1,0.1-0.2,0.2-0.4,0.2
						c-0.1,0-0.3-0.1-0.4-0.2c-0.1-0.1-0.2-0.2-0.2-0.4c0-0.1,0.1-0.3,0.2-0.4c0.1-0.1,0.2-0.2,0.4-0.2c0.1,0,0.3,0.1,0.4,0.2
						c0.1,0.1,0.1,0.2,0.1,0.4C1007,495.2,1006.9,495.3,1006.8,495.4L1006.8,495.4z"/>
					<path d="M1009.7,505.1v-0.5h1.5v-6.4h-1.5v-0.5h1.9v0.9c0,0.2,0,0.4,0,0.5v0.5c0.3-0.6,0.7-1.2,1.3-1.5c0.6-0.4,1.3-0.6,2-0.6
						c0.6,0,1.3,0.2,1.7,0.6c0.4,0.4,0.7,1,0.7,1.6v4.8h1.5v0.5h-3.6v-0.5h1.6v-4.8c0-0.5-0.2-0.9-0.5-1.2c-0.3-0.3-0.8-0.5-1.3-0.5
						c-0.4,0-0.8,0.1-1.2,0.2c-0.4,0.1-0.7,0.3-1,0.6c-0.3,0.2-0.5,0.5-0.7,0.9c-0.2,0.4-0.3,0.8-0.3,1.1v3.7h1.5v0.5L1009.7,505.1z
						"/>
					<path d="M1027.6,505.1v-0.9c0-0.2,0-0.4,0-0.5v-0.5c-0.1,0.3-0.3,0.6-0.5,0.9c-0.2,0.3-0.5,0.5-0.8,0.7c-0.3,0.2-0.6,0.4-1,0.5
						c-0.4,0.1-0.8,0.2-1.2,0.2c-0.5,0-1-0.1-1.5-0.3c-0.5-0.2-0.9-0.5-1.2-0.9c-0.4-0.3-0.7-0.8-0.9-1.2c-0.4-1-0.4-2.1,0-3
						c0.2-0.5,0.5-0.9,0.9-1.2c0.3-0.4,0.8-0.7,1.2-0.9c1.2-0.5,2.6-0.4,3.7,0.3c0.6,0.4,1,0.9,1.3,1.5v-2h0.6v7h1.5v0.5
						L1027.6,505.1z M1022.8,498.3c-0.4,0.2-0.8,0.4-1.1,0.7c-0.3,0.3-0.5,0.7-0.7,1.1c-0.2,0.4-0.3,0.8-0.3,1.3
						c0,0.9,0.4,1.8,1,2.4c0.3,0.3,0.6,0.5,1,0.7c0.4,0.2,0.8,0.3,1.3,0.3c0.5,0,0.9-0.1,1.3-0.3c0.4-0.2,0.8-0.4,1.1-0.7
						c0.3-0.3,0.5-0.7,0.7-1.1c0.3-0.8,0.3-1.8,0-2.6c-0.2-0.4-0.4-0.7-0.7-1.1c-0.3-0.3-0.7-0.6-1.1-0.7c-0.4-0.2-0.9-0.2-1.3-0.2
						C1023.7,498,1023.3,498.1,1022.8,498.3L1022.8,498.3z"/>
				</g>
			</g>
			<g id="レイヤー_2-3">
				<g id="レイヤー_1-2-3">
					<path d="M349.2,283.8v-2.4h3.7V243h-3.7v-2.4h13c1.4,0,2.8,0.2,4.2,0.6c1.6,0.4,3.1,1,4.5,1.9c1.3,0.9,2.5,2.1,3.3,3.5
						c0.9,1.6,1.4,3.4,1.4,5.2c0.1,3.2-1.2,6.3-3.6,8.4c-2.7,2.2-6.2,3.3-9.7,3.1h-6.8v17.9h6.1v2.4H349.2z M355.5,261.1h6.4
						c1.8,0,3.6-0.3,5.3-0.9c1.3-0.5,2.5-1.3,3.4-2.3c0.8-0.8,1.4-1.8,1.7-2.9c0.3-1,0.5-2.1,0.5-3.1c0-1.2-0.3-2.3-0.9-3.4
						c-0.6-1.1-1.4-2.1-2.3-2.8c-1-0.8-2.2-1.5-3.4-1.9c-1.4-0.5-2.9-0.8-4.3-0.7h-6.4L355.5,261.1z"/>
					<path d="M394.5,283.3c-1.5,0.6-3.1,0.9-4.8,0.9c-1.6,0-3.3-0.3-4.8-0.9c-1.4-0.6-2.7-1.5-3.7-2.6c-1.1-1.1-2-2.3-2.6-3.7
						c-0.6-1.5-1-3.1-0.9-4.7c-0.1-1.7,0.1-3.3,0.7-4.9c1.2-2.8,3.5-5,6.3-6.3c3-1.3,6.5-1.3,9.5,0c1.4,0.6,2.7,1.5,3.7,2.5
						c1.1,1.1,2,2.3,2.6,3.7c0.6,1.5,0.9,3.1,0.9,4.7c0,1.6-0.3,3.2-0.9,4.7c-0.6,1.4-1.5,2.6-2.6,3.7
						C397,281.6,395.8,282.6,394.5,283.3z M385.9,281c3.6,1.5,7.8,0.7,10.5-2.1c1.8-1.8,2.8-4.2,2.8-6.7c0-1.3-0.2-2.6-0.7-3.7
						c-0.5-1.2-1.2-2.2-2.1-3.1c-0.9-0.8-1.9-1.5-3-2c-2.4-1-5.1-1-7.5,0c-2.3,1-4.1,2.8-5,5.1c-0.5,1.2-0.7,2.5-0.7,3.7
						c0,1.3,0.3,2.5,0.7,3.7c0.5,1.1,1.2,2.1,2.1,2.9C383.8,279.8,384.8,280.5,385.9,281L385.9,281z"/>
					<path d="M407.8,283.8v-2.4h4.8v-18.3h-4.3v-2.4h6.5l0.2,3.3v2.7c0.4-1,1-1.9,1.7-2.7c0.7-0.8,1.5-1.5,2.4-2
						c0.8-0.5,1.8-0.9,2.7-1.2c0.9-0.3,1.9-0.5,2.8-0.5v2.5c-1.2,0-2.4,0.2-3.5,0.6c-1.1,0.4-2,0.9-2.9,1.6c-1.9,1.5-3,3.8-3,6.2
						v10.2h4.6v2.4L407.8,283.8z"/>
					<path d="M435.9,283.8v-20.7h-5.2v-2.5h5.3v-14.9h2.5v14.9h7.1v2.5h-7.2v18.3h5.1v2.4L435.9,283.8z"/>
					<path d="M451.4,283.8v-2.4h3.7v-18.3h-3.7v-2.5h3.7v-8.8c0-2.1,0.3-4.1,1-6.1c0.6-1.7,1.5-3.2,2.8-4.5c1.2-1.1,2.5-2,4-2.7
						c1.6-0.7,3.3-1,5.1-1.1v2.4c-1.4,0-2.7,0.3-4,0.9c-1.2,0.5-2.3,1.3-3.3,2.3c-1,1.1-1.7,2.4-2.2,3.7c-0.6,1.6-0.8,3.3-0.8,4.9
						v8.9h7.7v2.5h-7.8v18.3h5.6v2.4L451.4,283.8z"/>
					<path d="M488.6,283.3c-1.5,0.6-3.1,0.9-4.8,0.9c-1.6,0-3.2-0.3-4.6-0.9c-1.4-0.6-2.7-1.5-3.7-2.6c-1.1-1.1-2-2.3-2.6-3.7
						c-0.7-1.5-1.1-3.1-1.1-4.8c-0.1-3.2,1.2-6.3,3.5-8.5c1.1-1.1,2.3-1.9,3.7-2.5c1.5-0.7,3.1-1,4.8-1c1.6,0,3.2,0.3,4.7,1
						c1.4,0.6,2.7,1.5,3.7,2.5c1,1.1,1.9,2.4,2.5,3.7c0.6,1.5,1,3.1,1,4.7c0,1.6-0.3,3.2-1,4.7c-0.6,1.4-1.5,2.6-2.5,3.7
						C491.2,281.6,490,282.6,488.6,283.3z M480.1,281c3.6,1.5,7.8,0.7,10.5-2.1c0.9-0.8,1.6-1.8,2.1-2.9c1.5-3.6,0.6-7.9-2.2-10.6
						c-0.9-0.9-1.9-1.6-3.1-2.1c-1.2-0.5-2.5-0.7-3.7-0.7c-1.3,0-2.5,0.2-3.7,0.7c-2.3,1-4.1,2.8-5.1,5.1c-0.5,1.2-0.8,2.5-0.7,3.7
						c0,1.3,0.3,2.5,0.7,3.7c0.5,1.1,1.2,2.1,2.1,2.9C477.8,279.9,478.9,280.6,480.1,281L480.1,281z"/>
					<path d="M501.9,283.8v-2.4h4.6v-41.5h-4.3v-2.4h7v43.9h4.8v2.4L501.9,283.8z"/>
					<path d="M519.7,283.8v-2.4h4.7v-18.3h-4.7v-2.4h7.3v20.7h4.5v2.4L519.7,283.8z M527.1,254c-0.4,0.4-0.9,0.6-1.4,0.6
						c-1.1,0-2-0.9-2-2c0-0.6,0.2-1.1,0.6-1.5c0.4-0.4,0.9-0.6,1.4-0.6c0.5,0,1,0.2,1.4,0.6C527.9,251.9,527.9,253.2,527.1,254z"/>
					<path d="M554.3,283.3c-3.1,1.2-6.5,1.2-9.6,0c-1.4-0.6-2.7-1.5-3.7-2.6c-1.1-1.1-2-2.3-2.6-3.7c-0.6-1.5-0.9-3.1-0.9-4.7
						c0-3.2,1.4-6.3,3.7-8.6c1.1-1.1,2.3-1.9,3.7-2.5c3-1.3,6.5-1.3,9.5,0c1.4,0.6,2.7,1.5,3.7,2.5c1.1,1.1,2,2.3,2.6,3.7
						c0.6,1.5,1,3.1,1,4.7c0,1.6-0.3,3.2-1,4.7c-0.6,1.4-1.5,2.7-2.6,3.7C557.1,281.7,555.8,282.7,554.3,283.3z M545.8,281
						c1.2,0.5,2.4,0.8,3.7,0.7c5.2,0,9.5-4.1,9.6-9.4v-0.2c0-2.6-1-5.1-2.9-6.9c-0.9-0.9-1.9-1.6-3-2.1c-1.2-0.5-2.5-0.7-3.7-0.7
						c-1.3,0-2.6,0.2-3.7,0.7c-4.8,2.1-7.1,7.7-5,12.6C541.8,278.1,543.6,279.9,545.8,281L545.8,281z"/>
					<path d="M356,325.5v-0.8h2.3v-7.5l-3.7-6.4l-3.9-6.1h-2.2v-0.9h5.9v0.9h-2.6l3.4,5.6l3.4,5.6l0.4,0.8l0,0l0.4-0.8l6.7-11.2
						h-2.5v-0.9h5.7v0.9H367l-3.7,6.4l-3.7,6.4v7.5h2.5v0.8L356,325.5z"/>
					<path d="M376.2,325.3c-0.8,0.3-1.6,0.5-2.4,0.5c-0.8,0-1.6-0.1-2.4-0.5c-0.7-0.3-1.4-0.7-1.9-1.3c-0.6-0.6-1-1.2-1.3-1.9
						c-0.6-1.5-0.6-3.2,0-4.7c0.3-0.7,0.8-1.4,1.3-2c0.5-0.6,1.2-1,1.9-1.3c1.5-0.7,3.2-0.7,4.8,0c0.7,0.3,1.4,0.7,2,1.3
						c0.6,0.6,1,1.2,1.3,2c0.6,1.5,0.6,3.2,0,4.7c-0.3,0.7-0.8,1.4-1.3,1.9C377.6,324.5,376.9,325,376.2,325.3z M371.7,324.5
						c1.3,0.5,2.8,0.5,4.1,0c0.6-0.3,1.2-0.6,1.7-1.1c0.5-0.5,0.8-1.1,1.1-1.7c0.3-0.6,0.4-1.3,0.4-2c0-0.7-0.1-1.4-0.4-2.1
						c-0.6-1.2-1.6-2.2-2.8-2.8c-0.6-0.3-1.3-0.4-2-0.4c-0.7,0-1.4,0.1-2.1,0.4c-0.6,0.3-1.2,0.7-1.6,1.2c-0.5,0.5-0.9,1-1.1,1.7
						c-0.6,1.3-0.6,2.8,0,4.1C369.5,323,370.5,323.9,371.7,324.5L371.7,324.5z"/>
					<path d="M382.2,325.5v-0.8h2.4v-10h-2.4v-0.8h3v3.1c0.4-1,1.1-1.8,2-2.4c0.9-0.6,2-0.9,3.1-0.9c1.9-0.1,3.6,1.3,3.7,3.2
						c0,0.1,0,0.2,0,0.3v7.5h2.4v0.8h-5.6v-0.8h2.5v-7.5c0-1.5-1.3-2.7-2.8-2.7c-0.7,0-1.3,0.1-1.9,0.3c-0.6,0.2-1.1,0.5-1.6,0.9
						c-0.5,0.4-0.9,0.9-1.1,1.4c-0.3,0.6-0.4,1.2-0.4,1.8v5.8h2.4v0.8L382.2,325.5z"/>
					<path d="M407.1,325.3c-0.7,0.3-1.5,0.5-2.2,0.4c-1.6,0-3.2-0.6-4.3-1.8c-0.5-0.6-1-1.2-1.3-1.9c-0.6-1.5-0.6-3.2,0-4.7
						c0.3-0.7,0.7-1.4,1.3-1.9c0.6-0.6,1.2-1,1.9-1.3c0.8-0.3,1.6-0.5,2.4-0.5c0.6,0,1.2,0.1,1.8,0.3c0.6,0.2,1.1,0.5,1.6,0.9
						c0.4,0.4,0.8,0.8,1.2,1.3c0.3,0.5,0.6,1,0.8,1.6l-5.1,2l-5,2c0.4,0.9,1,1.7,1.9,2.3c0.9,0.6,1.9,0.9,2.9,0.9
						c0.7,0,1.3-0.1,1.9-0.4c0.6-0.2,1-0.6,1.5-1l0.6,0.7C408.3,324.6,407.8,325,407.1,325.3z M402.5,315c-0.7,0.4-1.3,0.9-1.8,1.5
						c-0.5,0.6-0.8,1.3-1,2.1c-0.2,0.8-0.2,1.6,0,2.4l4.8-1.8l4.6-1.9c-0.4-0.8-1-1.5-1.7-2c-0.7-0.5-1.6-0.8-2.5-0.8
						C404.1,314.4,403.3,314.6,402.5,315L402.5,315z"/>
					<path d="M414.3,333.3v-0.8h2.6c0.6-1.2,1.1-2.3,1.7-3.5c0.6-1.2,1.1-2.3,1.7-3.4c-0.9-1.8-1.9-3.7-2.8-5.5s-1.8-3.7-2.7-5.5
						h-2.4v-0.8h5.4v0.8h-2.1c0.8,1.7,1.6,3.4,2.5,5c0.9,1.7,1.6,3.3,2.4,5c0.8-1.6,1.6-3.3,2.5-5l2.5-5.1h-1.7v-0.8h4.9v0.8h-2.2
						l-4.4,8.9l-4.4,8.9h2.1v0.8L414.3,333.3z"/>
					<path d="M442.5,325.5v-3.1c-0.4,1-1,1.8-1.9,2.3c-0.5,0.3-1,0.6-1.6,0.7c-1.4,0.4-2.9,0.3-4.2-0.2c-0.7-0.3-1.4-0.7-1.9-1.3
						c-0.6-0.5-1-1.2-1.3-1.9c-0.6-1.5-0.6-3.2,0-4.7c0.3-0.7,0.7-1.4,1.3-1.9c0.6-0.5,1.2-1,1.9-1.3c0.7-0.3,1.6-0.5,2.4-0.5
						c1.2,0,2.3,0.3,3.3,1c0.9,0.6,1.6,1.4,2,2.4v-3.1h0.7v10.9h2.5v0.8L442.5,325.5z M435,314.8c-0.6,0.3-1.2,0.7-1.7,1.1
						c-0.5,0.5-0.8,1.1-1.1,1.7c-0.3,0.6-0.4,1.3-0.4,2c0,0.7,0.1,1.4,0.4,2.1c0.3,0.6,0.7,1.2,1.2,1.6c0.5,0.5,1,0.8,1.6,1.1
						c1.3,0.5,2.7,0.5,4,0c0.6-0.3,1.2-0.6,1.7-1.1c1-1,1.5-2.3,1.5-3.7c0-0.7-0.1-1.4-0.4-2.1c-0.2-0.6-0.6-1.2-1.1-1.6
						c-0.5-0.5-1.1-0.9-1.7-1.2c-0.6-0.3-1.3-0.4-2-0.4c-0.7,0-1.3,0.1-1.9,0.4L435,314.8z"/>
					<path d="M447.7,325.5v-0.8h2.4v-10h-2.3v-0.8h2.9v1.4c0,0.3,0,0.5,0,0.8c0,0.3,0,0.6,0,0.9c0.9-2,2.9-3.3,5.2-3.3
						c0.9,0,1.8,0.3,2.5,0.9c0.7,0.6,1.1,1.4,1.1,2.2c0.4-0.9,1.1-1.7,2-2.3c0.9-0.6,2-0.9,3.1-0.8c1,0,1.9,0.3,2.7,1
						c0.7,0.7,1,1.6,1,2.5v7.5h2.4v0.8h-5.6v-0.8h2.5v-7.5c0-1.5-1.3-2.7-2.8-2.7c-1.3,0-2.5,0.4-3.5,1.2c-0.4,0.4-0.8,0.9-1.1,1.4
						c-0.3,0.5-0.5,1.1-0.4,1.7v5.9h2.4v0.8h-5.7v-0.8h2.5v-7.5c0-0.7-0.3-1.4-0.8-1.9c-0.6-0.5-1.3-0.8-2.1-0.9
						c-0.7,0-1.3,0.1-1.9,0.3c-0.6,0.2-1.1,0.5-1.6,0.9c-1,0.8-1.5,2-1.5,3.2v5.8h2.5v0.8L447.7,325.5z"/>
					<path d="M484.5,325.5v-3.1c-0.4,1-1,1.8-1.9,2.3c-0.5,0.3-1,0.6-1.6,0.7c-0.6,0.2-1.2,0.3-1.8,0.3c-0.8,0-1.6-0.2-2.4-0.5
						c-1.4-0.6-2.6-1.8-3.2-3.2c-0.7-1.5-0.7-3.2,0-4.7c0.3-0.7,0.7-1.4,1.3-1.9c0.6-0.5,1.2-1,1.9-1.3c1.9-0.8,4-0.6,5.7,0.5
						c0.9,0.6,1.6,1.4,2,2.4v-3.1h0.7v10.9h2.3v0.8L484.5,325.5z M477.1,314.8c-0.6,0.3-1.1,0.6-1.6,1.1c-0.5,0.5-0.8,1.1-1.1,1.7
						c-0.3,0.6-0.4,1.3-0.4,2c0,0.7,0.1,1.4,0.4,2.1c0.2,0.6,0.6,1.2,1.1,1.7c0.5,0.5,1,0.8,1.6,1.1c0.6,0.3,1.3,0.4,2,0.4
						c0.7,0,1.4-0.1,2.1-0.4c0.7-0.2,1.3-0.6,1.8-1.1c0.5-0.5,0.9-1,1.1-1.7c0.3-0.6,0.4-1.3,0.4-2.1c0-0.7-0.1-1.4-0.4-2.1
						c-0.2-0.6-0.6-1.2-1.1-1.7c-0.5-0.5-1.1-0.9-1.7-1.2c-0.7-0.3-1.4-0.4-2.1-0.4c-0.7,0-1.4,0.2-2,0.5L477.1,314.8z"/>
					<path d="M499.2,325.5v-0.8h2.1v-20h-2.1v-0.9h6.6c0.7,0,1.4,0.1,2.1,0.3c0.8,0.2,1.5,0.6,2.1,1c0.7,0.5,1.2,1.1,1.6,1.7
						c0.5,0.8,0.7,1.7,0.7,2.6c0.2,2.8-1.9,5.3-4.7,5.6l4.6,9.8h2.7v0.8h-3.2l-4.9-10.5h-4.5v9.6h3v0.8L499.2,325.5z M502.1,314.3
						h3.4c1,0,1.9-0.1,2.8-0.5c0.7-0.3,1.3-0.7,1.8-1.2c0.4-0.4,0.7-1,0.9-1.6c0.2-0.5,0.3-1.1,0.3-1.7c0-0.6-0.2-1.2-0.4-1.8
						c-0.3-0.6-0.7-1.1-1.2-1.5c-0.5-0.5-1.2-0.8-1.8-1c-0.7-0.3-1.5-0.4-2.3-0.4h-3.4V314.3z"/>
					<path d="M517,325.5v-0.8h2.5v-10H517v-0.8h3.3v10.9h2.4v0.8H517z M520.5,310.4c-0.1,0.2-0.3,0.3-0.6,0.3
						c-0.2,0-0.4-0.1-0.6-0.3c-0.2-0.1-0.3-0.3-0.3-0.6c0-0.2,0.1-0.5,0.3-0.6c0.2-0.2,0.4-0.3,0.6-0.3c0.2,0,0.4,0.1,0.6,0.3
						c0.1,0.2,0.2,0.4,0.2,0.6C520.7,310,520.6,310.2,520.5,310.4L520.5,310.4z"/>
					<path d="M524.9,325.5v-0.8h2.4v-10h-2.3v-0.8h3v1.4c0,0.3,0,0.5,0,0.8v0.9c0.4-1,1.1-1.8,2-2.4c0.9-0.6,2-0.9,3.1-0.9
						c1,0,1.9,0.3,2.7,1c0.7,0.7,1,1.6,1,2.5v7.5h2.4v0.8h-5.6v-0.8h2.5v-7.5c0-0.7-0.3-1.4-0.8-1.9c-0.5-0.5-1.3-0.9-2-0.9
						c-0.7,0-1.3,0.1-1.9,0.3c-0.6,0.2-1.1,0.5-1.6,0.9c-0.5,0.4-0.9,0.9-1.1,1.4c-0.3,0.6-0.4,1.2-0.4,1.8v5.8h2.4v0.8L524.9,325.5
						z"/>
					<path d="M553,325.5v-1.5c0-0.3,0-0.6,0-0.9v-0.8c-0.2,0.5-0.5,0.9-0.8,1.3c-0.3,0.4-0.7,0.8-1.2,1c-0.5,0.3-1,0.6-1.5,0.7
						c-0.6,0.2-1.2,0.3-1.8,0.3c-0.8,0-1.6-0.1-2.4-0.5c-0.7-0.3-1.4-0.7-1.9-1.3c-0.6-0.5-1-1.2-1.3-1.9c-0.6-1.5-0.6-3.2,0-4.7
						c0.3-0.7,0.7-1.4,1.3-1.9c1.1-1.2,2.7-1.8,4.3-1.8c1.2,0,2.3,0.3,3.3,1c0.9,0.6,1.6,1.4,2,2.4v-3.1h0.9v10.9h2.3v0.8L553,325.5
						z M545.5,314.8c-0.6,0.3-1.2,0.6-1.6,1.1c-0.5,0.5-0.8,1.1-1.1,1.7c-0.3,0.6-0.4,1.3-0.4,2c0,0.7,0.2,1.4,0.5,2.1
						c0.3,0.6,0.7,1.2,1.2,1.6c0.5,0.5,1,0.8,1.6,1.1c0.6,0.3,1.3,0.4,2,0.4c0.7,0,1.4-0.1,2.1-0.4c0.6-0.3,1.2-0.6,1.7-1.1
						c0.5-0.5,0.8-1.1,1.1-1.7c0.3-0.6,0.4-1.3,0.4-2.1c0-0.7-0.1-1.4-0.4-2.1c-0.5-1.3-1.5-2.3-2.8-2.8c-0.7-0.3-1.4-0.4-2.1-0.4
						c-0.7,0-1.3,0.1-1.9,0.4L545.5,314.8z"/>
				</g>
			</g>
			<path d="M649.3,114.3v-0.9h1.7V98.8h-1.6v-0.9h2.5v9.3l-0.1,1c0.3-0.7,0.8-1.3,1.4-1.7c0.6-0.4,1.4-0.6,2.2-0.6
				c0.7,0,1.4,0.2,1.9,0.7c0.5,0.5,0.7,1.1,0.7,1.7v5h1.6v0.9h-4.2v-0.9h1.7v-4.8c0-0.5-0.2-0.9-0.5-1.2c-0.4-0.4-0.9-0.6-1.4-0.5
				c-0.4,0-0.9,0.1-1.3,0.2c-0.4,0.1-0.7,0.3-1.1,0.6c-0.3,0.3-0.6,0.6-0.7,1c-0.2,0.4-0.3,0.8-0.3,1.2v3.6h1.6v0.9L649.3,114.3z"/>
			<path d="M667.1,114.1c-0.5,0.2-1.1,0.3-1.7,0.3c-0.6,0-1.2-0.1-1.7-0.3c-1-0.4-1.8-1.2-2.3-2.3c-0.4-1.1-0.4-2.3,0-3.3
				c0.2-0.5,0.5-1,0.9-1.4c0.4-0.4,0.9-0.7,1.4-0.9c0.5-0.2,1.1-0.3,1.7-0.3c0.6,0,1.1,0.1,1.7,0.3c0.5,0.2,1,0.5,1.4,0.9
				c0.4,0.4,0.7,0.9,0.9,1.4c0.2,0.5,0.3,1.1,0.3,1.7c0,0.6-0.1,1.1-0.3,1.7c-0.2,0.5-0.5,1-0.9,1.3
				C668.1,113.6,667.6,113.9,667.1,114.1z M664.1,113.3c0.4,0.2,0.9,0.3,1.3,0.3c0.4,0,0.9-0.1,1.3-0.3c0.4-0.2,0.8-0.4,1.1-0.7
				c0.3-0.3,0.6-0.6,0.7-1c0.2-0.4,0.3-0.9,0.3-1.3c0-0.4-0.1-0.9-0.3-1.3c-0.2-0.4-0.4-0.8-0.7-1.1c-0.3-0.3-0.7-0.6-1.1-0.7
				c-0.4-0.2-0.9-0.3-1.3-0.3c-0.4,0-0.9,0.1-1.3,0.3c-0.4,0.2-0.8,0.4-1.1,0.7c-0.3,0.3-0.5,0.7-0.7,1.1c-0.2,0.4-0.3,0.9-0.3,1.3
				c0,0.5,0.1,0.9,0.3,1.3c0.2,0.4,0.4,0.8,0.7,1C663.3,112.9,663.7,113.1,664.1,113.3L664.1,113.3z"/>
			<path d="M671.2,114.3v-0.9h1.7V107h-1.6v-0.8h2.3v0.8c0,0.2,0,0.5,0,0.7c0,0.2,0,0.4,0,0.7c0.3-0.7,0.8-1.3,1.4-1.6
				c0.6-0.4,1.4-0.6,2.2-0.6c0.7,0,1.3,0.2,1.8,0.6c0.5,0.4,0.8,1,0.8,1.6c0.3-0.6,0.8-1.2,1.4-1.6c0.6-0.4,1.4-0.6,2.1-0.6
				c0.7,0,1.4,0.2,1.9,0.7c0.5,0.5,0.7,1.1,0.7,1.7v5h1.7v0.9h-4.2v-0.9h1.7v-4.8c0-0.5-0.2-0.9-0.5-1.2c-0.4-0.4-0.9-0.6-1.4-0.5
				c-0.4,0-0.8,0.1-1.2,0.2c-0.4,0.1-0.7,0.3-1.1,0.6c-0.3,0.2-0.6,0.5-0.7,0.9c-0.2,0.4-0.3,0.8-0.3,1.2v3.7h1.6v0.9h-4.2v-0.9h1.7
				v-4.8c0-0.5-0.2-0.9-0.5-1.2c-0.4-0.4-0.9-0.6-1.4-0.5c-0.4,0-0.9,0.1-1.3,0.2c-0.4,0.1-0.7,0.3-1.1,0.6c-0.3,0.3-0.6,0.6-0.7,1
				c-0.2,0.4-0.3,0.8-0.3,1.2v3.6h1.6v0.9L671.2,114.3z"/>
			<path d="M695,114.1c-0.5,0.2-1,0.3-1.6,0.3c-1.1,0-2.2-0.4-3-1.2c-0.4-0.4-0.7-0.8-0.9-1.3c-0.2-0.5-0.3-1.1-0.3-1.7
				c0-0.6,0.1-1.1,0.3-1.7c0.2-0.5,0.5-1,0.9-1.3c0.4-0.4,0.9-0.7,1.4-0.9c0.5-0.2,1.1-0.3,1.7-0.3c0.4,0,0.9,0.1,1.3,0.2
				c0.4,0.2,0.8,0.4,1.1,0.7c0.3,0.3,0.6,0.6,0.8,0.9c0.2,0.4,0.4,0.8,0.6,1.2c-1.1,0.5-2.3,0.9-3.4,1.3c-1.1,0.5-2.3,0.9-3.4,1.3
				c0.3,0.6,0.7,1,1.2,1.4c0.9,0.6,2.1,0.7,3.1,0.3c0.4-0.2,0.7-0.4,1-0.7l0.5,0.7C696,113.6,695.5,113.9,695,114.1z M692,107.1
				c-0.9,0.4-1.5,1.2-1.7,2.2c-0.1,0.5-0.1,1,0,1.4l2.9-1.2l2.9-1.2c-0.3-0.5-0.6-0.9-1.1-1.2c-0.5-0.3-1-0.5-1.5-0.5
				C693,106.8,692.4,106.9,692,107.1z"/>
			<path d="M722.4,114.3v-1.9c-0.1,0.3-0.3,0.5-0.5,0.7c-0.2,0.2-0.5,0.5-0.8,0.6c-0.3,0.2-0.7,0.4-1,0.5c-0.4,0.1-0.8,0.2-1.2,0.2
				c-0.6,0-1.1-0.1-1.7-0.3c-0.5-0.2-1-0.5-1.4-0.9c-0.4-0.4-0.7-0.8-0.9-1.3c-0.4-1.1-0.4-2.2,0-3.3c0.2-0.5,0.5-1,0.9-1.4
				c0.4-0.4,0.9-0.7,1.4-0.9c0.5-0.2,1.1-0.3,1.7-0.3c0.8,0,1.5,0.2,2.2,0.6c0.6,0.4,1,0.9,1.3,1.5c0-0.3,0-0.6,0-0.9s0-0.6,0.1-1
				h0.7v7.3h1.6v0.9L722.4,114.3z M717.5,107.1c-0.4,0.2-0.8,0.4-1.1,0.7c-0.3,0.3-0.5,0.7-0.7,1.1c-0.2,0.4-0.3,0.9-0.3,1.3
				c0,0.5,0.1,0.9,0.3,1.4c0.2,0.4,0.5,0.8,0.8,1.1c0.3,0.3,0.7,0.5,1,0.7c0.8,0.3,1.8,0.3,2.6,0c0.4-0.2,0.8-0.4,1.1-0.7
				c1-1,1.3-2.5,0.7-3.7c-0.2-0.4-0.4-0.8-0.7-1.1c-0.3-0.3-0.7-0.5-1.1-0.7c-0.4-0.2-0.9-0.3-1.3-0.3
				C718.4,106.8,718,106.9,717.5,107.1L717.5,107.1z"/>
			<path d="M726.3,113.4h1.6V98.8h-1.5v-0.9h2.4v9.5c0,0.1,0,0.3,0,0.5c0.1-0.3,0.2-0.5,0.4-0.7c0.2-0.3,0.5-0.5,0.8-0.7
				c0.3-0.2,0.7-0.4,1-0.5c0.4-0.1,0.8-0.2,1.2-0.2c0.6,0,1.1,0.1,1.7,0.3c0.5,0.2,1,0.5,1.4,0.9c0.4,0.4,0.7,0.8,0.9,1.3
				c0.2,0.5,0.3,1.1,0.3,1.7c0,0.6-0.1,1.1-0.3,1.7c-0.2,0.5-0.5,1-0.9,1.3c-0.4,0.4-0.9,0.7-1.4,0.9c-0.9,0.4-1.9,0.4-2.9,0.1
				c-0.4-0.1-0.7-0.3-1-0.5c-0.3-0.2-0.6-0.4-0.8-0.6c-0.2-0.2-0.4-0.5-0.5-0.7v1.9h-2.4L726.3,113.4z M730.8,107.1
				c-0.8,0.3-1.4,1-1.8,1.8c-0.2,0.4-0.3,0.9-0.3,1.3c0,0.5,0.1,0.9,0.3,1.3c0.2,0.4,0.4,0.8,0.7,1.1c0.3,0.3,0.7,0.5,1.1,0.7
				c0.4,0.2,0.9,0.3,1.3,0.3c0.5,0,0.9-0.1,1.3-0.3c0.8-0.3,1.5-0.9,1.8-1.7c0.2-0.4,0.3-0.9,0.3-1.3c0-0.5-0.1-0.9-0.3-1.3
				c-0.2-0.4-0.4-0.8-0.7-1.1c-0.3-0.3-0.7-0.5-1.1-0.7c-0.4-0.2-0.9-0.3-1.3-0.3C731.7,106.8,731.3,106.9,730.8,107.1z"/>
			<path d="M744,114.1c-0.5,0.2-1.1,0.3-1.7,0.3c-0.6,0-1.1-0.1-1.7-0.3c-0.5-0.2-1-0.5-1.3-0.9c-0.4-0.4-0.7-0.8-0.9-1.3
				c-0.7-1.6-0.3-3.4,0.9-4.7c0.4-0.4,0.9-0.7,1.4-0.9c1.1-0.4,2.3-0.4,3.3,0c0.5,0.2,1,0.5,1.4,0.9c0.4,0.4,0.7,0.9,0.9,1.4
				c0.2,0.5,0.3,1.1,0.3,1.7c0,0.6-0.1,1.1-0.3,1.7c-0.2,0.5-0.5,1-0.9,1.3C744.9,113.6,744.5,113.9,744,114.1z M740.9,113.3
				c0.4,0.2,0.9,0.3,1.3,0.3c0.9,0,1.8-0.4,2.4-1c0.3-0.3,0.6-0.6,0.7-1c0.2-0.4,0.3-0.9,0.3-1.3c0-1.4-0.8-2.6-2.1-3.1
				c-0.4-0.2-0.9-0.3-1.3-0.3c-0.4,0-0.9,0.1-1.3,0.3c-0.4,0.2-0.8,0.4-1.1,0.7c-0.3,0.3-0.5,0.7-0.7,1.1c-0.2,0.4-0.3,0.9-0.3,1.3
				c0,0.5,0.1,0.9,0.3,1.3C739.5,112.3,740.2,112.9,740.9,113.3L740.9,113.3z"/>
			<path d="M754.5,113.8c-0.6,0.4-1.4,0.6-2.2,0.6c-0.7,0-1.4-0.2-1.9-0.7c-0.5-0.5-0.7-1.1-0.7-1.7v-5h-1.6v-0.8h2.5v5.7
				c0,0.5,0.2,0.9,0.5,1.2c0.4,0.4,0.9,0.6,1.4,0.6c0.4,0,0.9-0.1,1.3-0.2c0.4-0.1,0.7-0.4,1.1-0.6c0.3-0.3,0.6-0.6,0.7-0.9
				c0.2-0.4,0.3-0.8,0.3-1.2V107h-1.6v-0.8h2.5v7.4h1.5v0.8h-2.3l0-1.1v-1C755.6,112.8,755.1,113.4,754.5,113.8z"/>
			<path d="M761.7,114.3V107h-1.9v-0.9h1.9v-5.3h0.9v5.3h2.5v0.9h-2.5v6.4h1.7v0.9L761.7,114.3z"/>
			<line class="st4" x1="1014.2" y1="326.8" x2="1037.6" y2="326.8"/>
			<line class="st4" x1="1014.2" y1="334.2" x2="1037.6" y2="334.2"/>
			<line class="st4" x1="1014.2" y1="341.6" x2="1029.1" y2="341.6"/>
		</g>
	</g>
</g>
</svg>
