<svg id="ケーキのアイコン4" xmlns="http://www.w3.org/2000/svg" width="93.326" height="74.315" viewBox="0 0 93.326 74.315">
  <path id="パス_3" data-name="パス 3" d="M93.326,92.779a4.5,4.5,0,0,0-.6-2.188,4.29,4.29,0,0,0-1.512-1.584l0-.007L51.3,63.64c-2.72-6.264-7.879-9.352-11.289-9.352a7.912,7.912,0,0,0-2.62.518l-2.492-1.583-.012-.007a8.413,8.413,0,0,0-4.438-1.068,19.742,19.742,0,0,0-5.452.875,32.1,32.1,0,0,0-8.93,4.307A30.4,30.4,0,0,0,8.18,65.085,49.443,49.443,0,0,0,1.848,77.819,35.233,35.233,0,0,0,0,88.4c0,.518.024,1.01.058,1.489v30.023a6.554,6.554,0,0,0,6.553,6.553H85.985a6.555,6.555,0,0,0,6.551-6.369l.746-26.889h-.007A4.279,4.279,0,0,0,93.326,92.779ZM47.408,71.444c.1-1.168.65-2.08,1.222-2.037s.955,1.026.854,2.2-.65,2.079-1.223,2.034S47.307,72.612,47.408,71.444ZM45.124,61.7c.569-.082,1.186.79,1.38,1.948s-.112,2.163-.68,2.245-1.186-.789-1.38-1.947S44.556,61.78,45.124,61.7ZM43.763,79.445c.1-1.166.649-2.077,1.223-2.034s.954,1.025.853,2.193-.649,2.08-1.223,2.037S43.66,80.614,43.763,79.445Zm-4.245-8c.1-1.169.65-2.08,1.223-2.035s.954,1.026.853,2.192-.65,2.08-1.222,2.036S39.417,72.613,39.518,71.445Zm-2.127,8.011c.194,1.158-.11,2.162-.679,2.244s-1.186-.789-1.379-1.947.11-2.163.68-2.245S37.2,78.3,37.391,79.456Zm-3.47-15.492c.111-1.168.665-2.076,1.239-2.03s.947,1.032.839,2.2-.665,2.074-1.239,2.029S33.813,65.13,33.921,63.964Zm54.352,56.01a2.288,2.288,0,0,1-2.288,2.224H6.611a2.293,2.293,0,0,1-2.287-2.287v-7.357H88.479Zm.389-14.038H4.352c-.01,0-.018-.005-.028-.007V95.651H88.948Zm.374-13.129H4.475l-.121-.136c-.01-.012-.021-.042-.031-.057V89.8l-.007-.086c-.033-.4-.051-.842-.05-1.315a31,31,0,0,1,1.64-9.268A45.2,45.2,0,0,1,11.7,67.5a27.144,27.144,0,0,1,9.38-8.242A26.626,26.626,0,0,1,26.2,57.116a15.557,15.557,0,0,1,4.249-.7,4.443,4.443,0,0,1,2.183.424l.678.43c-3.43,2.966-6.419,8.161-6.419,15.691,0,10.185,8.383,12.561,13.122,12.561s13.122-2.376,13.122-12.561a26.1,26.1,0,0,0-.217-3.235l36.058,22.9.068.111.008.026ZM32.312,73.787c-.567.083-1.184-.79-1.377-1.947s.111-2.163.679-2.245,1.186.789,1.38,1.947S32.881,73.7,32.312,73.787Z" transform="translate(0 -52.149)" fill="#c3e3f7"/>
</svg>
