<svg xmlns="http://www.w3.org/2000/svg" viewBox="0 0 57.13 25.66"><g id="レイヤー_2" data-name="レイヤー 2"><g id="レイヤー_1-2" data-name="レイヤー 1"><path d="M.18,12.4v-.65h1V1.47h-1V.83H3.67A4.39,4.39,0,0,1,4.8,1,3.76,3.76,0,0,1,6,1.52a3.2,3.2,0,0,1,.89.94,2.6,2.6,0,0,1,.37,1.39A2.94,2.94,0,0,1,6.3,6.11a3.74,3.74,0,0,1-2.6.83H1.87v4.81H3.5v.65ZM1.87,6.3H3.59A3.85,3.85,0,0,0,5,6.07a2.45,2.45,0,0,0,.91-.62,2,2,0,0,0,.47-.77,3.11,3.11,0,0,0,.13-.83,2,2,0,0,0-.23-.91,2.34,2.34,0,0,0-.62-.76,3.27,3.27,0,0,0-.92-.51,3.32,3.32,0,0,0-1.16-.2H1.87Z"/><path d="M12.31,12.26a3.25,3.25,0,0,1-1.28.25,3.18,3.18,0,0,1-1.28-.25,3,3,0,0,1-1-.69,3.28,3.28,0,0,1-.69-1,3.12,3.12,0,0,1-.25-1.26A3.18,3.18,0,0,1,8,8a3.5,3.5,0,0,1,.69-1,3.47,3.47,0,0,1,1-.68,3,3,0,0,1,1.28-.26,3,3,0,0,1,1.26.26,3.39,3.39,0,0,1,1,.68,3.5,3.5,0,0,1,.69,1,3.18,3.18,0,0,1,.25,1.26,3,3,0,0,1-.25,1.25,3.45,3.45,0,0,1-.69,1A3.09,3.09,0,0,1,12.31,12.26ZM10,11.65a2.6,2.6,0,0,0,1,.2,2.61,2.61,0,0,0,1.82-.76,2.47,2.47,0,0,0,.74-1.8,2.36,2.36,0,0,0-.2-1,2.53,2.53,0,0,0-.56-.84A2.62,2.62,0,0,0,12,6.92a2.7,2.7,0,0,0-2,0A2.49,2.49,0,0,0,8.67,8.3a2.54,2.54,0,0,0-.2,1,2.6,2.6,0,0,0,.2,1,2.32,2.32,0,0,0,.56.79A2.23,2.23,0,0,0,10,11.65Z"/><path d="M15.87,12.4v-.65h1.29V6.84H16V6.2h1.74l.05.87c0,.19,0,.31,0,.37s0,.17,0,.36a2.77,2.77,0,0,1,.47-.73,2.56,2.56,0,0,1,.65-.54,3.3,3.3,0,0,1,.72-.33,2.82,2.82,0,0,1,.76-.13l0,.67a2.84,2.84,0,0,0-.93.16,2.34,2.34,0,0,0-.77.44,2,2,0,0,0-.59.72,2,2,0,0,0-.22.95v2.74h1.22v.65Z"/><path d="M23.39,12.4V6.86H22V6.2h1.43v-4h.68v4H26v.66H24.07v4.89h1.36v.65Z"/><path d="M27.56,12.4v-.65h1V6.86h-1V6.2h1V3.83a4.59,4.59,0,0,1,.26-1.62A3.46,3.46,0,0,1,29.56,1,3.33,3.33,0,0,1,30.64.29,3.92,3.92,0,0,1,32,0V.64a3,3,0,0,0-1.07.24,2.53,2.53,0,0,0-.87.62,3,3,0,0,0-.59,1,3.8,3.8,0,0,0-.22,1.32V6.2h2.07v.66H29.24v4.89h1.51v.65Z"/><path d="M37.52,12.26a3.28,3.28,0,0,1-1.28.25A3.23,3.23,0,0,1,35,12.26a2.84,2.84,0,0,1-1-.69,3.15,3.15,0,0,1-.7-1A3.29,3.29,0,0,1,33,9.29,3.16,3.16,0,0,1,33.94,7a3.42,3.42,0,0,1,1-.68,3,3,0,0,1,1.28-.26,3.11,3.11,0,0,1,1.27.26,3.39,3.39,0,0,1,1,.68,3.67,3.67,0,0,1,.68,1,3.19,3.19,0,0,1,.26,1.26,3,3,0,0,1-.26,1.25,3.62,3.62,0,0,1-.68,1A3.09,3.09,0,0,1,37.52,12.26Zm-2.29-.61a2.57,2.57,0,0,0,2.82-.56,2.44,2.44,0,0,0,.55-.79,2.6,2.6,0,0,0,.2-1A2.61,2.61,0,0,0,38,7.47a2.75,2.75,0,0,0-.82-.55,2.62,2.62,0,0,0-1-.19,2.53,2.53,0,0,0-1,.19,2.7,2.7,0,0,0-.81.55,2.73,2.73,0,0,0-.55.83,2.54,2.54,0,0,0-.2,1,2.6,2.6,0,0,0,.2,1,2.32,2.32,0,0,0,.56.79A2.27,2.27,0,0,0,35.23,11.65Z"/><path d="M41.08,12.4v-.65H42.3V.64H41.13V0H43V11.75h1.29v.65Z"/><path d="M45.84,12.4v-.65h1.27V6.84H45.84V6.2h1.95v5.55H49v.65Zm2-8a.53.53,0,0,1-.37.15.55.55,0,0,1-.38-.15.56.56,0,0,1,0-.78.57.57,0,0,1,.38-.16.54.54,0,0,1,.37.16.56.56,0,0,1,0,.78Z"/><path d="M55.13,12.26a3.21,3.21,0,0,1-1.28.25,3.18,3.18,0,0,1-1.28-.25,2.84,2.84,0,0,1-1-.69,3.15,3.15,0,0,1-.7-1,3.29,3.29,0,0,1-.25-1.26,3.22,3.22,0,0,1,1-2.3,3.3,3.3,0,0,1,1-.68,3.23,3.23,0,0,1,2.54,0,3.17,3.17,0,0,1,1,.68,3.5,3.5,0,0,1,.69,1,3.19,3.19,0,0,1,.26,1.26,3,3,0,0,1-.26,1.25,3.45,3.45,0,0,1-.69,1A2.91,2.91,0,0,1,55.13,12.26Zm-2.28-.61a2.51,2.51,0,0,0,1,.2,2.54,2.54,0,0,0,2.57-2.56,2.53,2.53,0,0,0-.2-1,2.55,2.55,0,0,0-.57-.84,2.7,2.7,0,0,0-.81-.55,2.62,2.62,0,0,0-1-.19,2.46,2.46,0,0,0-1,.19,2.7,2.7,0,0,0-.81.55,2.62,2.62,0,0,0-.75,1.82,2.6,2.6,0,0,0,.2,1,2.32,2.32,0,0,0,.56.79A2.27,2.27,0,0,0,52.85,11.65Z"/><path d="M2,23.57v-.22h.63v-2l-1-1.71L.59,18H0v-.23H1.57V18H.87l.9,1.5.9,1.5.1.22h0L2.87,21l1.79-3H4v-.23H5.54V18h-.6l-1,1.71-1,1.71v2h.67v.22Z"/><path d="M7.4,23.5a1.56,1.56,0,0,1-.64.13,1.5,1.5,0,0,1-.64-.13,1.41,1.41,0,0,1-.51-.35,1.82,1.82,0,0,1-.36-.51,1.74,1.74,0,0,1,0-1.27,1.66,1.66,0,0,1,.36-.53,1.54,1.54,0,0,1,.51-.35,1.64,1.64,0,0,1,1.28,0,1.75,1.75,0,0,1,.53.35,1.63,1.63,0,0,1,.35.53,1.62,1.62,0,0,1,0,1.27,1.78,1.78,0,0,1-.35.51A1.58,1.58,0,0,1,7.4,23.5Zm-1.19-.21a1.41,1.41,0,0,0,1.09,0,1.37,1.37,0,0,0,.45-.3,1.77,1.77,0,0,0,.3-.45A1.33,1.33,0,0,0,8.16,22a1.46,1.46,0,0,0-.11-.55,1.55,1.55,0,0,0-.3-.44,1.57,1.57,0,0,0-.45-.31,1.4,1.4,0,0,0-.54-.1,1.42,1.42,0,0,0-.55.1,1.52,1.52,0,0,0-.44.31,1.37,1.37,0,0,0-.3.45,1.41,1.41,0,0,0,0,1.09,1.43,1.43,0,0,0,.74.74Z"/><path d="M9,23.57v-.22h.65V20.66H9v-.22h.8v.37c0,.08,0,.15,0,.22v.23a1.4,1.4,0,0,1,.54-.64,1.53,1.53,0,0,1,.84-.24,1,1,0,0,1,.72.26,1,1,0,0,1,.28.67v2h.64v.22H11.33v-.22H12v-2a.75.75,0,0,0-.76-.73,1.54,1.54,0,0,0-.52.09,1.27,1.27,0,0,0-.42.25,1,1,0,0,0-.3.38,1.13,1.13,0,0,0-.11.48v1.55h.65v.22Z"/><path d="M15.69,23.51a1.46,1.46,0,0,1-.6.12,1.64,1.64,0,0,1-1.16-.48,1.78,1.78,0,0,1-.35-.51,1.74,1.74,0,0,1,0-1.27,1.49,1.49,0,0,1,.35-.52,1.7,1.7,0,0,1,.52-.35,1.53,1.53,0,0,1,.64-.13,1.56,1.56,0,0,1,.48.08,1.27,1.27,0,0,1,.42.25,1.72,1.72,0,0,1,.31.34,1.93,1.93,0,0,1,.22.43L15.16,22l-1.35.54a1.35,1.35,0,0,0,.5.61,1.4,1.4,0,0,0,.78.23,1.46,1.46,0,0,0,.52-.1A1.17,1.17,0,0,0,16,23l.15.18A1.38,1.38,0,0,1,15.69,23.51Zm-1.23-2.76a1.28,1.28,0,0,0-.48.41,1.33,1.33,0,0,0-.26.55,1.23,1.23,0,0,0,0,.63L15,21.85l1.24-.5a1.35,1.35,0,0,0-.46-.54,1.16,1.16,0,0,0-.67-.21A1.33,1.33,0,0,0,14.46,20.75Z"/><path d="M17.6,25.66v-.22h.69c.15-.31.3-.62.46-.93s.3-.61.46-.91c-.25-.49-.5-1-.74-1.47s-.49-1-.73-1.47h-.62v-.22h1.45v.22H18c.22.45.44.9.67,1.35s.44.89.65,1.35c.22-.44.44-.88.66-1.34l.68-1.36H20.2v-.22h1.31v.22h-.58l-1.19,2.39-1.18,2.39h.57v.22Z"/><path d="M25.15,23.57v-.84a1.25,1.25,0,0,1-.52.63,1.63,1.63,0,0,1-.42.2,1.66,1.66,0,0,1-1.12-.06,1.54,1.54,0,0,1-.52-.35,1.6,1.6,0,0,1-.35-.51,1.62,1.62,0,0,1,0-1.27,1.37,1.37,0,0,1,.35-.52,1.7,1.7,0,0,1,.52-.35,1.5,1.5,0,0,1,.64-.13,1.55,1.55,0,0,1,.88.26,1.59,1.59,0,0,1,.54.65c0-.14,0-.28,0-.42s0-.28,0-.42h.18v2.91H26v.22Zm-2-2.86a1.54,1.54,0,0,0-.45.3,1.51,1.51,0,0,0-.29.45,1.24,1.24,0,0,0-.11.54,1.47,1.47,0,0,0,.11.56,1.4,1.4,0,0,0,.31.44,1.3,1.3,0,0,0,.44.29,1.38,1.38,0,0,0,1.08,0,1.51,1.51,0,0,0,.45-.29,1.37,1.37,0,0,0,.3-.45,1.38,1.38,0,0,0,.11-.55,1.46,1.46,0,0,0-.11-.55,1.23,1.23,0,0,0-.3-.44,1.57,1.57,0,0,0-.45-.31,1.4,1.4,0,0,0-.54-.1A1.26,1.26,0,0,0,23.18,20.71Z"/><path d="M26.57,23.57v-.22h.65V20.66h-.61v-.22h.79v.37a1.7,1.7,0,0,1,0,.22,1.55,1.55,0,0,1,0,.23,1.47,1.47,0,0,1,1.38-.88,1,1,0,0,1,.68.23.83.83,0,0,1,.3.6,1.45,1.45,0,0,1,.54-.61,1.5,1.5,0,0,1,.82-.22,1,1,0,0,1,.71.26.94.94,0,0,1,.28.67v2h.65v.22H31.25v-.22h.66v-2a.75.75,0,0,0-.76-.73,1.46,1.46,0,0,0-.93.33,1.52,1.52,0,0,0-.3.37.9.9,0,0,0-.12.46v1.59h.65v.22H28.91v-.22h.66v-2a.8.8,0,0,0-.21-.5.82.82,0,0,0-.55-.23,1.46,1.46,0,0,0-.52.09,1.43,1.43,0,0,0-.43.25,1.11,1.11,0,0,0-.41.86v1.55h.66v.22Z"/><path d="M36.43,23.57v-.84a1.25,1.25,0,0,1-.52.63,1.81,1.81,0,0,1-.42.2,1.53,1.53,0,0,1-.49.07,1.56,1.56,0,0,1-.64-.13,1.69,1.69,0,0,1-.86-.86,1.62,1.62,0,0,1,0-1.27,1.37,1.37,0,0,1,.35-.52,1.78,1.78,0,0,1,.51-.35,1.65,1.65,0,0,1,1.53.13,1.59,1.59,0,0,1,.54.65c0-.14,0-.28,0-.42s0-.28,0-.42h.18v2.91h.62v.22Zm-2-2.86A1.54,1.54,0,0,0,34,21a1.51,1.51,0,0,0-.29.45,1.24,1.24,0,0,0-.11.54,1.47,1.47,0,0,0,.11.56A1.4,1.4,0,0,0,34,23a1.3,1.3,0,0,0,.44.29,1.36,1.36,0,0,0,.53.11,1.42,1.42,0,0,0,.55-.11A1.51,1.51,0,0,0,36,23a1.37,1.37,0,0,0,.3-.45,1.38,1.38,0,0,0,.11-.55,1.46,1.46,0,0,0-.11-.55A1.23,1.23,0,0,0,36,21a1.57,1.57,0,0,0-.45-.31,1.42,1.42,0,0,0-.55-.1A1.24,1.24,0,0,0,34.46,20.71Z"/><path d="M40.35,23.57v-.22h.56V18h-.56v-.23h1.77a2.28,2.28,0,0,1,.55.08,2.12,2.12,0,0,1,.57.27,1.46,1.46,0,0,1,.43.46,1.31,1.31,0,0,1,.18.69,1.42,1.42,0,0,1-1.26,1.5l1.23,2.63h.72v.22h-.87l-1.32-2.82H41.14v2.58h.79v.22Zm.79-3h.91a1.85,1.85,0,0,0,.76-.13,1.35,1.35,0,0,0,.49-.32.94.94,0,0,0,.24-.42,1.53,1.53,0,0,0,.08-.45,1.07,1.07,0,0,0-.12-.48,1.42,1.42,0,0,0-.33-.41,1.57,1.57,0,0,0-.49-.28,1.79,1.79,0,0,0-.62-.1h-.92Z"/><path d="M45.12,23.57v-.22h.67V20.66h-.67v-.22H46v2.91h.64v.22Zm.94-4.06a.21.21,0,0,1-.15.07.2.2,0,0,1-.16-.07.18.18,0,0,1-.07-.15.2.2,0,0,1,.07-.16.24.24,0,0,1,.16-.07.26.26,0,0,1,.15.07.23.23,0,0,1,.06.16A.2.2,0,0,1,46.06,19.51Z"/><path d="M47.25,23.57v-.22h.65V20.66h-.61v-.22h.79v.37a1.7,1.7,0,0,1,0,.22c0,.06,0,.14,0,.23a1.35,1.35,0,0,1,.54-.64,1.48,1.48,0,0,1,.84-.24,1,1,0,0,1,.71.26.94.94,0,0,1,.28.67v2h.64v.22H49.59v-.22h.66v-2a.76.76,0,0,0-.22-.5.79.79,0,0,0-.54-.23,1.46,1.46,0,0,0-.52.09,1.31,1.31,0,0,0-.43.25,1,1,0,0,0-.3.38,1.13,1.13,0,0,0-.11.48v1.55h.65v.22Z"/><path d="M54.76,23.57v-.39a1.77,1.77,0,0,1,0-.23v-.22a1.41,1.41,0,0,1-.21.35,1.46,1.46,0,0,1-.32.28,1.74,1.74,0,0,1-.41.2,1.57,1.57,0,0,1-.49.07,1.53,1.53,0,0,1-.64-.13,1.41,1.41,0,0,1-.51-.35,1.6,1.6,0,0,1-.35-.51,1.62,1.62,0,0,1,0-1.27,1.37,1.37,0,0,1,.35-.52,1.54,1.54,0,0,1,.51-.35,1.53,1.53,0,0,1,.64-.13,1.55,1.55,0,0,1,.89.26,1.49,1.49,0,0,1,.53.65c0-.14,0-.28,0-.42s0-.28,0-.42H55v2.91h.62v.22Zm-2-2.86a1.37,1.37,0,0,0-.44.3,1.54,1.54,0,0,0-.3.45,1.41,1.41,0,0,0-.11.54,1.31,1.31,0,0,0,.12.56,1.25,1.25,0,0,0,.31.44,1.21,1.21,0,0,0,.44.29,1.32,1.32,0,0,0,.53.11,1.42,1.42,0,0,0,.55-.11,1.51,1.51,0,0,0,.45-.29,1.77,1.77,0,0,0,.3-.45,1.38,1.38,0,0,0,.11-.55,1.46,1.46,0,0,0-.11-.55,1.55,1.55,0,0,0-.3-.44,1.57,1.57,0,0,0-.45-.31,1.42,1.42,0,0,0-.55-.1A1.29,1.29,0,0,0,52.79,20.71Z"/></g></g></svg>