<svg xmlns="http://www.w3.org/2000/svg" xmlns:xlink="http://www.w3.org/1999/xlink" viewBox="0 0 387.97 252.52"><defs><style>.cls-1,.cls-16,.cls-17,.cls-24,.cls-29,.cls-33,.cls-35,.cls-39,.cls-41,.cls-6,.cls-7,.cls-8{fill:none;}.cls-2{fill:#eaeaea;}.cls-15,.cls-3{fill:#084a40;}.cls-11,.cls-12,.cls-13,.cls-18,.cls-19,.cls-20,.cls-21,.cls-24,.cls-25,.cls-29,.cls-3,.cls-32,.cls-33,.cls-34,.cls-35,.cls-36,.cls-39,.cls-40,.cls-41{isolation:isolate;}.cls-3{opacity:0.85;}.cls-18,.cls-19,.cls-21,.cls-25,.cls-32,.cls-34,.cls-36,.cls-4,.cls-40{fill:#fff;}.cls-5{clip-path:url(#clip-path);}.cls-6,.cls-7{stroke:#bcbdbd;}.cls-6,.cls-7,.cls-8,.cls-9{stroke-linecap:round;stroke-linejoin:round;}.cls-6{stroke-width:6px;}.cls-7{stroke-width:3px;}.cls-8{stroke:#dcdcdc;stroke-width:4px;}.cls-10,.cls-11,.cls-9{fill:#231815;}.cls-9{stroke:#231815;stroke-width:0.5px;}.cls-11{font-size:5.62px;}.cls-11,.cls-12,.cls-13{font-family:HGPGothicM;}.cls-12,.cls-13{font-size:6.25px;fill:#595857;}.cls-13{writing-mode:tb;text-orientation:upright;glyph-orientation-vertical:0deg;}.cls-14{fill:#ae7f46;}.cls-16,.cls-17{stroke-miterlimit:10;}.cls-16{stroke:url(#名称未設定グラデーション_2);}.cls-17{stroke:url(#名称未設定グラデーション_2-2);}.cls-18{font-size:15.31px;letter-spacing:0.12em;}.cls-18,.cls-19{font-family:CalifornianFB-Bold, Californian FB;font-weight:700;}.cls-19{font-size:15.57px;letter-spacing:0.13em;}.cls-21,.cls-24,.cls-32,.cls-33,.cls-40,.cls-41{font-size:9.19px;}.cls-21,.cls-24,.cls-25,.cls-29,.cls-32,.cls-33,.cls-34,.cls-35,.cls-36,.cls-39,.cls-40,.cls-41{font-family:UDShinGoPr6N-Light-90ms-RKSJ-H, A-OTF UD Shin Go Pr6N;}.cls-22{letter-spacing:-0.02em;}.cls-23{letter-spacing:-0.02em;}.cls-24,.cls-29,.cls-33,.cls-35,.cls-39,.cls-41{stroke:#fff;stroke-miterlimit:10;stroke-width:0.25px;}.cls-25,.cls-29,.cls-34,.cls-35,.cls-36,.cls-39{font-size:9.95px;}.cls-26{letter-spacing:-0.37em;}.cls-27{letter-spacing:-0.01em;}.cls-28{letter-spacing:0em;}.cls-30{letter-spacing:-0.02em;}.cls-31{letter-spacing:-0.02em;}.cls-32,.cls-33{letter-spacing:0.2em;}.cls-34,.cls-35{letter-spacing:-0.29em;}.cls-36,.cls-39{letter-spacing:-0.02em;}.cls-37{letter-spacing:-0.02em;}.cls-38{letter-spacing:-0.02em;}.cls-40,.cls-41{letter-spacing:-0.19em;}.cls-42{letter-spacing:-0.02em;}.cls-43{fill:#353535;}</style><clipPath id="clip-path" transform="translate(56.2)"><rect class="cls-1" x="23.14" y="26.33" width="150.34" height="143.16" transform="translate(-0.19 0.19) rotate(-0.11)"/></clipPath><linearGradient id="名称未設定グラデーション_2" x1="137.11" y1="522.25" x2="137.1" y2="523.63" gradientTransform="matrix(1, 0, 0, -1, 167.24, 599.33)" gradientUnits="userSpaceOnUse"><stop offset="0" stop-color="#fdf9d9"/><stop offset="0.34" stop-color="#dac680"/></linearGradient><linearGradient id="名称未設定グラデーション_2-2" x1="137.41" y1="463.17" x2="137.41" y2="464.55" xlink:href="#名称未設定グラデーション_2"/></defs><g id="レイヤー_2" data-name="レイヤー 2"><g id="レイヤー_1-2" data-name="レイヤー 1"><g id="レイヤー_2-2" data-name="レイヤー 2"><g id="背景"><rect class="cls-2" x="10.07" y="6.06" width="321.52" height="199.44" rx="8.82" transform="translate(56 0.33) rotate(-0.11)"/><rect id="裏枠" class="cls-3" x="0.17" y="0.29" width="322.28" height="194.79" rx="8.5" transform="translate(56.01 0.31) rotate(-0.11)"/><g id="地図"><rect class="cls-4" x="23.14" y="26.33" width="150.34" height="143.16" transform="translate(56.01 0.19) rotate(-0.11)"/><g class="cls-5"><path class="cls-6" d="M-40.45,136.19c1.31-.91,142.68-57.91,280.26-31.53" transform="translate(56.2)"/><polyline class="cls-6" points="123.85 12.6 150.95 63.16 154.14 249.1"/><line class="cls-6" x1="186.07" y1="12.02" x2="180.51" y2="249.52"/><line class="cls-7" x1="150.85" y1="63.16" x2="185.03" y2="79.12"/><line class="cls-7" x1="207.11" y1="100.35" x2="257.07" y2="207"/><polyline class="cls-7" points="232.74 15.12 143.04 49.65 13.41 121.64"/><path class="cls-8" d="M-54.2,112.5s128.46-93.74,193.51-98" transform="translate(56.2)"/><path class="cls-8" d="M-53.42,104.14S75,10.4,140.11,6.09" transform="translate(56.2)"/><circle class="cls-9" cx="198.57" cy="90.63" r="1.42"/><circle class="cls-9" cx="158.29" cy="73.48" r="1.42"/><circle class="cls-10" cx="117.86" cy="97.83" r="2.33"/><text class="cls-11" transform="translate(189.16 86.64) rotate(-0.11)">セブンイレブン</text><text class="cls-11" transform="translate(155.65 81.26) rotate(-0.11)">灯籠</text><text class="cls-11" transform="translate(161.87 118.22) rotate(-0.11)">ガソリンスタンド</text><circle class="cls-9" cx="172.66" cy="122.21" r="1.42"/><text class="cls-12" transform="translate(190.03 100) rotate(-0.11)">善通寺府中線</text><text class="cls-13" transform="translate(152.4 134.71) rotate(-0.11)">金毘羅街道</text><text class="cls-13" transform="translate(182.7 134.65) rotate(-0.11)">丸亀三好線</text><text class="cls-12" transform="matrix(0.99, 0, 0, 1, 95.26, 40.01)">高松自動車道</text><path class="cls-14" d="M43.57,79.36s-1.69.53-2.49-.08a5.71,5.71,0,0,0,1.23-.69,6.22,6.22,0,0,1,1.66-1c.83-.3.83-.2,1.19-.34a3.5,3.5,0,0,0,1.76-1.53s-.1,1.39-2.63,2.11c-.4.13-.25.39-.15.39A3.77,3.77,0,0,0,46,77.71a2.59,2.59,0,0,1-1.47,1,15.37,15.37,0,0,1-.15,1.92c-.14.85-.72,2.43-.72,2.92s-.11,1.2,1.12,1a3.2,3.2,0,0,1,1.76.11,28.32,28.32,0,0,0,4,.68c2,.17,2.8.42,3.21.75a6,6,0,0,1,1,1.8,4.25,4.25,0,0,0,2.7,2.32,8.7,8.7,0,0,0,1,2,1.77,1.77,0,0,0,1.47.83l.41,1.08s-1,.33-3.15-3.22c0,0-3-1-4.08-2.71a2.57,2.57,0,0,0-2.81-.82c-.88.28-3,1-4,.54s-1.19.12-1.23.23-.21.38-1,.11-2.66-.76-2.21-.25,1.8,2.4,3.59,2.32l.75.82s-1.36.41-4-2.17a15.62,15.62,0,0,0-1.78-1.57s.55-.67,1.18-.5a6.11,6.11,0,0,0,1.64.32c.13-.08-.54-.65-.69-1.12a6.16,6.16,0,0,1,.2-3.58C43.4,81.44,43.89,80.15,43.57,79.36Z" transform="translate(56.2)"/><path class="cls-15" d="M36.34,84.4l-.69.68a2,2,0,0,0-1.53-.68,1.77,1.77,0,0,0-1.27.5,1.73,1.73,0,0,0,0,2.48,1.75,1.75,0,0,0,1.31.52,1.5,1.5,0,0,0,.85-.22A1.41,1.41,0,0,0,35.6,87H34.11v-.92h2.58v.22a2.51,2.51,0,0,1-.35,1.28,2.41,2.41,0,0,1-.9.92,2.58,2.58,0,0,1-1.3.32,2.85,2.85,0,0,1-1.43-.34,2.53,2.53,0,0,1-1-1,2.79,2.79,0,0,1-.36-1.38A2.6,2.6,0,0,1,32,84.33a2.63,2.63,0,0,1,2.08-.9,3.35,3.35,0,0,1,1.25.24A3,3,0,0,1,36.34,84.4Z" transform="translate(56.2)"/><path class="cls-15" d="M39.11,83.59h1l2,5.13h-1l-.5-1.13H38.52l-.41,1.11h-1Zm.5,1.36-.68,1.76H40.3Z" transform="translate(56.2)"/><path class="cls-15" d="M43,83.59h3.14l-1.82,4.2H46v.94H42.83l1.81-4.17H43Z" transform="translate(56.2)"/><path class="cls-15" d="M47.29,83.59h2.82v1H48.26v.93h1.85v.94H48.26v1.35h1.85v1h-2.8Z" transform="translate(56.2)"/><path class="cls-15" d="M51.47,83.59h1V87.8H53.9v.94H51.5Z" transform="translate(56.2)"/><path class="cls-15" d="M55.11,83.53h1v4.2h1.43v.93H55.11Z" transform="translate(56.2)"/><path class="cls-15" d="M58.55,83.52h2.8v1H59.52v.93h1.84v.94H59.53v1.35h1.83v1h-2.8Z" transform="translate(56.2)"/></g></g><line class="cls-16" x1="243.66" y1="76.25" x2="363.01" y2="76.02"/><line class="cls-17" x1="243.77" y1="135.33" x2="363.75" y2="135.11"/><text class="cls-18" transform="translate(243.38 67.24) rotate(-0.11)">Open</text><text class="cls-19" transform="translate(243.68 130.4) rotate(-0.11)">Close</text><g class="cls-20"><text class="cls-21" transform="translate(243.75 90.79) rotate(-0.11)"><tspan xml:space="preserve">平  </tspan><tspan class="cls-22" x="15.31" y="0"> </tspan><tspan class="cls-23" x="18.21" y="0">日</tspan></text><text class="cls-24" transform="translate(243.75 90.79) rotate(-0.11)"><tspan xml:space="preserve">平  </tspan><tspan class="cls-22" x="15.31" y="0"> </tspan><tspan class="cls-23" x="18.21" y="0">日</tspan></text><text class="cls-25" transform="translate(271.3 91.03) rotate(-0.11)"><tspan xml:space="preserve">   </tspan><tspan class="cls-26" x="9.94" y="0">9：</tspan><tspan x="19.05" y="0">30</tspan><tspan class="cls-27" x="32.19" y="0" xml:space="preserve"> ～</tspan><tspan x="45.27" y="0" xml:space="preserve"> 1</tspan><tspan class="cls-26" x="55.15" y="0">9：</tspan><tspan class="cls-28" x="64.27" y="0">30　</tspan></text><text class="cls-29" transform="translate(271.3 91.03) rotate(-0.11)"><tspan xml:space="preserve">   </tspan><tspan class="cls-26" x="9.94" y="0">9：</tspan><tspan x="19.05" y="0">30</tspan><tspan class="cls-27" x="32.19" y="0" xml:space="preserve"> ～</tspan><tspan x="45.27" y="0" xml:space="preserve"> 1</tspan><tspan class="cls-26" x="55.15" y="0">9：</tspan><tspan class="cls-28" x="64.27" y="0">30　</tspan></text><text class="cls-21" transform="translate(243.78 108.2) rotate(-0.11)"><tspan class="cls-30">土</tspan><tspan class="cls-31" x="9.02" y="0">日</tspan><tspan x="18.04" y="0">祝</tspan></text><text class="cls-24" transform="translate(243.78 108.2) rotate(-0.11)"><tspan class="cls-30">土</tspan><tspan class="cls-31" x="9.02" y="0">日</tspan><tspan x="18.04" y="0">祝</tspan></text><text class="cls-25" transform="translate(271.34 108.44) rotate(-0.11)"><tspan xml:space="preserve">   </tspan><tspan class="cls-26" x="9.94" y="0">9：</tspan><tspan x="19.05" y="0">00</tspan><tspan class="cls-27" x="32.19" y="0" xml:space="preserve"> ～</tspan><tspan x="45.27" y="0" xml:space="preserve"> 1</tspan><tspan class="cls-26" x="55.15" y="0">9：</tspan><tspan class="cls-28" x="64.27" y="0">00</tspan></text><text class="cls-29" transform="translate(271.34 108.44) rotate(-0.11)"><tspan xml:space="preserve">   </tspan><tspan class="cls-26" x="9.94" y="0">9：</tspan><tspan x="19.05" y="0">00</tspan><tspan class="cls-27" x="32.19" y="0" xml:space="preserve"> ～</tspan><tspan x="45.27" y="0" xml:space="preserve"> 1</tspan><tspan class="cls-26" x="55.15" y="0">9：</tspan><tspan class="cls-28" x="64.27" y="0">00</tspan></text></g><g class="cls-20"><text class="cls-21" transform="translate(243.86 149.73) rotate(-0.11)">毎</text><text class="cls-24" transform="translate(243.86 149.73) rotate(-0.11)">毎</text><text class="cls-32" transform="translate(253.05 149.71) rotate(-0.11)"> </text><text class="cls-33" transform="translate(253.05 149.71) rotate(-0.11)"> </text><text class="cls-21" transform="translate(265.9 149.69) rotate(-0.11)">週</text><text class="cls-24" transform="translate(265.9 149.69) rotate(-0.11)">週</text><text class="cls-25" transform="translate(275.08 149.96) rotate(-0.11)"><tspan xml:space="preserve">   </tspan></text><text class="cls-29" transform="translate(275.08 149.96) rotate(-0.11)"><tspan xml:space="preserve">   </tspan></text><text class="cls-34" transform="translate(285.02 149.94) rotate(-0.11)"> </text><text class="cls-35" transform="translate(285.02 149.94) rotate(-0.11)"> </text><text class="cls-36" transform="translate(285.4 149.85) rotate(-0.11)">月<tspan class="cls-37" x="9.71" y="0">曜</tspan><tspan class="cls-38" x="19.48" y="0">日</tspan></text><text class="cls-39" transform="translate(285.4 149.85) rotate(-0.11)">月<tspan class="cls-37" x="9.71" y="0">曜</tspan><tspan class="cls-38" x="19.48" y="0">日</tspan></text><text class="cls-40" transform="translate(243.89 167.14) rotate(-0.11)">第１･３</text><text class="cls-41" transform="translate(243.89 167.14) rotate(-0.11)">第１･３</text><text class="cls-25" transform="translate(276.04 167.37) rotate(-0.11)"><tspan xml:space="preserve">   火</tspan><tspan class="cls-37" x="19.89" y="0">曜</tspan><tspan class="cls-42" x="29.66" y="0">日</tspan><tspan class="cls-28" x="39.42" y="0"> </tspan></text><text class="cls-29" transform="translate(276.04 167.37) rotate(-0.11)"><tspan xml:space="preserve">   火</tspan><tspan class="cls-37" x="19.89" y="0">曜</tspan><tspan class="cls-42" x="29.66" y="0">日</tspan><tspan class="cls-28" x="39.42" y="0"> </tspan></text></g><path class="cls-4" d="M209.63,28,207,30.59a7.7,7.7,0,0,0-5.76-2.6,6.62,6.62,0,0,0-4.8,1.9,6.28,6.28,0,0,0-1.93,4.63,6.43,6.43,0,0,0,2,4.76,6.81,6.81,0,0,0,5,1.95,6.1,6.1,0,0,0,3.23-.82,5.66,5.66,0,0,0,2.12-2.52h-5.63v-3.5H211v.82A9.32,9.32,0,0,1,209.72,40a9.14,9.14,0,0,1-3.41,3.49,9.6,9.6,0,0,1-4.92,1.21,10.94,10.94,0,0,1-5.4-1.3,9.66,9.66,0,0,1-3.76-3.74,10.41,10.41,0,0,1-1.38-5.23,9.71,9.71,0,0,1,2.53-6.71,10,10,0,0,1,7.86-3.41,11.86,11.86,0,0,1,4.74.93A10.89,10.89,0,0,1,209.63,28Z" transform="translate(56.2)"/><path class="cls-4" d="M219.92,24.78h3.75l7.51,19.41h-3.84l-1.53-4h-7.92l-1.58,4h-3.84Zm1.91,5.15-2.59,6.66h5.19Z" transform="translate(56.2)"/><path class="cls-4" d="M234.73,24.75h11.75l-6.89,15.84h6.52v3.55H234.25l6.85-15.77h-6.32Z" transform="translate(56.2)"/><path class="cls-4" d="M251.05,24.72h10.6v3.62h-6.93v3.51h6.93V35.4h-6.93v5.1h6.93v3.63h-10.6Z" transform="translate(56.2)"/><path class="cls-4" d="M266.85,24.69h3.7V40.58h5.38v3.53h-9.08Z" transform="translate(56.2)"/><path class="cls-4" d="M280.5,24.67h3.7v15.9h5.38v3.52H280.5Z" transform="translate(56.2)"/><path class="cls-4" d="M293.63,24.64h10.6v3.62H297.3v3.52h6.93v3.55H297.3v5.11h6.93v3.63h-10.6Z" transform="translate(56.2)"/><path class="cls-4" d="M236.63,49.59a3.87,3.87,0,0,0-1.43.24l-.66.29V46.59a.22.22,0,0,0-.21-.22h-1.07a.22.22,0,0,0-.21.22V57.12a.2.2,0,0,0,.2.22h1.08a.21.21,0,0,0,.21-.21h0V51.33a6,6,0,0,1,.83-.34,3.08,3.08,0,0,1,1-.16,1.31,1.31,0,0,1,1,.35,1.56,1.56,0,0,1,.33,1.06v4.88a.21.21,0,0,0,.07.15.2.2,0,0,0,.15.06H239a.22.22,0,0,0,.22-.22h0V52.19a2.8,2.8,0,0,0-.67-1.93A2.51,2.51,0,0,0,236.63,49.59Z" transform="translate(56.2)"/><path class="cls-4" d="M247.37,56.28a.21.21,0,0,0-.24-.14,1.55,1.55,0,0,1-.43,0c-.19,0-.25-.07-.28-.13a2.26,2.26,0,0,1-.11-1V51.78a2.13,2.13,0,0,0-.74-1.72,2.82,2.82,0,0,0-1.89-.6,4.46,4.46,0,0,0-1.77.34,3.48,3.48,0,0,0-1.19.73.21.21,0,0,0,0,.28l.56.72a.18.18,0,0,0,.15.08.17.17,0,0,0,.16-.06,4.47,4.47,0,0,1,.82-.54,2.62,2.62,0,0,1,1.26-.29,1.24,1.24,0,0,1,.85.27,1.39,1.39,0,0,1,.31,1v.35a9.12,9.12,0,0,0-2.14.29,3.78,3.78,0,0,0-1.72.94,2.33,2.33,0,0,0-.67,1.71,2,2,0,0,0,.6,1.53,2.32,2.32,0,0,0,1.58.52A3.38,3.38,0,0,0,244,57a3.71,3.71,0,0,0,1-.71,1.33,1.33,0,0,0,.37.7,1.15,1.15,0,0,0,.82.34,2.22,2.22,0,0,0,.72-.12,1.79,1.79,0,0,0,.6-.34.2.2,0,0,0,0-.22Zm-2.56-2.79v1.85a3.34,3.34,0,0,1-.77.46,2.7,2.7,0,0,1-1.21.29,1,1,0,0,1-.71-.22.79.79,0,0,1-.24-.67,1.35,1.35,0,0,1,.81-1.23A5,5,0,0,1,244.81,53.49Z" transform="translate(56.2)"/><path class="cls-4" d="M248.88,49.57h1.06a.22.22,0,0,1,.22.22h0v7.26a.22.22,0,0,1-.22.22h-1.06a.2.2,0,0,1-.21-.2V49.81a.21.21,0,0,1,.21-.22Z" transform="translate(56.2)"/><path class="cls-4" d="M248.77,46.91a.84.84,0,0,0,.6,1.44.82.82,0,0,0,.59-.25.86.86,0,0,0,.25-.61.89.89,0,0,0-.22-.58.85.85,0,0,0-1.2,0Z" transform="translate(56.2)"/><path class="cls-4" d="M256.23,49.59h-.39a3.36,3.36,0,0,0-1.55.39,4.56,4.56,0,0,0-.91.65v-.25a4.5,4.5,0,0,0-.08-.51.24.24,0,0,0-.17-.28h-1a.21.21,0,0,0-.17.08.19.19,0,0,0,0,.18v7.26a.21.21,0,0,0,.21.21h1.07a.21.21,0,0,0,.21-.21v-5a2.11,2.11,0,0,1,.67-.66,2.33,2.33,0,0,1,1.36-.37,1.77,1.77,0,0,1,.46,0,.15.15,0,0,0,.16,0,.21.21,0,0,0,.1-.14l.23-1.11A.23.23,0,0,0,256.23,49.59Z" transform="translate(56.2)"/><path class="cls-4" d="M269.33,56.08a8.16,8.16,0,0,1-.07-1.31V46.53a.21.21,0,0,0-.21-.21H268a.22.22,0,0,0-.22.22h0v3.22a5.15,5.15,0,0,0-1.65-.28,3.24,3.24,0,0,0-2.56,1.17,4.4,4.4,0,0,0-.95,2.87,4.23,4.23,0,0,0,.89,2.84,2.73,2.73,0,0,0,2.16,1,3.22,3.22,0,0,0,1.33-.29,4.87,4.87,0,0,0,1-.61,2.55,2.55,0,0,0,.37.69.21.21,0,0,0,.17.08h.91a.2.2,0,0,0,.18-.1.23.23,0,0,0,0-.2A3.55,3.55,0,0,1,269.33,56.08ZM267.76,51v4.41a3.79,3.79,0,0,1-1.9.62,1.35,1.35,0,0,1-1.2-.73,3.57,3.57,0,0,1,0-3.7,1.76,1.76,0,0,1,1.63-.77A6.63,6.63,0,0,1,267.76,51Z" transform="translate(56.2)"/><path class="cls-4" d="M276.29,55a.22.22,0,0,0-.16,0,.24.24,0,0,0-.15.09,2.84,2.84,0,0,1-.89.8,2.14,2.14,0,0,1-1.1.27,1.5,1.5,0,0,1-1.33-.77,3.48,3.48,0,0,1-.55-1.77h4.64a.22.22,0,0,0,.22-.21v-1a3.15,3.15,0,0,0-.91-2.11,3.42,3.42,0,0,0-4.66.34,4.31,4.31,0,0,0-.82,2.75,4.43,4.43,0,0,0,.92,3A3.06,3.06,0,0,0,274,57.44a3.74,3.74,0,0,0,1.89-.42,4,4,0,0,0,1.22-1.09.2.2,0,0,0,0-.28h0Zm-2.4-4.24a1.33,1.33,0,0,1,1.21.53,2.53,2.53,0,0,1,.38,1.16h-3.31a2.31,2.31,0,0,1,.46-1.12A1.47,1.47,0,0,1,273.89,50.73Z" transform="translate(56.2)"/><path class="cls-4" d="M282.33,52.88l-.59-.19-.61-.2a3.54,3.54,0,0,1-.93-.42.63.63,0,0,1-.32-.57.58.58,0,0,1,.34-.56,2,2,0,0,1,1-.23,2.37,2.37,0,0,1,.91.17,3,3,0,0,1,.83.54.22.22,0,0,0,.16,0,.28.28,0,0,0,.15-.08l.61-.73a.24.24,0,0,0,0-.3,4,4,0,0,0-.56-.43,3.55,3.55,0,0,0-.63-.28,4.26,4.26,0,0,0-.69-.15c-.26,0-.51,0-.77,0a3.45,3.45,0,0,0-2,.57,1.9,1.9,0,0,0-.05,3.09,4.31,4.31,0,0,0,1.48.71l1.08.37a2.31,2.31,0,0,1,.89.47.69.69,0,0,1,.19.51.73.73,0,0,1-.38.67,1.93,1.93,0,0,1-1.1.28,2.25,2.25,0,0,1-1.11-.24,3.9,3.9,0,0,1-.89-.73.22.22,0,0,0-.31,0h0l-.7.77a.21.21,0,0,0,0,.29,3.65,3.65,0,0,0,1.41.94,5.33,5.33,0,0,0,1.64.23,3.34,3.34,0,0,0,2-.6,2.13,2.13,0,0,0,.38-3A3.46,3.46,0,0,0,282.33,52.88Z" transform="translate(56.2)"/><path class="cls-4" d="M286.32,46.84a.89.89,0,0,0-.22.58.81.81,0,0,0,.25.62.85.85,0,0,0,1.44-.62h0a.89.89,0,0,0-.22-.58.85.85,0,0,0-1.2-.05S286.33,46.82,286.32,46.84Z" transform="translate(56.2)"/><path class="cls-4" d="M286.43,49.58h1.06a.22.22,0,0,1,.22.22h0v7.26a.22.22,0,0,1-.22.22h-1.06a.21.21,0,0,1-.21-.21V49.81a.21.21,0,0,1,.18-.23Z" transform="translate(56.2)"/><path class="cls-4" d="M296.55,49.59a5.55,5.55,0,0,0-1,.09,5.65,5.65,0,0,0-1,.26,3.66,3.66,0,0,0-2.93-.31,3.18,3.18,0,0,0-1,.52,2.49,2.49,0,0,0-1,2,2.65,2.65,0,0,0,.49,1.44,2.36,2.36,0,0,0,.57.65h0a3,3,0,0,0-.49.29,2.21,2.21,0,0,0-.4.41,1,1,0,0,0-.18.57,1.17,1.17,0,0,0,.11.49,1.06,1.06,0,0,0,.28.35,2.8,2.8,0,0,0,.35.25h.06a.93.93,0,0,0-.18.16,2.74,2.74,0,0,0-.39.45,2.31,2.31,0,0,0-.28.54,1.65,1.65,0,0,0-.1.58,1.68,1.68,0,0,0,.24.93,1.9,1.9,0,0,0,.65.64,2.62,2.62,0,0,0,1,.36,5.73,5.73,0,0,0,1.17.11h.84a6.57,6.57,0,0,0,.89-.12,4.81,4.81,0,0,0,.84-.26,2.66,2.66,0,0,0,.73-.42,1.91,1.91,0,0,0,.52-.64,2,2,0,0,0,.2-.9,1.6,1.6,0,0,0-.28-.94,2,2,0,0,0-.68-.62,3.82,3.82,0,0,0-.93-.39c-.51-.13-1-.23-1.54-.31s-1.1-.15-1.35-.2a2.19,2.19,0,0,1-.57-.16.12.12,0,0,1-.11-.07.22.22,0,0,1,.06-.15,1.32,1.32,0,0,1,.51-.33.66.66,0,0,1,.2-.06,4,4,0,0,0,2,0,2.65,2.65,0,0,0,1-.51,2.29,2.29,0,0,0,.67-.87,2.71,2.71,0,0,0,.25-1.23,2.68,2.68,0,0,0-.13-.84c-.05-.13-.1-.25-.16-.37h1.06a.22.22,0,0,0,.22-.19l.12-.86a.22.22,0,0,0-.05-.17.21.21,0,0,0-.27-.12Zm-5.73,8.46a1.18,1.18,0,0,1,.14-.55,2.07,2.07,0,0,1,.36-.53h.22l.51.05a2.42,2.42,0,0,1,.8.11,8,8,0,0,1,1.08.25,3.54,3.54,0,0,1,.53.23,1.22,1.22,0,0,1,.32.28.42.42,0,0,1,.1.28.53.53,0,0,1-.09.3,1.1,1.1,0,0,1-.3.27,1.57,1.57,0,0,1-.46.2,3.18,3.18,0,0,1-.53.14,4.21,4.21,0,0,0-.53.08h-.44a3.49,3.49,0,0,1-.65-.06,1.78,1.78,0,0,1-.55-.18,1.06,1.06,0,0,1-.37-.36.9.9,0,0,1-.14-.53Zm2-7.45a1.53,1.53,0,0,1,.6.12,1.27,1.27,0,0,1,.42.31,1.35,1.35,0,0,1,.24.46,1.88,1.88,0,0,1,.09.57,3.65,3.65,0,0,1-.08.74,1.52,1.52,0,0,1-.23.54,1,1,0,0,1-.4.32,1.67,1.67,0,0,1-1.28,0,1.34,1.34,0,0,1-.46-.36,1.41,1.41,0,0,1-.28-.51,2,2,0,0,1-.09-.59,2.46,2.46,0,0,1,.07-.6,1.22,1.22,0,0,1,.24-.5,1.16,1.16,0,0,1,.44-.35,1.73,1.73,0,0,1,.67-.16Z" transform="translate(56.2)"/><path class="cls-4" d="M303.28,50.07a2.62,2.62,0,0,0-1.89-.65,4,4,0,0,0-1.38.24,4.93,4.93,0,0,0-.83.41,1,1,0,0,0-.06-.36.21.21,0,0,0-.21-.17h-1a.2.2,0,0,0-.16.07.25.25,0,0,0,0,.17,7,7,0,0,1,.06.91V57a.22.22,0,0,0,.22.22h1.08a.21.21,0,0,0,.21-.21h0V51.3a4.42,4.42,0,0,1,.92-.4,3.87,3.87,0,0,1,1.12-.19,1,1,0,0,1,.87.35,1.72,1.72,0,0,1,.29,1V57a.2.2,0,0,0,.2.22h1.07A.22.22,0,0,0,304,57h0V51.89A2.54,2.54,0,0,0,303.28,50.07Z" transform="translate(56.2)"/><g class="cls-20"><g class="cls-20"><path class="cls-43" d="M32.58,152.81a5.19,5.19,0,0,0-.95-.87,3.57,3.57,0,0,1-1.83,2l-.2-.29a3.49,3.49,0,0,0,1.75-1.89,10.5,10.5,0,0,0-1.23-.73l.22-.25a6,6,0,0,1,1.1.65,7.44,7.44,0,0,0,.17-1.4H29.74v-.3h1.88v-1H32v1h1.8v3.65c0,.18.07.2.21.2h.39c.12,0,.23,0,.26-.25s0-.89,0-1l.33.14c-.06,1.32-.07,1.45-.59,1.45h-.54c-.32,0-.43-.1-.43-.44V150H31.94a6.7,6.7,0,0,1-.2,1.61,7.93,7.93,0,0,1,1.07.93Z" transform="translate(56.2)"/><path class="cls-43" d="M38.21,153.13v.3c0,.17.06.19.15.19h1.71c.3,0,.33,0,.39-.65l.32,0c-.1.84-.17.89-.71.89H38.3a.32.32,0,0,1-.36-.35v-.42H35.8v-1.63h2.13v-.37h-2v-1.37a1.66,1.66,0,0,1-.32.12l-.15-.24a3.74,3.74,0,0,0,1.88-1l.36,0a1.66,1.66,0,0,1-.29.3h2v.24a4.68,4.68,0,0,1-.62.41h1.52v1.49H38.21v.36h2.15v1.63Zm-.28-1.39H36.1v.46h1.84Zm0,.68H36.1v.48h1.84Zm0-2.55H36.24v.41h1.69Zm0,.62H36.24v.42h1.69Zm-.85-1.26a6.82,6.82,0,0,1-.82.43h2a3.72,3.72,0,0,0,.69-.43Zm2.9.64H38.21v.41H40Zm0,.62H38.21v.42H40Zm.08,1.24H38.21v.46h1.85Zm0,.69H38.21v.48h1.86Z" transform="translate(56.2)"/><path class="cls-43" d="M44,148.67v.65h2.47v.31H44v.81h2v2.44c0,.25,0,.58-.43.58h-.78l-.09-.33h.74a.2.2,0,0,0,.22-.22v-2.17H44v3.17h-.33v-3.17H42.07v2.79h-.32v-3.1h1.95v-.81H41.21v-.31h2.48v-.65Z" transform="translate(56.2)"/><path class="cls-43" d="M49.62,151.78v2.06h-2.1v-1.49a2.66,2.66,0,0,1-.44.45l-.17-.27a2.68,2.68,0,0,0,.94-1.34h-.72v-.28h.79a6.49,6.49,0,0,0,.11-.77H47v-.3h1.08a6.66,6.66,0,0,0,0-.73h-1v-.28h2.49v1H50v.29h-.42v1.06H48.14a3.51,3.51,0,0,1-.23.58Zm-.31.28H47.83v1.48h1.47Zm-1-1.92a4.64,4.64,0,0,1-.11.78h1.12v-.78Zm.06-1c0,.22,0,.33,0,.73h1v-.73Zm3.77,0a11.78,11.78,0,0,1-.78,1.71,1.86,1.86,0,0,1,.92,1.48.92.92,0,0,1-.45.85,1.07,1.07,0,0,1-.54.11h-.39l-.08-.34h.51a.56.56,0,0,0,.61-.61c0-.34-.13-.82-1-1.4a9.58,9.58,0,0,0,.84-1.81H50.55v4.81h-.31v-5.1h1.91Z" transform="translate(56.2)"/><path class="cls-43" d="M57.74,150.73a4.25,4.25,0,0,1-1.25.86,4.65,4.65,0,0,0,1.51,1.7l-.23.25a5.18,5.18,0,0,1-2-3.32h-.23a2.41,2.41,0,0,1-.37.38,2.84,2.84,0,0,1,.85,2.18c0,.47-.08,1.14-.7,1.14h-.72l-.07-.34h.75c.16,0,.44,0,.44-.81a3.33,3.33,0,0,0-.07-.6,6,6,0,0,1-2.81,1.33l-.13-.31a5.21,5.21,0,0,0,2.88-1.34,2.45,2.45,0,0,0-.2-.5A5.08,5.08,0,0,1,53,152.53l-.14-.28a5.13,5.13,0,0,0,2.33-1.12,3.1,3.1,0,0,0-.3-.35,5.08,5.08,0,0,1-1.91.84l-.15-.29a4.18,4.18,0,0,0,2.29-1.11H53.42V150h3.87v.27H56a7.62,7.62,0,0,0,.36,1.13,4.17,4.17,0,0,0,1.12-.81Zm-2.54-1.58v-.49h.33v.49h2.32v1.16h-.31v-.88H53.18v.88h-.31v-1.16Z" transform="translate(56.2)"/></g><g class="cls-20"><path class="cls-43" d="M61.14,148.83v4.5H58.71v-4.51Zm-1.37.28H59v1.82h.78Zm0,2.09H59v1.84h.77Zm1.06-2.09h-.78v1.82h.78Zm0,2.09h-.78v1.85h.79ZM63,153.48c0,.33-.08.43-.49.43h-.83l-.05-.32h.84c.19,0,.22,0,.22-.19V149.5H61.34v-.28h2.42v.29H63Z" transform="translate(56.2)"/></g><g class="cls-20"><path class="cls-43" d="M68.4,153.11v.34H65.33c.41-.4,1.13-1.12,1.73-1.83a2.36,2.36,0,0,0,.75-1.5.89.89,0,0,0-.92-.92,1.33,1.33,0,0,0-1.16.73l-.16-.39a1.57,1.57,0,0,1,1.3-.68,1.23,1.23,0,0,1,1.32,1.25,2.18,2.18,0,0,1-.62,1.44c-.22.28-.68.8-1.41,1.56Z" transform="translate(56.2)"/><path class="cls-43" d="M69.27,152.87a2.32,2.32,0,0,0,1.23.33c1,0,1.34-.58,1.34-1,0-.29-.15-.95-1.37-.95h-.3v-.32h.31a1,1,0,0,0,1.06-.89.84.84,0,0,0-1-.81,1.53,1.53,0,0,0-1.1.48l-.14-.34a1.93,1.93,0,0,1,1.25-.48A1.21,1.21,0,0,1,71.92,150a1.06,1.06,0,0,1-.77,1,1.2,1.2,0,0,1,1.06,1.18c0,.6-.44,1.34-1.71,1.35a2.77,2.77,0,0,1-1.33-.33Z" transform="translate(56.2)"/><path class="cls-43" d="M73.44,153.1a1.28,1.28,0,0,0,.52.09,1.54,1.54,0,0,0,1.35-.72,3,3,0,0,0,.39-1.4,1.48,1.48,0,0,1-1.31.73,1.4,1.4,0,0,1-1.46-1.44,1.45,1.45,0,0,1,1.5-1.51c.68,0,1.62.38,1.63,2,0,1.8-.93,2.67-2.1,2.67a1.42,1.42,0,0,1-.52-.09Zm1-1.64a1.14,1.14,0,1,0,0-2.27,1.1,1.1,0,0,0-1.13,1.15A1,1,0,0,0,74.42,151.46Z" transform="translate(56.2)"/><path class="cls-43" d="M76.77,151.18c0-.5,0-2.34,1.53-2.34s1.53,1.82,1.53,2.34,0,2.34-1.52,2.34S76.77,151.68,76.77,151.18Zm2.69,0c0-.66-.08-2-1.16-2s-1.16,1.31-1.16,2,.09,2,1.16,2S79.46,151.86,79.46,151.18Z" transform="translate(56.2)"/><path class="cls-43" d="M81.83,151.54v.4H80.4v-.4Z" transform="translate(56.2)"/><path class="cls-43" d="M83.88,148.92h.38v4.5h-.38v-4.08L83,150l-.06-.37Z" transform="translate(56.2)"/></g></g><g class="cls-20"><g class="cls-20"><path class="cls-43" d="M31.92,163.64h-.38v-4.16H30v-.34h3.52v.34H31.91Z" transform="translate(56.2)"/><path class="cls-43" d="M36.51,161.13v.34H34.44v1.82H36.8v.34H34.07v-4.5H36.7v.34H34.44v1.66Z" transform="translate(56.2)"/><path class="cls-43" d="M38,159.13v4.16h1.75v.34H37.59v-4.5Z" transform="translate(56.2)"/><path class="cls-43" d="M44.14,161.37c0-.5,0-2.35,1.53-2.35s1.53,1.82,1.53,2.34,0,2.34-1.52,2.34S44.14,161.86,44.14,161.37Zm2.69,0c0-.65-.08-2-1.16-2s-1.16,1.31-1.15,2,.08,2,1.16,2S46.83,162.05,46.83,161.36Z" transform="translate(56.2)"/><path class="cls-43" d="M51,162.3a1.55,1.55,0,0,1-3.09,0,1.27,1.27,0,0,1,.84-1.22,1,1,0,0,1-.58-.94,1.29,1.29,0,0,1,2.56,0,1,1,0,0,1-.57.94A1.3,1.3,0,0,1,51,162.3Zm-.38,0c0-.44-.28-1-1.17-1a1,1,0,0,0-1.16,1,1.17,1.17,0,0,0,2.33,0Zm-.27-2.14a.91.91,0,1,0-.9.8A.8.8,0,0,0,50.37,160.15Z" transform="translate(56.2)"/><path class="cls-43" d="M54.84,159.1v.39l-2.38,4.11h-.41l2.42-4.16H51.71v-.34Z" transform="translate(56.2)"/><path class="cls-43" d="M58.64,159.09v.4l-2.38,4.1h-.41l2.42-4.16H55.51v-.33Z" transform="translate(56.2)"/><path class="cls-43" d="M60.6,161.7v.4H59.17v-.39Z" transform="translate(56.2)"/><path class="cls-43" d="M64.2,163.24v.34H61.13c.41-.41,1.13-1.12,1.72-1.84a2.31,2.31,0,0,0,.76-1.49.9.9,0,0,0-.92-.92,1.34,1.34,0,0,0-1.17.73l-.15-.4a1.58,1.58,0,0,1,1.3-.67A1.23,1.23,0,0,1,64,160.24a2.09,2.09,0,0,1-.61,1.43c-.23.29-.68.81-1.42,1.57Z" transform="translate(56.2)"/><path class="cls-43" d="M68,162.26a1.55,1.55,0,0,1-3.09,0,1.28,1.28,0,0,1,.84-1.23,1,1,0,0,1-.58-.93,1.29,1.29,0,0,1,2.56,0,1,1,0,0,1-.57.94A1.29,1.29,0,0,1,68,162.26Zm-.38,0a1.18,1.18,0,0,0-2.33,0,1.17,1.17,0,0,0,2.33,0Zm-.27-2.13a.91.91,0,0,0-1.8,0,.8.8,0,0,0,.9.8C67.09,160.91,67.4,160.56,67.39,160.12Z" transform="translate(56.2)"/><path class="cls-43" d="M70,161.68v.4H68.59v-.39Z" transform="translate(56.2)"/><path class="cls-43" d="M71.05,163.23a1.47,1.47,0,0,0,.52.09,1.54,1.54,0,0,0,1.35-.73,3,3,0,0,0,.39-1.39,1.47,1.47,0,0,1-1.31.72,1.4,1.4,0,0,1-1.46-1.44A1.45,1.45,0,0,1,72,159c.68,0,1.63.38,1.63,2,0,1.81-.93,2.67-2.1,2.67a1.1,1.1,0,0,1-.52-.09Zm1-1.64a1.14,1.14,0,1,0,0-2.28,1.1,1.1,0,0,0-1.13,1.15A1.05,1.05,0,0,0,72,161.59Z" transform="translate(56.2)"/><path class="cls-43" d="M74.85,163.22a1.52,1.52,0,0,0,.52.09,1.54,1.54,0,0,0,1.35-.72,2.86,2.86,0,0,0,.39-1.4,1.5,1.5,0,0,1-1.31.73,1.41,1.41,0,0,1-1.46-1.45,1.46,1.46,0,0,1,1.5-1.51c.68,0,1.63.39,1.63,2,0,1.81-.93,2.68-2.1,2.68a1.5,1.5,0,0,1-.52-.09Zm1-1.64a1.14,1.14,0,1,0,0-2.28,1.11,1.11,0,0,0-1.14,1.16A1.06,1.06,0,0,0,75.83,161.58Z" transform="translate(56.2)"/><path class="cls-43" d="M81.27,159.05v.39l-2.37,4.11h-.41l2.42-4.16H78.14v-.34Z" transform="translate(56.2)"/><path class="cls-43" d="M85.06,162.23a1.55,1.55,0,0,1-3.09,0,1.28,1.28,0,0,1,.84-1.23,1.06,1.06,0,0,1-.58-.94,1.29,1.29,0,0,1,2.56,0,1.05,1.05,0,0,1-.57.94A1.28,1.28,0,0,1,85.06,162.23Zm-.38,0a1.18,1.18,0,0,0-2.33,0,1.17,1.17,0,0,0,2.33,0Zm-.26-2.13a.82.82,0,0,0-.91-.81.8.8,0,0,0-.9.81.8.8,0,0,0,.9.79A.8.8,0,0,0,84.42,160.09Z" transform="translate(56.2)"/></g></g></g></g></g></g></svg>