<svg xmlns="http://www.w3.org/2000/svg" xmlns:xlink="http://www.w3.org/1999/xlink" viewBox="0 0 330.1 204.19"><defs><style>.cls-1{fill:none;}.cls-2{fill:#eaeaea;}.cls-3,.cls-7{fill:#fff;}.cls-3{isolation:isolate;opacity:0.85;}.cls-4{clip-path:url(#clip-path);}.cls-5{fill:#084a40;}.cls-6{fill:#1e1916;}</style><clipPath id="clip-path"><rect class="cls-1" x="0.06" y="0.11" width="322.28" height="194.79" rx="8.5"/></clipPath></defs><g id="レイヤー_2" data-name="レイヤー 2"><g id="レイヤー_1-2" data-name="レイヤー 1"><g id="レイヤー_2-2" data-name="レイヤー 2"><g id="背景"><rect class="cls-2" x="8.58" y="4.75" width="321.52" height="199.44" rx="8.82"/><rect class="cls-3" x="0.06" y="0.11" width="322.28" height="194.79" rx="8.5"/><g class="cls-4"><path class="cls-5" d="M43.72,20.05l-4.5,4.45A13.27,13.27,0,0,0,29.27,20,11.36,11.36,0,0,0,21,23.28a10.73,10.73,0,0,0-3.34,8,11,11,0,0,0,3.48,8.23,11.77,11.77,0,0,0,8.56,3.37,10.52,10.52,0,0,0,5.58-1.4,9.88,9.88,0,0,0,3.66-4.35H29.2v-6H46.07v1.41a16.62,16.62,0,0,1-2.2,8.32,16.1,16.1,0,0,1-5.9,6,16.84,16.84,0,0,1-8.5,2.08,18.86,18.86,0,0,1-9.31-2.26,16.7,16.7,0,0,1-6.48-6.46,17.88,17.88,0,0,1-2.39-9,16.88,16.88,0,0,1,4.39-11.59,17.38,17.38,0,0,1,13.59-5.86,20.51,20.51,0,0,1,8.18,1.61A18.83,18.83,0,0,1,43.72,20.05Z"/><path class="cls-5" d="M61.49,14.56H68l12.9,33.49H74.23l-2.62-6.91H57.94l-2.72,6.91H48.58Zm3.29,8.89L60.29,35h9Z"/><path class="cls-5" d="M87.06,14.54h20.29L95.43,42h11.16v6.1H86.1L98,20.85H87.06Z"/><path class="cls-5" d="M115.24,14.52h18.3v6.25h-12v6.06h12V33h-12V41.8h12v6.25H115.26Z"/><path class="cls-5" d="M142.53,14.51h6.34V42h9.3v6.09H142.55Z"/><path class="cls-5" d="M166.1,14.49h6.39V41.94h9.31v6.11H166.13Z"/><path class="cls-5" d="M188.77,14.48h18.3v6.24h-12v6.06h12v6.13h-12v8.82h12v6.32h-18.3Z"/><path class="cls-5" d="M20.56,61.28a6,6,0,0,0-2.19.38,8.92,8.92,0,0,0-1,.44V56.74a.33.33,0,0,0-.33-.33H15.36a.33.33,0,0,0-.33.33h0V73.05a.33.33,0,0,0,.33.33H17a.33.33,0,0,0,.33-.33h0v-9a8.09,8.09,0,0,1,1.29-.52,4.52,4.52,0,0,1,1.51-.26,2.1,2.1,0,0,1,1.6.55,2.42,2.42,0,0,1,.51,1.64V73a.31.31,0,0,0,.1.24.33.33,0,0,0,.23.1h1.64a.35.35,0,0,0,.34-.33V65.38a4.3,4.3,0,0,0-1-3A3.86,3.86,0,0,0,20.56,61.28Z"/><path class="cls-5" d="M37.13,71.7a.33.33,0,0,0-.37-.21,3.57,3.57,0,0,1-.65.06c-.3,0-.4-.11-.45-.2a3.62,3.62,0,0,1-.17-1.5v-5a3.31,3.31,0,0,0-1.14-2.65,4.39,4.39,0,0,0-2.91-.94,7,7,0,0,0-2.74.53,5.25,5.25,0,0,0-1.83,1.13.33.33,0,0,0,0,.44l.86,1.11a.31.31,0,0,0,.24.12.33.33,0,0,0,.25-.08,5.85,5.85,0,0,1,1.26-.83,4.06,4.06,0,0,1,2-.46,2,2,0,0,1,1.32.42,2.16,2.16,0,0,1,.47,1.63v.54a13.66,13.66,0,0,0-3.31.43,5.76,5.76,0,0,0-2.65,1.45,3.6,3.6,0,0,0-1,2.64,3,3,0,0,0,.92,2.36,3.52,3.52,0,0,0,2.43.82A5.54,5.54,0,0,0,32,73a6.5,6.5,0,0,0,1.57-1.09A2,2,0,0,0,34.13,73a1.78,1.78,0,0,0,1.26.52,3.53,3.53,0,0,0,1.11-.18,2.53,2.53,0,0,0,.92-.51.31.31,0,0,0,.08-.35Zm-3.94-4.31v2.86A5.35,5.35,0,0,1,32,71a4.18,4.18,0,0,1-1.87.44,1.65,1.65,0,0,1-1.1-.33,1.33,1.33,0,0,1-.36-1,2,2,0,0,1,1.2-1.92A7.74,7.74,0,0,1,33.19,67.39Z"/><rect class="cls-5" x="39.13" y="61.44" width="2.3" height="11.87" rx="0.33"/><path class="cls-5" d="M39.31,57.24a1.33,1.33,0,0,0-.35.91,1.25,1.25,0,0,0,.4.94,1.22,1.22,0,0,0,.92.38,1.32,1.32,0,0,0,1.3-1.32h0a1.43,1.43,0,0,0-.35-.9,1.32,1.32,0,0,0-1.87-.05A.12.12,0,0,0,39.31,57.24Z"/><path class="cls-5" d="M50.87,61.34a1.28,1.28,0,0,0-.27-.05h-.34a5.06,5.06,0,0,0-2.38.6,6.67,6.67,0,0,0-1.41,1v-.38a3.51,3.51,0,0,0-.12-.79.33.33,0,0,0-.32-.24H44.41a.33.33,0,0,0-.33.33.17.17,0,0,0,0,.07c0,.49.06,1,.06,1.48V73a.33.33,0,0,0,.33.33h1.64a.35.35,0,0,0,.34-.33V65.25a3,3,0,0,1,1-1,3.71,3.71,0,0,1,2.1-.56,2.85,2.85,0,0,1,.71.07.39.39,0,0,0,.26,0,.38.38,0,0,0,.15-.22L51,61.83a.34.34,0,0,0-.1-.46Z"/><path class="cls-5" d="M71,71.44a14.81,14.81,0,0,1-.1-2V56.7a.33.33,0,0,0-.33-.33H69a.33.33,0,0,0-.33.33h0v5a7.88,7.88,0,0,0-2.54-.43,4.88,4.88,0,0,0-4,1.8,6.69,6.69,0,0,0-1.47,4.42A6.55,6.55,0,0,0,62,71.88a4.21,4.21,0,0,0,3.34,1.62,5,5,0,0,0,2-.45,7.5,7.5,0,0,0,1.5-.93,3.41,3.41,0,0,0,.57,1.06.32.32,0,0,0,.26.13H71a.32.32,0,0,0,.28-.15.34.34,0,0,0,0-.31A5.72,5.72,0,0,1,71,71.44Zm-2.41-7.82v6.79a5.85,5.85,0,0,1-2.94,1,2.14,2.14,0,0,1-1.8-1.16,5.45,5.45,0,0,1,0-5.72,2.72,2.72,0,0,1,2.52-1.18A9.24,9.24,0,0,1,68.61,63.62Z"/><path class="cls-5" d="M81.77,69.74a.32.32,0,0,0-.25-.07.32.32,0,0,0-.22.13A4.91,4.91,0,0,1,79.93,71a3.53,3.53,0,0,1-1.71.4,2.3,2.3,0,0,1-2-1.18,5.3,5.3,0,0,1-.79-2.68H82.6a.33.33,0,0,0,.33-.31h0a13.88,13.88,0,0,0,0-1.58,4.81,4.81,0,0,0-1.4-3.26,4.72,4.72,0,0,0-3.36-1.18,4.54,4.54,0,0,0-3.82,1.7,6.65,6.65,0,0,0-1.28,4.24,6.87,6.87,0,0,0,1.42,4.62,4.74,4.74,0,0,0,3.79,1.68,6,6,0,0,0,2.92-.66,6.29,6.29,0,0,0,1.89-1.67.33.33,0,0,0-.06-.46Zm-3.7-6.55a2,2,0,0,1,1.87.82,4,4,0,0,1,.59,1.79H75.42a3.59,3.59,0,0,1,.7-1.74A2.26,2.26,0,0,1,78.07,63.19Z"/><path class="cls-5" d="M91.1,66.52l-.92-.3-.93-.3a5.06,5.06,0,0,1-1.44-.65,1,1,0,0,1-.49-.88.9.9,0,0,1,.52-.86,3,3,0,0,1,1.58-.35,3.54,3.54,0,0,1,1.4.25,4.66,4.66,0,0,1,1.29.83.34.34,0,0,0,.24.09.35.35,0,0,0,.23-.12l1-1.13a.34.34,0,0,0,0-.46A4.31,4.31,0,0,0,92.7,62a4.68,4.68,0,0,0-1-.44,5,5,0,0,0-1.07-.23,9.66,9.66,0,0,0-1.2-.07,5.07,5.07,0,0,0-3.07.87,3,3,0,0,0-.71,4.11,2.78,2.78,0,0,0,.63.65A6.93,6.93,0,0,0,88.57,68l1.67.57a3.52,3.52,0,0,1,1.36.73,1.11,1.11,0,0,1,.29.78,1.19,1.19,0,0,1-.58,1,3.19,3.19,0,0,1-1.7.43,3.49,3.49,0,0,1-1.71-.38A6,6,0,0,1,86.53,70a.36.36,0,0,0-.25-.11A.3.3,0,0,0,86,70L85,71.2a.34.34,0,0,0,0,.46,5.44,5.44,0,0,0,2.18,1.44,7.72,7.72,0,0,0,2.53.37,5.24,5.24,0,0,0,3.14-.93A3.28,3.28,0,0,0,93.47,68l-.07-.09A5.52,5.52,0,0,0,91.1,66.52Z"/><path class="cls-5" d="M97.27,57.21a1.32,1.32,0,0,0-.35.9,1.26,1.26,0,0,0,.4,1,1.3,1.3,0,0,0,2.21-1,1.36,1.36,0,0,0-.34-.9,1.3,1.3,0,0,0-1.84-.08A.3.3,0,0,0,97.27,57.21Z"/><rect class="cls-5" x="97.09" y="61.41" width="2.3" height="11.87" rx="0.33"/><path class="cls-5" d="M113.06,61.45a8.28,8.28,0,0,0-1.5.13,7.62,7.62,0,0,0-1.49.4,5.38,5.38,0,0,0-1.28-.55,5.64,5.64,0,0,0-3.23.07,4.74,4.74,0,0,0-1.51.79A4.06,4.06,0,0,0,103,63.62a3.87,3.87,0,0,0-.42,1.83,4.17,4.17,0,0,0,.49,2.1,3.68,3.68,0,0,0,.89,1h-.06a3.22,3.22,0,0,0-.75.46,2.19,2.19,0,0,0-.62.63,1.55,1.55,0,0,0-.11,1.63,1.76,1.76,0,0,0,.41.53,2.73,2.73,0,0,0,.55.39h.09l-.28.24a4.51,4.51,0,0,0-.6.71,3.18,3.18,0,0,0-.42.82,2.46,2.46,0,0,0-.16.89,2.64,2.64,0,0,0,.37,1.45,2.9,2.9,0,0,0,1,1,4.5,4.5,0,0,0,1.47.55,9.28,9.28,0,0,0,1.82.18,11.57,11.57,0,0,0,1.29,0,10.5,10.5,0,0,0,1.37-.19,7.47,7.47,0,0,0,1.3-.39,4.55,4.55,0,0,0,1.13-.65,3.36,3.36,0,0,0,.8-1,3,3,0,0,0,.31-1.39,2.47,2.47,0,0,0-.43-1.45,3.34,3.34,0,0,0-1-1,6.19,6.19,0,0,0-1.43-.6c-.79-.2-1.58-.36-2.38-.48-1-.14-1.69-.24-2.08-.31a3.79,3.79,0,0,1-.89-.25.18.18,0,0,1-.16-.12.32.32,0,0,1,.1-.22,1.43,1.43,0,0,1,.35-.3,1.72,1.72,0,0,1,.43-.21l.3-.09a6.2,6.2,0,0,0,3.17-.08,4.43,4.43,0,0,0,1.47-.78,4,4,0,0,0,1-1.34,4.61,4.61,0,0,0,.38-1.9,4,4,0,0,0-.2-1.29,4.91,4.91,0,0,0-.25-.57h.24a2.81,2.81,0,0,1,.58,0h.82a.33.33,0,0,0,.34-.28l.19-1.33a.38.38,0,0,0-.08-.27A.32.32,0,0,0,113.06,61.45Zm-8.87,13a1.77,1.77,0,0,1,.21-.84,4.1,4.1,0,0,1,.56-.82h.35l.79.07a10.55,10.55,0,0,1,1.23.17,12.24,12.24,0,0,1,1.67.39,4.22,4.22,0,0,1,.81.37,1.67,1.67,0,0,1,.5.42.69.69,0,0,1,.15.44.76.76,0,0,1-.14.46,2,2,0,0,1-.46.41,4.08,4.08,0,0,1-.71.32c-.27.08-.55.15-.83.21a6.17,6.17,0,0,1-.82.11c-.23,0-.45,0-.67,0a5.55,5.55,0,0,1-1-.09,2.76,2.76,0,0,1-.85-.29,1.59,1.59,0,0,1-.58-.54,1.54,1.54,0,0,1-.21-.75Zm3-11.49a2.19,2.19,0,0,1,.94.18,2,2,0,0,1,.64.48,2.1,2.1,0,0,1,.37.71,2.89,2.89,0,0,1,.13.88,5.54,5.54,0,0,1-.11,1.15,2.53,2.53,0,0,1-.37.82,1.55,1.55,0,0,1-.61.5,2.66,2.66,0,0,1-2,0,2.38,2.38,0,0,1-.71-.55,2.43,2.43,0,0,1-.43-.79,3.14,3.14,0,0,1-.14-.91,3.25,3.25,0,0,1,.11-.93,1.9,1.9,0,0,1,.37-.77,1.8,1.8,0,0,1,.68-.54,2.49,2.49,0,0,1,1.15-.14Z"/><path class="cls-5" d="M123.44,62.23a4,4,0,0,0-2.92-1,5.73,5.73,0,0,0-2.13.38,7.65,7.65,0,0,0-1.29.62,1.29,1.29,0,0,0-.08-.56.34.34,0,0,0-.33-.27h-1.52a.33.33,0,0,0-.25.11.35.35,0,0,0-.08.26c0,.46.08.93.09,1.4v9.76a.33.33,0,0,0,.32.34h1.62a.33.33,0,0,0,.33-.33h0V64.12a6.69,6.69,0,0,1,1.43-.61,5.64,5.64,0,0,1,1.73-.28,1.51,1.51,0,0,1,1.33.53,2.74,2.74,0,0,1,.44,1.62v7.56a.33.33,0,0,0,.33.33h1.64a.33.33,0,0,0,.33-.33h0V65.05A3.88,3.88,0,0,0,123.44,62.23Z"/></g><path class="cls-6" d="M221.55,63.6S201.68,88,193.43,91.35s-33.63,42-40.25,43L64.93,195H115.8l36.38-16.84s9.75-41.75,30.37-65.56S231.3,77.32,231.3,77.32l5.06-1.12L223.24,60.45Z"/><polygon class="cls-6" points="277.55 0.05 272.93 12.6 286.3 15.98 290.43 0.05 277.55 0.05"/><polygon class="cls-6" points="264.8 98.23 269.43 86.73 285.8 93.1 264.8 98.23"/><path class="cls-6" d="M242.18,124.23s-6.88,12.5-37.63,23.5c0,0-20,7.62-38.12,4.25l-8.75,25.5s43.43-24.81,65.18-25.75,30.38,6.94,30.38,6.94Z"/><circle class="cls-7" cx="144.93" cy="161.57" r="7.31"/><polygon class="cls-6" points="137.46 158.85 150.65 167.29 152.41 164.76 138.96 155.85 137.46 158.85"/><ellipse class="cls-6" cx="262.37" cy="47.1" rx="44.24" ry="36.38" transform="translate(5.39 117.95) rotate(-25.59)"/><ellipse class="cls-6" cx="280.96" cy="131.55" rx="41.56" ry="39.08" transform="translate(-28.4 108.29) rotate(-20.79)"/><ellipse class="cls-7" cx="280.96" cy="131.55" rx="30.7" ry="28.87" transform="translate(-28.4 108.29) rotate(-20.79)"/><ellipse class="cls-7" cx="262.37" cy="47.1" rx="33.4" ry="27.47" transform="translate(5.39 117.95) rotate(-25.59)"/><polyline class="cls-6" points="137.62 137.37 8.62 172.64 8.62 178.31 98.32 164.69"/></g></g></g></g></svg>