<svg xmlns="http://www.w3.org/2000/svg" viewBox="0 0 328.54 201.15"><defs><style>.cls-1{fill:#eaeaea;}.cls-2{fill:#fff;}.cls-3{fill:none;stroke:#000;stroke-linecap:round;stroke-linejoin:round;stroke-width:1.5px;}.cls-4{fill:#4b4b4b;}</style></defs><g id="レイヤー_2" data-name="レイヤー 2"><g id="レイヤー_1-2" data-name="レイヤー 1"><rect class="cls-1" x="6.26" y="6.36" width="322.28" height="194.79"/><rect class="cls-2" width="322.28" height="194.79"/><line class="cls-3" x1="178.67" y1="79.34" x2="321.46" y2="168.61"/><line class="cls-3" x1="204.33" y1="34.69" x2="295.78" y2="174.85"/><ellipse cx="197.89" cy="26.61" rx="9.33" ry="11.51" transform="translate(30.26 135.1) rotate(-40.57)"/><ellipse cx="173.18" cy="73.99" rx="9.33" ry="11.51" transform="matrix(0.59, -0.81, 0.81, 0.59, 11.35, 170.31)"/><path d="M24.92,44.34c.2-.3.42-.6.63-.89A.29.29,0,0,1,26,43.4a.31.31,0,0,1,.08.45c-.11.14-.2.28-.31.43h.17c2.45,0,3.82.8,3.82,2.24,0,2-2,3.38-6.21,3.91a.27.27,0,0,1-.33-.26.28.28,0,0,1,.26-.36C27,49.36,29,48.38,29,46.59c0-1.16-1.32-1.68-3.09-1.68a6.08,6.08,0,0,0-.61,0,55.08,55.08,0,0,0-4.08,7.48.32.32,0,0,1-.46.14.3.3,0,0,1-.18-.43,53.11,53.11,0,0,1,3.82-7.07,10.2,10.2,0,0,0-3.59,1.46.3.3,0,0,1-.43-.1.29.29,0,0,1,.07-.43A10.49,10.49,0,0,1,24.92,44.34Z"/><path d="M33.44,48.48A.47.47,0,0,0,32.9,48C31.77,48,30,49.27,30,50.49c0,.5.34.78,1.07.78,2.67,0,6-3,8-5a.3.3,0,0,1,.45,0,.29.29,0,0,1,0,.44l-.55.56a1.63,1.63,0,0,1,.35.9,1.42,1.42,0,0,1-.44.93c-.62.8-1,1.18-1,1.7,0,.33.19.54.65.54a3.94,3.94,0,0,0,2.3-1.11.31.31,0,0,1,.43.45,4.41,4.41,0,0,1-2.73,1.29c-1,0-1.38-.41-1.38-1.09s.43-1.21,1.19-2.09c.23-.27.31-.41.31-.57a1.08,1.08,0,0,0-.14-.47c-2,2-4.86,4.19-7.5,4.19-1.14,0-1.68-.48-1.68-1.37,0-1.51,2.12-3.18,3.72-3.18.81,0,1.21.4,1.21,1,0,.88-1.29,1.92-3,2.31a.29.29,0,0,1-.35-.24.27.27,0,0,1,.22-.36C32.32,49.79,33.44,49.1,33.44,48.48Z"/><path d="M44.67,48.34c0-.16-.2-.24-.48-.24-1.14,0-2.84,1.29-2.84,2.47,0,.44.29.66.9.66a6.85,6.85,0,0,0,3.33-1,.31.31,0,0,1,.3.54,7.56,7.56,0,0,1-3.63,1.15c-1.19,0-1.62-.5-1.62-1.28,0-1.5,2.06-3.11,3.6-3.11.8,0,1.16.3,1.16.78a1,1,0,0,1-.52.81.32.32,0,0,1-.44,0,.26.26,0,0,1,0-.41C44.61,48.51,44.67,48.45,44.67,48.34Z"/><path d="M47.49,51q0,.18.15.18a3.15,3.15,0,0,0,1.4-.78c1-.74,1.91-1.52,2.29-1.85s.74-.56,1-.56a.44.44,0,0,1,.5.48,1.08,1.08,0,0,1-.17.53c-.63,1-1,1.57-1,2,0,.19.09.3.33.3a5.57,5.57,0,0,0,2.16-.92.27.27,0,0,1,.41.12.29.29,0,0,1-.08.42,6.19,6.19,0,0,1-2.55,1c-.7,0-1-.35-1-.87a4.15,4.15,0,0,1,1-2.06.25.25,0,0,0,.06-.13s0,0,0,0-.09,0-.17.11c-.38.34-1.44,1.2-2.43,2a3.73,3.73,0,0,1-1.89.91.67.67,0,0,1-.76-.7c0-.87.86-2.42,1.71-3.75a.33.33,0,0,1,.48-.11.32.32,0,0,1,.12.48A8.46,8.46,0,0,0,47.49,51Z"/><path d="M56.83,50.47c0-.56,0-1,0-1.5a1.68,1.68,0,0,1,1.82-1.74,1.61,1.61,0,0,1,1.59,1,.34.34,0,0,1-.3.45.38.38,0,0,1-.45-.25,1,1,0,0,0-.93-.52.92.92,0,0,0-1,1c0,.51,0,.92.05,1.48a39.3,39.3,0,0,0,4.14-.76,9.3,9.3,0,0,1-.12-1.13c0-1.08.46-1.78,1.68-1.78.92,0,1.76.49,1.76,1.32s-.74,1.53-2.54,2a7.86,7.86,0,0,1,.07.91,1.46,1.46,0,0,1-1.61,1.47,1.71,1.71,0,0,1-.84-.2.3.3,0,0,1-.08-.45.35.35,0,0,1,.47-.13,1.27,1.27,0,0,0,.57.15.74.74,0,0,0,.77-.84,4.88,4.88,0,0,0-.06-.73,42.63,42.63,0,0,1-4.23.77,1.22,1.22,0,0,1-1.28,1.24,1.08,1.08,0,0,1-1.2-.84c0-.2,0-.38.33-.42a.11.11,0,0,1,0-.07.28.28,0,0,1,.28-.33Zm-.53,1.15c.34,0,.47-.19.5-.53l-1.09.11,0,.07A.54.54,0,0,0,56.3,51.62Zm6.1-2.19c1.06-.31,1.89-.73,1.89-1.35,0-.44-.54-.72-1.09-.72s-.89.3-.89,1C62.31,48.63,62.36,49,62.4,49.43Z"/><path d="M66,50.87c0,.29.13.4.52.4a6,6,0,0,0,2.4-.8.26.26,0,0,1,.38.16.29.29,0,0,1-.13.41,6.47,6.47,0,0,1-2.8.87c-.8,0-1.1-.41-1.1-1,0-.8.87-2.05,1.69-3a.33.33,0,0,1,.52.41A6.2,6.2,0,0,0,66,50.87Zm3.79-5.6a.29.29,0,0,1,.44.06.29.29,0,0,1,0,.45A15.34,15.34,0,0,1,68.3,47a.28.28,0,0,1-.42-.12.29.29,0,0,1,.11-.43A12,12,0,0,0,69.75,45.27Z"/><path d="M74.13,48.76c0-.31-.24-.49-.61-.53a.43.43,0,0,1,.09.1,1,1,0,0,1,.15.65c0,1.52-2.11,3-3.64,3-.84,0-1.22-.42-1.22-1.06,0-1.8,2.69-3.36,4.43-3.36.91,0,1.52.35,1.52,1.09a1.2,1.2,0,0,1-.28.77.3.3,0,0,1-.44,0,.35.35,0,0,1,0-.44A.62.62,0,0,0,74.13,48.76Zm-4,2.62c1.15,0,2.92-1.17,2.92-2.39a1.36,1.36,0,0,0-.06-.37.34.34,0,0,1,.15-.4c-1.43.1-3.54,1.31-3.54,2.65A.47.47,0,0,0,70.15,51.38Z"/><path d="M76.2,49.9c1.65-1.45,2.69-2.16,3.58-2.16.59,0,.92.3.92.84,0,.81-1,1.81-1,2.41,0,.21.11.29.35.29a4.7,4.7,0,0,0,2.23-.83.28.28,0,0,1,.42.1.33.33,0,0,1-.12.46,5.54,5.54,0,0,1-2.57.9c-.75,0-1-.35-1-.87,0-.8,1-1.77,1-2.37a.27.27,0,0,0-.29-.29c-.85,0-2.3,1.33-4.22,3.06a.37.37,0,0,1-.49,0,.37.37,0,0,1-.09-.47,12.48,12.48,0,0,0,1.4-3.34.33.33,0,0,1,.4-.3c.22,0,.36.15.33.37A9,9,0,0,1,76.2,49.9Z"/><path d="M84,47.72a.39.39,0,0,1,.43.42c0,.21-.07.38-.73,1.31-.41.58-.87,1.06-.87,1.41s.14.28.37.28A9.93,9.93,0,0,0,88,49.07a1.27,1.27,0,0,0,.12-.1A6.45,6.45,0,0,1,88,48a1.39,1.39,0,0,1,1.39-1.5c.47,0,.82.22.82.73s-.42,1.06-1.36,1.86a8.83,8.83,0,0,1,.21,1.4,1.24,1.24,0,0,1-1.33,1.37,1.55,1.55,0,0,1-.88-.24.35.35,0,0,1,.42-.55,1.06,1.06,0,0,0,.54.16c.35,0,.53-.28.53-.66a6.3,6.3,0,0,0-.11-1,10.22,10.22,0,0,1-5,2.13c-.68,0-1.07-.28-1.07-.87,0-.33.16-.69.88-1.61-.22,0-.37-.17-.23-.44C83.17,48.12,83.67,47.72,84,47.72Zm2.16-1.92a.3.3,0,0,1,.42.14.29.29,0,0,1-.12.42,9.3,9.3,0,0,1-1.54.58.29.29,0,0,1-.38-.22.27.27,0,0,1,.19-.38A14.75,14.75,0,0,0,86.18,45.8Zm2.56,2.63c.52-.46.77-.76.77-1a.24.24,0,0,0-.24-.25c-.31,0-.57.27-.57.79A3.16,3.16,0,0,0,88.74,48.43Z"/><path d="M92.72,47.82a10.39,10.39,0,0,1,2.4-2.27.26.26,0,0,1,.39.14.3.3,0,0,1-.12.43,10.32,10.32,0,0,0-1.75,1.65c.89-.05,1.84-.09,2.69-.09.19,0,.29.12.29.32a.27.27,0,0,1-.29.31c-1,0-2.21,0-3.24.1-.29.35-.6.76-.93,1.2a3.22,3.22,0,0,0-.76,1.48.14.14,0,0,0,.16.16,1.08,1.08,0,0,0,.49-.16.27.27,0,0,1,.39.14.28.28,0,0,1-.13.42,2,2,0,0,1-.89.23.65.65,0,0,1-.74-.74,3.74,3.74,0,0,1,.94-1.92c.2-.27.39-.52.57-.74-.45,0-.86.05-1.16.09a.29.29,0,0,1-.33-.28A.28.28,0,0,1,91,48C91.38,47.92,92,47.88,92.72,47.82Z"/><path d="M96.52,99.33c1.44,0,2.31.54,2.31,1.66,0,2-2.61,3.11-5.21,3.14l-.12.27c0,.11-.16.13-.28.08a.17.17,0,0,1-.11-.26.63.63,0,0,0,0-.09l-.35,0a.16.16,0,0,1-.16-.2.17.17,0,0,1,.2-.18c.21,0,.37,0,.5,0a35.83,35.83,0,0,1,2.13-3.91l0,0a9.68,9.68,0,0,0-1.5.35.17.17,0,0,1-.24-.11.18.18,0,0,1,.11-.25A9.65,9.65,0,0,1,96.52,99.33Zm-2.72,4.41c2.26-.07,4.59-1,4.59-2.72,0-.89-.76-1.3-1.87-1.3a6.33,6.33,0,0,0-.82.06l0,0a.19.19,0,0,1,.07.27A34.21,34.21,0,0,0,93.8,103.74Z"/><path d="M100.36,100.79c0,.1,0,.16.23.46a.85.85,0,0,1,.17.39c0,.12-.06.21-.2.33-.76.6-1.17,1-1.17,1.41,0,.14.06.22.19.22a2.48,2.48,0,0,0,1.28-.67.19.19,0,0,1,.27,0,.19.19,0,0,1,0,.28,2.85,2.85,0,0,1-1.58.76c-.38,0-.58-.17-.58-.52,0-.5.43-1.06,1.34-1.79,0,0,0,0,0-.05s0,0-.09-.15a1.4,1.4,0,0,1-.28-.68.56.56,0,0,1,.52-.56.17.17,0,0,1,.2.14.18.18,0,0,1-.14.23C100.41,100.64,100.36,100.71,100.36,100.79Z"/><path d="M101.93,103.3c0,.07,0,.11.09.11a2,2,0,0,0,.79-.38c.54-.37.94-.66,1.54-1.13a.21.21,0,0,1,.29,0,.2.2,0,0,1,0,.27,2.35,2.35,0,0,0-.48,1c0,.14.07.24.26.24a6,6,0,0,0,3.16-1.9.2.2,0,0,1,.27,0,.18.18,0,0,1,.07.25c-.21.36-.41.75-.59,1.14.93-.82,1.8-1.52,2.4-1.52.42,0,.61.22.61.56a1.92,1.92,0,0,1-.35,1c1-1,1.47-1.3,1.93-1.3s.55.2.56.49c0,.51-.57,1.13-.57,1.41,0,.12,0,.18.17.18a1.94,1.94,0,0,0,.7-.2.16.16,0,0,1,.23.09.18.18,0,0,1-.08.25,2.16,2.16,0,0,1-.88.23c-.42,0-.59-.17-.59-.48,0-.52.59-1,.59-1.4,0-.13-.07-.18-.2-.18-.42,0-1.13.8-2.21,1.72a.43.43,0,0,1-.27.13.21.21,0,0,1-.22-.22.72.72,0,0,1,.15-.37c.19-.3.63-.83.63-1.24,0-.16-.08-.24-.26-.24-.47,0-1.49.86-2.64,1.88a.27.27,0,0,1-.3,0,.23.23,0,0,1-.07-.26c.1-.26.22-.55.34-.81a5.14,5.14,0,0,1-2.63,1.23c-.4,0-.65-.15-.65-.59a1.39,1.39,0,0,1,.14-.54c-.28.21-.54.4-.86.61a2.09,2.09,0,0,1-1.07.46.42.42,0,0,1-.46-.46,4.25,4.25,0,0,1,1-2,.18.18,0,0,1,.27,0,.18.18,0,0,1,.05.27A3.93,3.93,0,0,0,101.93,103.3Z"/><path d="M119.76,100.68c0,.41.25.61.8.72a.2.2,0,0,1,.16.23c0,.11-.08.18-.2.17-1.58-.07-2.89.3-2.89,1.24,0,.54.58.81,1.3.81a5.16,5.16,0,0,0,3.48-1.53l-1,0a.21.21,0,0,1-.24-.16.26.26,0,0,1,.11-.29,27.18,27.18,0,0,1,2.49-1.53.24.24,0,0,1,.31,0,.23.23,0,0,1,0,.31,7,7,0,0,1-.74,1.17l1.08-.08a.2.2,0,0,1,0,.39l-1.46.1a5.75,5.75,0,0,1-4.1,2c-1.05,0-1.74-.43-1.74-1.15,0-1,1-1.58,2.52-1.68a.82.82,0,0,1-.36-.74c0-.73.88-1.41,2.22-1.41a.17.17,0,0,1,.18.19.18.18,0,0,1-.19.19C120.48,99.69,119.76,100.1,119.76,100.68Zm2.1,1.27.93,0a6.32,6.32,0,0,0,.7-1C123,101.25,122.37,101.6,121.86,102Z"/><path d="M132.63,99.43a.66.66,0,0,1,.76.72,6.6,6.6,0,0,1-1.09,2.69c1.2-1.08,2.33-2.06,2.86-2.52.36-.32.62-.49.85-.49s.35.11.35.32a1.07,1.07,0,0,1-.08.32c-.91,2-1.12,2.64-1.12,3.07a.72.72,0,0,0,.05.28.2.2,0,0,1-.09.28.22.22,0,0,1-.31-.08,1.16,1.16,0,0,1-.09-.47c0-.52.25-1.16,1.12-3.13a.36.36,0,0,0,0-.13,0,0,0,0,0,0,0c-.08,0-.25.16-.46.35l-3.61,3.22a.24.24,0,0,1-.3,0,.23.23,0,0,1-.06-.28c1.13-2,1.51-2.83,1.51-3.41a.3.3,0,0,0-.31-.34c-.65,0-1.92,1-4.84,4a.18.18,0,0,1-.27,0,.17.17,0,0,1,0-.27C130.59,100.31,131.9,99.43,132.63,99.43Z"/><path d="M138.91,101.65c-.81,0-2.09.89-2.09,1.62,0,.13.05.18.2.18a3.89,3.89,0,0,0,1.46-.64,4.92,4.92,0,0,1,1.73-.79c.34,0,.48.15.48.38a1,1,0,0,1-.22.52c-.19.27-.22.32-.22.4s.08.11.23.11c.87,0,2.35-1,3.8-2.28a.9.9,0,0,1,.81-.9c.15,0,.26.06.26.22a.8.8,0,0,1-.33.5l-.34.31a7.37,7.37,0,0,1,.08.78c0,.48-.32.84-1.31,1.53,0,0,0,0,0,0s.06.1.34.1a4,4,0,0,0,2.08-.68.16.16,0,0,1,.24.07.19.19,0,0,1-.05.27,4.56,4.56,0,0,1-2.27.73c-.66,0-.83-.22-.83-.46s0-.21.24-.35c.83-.59,1.17-.88,1.17-1.23a3.8,3.8,0,0,0-.05-.46c-1.35,1.19-2.8,2.19-3.81,2.19-.45,0-.65-.18-.65-.47a1,1,0,0,1,.24-.52c.1-.15.18-.24.18-.33s-.05-.09-.12-.09a5.56,5.56,0,0,0-1.46.74,4.18,4.18,0,0,1-1.71.68c-.42,0-.58-.21-.58-.56,0-1,1.49-2,2.53-2a1.45,1.45,0,0,1,.91.27.17.17,0,0,1,0,.27.19.19,0,0,1-.27,0A1.16,1.16,0,0,0,138.91,101.65Z"/><path d="M146.15,103.34c0,.17.08.24.31.24a3.55,3.55,0,0,0,1.46-.49.16.16,0,0,1,.23.1.18.18,0,0,1-.08.25,3.89,3.89,0,0,1-1.7.53c-.48,0-.67-.25-.67-.6a4,4,0,0,1,1-1.85.18.18,0,0,1,.28,0,.18.18,0,0,1,0,.27A3.77,3.77,0,0,0,146.15,103.34Zm2.3-3.4a.18.18,0,0,1,.27,0,.17.17,0,0,1,0,.27,11.08,11.08,0,0,1-1.13.75.19.19,0,0,1-.26-.08.18.18,0,0,1,.07-.26A7.64,7.64,0,0,0,148.45,99.94Z"/><path d="M148.8,102.46c-.12.24-.26.46-.36.65a.29.29,0,0,0,0,.09,0,0,0,0,0,0,0,.43.43,0,0,0,.12-.1c.7-.68,1.77-1.69,2.46-1.69.39,0,.59.18.59.51,0,.49-.72,1.19-.72,1.55a.08.08,0,0,0,.09.09c.15,0,.38-.18.72-.44.49-.4,1-.84,1.15-1a1,1,0,0,1,.57-.31c.19,0,.3.1.3.26a.72.72,0,0,1-.11.31,3.31,3.31,0,0,0-.53,1.09c0,.08,0,.11.12.11a1.85,1.85,0,0,0,.89-.35.18.18,0,0,1,.26,0,.19.19,0,0,1,0,.28,2.42,2.42,0,0,1-1.16.42c-.33,0-.5-.12-.5-.42a2.32,2.32,0,0,1,.42-1,.42.42,0,0,0,.05-.12h0s0,0-.12.09c-.27.25-.68.63-1.08.93a1.84,1.84,0,0,1-1,.52c-.31,0-.46-.12-.46-.41,0-.5.7-1.17.7-1.56,0-.08-.06-.15-.18-.15-.46,0-1.35.8-2.17,1.59-.3.29-.44.36-.6.36a.27.27,0,0,1-.29-.31,4.05,4.05,0,0,1,.52-1.19,2.39,2.39,0,0,0,.26-.78.24.24,0,0,1,.24-.22.18.18,0,0,1,.21.2A2.78,2.78,0,0,1,148.8,102.46Z"/><path d="M159,99.51c-1.55,0-3.71,2.33-3.71,3.62,0,.33.13.48.44.48a2.65,2.65,0,0,0,1.69-1,.2.2,0,0,1,.3.27,3,3,0,0,1-2,1.07.75.75,0,0,1-.86-.85c0-1.48,2.44-4,4.13-4a1.85,1.85,0,0,1,.74.12.17.17,0,0,1,.08.25.19.19,0,0,1-.25.1A1.61,1.61,0,0,0,159,99.51Zm-1.69,2.92c-.49,0-.66-.2-.66-.48a.73.73,0,0,1,.77-.64.58.58,0,0,1,.64.64,5.78,5.78,0,0,0,1.13-.38.16.16,0,0,1,.24.09.19.19,0,0,1-.08.27A5.09,5.09,0,0,1,157.32,102.43Zm.33-.45c0-.21-.12-.29-.26-.29s-.29.1-.29.21.08.14.21.14l.34,0v0Z"/><path d="M161.44,101.63c-.86,0-2.1.73-2.1,1.6a.31.31,0,0,0,.35.34,3.24,3.24,0,0,0,1.85-1l.29-.27a.26.26,0,0,1,.3,0,.23.23,0,0,1,.09.29,2.13,2.13,0,0,0-.12.69c0,.14.05.27.26.26a.16.16,0,0,1,.2.15.2.2,0,0,1-.19.24c-.4,0-.71-.08-.71-.64a1.45,1.45,0,0,1,0-.35,3.47,3.47,0,0,1-2,1,.65.65,0,0,1-.74-.69c0-1.08,1.46-2,2.55-2a1.25,1.25,0,0,1,1.09.44.2.2,0,0,1-.08.3.24.24,0,0,1-.3-.08A.89.89,0,0,0,161.44,101.63Z"/><path d="M35.89,75.84c0-.34-.08-.37-.25-.64L32,69.7c-.1-.15-.19-.28-.37-.28h-.62a.45.45,0,0,1-.52-.47.47.47,0,0,1,.49-.47h0c.39,0,.84,0,1.31,0s1.15,0,1.69,0h0a.45.45,0,0,1,.49.46.49.49,0,0,1-.52.48h-.59c-.13,0-.25,0-.25.15s1.71,2.73,3,4.64c.1.13.16.2.23.2s.15-.08.25-.22c.92-1.29,3-4.47,3-4.62s-.12-.15-.24-.15h-.58a.47.47,0,1,1,0-.94h0c.44,0,.89,0,1.36,0s1.11,0,1.59,0a.47.47,0,0,1,.52.47.46.46,0,0,1-.5.47h-.55a.56.56,0,0,0-.42.28c-.89,1.39-2.62,4.06-3.62,5.48a.8.8,0,0,0-.24.67c0,.86,0,2.21,0,3.44a.29.29,0,0,0,.32.32l.72,0a.5.5,0,1,1,0,1h0c-.45,0-1,0-1.48,0s-1.22,0-1.69,0a.46.46,0,0,1-.52-.49.48.48,0,0,1,.5-.5h0l.72,0c.22,0,.3-.14.3-.32Z"/><path d="M41.6,76.76a3.89,3.89,0,1,1,3.87,4A3.82,3.82,0,0,1,41.6,76.76Zm6.79,0a2.92,2.92,0,1,0-2.92,3.13A2.94,2.94,0,0,0,48.39,76.76Z"/><path d="M59.2,80.56c-.44,0-.87,0-1.31,0s-.82,0-1.2,0a.43.43,0,0,1-.51-.43.46.46,0,0,1,.49-.47h.52c.17,0,.25-.11.25-.3,0-.77,0-1.73,0-2.51,0-.57,0-1,0-1.28a1.86,1.86,0,0,0-1.91-2A2.48,2.48,0,0,0,53,75.84c0,.31,0,.82,0,1.42s0,1.34,0,2.13c0,.18.1.28.3.28h.45a.44.44,0,0,1,.5.45.45.45,0,0,1-.48.45h0l-1.31,0c-.42,0-.84,0-1.22,0a.43.43,0,0,1-.5-.43.45.45,0,0,1,.48-.47h.54a.26.26,0,0,0,.28-.28c0-1.06,0-1.93,0-2.8,0-.62,0-1.26,0-2,0-.43-.15-.74-.55-.75h-.39a.44.44,0,0,1-.45-.47.48.48,0,0,1,.49-.48h.48a1.21,1.21,0,0,1,1.33.94s0,.08.08.08a.15.15,0,0,0,.08,0,3.17,3.17,0,0,1,2.48-1.14,2.66,2.66,0,0,1,2.8,2.68c0,.56,0,1.93,0,3.14v.8c0,.19.08.3.26.3h.51a.44.44,0,0,1,.48.45.45.45,0,0,1-.48.45Z"/><path d="M64.79,80.78a3.75,3.75,0,0,1-3.79-4,3.83,3.83,0,0,1,3.74-4A3.12,3.12,0,0,1,68,75.52c0,.62-.37,1.09-1.22,1.12-.39,0-1,0-1.58,0l-3,0c-.17,0-.2.07-.2.3a2.73,2.73,0,0,0,2.81,3,3,3,0,0,0,2.43-1.11.48.48,0,0,1,.34-.15.51.51,0,0,1,.5.49C68.07,79.51,66.9,80.78,64.79,80.78Zm0-7.17a2.71,2.71,0,0,0-2.63,2.06c0,.17.15.17,2.1.17.87,0,1.81,0,2.28,0s.55-.2.55-.47A2.1,2.1,0,0,0,64.75,73.61Z"/><path d="M70.36,85a.49.49,0,0,1-.52-.5.48.48,0,0,1,.55-.49c1.36,0,1.93-.93,2.81-3a.46.46,0,0,0,0-.21.75.75,0,0,0-.08-.29c-.45-1.14-2-4.83-2.61-6.43-.07-.17-.14-.31-.36-.31s-.23,0-.46,0a.44.44,0,1,1,0-.87h0c.45,0,.87,0,1.27,0s.81,0,1.21,0h0a.4.4,0,0,1,.44.42.42.42,0,0,1-.45.43h-.49c-.15,0-.22,0-.22.16a.36.36,0,0,0,0,.14,43,43,0,0,0,2.21,5.41,50.1,50.1,0,0,0,2.28-5.53c0-.12-.08-.18-.23-.18h-.49a.43.43,0,0,1-.47-.43.42.42,0,0,1,.45-.42h0c.4,0,.8,0,1.2,0s.84,0,1.28,0h0a.44.44,0,1,1,0,.87l-.39,0c-.15,0-.26,0-.31.1S74.6,80,73.92,81.65C73,84,72.1,85,70.36,85Z"/><path d="M85,79.52s0-.08-.07-.08a.08.08,0,0,0-.07,0,3.1,3.1,0,0,1-2.55,1.29,2.49,2.49,0,0,1-2.71-2.31,2.23,2.23,0,0,1,1.79-2.08,27.51,27.51,0,0,1,3.1-.69c.2,0,.27-.08.27-.2s0-.18,0-.27c0-.92-.39-1.64-1.75-1.64a2.65,2.65,0,0,0-2,.8.46.46,0,0,1-.82-.28c0-.64,1.41-1.36,2.85-1.36a2.3,2.3,0,0,1,2.62,2.57,3.62,3.62,0,0,1,0,.46c-.05.56-.08,1.43-.08,2.07,0,1.22.11,1.62.78,1.86a.42.42,0,0,1,.29.42.45.45,0,0,1-.46.46A1.42,1.42,0,0,1,85,79.52ZM84.72,77v-.22c0-.13,0-.18-.16-.18h0c-2.63.41-4,.75-4,1.92,0,.71.67,1.41,1.8,1.41C83.13,79.89,84.72,79.54,84.72,77Z"/><path d="M100.33,80.56l-1.26,0c-.42,0-.8,0-1.19,0a.45.45,0,1,1,0-.89h0c.2,0,.24,0,.49,0a.26.26,0,0,0,.28-.29c0-.48,0-1.15,0-1.82,0-.92,0-1.83,0-2.15-.07-1.29-.82-1.81-1.66-1.81a2.25,2.25,0,0,0-2.25,2c0,.37,0,1.18,0,2,0,.62,0,1.26,0,1.79a.26.26,0,0,0,.3.29,3.24,3.24,0,0,0,.45,0,.43.43,0,0,1,.47.44.43.43,0,0,1-.45.45h0l-1.26,0c-.42,0-.8,0-1.19,0a.42.42,0,0,1-.47-.43.45.45,0,0,1,.46-.46h0c.2,0,.25,0,.51,0a.28.28,0,0,0,.28-.3c0-.57,0-1.24,0-1.9,0-.9,0-1.74,0-2.06-.06-1.29-.82-1.81-1.64-1.81a2.25,2.25,0,0,0-2.23,2.08c0,.27,0,.87,0,1.56s0,1.47,0,2.13a.27.27,0,0,0,.3.3,3,3,0,0,0,.44,0h0a.45.45,0,1,1,0,.89h0c-.42,0-.85,0-1.27,0s-.81,0-1.19,0a.44.44,0,0,1-.49-.43.46.46,0,0,1,.47-.46h0l.5,0A.26.26,0,0,0,89,79.4c0-1.12,0-2.37,0-3.55V74.59c0-.41-.14-.75-.52-.75-.15,0-.15,0-.37,0a.47.47,0,0,1,0-.94l.48,0c1.19,0,1.31.82,1.33.87s0,.07,0,.07l0,0a2.89,2.89,0,0,1,2.25-1,2.25,2.25,0,0,1,2.21,1.46,3.11,3.11,0,0,1,2.6-1.48,2.45,2.45,0,0,1,2.51,2.51c0,.71,0,2.84,0,4.14,0,.17.08.29.26.29s.21,0,.44,0h0a.45.45,0,1,1,0,.89Z"/><path d="M107.53,79.52s0-.08-.07-.08a.08.08,0,0,0-.07,0,3.09,3.09,0,0,1-2.54,1.29,2.5,2.5,0,0,1-2.72-2.31,2.23,2.23,0,0,1,1.8-2.08,26.58,26.58,0,0,1,3.1-.69c.2,0,.26-.08.26-.2s0-.18,0-.27c0-.92-.39-1.64-1.74-1.64a2.61,2.61,0,0,0-2,.8.47.47,0,0,1-.35.17.45.45,0,0,1-.47-.45c0-.64,1.4-1.36,2.84-1.36a2.3,2.3,0,0,1,2.62,2.57,3.62,3.62,0,0,1,0,.46c0,.56-.08,1.43-.08,2.07,0,1.22.12,1.62.79,1.86a.42.42,0,0,1,.28.42.45.45,0,0,1-.45.46A1.42,1.42,0,0,1,107.53,79.52ZM107.28,77v-.22c0-.13,0-.18-.17-.18h0c-2.63.41-4,.75-4,1.92a1.6,1.6,0,0,0,1.79,1.41C105.69,79.89,107.28,79.54,107.28,77Z"/><path d="M115.85,79.61c.2,0,.4,0,.67,0a.34.34,0,0,0,.32-.35c0-1.11,0-2.9,0-4.73s0-3.65,0-4.81a.3.3,0,0,0-.29-.33h-.65a.47.47,0,0,1-.52-.47.45.45,0,0,1,.47-.47h.05c.4,0,.82,0,1.24,0,.94,0,1.89,0,2.7,0h.89c2.43.17,3.48,1.55,3.48,2.92a3,3,0,0,1-2.8,3c-.11,0-.18,0-.18.1s0,.1.12.19a15.07,15.07,0,0,1,1.57,2.16c.37.62,1.07,1.76,1.44,2.31a1.08,1.08,0,0,0,1.07.44.45.45,0,0,1,.49.48.47.47,0,0,1-.49.49h0l-1.41,0c-.45,0-.87,0-1.3,0h0a.47.47,0,0,1,0-.94c.59,0,.7-.06.7-.17a.18.18,0,0,0,0-.06c-.22-.5-1-1.63-1.24-2.11-1.4-2.33-2-2.67-2.47-2.67-.28,0-.58,0-.87,0-.77,0-.92.06-.92.26,0,1,0,3.21,0,4.45a.33.33,0,0,0,.37.34c.26,0,.35,0,.6,0a.48.48,0,1,1,0,1h0c-.45,0-1,0-1.43,0s-1.12,0-1.52,0a.45.45,0,0,1-.52-.47.47.47,0,0,1,.5-.48Zm4.76-10.26-.91,0c-.57,0-1.2,0-1.47,0s-.4.2-.4.88v3.21c0,.31.31.31,1.54.31.5,0,1,0,1.36,0a2.44,2.44,0,0,0,2.44-2.3C123.17,70.44,122.38,69.45,120.61,69.35Z"/><path d="M130,80.58c-.46,0-1,0-1.43,0s-.94,0-1.34,0a.46.46,0,0,1-.52-.47.46.46,0,0,1,.5-.47h0l.61,0c.2,0,.3-.12.3-.34,0-1.59,0-3.23,0-4.69,0-.49-.17-.76-.57-.77h-.39a.43.43,0,0,1-.45-.45.48.48,0,0,1,.49-.5c.32,0,.27,0,.65,0a1.2,1.2,0,0,1,1.24,1.37v0c0,1.17,0,2.45,0,3.67v1.31a.29.29,0,0,0,.3.32,5.62,5.62,0,0,0,.59,0,.46.46,0,0,1,.52.47.47.47,0,0,1-.51.47Zm-1.7-10.71a.74.74,0,0,1-.78-.81.79.79,0,0,1,.8-.78.78.78,0,0,1,.82.78A.8.8,0,0,1,128.32,69.87Z"/><path d="M139.82,80.56c-.43,0-.87,0-1.3,0s-.83,0-1.21,0a.43.43,0,0,1-.5-.43.45.45,0,0,1,.48-.47h.52c.17,0,.25-.11.25-.3,0-.77,0-1.73,0-2.51,0-.57,0-1,0-1.28a1.86,1.86,0,0,0-1.91-2,2.48,2.48,0,0,0-2.51,2.22c0,.31,0,.82,0,1.42s0,1.34,0,2.13c0,.18.1.28.3.28h.45a.45.45,0,0,1,.51.45.46.46,0,0,1-.49.45h0c-.43,0-.89,0-1.3,0s-.84,0-1.23,0a.43.43,0,0,1-.5-.43.46.46,0,0,1,.49-.47h.53a.27.27,0,0,0,.29-.28c0-1.06,0-1.93,0-2.8,0-.62,0-1.26,0-2,0-.43-.15-.74-.55-.75h-.39a.44.44,0,0,1-.45-.47.48.48,0,0,1,.49-.48h.48a1.21,1.21,0,0,1,1.33.94s0,.08.08.08a.21.21,0,0,0,.09,0,3.14,3.14,0,0,1,2.48-1.14A2.65,2.65,0,0,1,139,75.43c0,.56,0,1.93,0,3.14v.8c0,.19.08.3.27.3h.5a.45.45,0,0,1,.49.45.45.45,0,0,1-.49.45Z"/><path d="M147,79.52s0-.08-.07-.08a.08.08,0,0,0-.07,0,3.09,3.09,0,0,1-2.54,1.29,2.5,2.5,0,0,1-2.72-2.31,2.23,2.23,0,0,1,1.79-2.08,27.15,27.15,0,0,1,3.11-.69c.2,0,.26-.08.26-.2s0-.18,0-.27c0-.92-.39-1.64-1.74-1.64a2.61,2.61,0,0,0-2,.8.47.47,0,0,1-.36.17.44.44,0,0,1-.46-.45c0-.64,1.4-1.36,2.84-1.36a2.3,2.3,0,0,1,2.62,2.57,3.62,3.62,0,0,1,0,.46c-.05.56-.08,1.43-.08,2.07,0,1.22.12,1.62.79,1.86a.42.42,0,0,1,.28.42.45.45,0,0,1-.45.46A1.42,1.42,0,0,1,147,79.52ZM146.77,77v-.22c0-.13-.05-.18-.17-.18h0c-2.63.41-4,.75-4,1.92a1.6,1.6,0,0,0,1.79,1.41C145.18,79.89,146.77,79.54,146.77,77Z"/><path d="M43.33,158.08a.28.28,0,0,1-.29-.29c0-.14.09-.27.31-.27.77,0,1.09-.53,1.59-1.7a.3.3,0,0,0,0-.12.53.53,0,0,0,0-.16c-.26-.65-1.13-2.73-1.48-3.64,0-.1-.08-.17-.2-.17H43a.25.25,0,1,1,0-.5h1.44a.23.23,0,0,1,.25.24.25.25,0,0,1-.26.25h-.27c-.09,0-.13,0-.13.09a.25.25,0,0,0,0,.08A23.62,23.62,0,0,0,45.28,155a28.88,28.88,0,0,0,1.28-3.13c0-.06,0-.1-.13-.1h-.27a.25.25,0,1,1,0-.49h1.44a.25.25,0,1,1,0,.5h-.22c-.09,0-.15,0-.18.05s-1.46,3.48-1.84,4.4C44.81,157.48,44.32,158.07,43.33,158.08Z"/><path d="M48.52,153.41a2.2,2.2,0,1,1,2.18,2.28A2.15,2.15,0,0,1,48.52,153.41Zm3.83,0a1.65,1.65,0,1,0-1.65,1.78A1.66,1.66,0,0,0,52.35,153.41Z"/><path d="M58.47,155.57l-.74,0-.69,0a.25.25,0,0,1-.28-.25.26.26,0,0,1,.27-.27h.3c.09,0,.14-.06.14-.17,0-.43,0-1,0-1.42s0-.59,0-.72a1.05,1.05,0,0,0-1.08-1.11A1.4,1.4,0,0,0,55,152.89c0,.18,0,.47,0,.81s0,.76,0,1.2c0,.11.06.16.17.16h.25a.26.26,0,0,1,.29.26.27.27,0,0,1-.28.26h0l-.73,0-.7,0a.25.25,0,0,1-.28-.25.26.26,0,0,1,.27-.27h.31a.15.15,0,0,0,.16-.16c0-.59,0-1.09,0-1.58s0-.71,0-1.12c0-.25-.09-.42-.31-.42H53.9a.25.25,0,0,1-.26-.26.28.28,0,0,1,.28-.28h.27a.68.68,0,0,1,.75.54s0,0,.05,0l0,0a1.79,1.79,0,0,1,1.4-.64A1.5,1.5,0,0,1,58,152.67c0,.31,0,1.09,0,1.77v.45c0,.11.05.17.15.17h.28a.26.26,0,1,1,0,.52Z"/><path d="M61.62,155.69a2.12,2.12,0,0,1-2.14-2.24,2.16,2.16,0,0,1,2.11-2.29,1.76,1.76,0,0,1,1.87,1.55c0,.35-.21.62-.69.64H60.15c-.09,0-.11,0-.11.17a1.55,1.55,0,0,0,1.59,1.67,1.69,1.69,0,0,0,1.37-.63.26.26,0,0,1,.19-.08.29.29,0,0,1,.29.27A1.91,1.91,0,0,1,61.62,155.69Zm0-4.06a1.54,1.54,0,0,0-1.49,1.17c0,.09.09.09,1.19.09h1.29c.22,0,.31-.11.31-.26A1.19,1.19,0,0,0,61.6,151.63Z"/><path d="M64,157.3a.25.25,0,0,1-.26-.27.25.25,0,0,1,.26-.26h4.74a.27.27,0,1,1,0,.53Z"/><path d="M70.75,158H69.24a.26.26,0,1,1,0-.51h.32c.13,0,.18-.09.18-.23,0-.95,0-2.42,0-3.67v-1.37c0-.28-.08-.46-.33-.46h-.2a.26.26,0,0,1-.27-.26.28.28,0,0,1,.28-.27h.31a.69.69,0,0,1,.71.61c0,.08,0,.15,0,.15s0,0,.08-.07a1.93,1.93,0,0,1,1.56-.75,2.25,2.25,0,0,1,0,4.5,1.92,1.92,0,0,1-1.5-.69,1.06,1.06,0,0,0-.1-.12s0,0,0,.16v2.25a.2.2,0,0,0,.22.22h.28a.24.24,0,0,1,.25.26.25.25,0,0,1-.27.26Zm2.73-4.58a1.62,1.62,0,1,0-1.61,1.76A1.63,1.63,0,0,0,73.48,153.43Z"/><path d="M77.25,155.69a2.12,2.12,0,0,1-2.14-2.24,2.17,2.17,0,0,1,2.12-2.29,1.76,1.76,0,0,1,1.86,1.55c0,.35-.21.62-.69.64H75.79c-.1,0-.12,0-.12.17a1.55,1.55,0,0,0,1.59,1.67,1.71,1.71,0,0,0,1.38-.63.24.24,0,0,1,.19-.08.28.28,0,0,1,.28.27A1.9,1.9,0,0,1,77.25,155.69Zm0-4.06a1.54,1.54,0,0,0-1.49,1.17c0,.09.08.09,1.18.09h1.29c.23,0,.31-.11.31-.26A1.18,1.18,0,0,0,77.24,151.63Z"/><path d="M81.69,155.57l-.78,0-.73,0a.24.24,0,0,1-.28-.25.26.26,0,0,1,.27-.27h.33a.15.15,0,0,0,.16-.17c0-.73,0-1.31,0-1.94v-.74c0-.26-.08-.43-.32-.43h-.21a.24.24,0,0,1-.25-.26.26.26,0,0,1,.26-.28h.27a.68.68,0,0,1,.75.51s0,0,0,0l.05,0a1.82,1.82,0,0,1,1.35-.59c.18,0,.31.08.31.26a.25.25,0,0,1-.26.27H82.6a1.29,1.29,0,0,0-1.38,1.13c0,.18,0,.47,0,.83s0,.79,0,1.24a.15.15,0,0,0,.16.17h.31a.26.26,0,1,1,0,.52Z"/><path d="M85.88,155.68a2.16,2.16,0,0,1-2.23-2.24,2.2,2.2,0,0,1,2.13-2.32,2.07,2.07,0,0,1,1.07.29h.05s0,0,0-.1.12-.16.23-.16a.24.24,0,0,1,.27.24h0c0,.2,0,.35,0,.5s0,.29,0,.51v0a.24.24,0,0,1-.27.24.25.25,0,0,1-.27-.23c0-.2,0-.31-.1-.45a1.24,1.24,0,0,0-1-.39,1.79,1.79,0,0,0,0,3.56,1.48,1.48,0,0,0,1.21-.55.29.29,0,0,1,.25-.14.3.3,0,0,1,.3.29C87.61,155,86.9,155.68,85.88,155.68Z"/><path d="M89.22,155.65a.42.42,0,0,1-.45-.46.45.45,0,0,1,.46-.46.46.46,0,0,1,.47.45A.47.47,0,0,1,89.22,155.65Z"/><path d="M93.27,155.68A2.16,2.16,0,0,1,91,153.44a2.2,2.2,0,0,1,2.13-2.32,2.07,2.07,0,0,1,1.07.29h.05s0,0,0-.1.12-.16.23-.16a.24.24,0,0,1,.27.24h0c0,.2,0,.35,0,.5s0,.29,0,.51v0a.24.24,0,0,1-.27.24.25.25,0,0,1-.27-.23c0-.2,0-.31-.09-.45a1.27,1.27,0,0,0-1-.39,1.79,1.79,0,0,0,0,3.56,1.48,1.48,0,0,0,1.21-.55.29.29,0,0,1,.25-.14.3.3,0,0,1,.3.29C95,155,94.29,155.68,93.27,155.68Z"/><path d="M95.86,153.41a2.2,2.2,0,1,1,2.19,2.28A2.16,2.16,0,0,1,95.86,153.41Zm3.84,0a1.65,1.65,0,1,0-1.65,1.78A1.66,1.66,0,0,0,99.7,153.41Z"/><path d="M108.14,155.57l-.71,0-.67,0a.26.26,0,1,1,0-.51H107a.15.15,0,0,0,.16-.16c0-.27,0-.65,0-1s0-1,0-1.21c0-.73-.47-1-.94-1a1.27,1.27,0,0,0-1.27,1.11c0,.21,0,.66,0,1.15s0,.71,0,1c0,.11.06.16.17.16h.26a.24.24,0,0,1,.26.25.25.25,0,0,1-.25.26h0l-.72,0-.67,0a.24.24,0,0,1-.26-.25.25.25,0,0,1,.25-.26h.3a.16.16,0,0,0,.16-.17c0-.32,0-.7,0-1.07s0-1,0-1.16c0-.73-.47-1-.93-1a1.28,1.28,0,0,0-1.26,1.18c0,.15,0,.49,0,.88s0,.83,0,1.2a.15.15,0,0,0,.17.17h.26a.24.24,0,0,1,.25.25.24.24,0,0,1-.25.26h0l-.72,0-.68,0a.25.25,0,0,1-.27-.25.26.26,0,0,1,.26-.26h.3a.15.15,0,0,0,.16-.16c0-.63,0-1.34,0-2v-.71c0-.24-.08-.42-.3-.42h-.2a.27.27,0,0,1,0-.54h.27c.67,0,.74.47.75.5s0,0,0,0l0,0a1.62,1.62,0,0,1,1.27-.59,1.27,1.27,0,0,1,1.25.82,1.75,1.75,0,0,1,1.47-.83,1.39,1.39,0,0,1,1.42,1.42c0,.4,0,1.6,0,2.34,0,.1,0,.16.15.16h.25a.26.26,0,1,1,0,.51Z"/><path d="M48,167a9.58,9.58,0,0,1-.05-1.07c0-.33,0-.66,0-1,.11-1.38.86-2.13,1.87-2.13s1.73.71,1.86,2c0,.38.06.75.06,1.11,0,.9-.06,3.1-1.92,3.1C48.85,169,48.11,168.29,48,167Zm3.25-1.13a7.84,7.84,0,0,0-.05-1c-.09-1-.58-1.64-1.34-1.64s-1.26.66-1.35,1.67c0,.31,0,.63,0,.95,0,1.5.27,2.7,1.39,2.7C51.24,168.52,51.24,166.54,51.24,165.82Z"/><path d="M53.76,168.67a.29.29,0,0,1,.13-.23,5.06,5.06,0,0,0,2-2.56,0,0,0,0,0,0,0l-.08.05a1.75,1.75,0,0,1-1.24.46,1.7,1.7,0,0,1-1.81-1.75,1.81,1.81,0,0,1,1.92-1.86,1.87,1.87,0,0,1,1.93,2c0,2.08-2.17,4.19-2.6,4.19A.27.27,0,0,1,53.76,168.67Zm.94-5.47a1.38,1.38,0,0,0-1.46,1.38,1.34,1.34,0,0,0,1.41,1.36,1.41,1.41,0,0,0,1.47-1.4A1.32,1.32,0,0,0,54.7,163.2Z"/><path d="M57.71,167c0-.36-.05-.71-.05-1.07s0-.66.05-1c.11-1.38.85-2.13,1.87-2.13s1.73.71,1.85,2a10.6,10.6,0,0,1,.06,1.11c0,.9-.06,3.1-1.91,3.1C58.58,169,57.84,168.29,57.71,167ZM61,165.82c0-.33,0-.67,0-1-.09-1-.59-1.64-1.34-1.64s-1.26.66-1.35,1.67c0,.31,0,.63,0,.95,0,1.5.26,2.7,1.39,2.7C61,168.52,61,166.54,61,165.82Z"/><path d="M65.17,166.7a.25.25,0,0,1,.26.26.25.25,0,0,1-.27.26H62.83a.24.24,0,0,1-.28-.26.25.25,0,0,1,.25-.26h2.37Z"/><path d="M66.55,167c0-.36,0-.71,0-1.07s0-.66,0-1c.11-1.38.86-2.13,1.87-2.13s1.73.71,1.86,2c0,.38.06.75.06,1.11,0,.9-.06,3.1-1.92,3.1C67.42,169,66.68,168.29,66.55,167Zm3.26-1.13c0-.33,0-.67,0-1-.1-1-.59-1.64-1.35-1.64s-1.25.66-1.35,1.67c0,.31,0,.63,0,.95,0,1.5.27,2.7,1.39,2.7C69.8,168.52,69.81,166.54,69.81,165.82Z"/><path d="M71.41,167c0-.36,0-.71,0-1.07s0-.66,0-1c.1-1.38.85-2.13,1.87-2.13s1.73.71,1.85,2a10.6,10.6,0,0,1,.06,1.11c0,.9-.06,3.1-1.91,3.1C72.28,169,71.54,168.29,71.41,167Zm3.26-1.13c0-.33,0-.67,0-1-.09-1-.59-1.64-1.34-1.64s-1.26.66-1.35,1.67c0,.31-.05.63-.05.95,0,1.5.27,2.7,1.4,2.7C74.66,168.52,74.67,166.54,74.67,165.82Z"/><path d="M76.28,167a9.58,9.58,0,0,1,0-1.07c0-.33,0-.66,0-1,.11-1.38.85-2.13,1.87-2.13s1.73.71,1.85,2a10.6,10.6,0,0,1,.06,1.11c0,.9-.06,3.1-1.91,3.1C77.14,169,76.4,168.29,76.28,167Zm3.25-1.13a7.84,7.84,0,0,0,0-1c-.09-1-.58-1.64-1.34-1.64s-1.26.66-1.35,1.67c0,.31,0,.63,0,.95,0,1.5.27,2.7,1.39,2.7C79.52,168.52,79.53,166.54,79.53,165.82Z"/><path d="M81.14,167c0-.36,0-.71,0-1.07s0-.66,0-1c.11-1.38.86-2.13,1.87-2.13s1.73.71,1.86,2c0,.38.06.75.06,1.11,0,.9-.06,3.1-1.92,3.1C82,169,81.27,168.29,81.14,167Zm3.26-1.13c0-.33,0-.67-.05-1-.1-1-.59-1.64-1.35-1.64s-1.26.66-1.35,1.67c0,.31,0,.63,0,.95,0,1.5.27,2.7,1.39,2.7C84.39,168.52,84.4,166.54,84.4,165.82Z"/><path d="M88.6,166.7a.25.25,0,0,1,.26.26.25.25,0,0,1-.27.26H86.25A.24.24,0,0,1,86,167a.24.24,0,0,1,.25-.26H88.6Z"/><path d="M90,167a9.58,9.58,0,0,1,0-1.07c0-.33,0-.66,0-1,.11-1.38.85-2.13,1.87-2.13s1.73.71,1.85,2a10.6,10.6,0,0,1,.06,1.11c0,.9-.06,3.1-1.91,3.1C90.84,169,90.1,168.29,90,167Zm3.25-1.13a7.84,7.84,0,0,0,0-1c-.09-1-.59-1.64-1.34-1.64s-1.26.66-1.35,1.67c0,.31,0,.63,0,.95,0,1.5.26,2.7,1.39,2.7C93.22,168.52,93.23,166.54,93.23,165.82Z"/><path d="M94.84,167c0-.36,0-.71,0-1.07s0-.66,0-1c.11-1.38.86-2.13,1.87-2.13s1.73.71,1.86,2c0,.38.06.75.06,1.11,0,.9-.06,3.1-1.92,3.1C95.7,169,95,168.29,94.84,167Zm3.26-1.13a7.82,7.82,0,0,0-.06-1c-.09-1-.58-1.64-1.34-1.64s-1.26.66-1.35,1.67c0,.31,0,.63,0,.95,0,1.5.27,2.7,1.39,2.7C98.09,168.52,98.1,166.54,98.1,165.82Z"/><path d="M99.7,167c0-.36,0-.71,0-1.07s0-.66,0-1c.11-1.38.86-2.13,1.88-2.13s1.72.71,1.85,2c0,.38.06.75.06,1.11,0,.9-.06,3.1-1.91,3.1C100.57,169,99.83,168.29,99.7,167Zm3.26-1.13c0-.33,0-.67,0-1-.09-1-.59-1.64-1.34-1.64s-1.26.66-1.36,1.67c0,.31,0,.63,0,.95,0,1.5.27,2.7,1.4,2.7C103,168.52,103,166.54,103,165.82Z"/><path d="M104.57,167a9.58,9.58,0,0,1,0-1.07c0-.33,0-.66,0-1,.11-1.38.85-2.13,1.87-2.13s1.73.71,1.85,2a10.6,10.6,0,0,1,.06,1.11c0,.9-.06,3.1-1.91,3.1C105.43,169,104.69,168.29,104.57,167Zm3.25-1.13a7.84,7.84,0,0,0,0-1c-.09-1-.59-1.64-1.34-1.64s-1.26.66-1.35,1.67c0,.31,0,.63,0,.95,0,1.5.26,2.7,1.39,2.7C107.81,168.52,107.82,166.54,107.82,165.82Z"/><path class="cls-4" d="M34.77,162.34a.74.74,0,0,0-.18-.46.46.46,0,0,0-.15-.16h0a.52.52,0,0,0-.24-.09l-3.7-.39a1,1,0,0,0-.89.52l-3.17,6.48a.55.55,0,0,0-.05.37.61.61,0,0,0,.55.58h.15l.81.09,2.21.24a1.57,1.57,0,0,0,1.09-.1,2.67,2.67,0,0,0,.82-1.21c1-2.05,1.63-3.49,2.63-5.52a1.18,1.18,0,0,0,.12-.36Zm-5.65,6a.5.5,0,0,1-.43.24.19.19,0,0,1-.15-.3.47.47,0,0,1,.43-.24A.19.19,0,0,1,29.12,168.37Zm2.12-.66-3.72-.4,2.59-5.3,3.73.4Z"/><path class="cls-4" d="M35.43,151.74a1.25,1.25,0,0,0-.28-.59l-.09-.11a1.37,1.37,0,0,0-1-.39H27a1.35,1.35,0,0,0-.95.39.44.44,0,0,0-.09.11,1.25,1.25,0,0,0-.28.59,1.09,1.09,0,0,0,0,.26v5a1.41,1.41,0,0,0,.11.54,1.5,1.5,0,0,0,.29.42l.09.08a1.31,1.31,0,0,0,.86.31H34.1A1.34,1.34,0,0,0,35,158l.09-.08a1.29,1.29,0,0,0,.28-.42h0a1.18,1.18,0,0,0,.12-.53v-5A1.09,1.09,0,0,0,35.43,151.74Zm-8.85-.21a.64.64,0,0,1,.46-.19H34.1a.65.65,0,0,1,.47.19l.06.07-3.7,3.23a.53.53,0,0,1-.36.13.53.53,0,0,1-.35-.13l-3.7-3.23Zm-.2,5.43v-4.64l2.68,2.33L26.38,157Zm7.72.66H27a.59.59,0,0,1-.32-.09l2.82-2.46.26.23a1.19,1.19,0,0,0,.77.29,1.17,1.17,0,0,0,.77-.29l.27-.23,2.82,2.46A.63.63,0,0,1,34.1,157.62Zm.66-.66v0l-2.67-2.33,2.67-2.34Z"/></g></g></svg>