<svg xmlns="http://www.w3.org/2000/svg" viewBox="0 0 332.87 204.88"><defs><style>.cls-1{fill:#eaeaea;}.cls-2{fill:#f7d479;}.cls-10,.cls-13,.cls-15,.cls-3{fill:none;}.cls-3{stroke:#9a6633;stroke-miterlimit:10;}.cls-10,.cls-3{stroke-width:0.25px;}.cls-4{fill:#9a6633;}.cls-5{fill:#fff;}.cls-6{opacity:0.6;}.cls-7{fill:#e7b626;}.cls-8{fill:#e99325;}.cls-9{fill:#956533;}.cls-10{stroke:#f3981c;opacity:0.5;}.cls-10,.cls-15{stroke-linecap:round;stroke-linejoin:round;}.cls-10,.cls-11{isolation:isolate;}.cls-11,.cls-14{fill:#ea7a5d;}.cls-11{opacity:0.56;}.cls-12{fill:#f2e9d2;}.cls-13{stroke:#ea7a5d;stroke-width:0.75px;}.cls-15{stroke:#f6cd62;stroke-width:0.5px;}.cls-16{fill:#f6cd62;}</style></defs><g id="レイヤー_2" data-name="レイヤー 2"><g id="レイヤー_1-2" data-name="レイヤー 1"><g id="レイヤー_2-2" data-name="レイヤー 2"><g id="背景"><rect class="cls-1" x="72.08" y="-56.13" width="199.44" height="321.52" rx="8.82" transform="translate(66.57 276.06) rotate(-89.8)"/><rect id="裏" class="cls-2" x="64.05" y="-63.21" width="194.79" height="322.28" rx="8.5" transform="translate(62.96 259.03) rotate(-89.8)"/><line class="cls-3" x1="166.93" y1="176.93" x2="302.51" y2="177.39"/><line class="cls-3" x1="166.89" y1="188.5" x2="302.48" y2="188.96"/><path class="cls-4" d="M167.69,180.62h.93l1.48,3.15.49,1.16h0c0-.55-.11-1.21-.11-1.82v-2.48h.83v5.44h-.92l-1.48-3.16-.49-1.16h0c0,.58.11,1.22.11,1.8v2.51h-.84Z"/><path class="cls-4" d="M171.67,184a2.07,2.07,0,1,1,0,.15Zm3.11,0c0-.85-.43-1.41-1.11-1.42s-1.11.56-1.11,1.41.42,1.41,1.1,1.41,1.11-.54,1.12-1.39Z"/><path class="cls-4" d="M181.22,185.4a.77.77,0,0,1,1.54.08.77.77,0,0,1-1.54,0Z"/><path class="cls-4" d="M169.93,171.11a5.64,5.64,0,0,1,1.52-.22c1.08,0,1.89.59,1.89,1.55a1.76,1.76,0,0,1-1.58,1.75,4.05,4.05,0,0,1-.92.1l-.26-.75a3.58,3.58,0,0,0,.87,0c.61-.11,1.15-.43,1.15-1.06s-.5-.89-1.16-.89a4.74,4.74,0,0,0-1.49.24v1.53c0,.79-.29,1-.71,1-.64,0-1.6-.59-1.6-1.31s.75-1.28,1.61-1.66v-1.28h-1.48v-.72a8.51,8.51,0,0,0,1,.06h.5v-.74a2.94,2.94,0,0,0-.05-.59h.8a2.36,2.36,0,0,1-.05.57,3.07,3.07,0,0,0,0,.68,7.54,7.54,0,0,0,1.43-.28v.73a11.71,11.71,0,0,1-1.46.25v1.09Zm-.63,2.08v-1.14c-.53.26-.9.63-.9.93s.42.55.67.55S169.29,173.43,169.3,173.19Zm2.93-4.31A13.75,13.75,0,0,1,174,170l-.37.6a11.75,11.75,0,0,0-1.67-1.1Z"/><path class="cls-4" d="M180.06,174.7h-.7v-.31h-2.77v.29h-.68v-2.26a8.89,8.89,0,0,1-1.72.78,2.69,2.69,0,0,0-.39-.62,7.71,7.71,0,0,0,2.64-1.36,9.55,9.55,0,0,0-1.23-1.14,7.23,7.23,0,0,1-.9.63,1.89,1.89,0,0,0-.48-.54,6,6,0,0,0,2.46-2.4l.77.15c-.12.21-.26.42-.39.62h2l.46.25a6.76,6.76,0,0,1-1.86,2.68h2.82Zm-3.84-5.54c-.14.15-.29.32-.45.47a10.41,10.41,0,0,1,1.27,1.11,5.6,5.6,0,0,0,1.2-1.58Zm3.19,4.6v-1.68h-2.78v1.68Z"/><path class="cls-4" d="M187.12,169v.63h-6.54V169h1.64a4.54,4.54,0,0,0-.6-.92l.63-.23a4.66,4.66,0,0,1,.71,1l-.38.14h2.12a6.7,6.7,0,0,0,.65-1.17l.74.24c-.2.32-.41.65-.62.93Zm-3.38,5c0,.32-.07.5-.28.59a2.42,2.42,0,0,1-1,.12,2.57,2.57,0,0,0-.23-.6H183c.09,0,.13,0,.13-.14v-.84h-1.45v1.56H181V170.2h2.75Zm-2.09-3.18v.61h1.46v-.62Zm1.44,1.78V172h-1.46v.64Zm2.06.75h-.63v-3h.63Zm.84-3.25h.68v3.84c0,.36-.09.55-.34.65a2.71,2.71,0,0,1-1.17.13,2.61,2.61,0,0,0-.24-.66h.92c.11,0,.15,0,.15-.14Z"/><path class="cls-4" d="M23.32,42.24A6.32,6.32,0,0,1,24.87,42c1.1,0,1.93.6,1.92,1.55s-.51,1.5-1.61,1.76a4.73,4.73,0,0,1-.93.1L24,44.67a4.41,4.41,0,0,0,.89,0c.62-.11,1.17-.44,1.17-1.07s-.51-.88-1.18-.89a5.32,5.32,0,0,0-1.53.25v1.53c0,.78-.3,1-.73,1-.65,0-1.63-.59-1.63-1.3s.76-1.28,1.64-1.66V41.25H21.12v-.72a8.51,8.51,0,0,0,1,.06h.51v-.74a2.91,2.91,0,0,0,0-.59h.81v1.26a7.86,7.86,0,0,0,1.46-.29V41a12.18,12.18,0,0,1-1.49.24v.86Zm-.65,2.08V43.18c-.54.26-.91.64-.92.94s.44.55.69.55S22.67,44.56,22.67,44.32Zm3-4.3a14.11,14.11,0,0,1,1.75,1.07l-.37.6a11.6,11.6,0,0,0-1.71-1.1Z"/><path class="cls-4" d="M31,44.89a9.25,9.25,0,0,1-2.33.94,5.11,5.11,0,0,0-.52-.52,8.22,8.22,0,0,0,2.22-.71Zm3.48-5.57v1.73H28.64V39.32ZM34,41.42v3.23H29V41.32ZM29.3,40.5h1.06v-.66H29.3Zm.46,1.84h3.55v-.47H29.76Zm0,.91H33.3v-.46H29.76Zm0,.93H33.3v-.49H29.76ZM31,40.5h1.09v-.66H31Zm1.63,4.17a23.09,23.09,0,0,1,2.33.85l-.74.36A17.33,17.33,0,0,0,32,45Zm0-4.16h1.14v-.66H32.65Z"/><path class="cls-4" d="M42.36,44.79v.7H35.65v-.71h2.74V39.07h.75v2.25h2.7V42h-2.7V44.8Z"/><path class="cls-4" d="M44.68,39.71a2.55,2.55,0,0,1-.15.54,9.77,9.77,0,0,0-.24,3.57c.11-.28.25-.68.38-1l.39.25c-.19.56-.36,1.13-.5,1.7v.62l-.64.07a8,8,0,0,1-.4-2.38,20,20,0,0,1,.27-2.89,2.53,2.53,0,0,0,0-.55Zm3.64-.1v1.46a8.68,8.68,0,0,0,1.26-.17v.78c-.35,0-.78.08-1.25.11V42c0,1.73-.08,2.88-1.6,3.81l-.68-.54a2.47,2.47,0,0,0,.79-.52c.69-.64.77-1.4.77-2.75v-.18h-2v-.76a7.65,7.65,0,0,0,1.16.09h.8V40.09a2.57,2.57,0,0,0-.08-.47Zm.6.94a8.58,8.58,0,0,0-.41-1.06l.43-.13a7.79,7.79,0,0,1,.41,1Zm.78-1.43c.14.29.32.75.43,1l-.44.14a6.64,6.64,0,0,0-.42-1Z"/><path class="cls-4" d="M52.89,44.57h1.45V41H53.22v-.55A3.8,3.8,0,0,0,54.58,40h.64v4.56h1.32v.76H52.9Z"/><path class="cls-4" d="M61.39,39.25a9.11,9.11,0,0,1-.6,1.44v5.23h-.67v-4a5.52,5.52,0,0,1-.62.82,4.37,4.37,0,0,0-.34-.73,8.27,8.27,0,0,0,1.59-2.89Zm4.57.22v6.39H65.3v-.37H62.22v.44h-.63V39.48Zm-.68,5.39V40.08H62.22v4.78ZM64,41.6v.72h.8v2H62.72v-2h.75v-.75h-1v-.52h1v-.73H64v.81h1v.51Zm.25,1.25H63.22v1h1Z"/><path class="cls-4" d="M68.52,43.16a3.12,3.12,0,0,0-.14.8c0,.52.51.89,1.65.9a9.54,9.54,0,0,0,2.56-.29v.82a10.37,10.37,0,0,1-2.55.25c-1.6,0-2.46-.53-2.45-1.51a5.62,5.62,0,0,1,.15-1Zm-.44-3.07a15,15,0,0,0,2,.11,13.15,13.15,0,0,0,2.07-.1v.78c-.51,0-1.37.09-2.06.08a16,16,0,0,1-2-.09Zm4.89.23-.5.22a8.45,8.45,0,0,0-.59-1l.48-.2A8.39,8.39,0,0,1,73,40.32Zm.87-.32-.49.22a6.14,6.14,0,0,0-.62-1l.49-.2A7.7,7.7,0,0,1,73.84,40Z"/><path class="cls-4" d="M80,41c-.19.12-.4.23-.64.35a24.11,24.11,0,0,0-2.18,1.17c-.66.42-1.07.88-1.07,1.42s.54.92,1.65.92a10.68,10.68,0,0,0,2.4-.24v.84a13.32,13.32,0,0,1-2.36.17c-1.43,0-2.49-.42-2.48-1.61a2.46,2.46,0,0,1,1.26-1.93,19.89,19.89,0,0,1-1-2.25l.75-.3a18.13,18.13,0,0,0,1,2.14c.65-.39,1.38-.76,1.77-1a3.85,3.85,0,0,0,.6-.39Z"/><path class="cls-4" d="M83.61,39.74a3.58,3.58,0,0,1-.16.56,20.26,20.26,0,0,0-.38,2.8c0,.26,0,.52.05.78L83.5,43l.39.3A17.33,17.33,0,0,0,83.35,45v.61h-.68a9.58,9.58,0,0,1-.27-2.39,21.67,21.67,0,0,1,.33-3,4.2,4.2,0,0,0,.07-.62Zm1.69,3.63a3.74,3.74,0,0,0-.09.66c0,.33.25.6,1.15.6a8.13,8.13,0,0,0,1.85-.19v.8a10.75,10.75,0,0,1-1.88.14c-1.26,0-1.84-.44-1.84-1.16a5.7,5.7,0,0,1,.13-.91ZM88,40.28v.77a17.94,17.94,0,0,1-3.11,0v-.73a13.48,13.48,0,0,0,3.11,0Z"/><path class="cls-4" d="M95.1,40.4a3.72,3.72,0,0,0-.21.39,10.3,10.3,0,0,1-1.24,2.13,19.24,19.24,0,0,1,2.13,2.2l-.66.58a16.61,16.61,0,0,0-2-2.19,9.42,9.42,0,0,1-2.9,2.14l-.6-.64a8.33,8.33,0,0,0,3.09-2.18,6,6,0,0,0,1.19-2H90.41V40a5.76,5.76,0,0,0,.82.06H94a2.36,2.36,0,0,0,.65-.07Z"/><path class="cls-4" d="M103.12,40.67a4,4,0,0,0-.21.47,7.43,7.43,0,0,1-1.08,2.14l.72.48-.53.69a7.71,7.71,0,0,0-.71-.53,7,7,0,0,1-2.86,1.94l-.68-.61a6.23,6.23,0,0,0,2.89-1.76c-.55-.36-1.12-.72-1.53-1l.5-.55c.42.21,1,.55,1.54.88a6.16,6.16,0,0,0,.89-1.82H99.68a8,8,0,0,1-2,1.94L97,42.45a6.66,6.66,0,0,0,2.4-2.54,2.41,2.41,0,0,0,.29-.68l.85.28c-.13.21-.26.43-.38.65l-.09.17h1.82a1.3,1.3,0,0,0,.56-.09Z"/><path class="cls-4" d="M107.9,43.86a6.93,6.93,0,0,0,2.61-2.81l.45.82a7.67,7.67,0,0,1-2.64,2.7,8.24,8.24,0,0,1-2.87,1.11l-.5-.78A7.55,7.55,0,0,0,107.9,43.86Zm-.25-2.39-.59.6a16.86,16.86,0,0,0-1.87-1.59l.55-.59A16.19,16.19,0,0,1,107.65,41.47Z"/><path class="cls-4" d="M116.82,40.32h.32a.67.67,0,0,1,0-.2A.87.87,0,1,1,118,41h-.2v.15a7.41,7.41,0,0,1-1.13,2.74,5.76,5.76,0,0,1-3,2l-.65-.7a5,5,0,0,0,2.89-1.86,5.11,5.11,0,0,0,.94-2.3h-4.45v-.83a3.87,3.87,0,0,1,.81.06Zm1.63-.21a.47.47,0,0,0-.47-.47.47.47,0,0,0,0,.94A.47.47,0,0,0,118.45,40.11Z"/><path class="cls-4" d="M122.79,44.49v-1c-.63.35-1,.69-1,1.12s.48.61,1.23.61a11.78,11.78,0,0,0,2.06-.19v.76a17.66,17.66,0,0,1-2.06.12c-1.11,0-2-.26-2-1.18s.9-1.49,1.75-1.92a.58.58,0,0,0-.6-.37,2,2,0,0,0-1.23.53,10.13,10.13,0,0,0-.68.79l-.64-.48a7.57,7.57,0,0,0,1.69-2.16h-.22a11,11,0,0,1-1.23,0v-.75a9.15,9.15,0,0,0,1.27.09h.44a3.89,3.89,0,0,0,.17-.89l.77.06a5.54,5.54,0,0,1-.21.8,16.07,16.07,0,0,0,2.2-.21v.69a21.89,21.89,0,0,1-2.44.2,5,5,0,0,1-.57,1,2.26,2.26,0,0,1,1-.21,1,1,0,0,1,1,.63c.45-.22.84-.37,1.19-.53l.71-.33.28.69c-.2.06-.52.18-.75.27s-.86.34-1.38.58v1.36Z"/><path class="cls-4" d="M129.1,44.83h1.46V41.24h-1.13v-.55a3.75,3.75,0,0,0,1.35-.43h.65v4.57h1.32v.73H129.1Z"/><path class="cls-4" d="M137.61,39.52A12,12,0,0,1,137,41v5.23h-.67v-4a7.25,7.25,0,0,1-.63.83,3.53,3.53,0,0,0-.34-.74A8.18,8.18,0,0,0,137,39.38Zm4.57.21v6.39h-.66v-.37h-3.09v.44h-.64V39.74Zm-.68,5.4V40.32h-3.08V45.1Zm-1.28-3.27v.75H141v2h-2.1v-2h.75v-.75h-1v-.54h1v-.81h.56v.8h1v.52Zm.25,1.25h-1v1h1Z"/><path class="cls-4" d="M145.46,43.21l-.82.23v2c0,.34-.07.52-.27.62a2.42,2.42,0,0,1-1,.12,2,2,0,0,0-.19-.62h.66c.11,0,.14,0,.14-.13V43.66l-.77.21L143,43.2l1-.23V41.46h-.88v-.64H144v-1.5h.66v1.46h.78v.65h-.78v1.33l.73-.2Zm4.23-3.43V44H149v-.37h-1v2.54h-.66V43.66h-1v.39h-.67V39.78Zm-3.29.63v1h1v-1Zm.95,2.61V42h-1v1Zm1.63-2.6h-1v1h1ZM149,43V42H148v1Z"/><path class="cls-4" d="M153.81,40a13.91,13.91,0,0,1-2.11.75v1.19h2v.67h-1.95v1.66h2v.66h-2v.61H151V40l.42.16a11.13,11.13,0,0,0,1.76-.79Zm3.3,4.33c0,.37-.06.6-.33.72a2.88,2.88,0,0,1-1.17.14,2.31,2.31,0,0,0-.26-.75h.91c.12,0,.15,0,.15-.14V40.56H154.8v5.65h-.7V39.88h3Z"/><path class="cls-4" d="M159.45,41.19c0,.56,0,1.12.05,1.68.11,1.16.4,1.94.9,2s.7-.81.87-1.49l.59.7c-.47,1.27-.93,1.71-1.48,1.71-.75,0-1.43-.73-1.63-2.68-.07-.66-.08-1.54-.08-2a2.73,2.73,0,0,0,0-.7h.91A7,7,0,0,0,159.45,41.19Zm5.19,3.11-.77.3a7.4,7.4,0,0,0-1.28-3.76l.74-.25a7.83,7.83,0,0,1,1.31,3.73Z"/><path class="cls-4" d="M169.74,41.32a12.18,12.18,0,0,1-1.49.24c-.07.33-.15.65-.23,1A22.52,22.52,0,0,1,166.84,46l-.83-.28a15.17,15.17,0,0,0,1.27-3.32c.07-.23.13-.47.19-.71H166v-.74a5.46,5.46,0,0,0,.9.07h.74a3,3,0,0,1,.1-.55,2.51,2.51,0,0,0,0-.67l.91.07c-.06.19-.12.49-.15.64l-.09.43c.45-.06.91-.15,1.34-.25Zm-.24,2.53a3.55,3.55,0,0,0-.1.64c0,.34.17.64,1.12.64A9.05,9.05,0,0,0,172,45v.75a10.18,10.18,0,0,1-1.47.1c-1.21,0-1.83-.4-1.83-1.14a5.65,5.65,0,0,1,.12-.92ZM169.22,42A10.63,10.63,0,0,1,170.6,42a11.2,11.2,0,0,1,1.3.07v.71a8.66,8.66,0,0,0-1.25-.09,9.52,9.52,0,0,0-1.41.07Z"/><path class="cls-4" d="M175.37,39.85c0,.28-.06.57-.08.85,0,.82-.1,2.53-.11,3.57,0,.78.49,1,1.13,1a3,3,0,0,0,2.61-1.52l.53.65a3.73,3.73,0,0,1-3.16,1.66c-1.13,0-1.88-.5-1.88-1.73,0-1,.09-3,.09-3.68a3.57,3.57,0,0,0-.07-.86Z"/><path class="cls-4" d="M186.22,45.71a5.59,5.59,0,0,0-1.66-1.08V45c0,.56-.41,1.08-1.37,1.07-1.13,0-1.73-.41-1.73-1.16s.67-1.2,1.78-1.19h.55v-.85h-.41a11.35,11.35,0,0,1-1.82-.1v-.71a11.26,11.26,0,0,0,1.82.15h.39v-.9h-.37a13.54,13.54,0,0,1-1.68-.11v-.69a9.54,9.54,0,0,0,1.68.15h.38v-.42a3.68,3.68,0,0,0,0-.47h.8a2,2,0,0,1-.05.51c-.05.21,0,.21,0,.36a14.3,14.3,0,0,0,1.85-.18v.68c-.54.05-1.16.12-1.87.15v.94a19.06,19.06,0,0,0,2-.19v.71c-.69.08-1.31.12-2,.15v1a6.07,6.07,0,0,1,2.12,1.15Zm-2.4-1.31a3.78,3.78,0,0,0-.6-.08c-.63,0-1,.24-1,.54s.28.54.91.54c.42,0,.73-.12.73-.6Z"/><path class="cls-4" d="M194.64,41.43h-2.22v1.16a1.85,1.85,0,0,1,.26,1,2.72,2.72,0,0,1-2.29,2.65l-.64-.63a2.88,2.88,0,0,0,1.92-1.06,1.3,1.3,0,0,1-.52.1,1.25,1.25,0,0,1-1.25-1.25v0A1.35,1.35,0,0,1,191.25,42h0a2.8,2.8,0,0,1,.41,0v-.63c-1.12,0-2.34.06-3.26.11v-.72h3.27V40.4a2.48,2.48,0,0,0-.06-.54h.86a4.86,4.86,0,0,0,0,.54v.36h2.22ZM191.29,44c.38,0,.66-.31.57-1a.61.61,0,0,0-.58-.35.69.69,0,0,0-.67.69h0a.65.65,0,0,0,.65.65Z"/><path class="cls-4" d="M197.8,45.12a1.17,1.17,0,0,1-1.05,1.28,1.18,1.18,0,0,1-1.28-1.06v-.22a1.17,1.17,0,0,1,2.33-.21A.74.74,0,0,1,197.8,45.12Zm-.44,0a.72.72,0,1,0-.73.72A.73.73,0,0,0,197.36,45.12Z"/><path class="cls-4" d="M26.34,52.65c0,.08-.16.27-.22.39a9.23,9.23,0,0,1-1.23,2.13A19.33,19.33,0,0,1,27,57.38l-.67.58a15.41,15.41,0,0,0-2-2.2,9.11,9.11,0,0,1-2.89,2.14l-.6-.63a8.29,8.29,0,0,0,3.08-2.18,5.84,5.84,0,0,0,1.2-2H22.42q-.41,0-.81,0v-.77c.15,0,.58.06.82.06h2.79a2.06,2.06,0,0,0,.66-.08Z"/><path class="cls-4" d="M34.36,52.93c-.08.15-.15.31-.22.46a7.59,7.59,0,0,1-1.07,2.15l.72.48-.53.69c-.18-.15-.42-.33-.71-.53a6.92,6.92,0,0,1-2.86,1.93l-.68-.6a6.23,6.23,0,0,0,2.89-1.76c-.55-.37-1.13-.72-1.53-1l.5-.56c.42.22,1,.55,1.54.88a6.11,6.11,0,0,0,.89-1.81H30.92a8,8,0,0,1-2,1.94l-.65-.49a6.61,6.61,0,0,0,2.41-2.54,2.41,2.41,0,0,0,.29-.68l.85.27c-.14.23-.31.51-.38.66l-.09.17h1.87a1.52,1.52,0,0,0,.56-.08Z"/><path class="cls-4" d="M39.14,56.12a7.17,7.17,0,0,0,2.61-2.8l.45.81a7.62,7.62,0,0,1-2.64,2.71,8,8,0,0,1-2.87,1.1l-.5-.77A7.57,7.57,0,0,0,39.14,56.12Zm-.25-2.4-.59.61a17.92,17.92,0,0,0-1.87-1.6l.55-.58A16.11,16.11,0,0,1,38.89,53.72Z"/><path class="cls-4" d="M48.06,52.56h.32a.67.67,0,0,1,0-.2.9.9,0,0,1,.87-.86.86.86,0,0,1,0,1.72h-.19v.14a7.39,7.39,0,0,1-1.13,2.75,5.76,5.76,0,0,1-3,2l-.64-.71a5,5,0,0,0,2.94-1.77,5.11,5.11,0,0,0,.94-2.3H43.61V52.5a5.47,5.47,0,0,0,.81,0Zm1.63-.22a.47.47,0,1,0-.48.47.46.46,0,0,0,.48-.46,0,0,0,0,0,0,0Z"/><path class="cls-4" d="M52.85,57.06H54.3V53.47H53.22v-.55a4,4,0,0,0,1.36-.42h.64v4.57h1.31v.73H52.84Z"/><path class="cls-4" d="M57.64,57.32c1.69-1.47,2.7-2.38,2.7-3.22a.9.9,0,0,0-.81-1h-.19a1.8,1.8,0,0,0-1.2.59l-.49-.48a2.34,2.34,0,0,1,1.8-.81,1.61,1.61,0,0,1,1.77,1.42,1.47,1.47,0,0,1,0,.21c0,1-1,1.92-2.27,3.07h2.56v.75H57.7Z"/><path class="cls-4" d="M66.35,51.77a9.41,9.41,0,0,1-.6,1.43v5.23h-.66v-4a6.18,6.18,0,0,1-.62.83,4.52,4.52,0,0,0-.35-.74,8.18,8.18,0,0,0,1.59-2.89Zm4.57.21v6.39h-.7V58H67.15v.44h-.64V52Zm-.68,5.4V52.59h-3v4.78ZM69,54.11v.75h.79v2h-2.1v-2h.75v-.75h-1v-.52h1v-.81H69v.8h1v.52Zm.23,1.21h-1v1h1Z"/><path class="cls-4" d="M72.75,52.81c.54,0,1.86-.18,3.23-.28.78-.07,1.53-.11,2-.13v.76a7.86,7.86,0,0,0-1.45.1,2.5,2.5,0,0,0-1.64,2.22c0,1.36,1.26,1.8,2.48,1.87l-.28.79c-1.45-.08-3-.86-3-2.5a3,3,0,0,1,1.26-2.4c-.65.07-2.47.24-3.3.42L72,52.84ZM77.58,55l-.47.21a6.4,6.4,0,0,0-.59-1L77,54A10.06,10.06,0,0,1,77.58,55Zm.86-.34-.46.22a7,7,0,0,0-.63-1l.45-.2C78,54,78.25,54.34,78.44,54.67Z"/><path class="cls-4" d="M83.08,54.21h2.41v4.28h-.75v-.32H79.81v-.7h4.92v-1H80.21v-.66h4.51V54.9H79.94v-.7h2.34V51.6H83Zm-2.32-.33a6.43,6.43,0,0,0-.9-1.72l.63-.26a6.39,6.39,0,0,1,.94,1.69ZM85.6,52.1a14.79,14.79,0,0,1-1,1.83L84,53.71a10.68,10.68,0,0,0,.91-1.86Z"/><path class="cls-4" d="M93.58,52.56v.67H88.06v1.23a8.86,8.86,0,0,1-.78,4,4.07,4.07,0,0,0-.59-.4,7.62,7.62,0,0,0,.67-3.65V52.5h2.69v-.91h.72v.92Zm-2.53,1.6h2.42v.62H91v1h2v2.77h-.71v-.27h-3v.27h-.68V55.78h1.72V53.32h.7Zm1.23,2.2h-3v1.26h3Z"/><path class="cls-4" d="M100,53.32a5.36,5.36,0,0,0,.7,0v.78H99v3.46c0,.44-.25.68-.76.68H97l-.06-.78a5.72,5.72,0,0,0,1,.09c.2,0,.28-.1.28-.3V54.79A10.14,10.14,0,0,1,95,57.46l-.54-.62a9,9,0,0,0,3.39-2.74h-3v-.78a4.7,4.7,0,0,0,.75,0h2.68v-.64a3.23,3.23,0,0,0-.07-.69H99a4,4,0,0,0,0,.69v.64Z"/><path class="cls-4" d="M103.9,52.32v3.6H103V52.81a5.23,5.23,0,0,0,0-.56Zm3.46,0v2c0,1.71-.28,2.35-.83,3a4.07,4.07,0,0,1-1.8,1.09l-.62-.66a3.46,3.46,0,0,0,1.82-1c.53-.59.62-1.18.63-2.49V52.92a4,4,0,0,0,0-.69Z"/><path class="cls-4" d="M111.66,54.92l-.44.67a16.23,16.23,0,0,0-1.66-1l.43-.65A14.43,14.43,0,0,1,111.66,54.92Zm.75,1.77a7.59,7.59,0,0,0,2.88-2.77l.45.79a8.62,8.62,0,0,1-5.42,3.6l-.44-.78A8,8,0,0,0,112.41,56.69Zm.39-3.42-.45.65c-.39-.28-1.19-.81-1.64-1.07l.43-.65a15,15,0,0,1,1.66,1.12Zm2.24.23-.52.23a6.28,6.28,0,0,0-.67-1.18l.51-.22C114.55,52.63,114.87,53.15,115,53.5Zm1-.38-.52.23a7.3,7.3,0,0,0-.7-1.16l.51-.21a8.22,8.22,0,0,1,.74,1.14Z"/><path class="cls-4" d="M122.65,53.9a4.33,4.33,0,0,0,.72,0v.8h-2.58a4,4,0,0,1-2.12,3.72l-.73-.55a3.26,3.26,0,0,0,2-3.17h-2.85v-.81h2.84V53a3.18,3.18,0,0,0-.08-.81h.94a5.48,5.48,0,0,0,0,.81v.92Z"/><path class="cls-4" d="M124.34,57.8A3.49,3.49,0,0,0,125.63,56a12.08,12.08,0,0,0,.23-3,2.11,2.11,0,0,0-.06-.61h.87q0,.3,0,.6a15.58,15.58,0,0,1-.24,3.2,4.14,4.14,0,0,1-1.34,2.09Zm3.44.08a1.84,1.84,0,0,0,.06-.47v-5h.87q0,.3,0,.6v4.14a5,5,0,0,0,2-1.72l.44.65a7.73,7.73,0,0,1-2.55,2.06,2.29,2.29,0,0,0-.29.18Z"/><path class="cls-4" d="M138.09,54.49a2.72,2.72,0,0,0-.11.25,5.17,5.17,0,0,1-1.11,2.11,5.36,5.36,0,0,1-2.69,1.58l-.58-.67a5,5,0,0,0,2.62-1.34,3.37,3.37,0,0,0,.83-1.5h-3.83c-.26,0-.52,0-.79,0v-.78h4.63a1.27,1.27,0,0,0,.48-.07Zm-4.94-2.08a4.21,4.21,0,0,0,.71,0h3.65v.77h-4.37Z"/><path class="cls-4" d="M142.84,56.48a7,7,0,0,0,2.61-2.82l.45.82a7.43,7.43,0,0,1-2.64,2.7,8,8,0,0,1-2.87,1.11l-.5-.77A7.72,7.72,0,0,0,142.84,56.48Zm-.25-2.4-.59.6a17.83,17.83,0,0,0-1.87-1.59l.55-.58A15.19,15.19,0,0,1,142.59,54.08Z"/><path class="cls-4" d="M152.68,54.67h.63v.77h-2.62a3.64,3.64,0,0,1-1.93,3.11L148,58a3,3,0,0,0,1.9-2.59h-2.84v-.77a3.86,3.86,0,0,0,.68,0h2.18V53.42c-.74.07-1.56.1-2.11.1l-.18-.69a16.56,16.56,0,0,0,2.54-.11,8.15,8.15,0,0,0,1.91-.43l.49.66-.49.11c-.38.1-.89.2-1.39.28v1.32Z"/><path class="cls-4" d="M156.22,53.05l.85.17c0,.19-.12.47-.16.64a14.39,14.39,0,0,1-.67,2.3,9.74,9.74,0,0,1-1.11,2.09l-.81-.35a9.78,9.78,0,0,0,1.17-2A10.77,10.77,0,0,0,156.22,53.05Zm1.88.17.78-.25c.29.56.79,1.65,1.09,2.41s.67,1.89.87,2.59l-.85.28a24.56,24.56,0,0,0-.81-2.61,19.52,19.52,0,0,0-1.1-2.42Zm2.23.07-.49.2a6.79,6.79,0,0,0-.6-1l.49-.2a7.51,7.51,0,0,1,.58,1Zm.86-.33-.48.21a6.85,6.85,0,0,0-.61-1l.48-.2a8.77,8.77,0,0,1,.64,1Z"/><path class="cls-4" d="M164.05,55.88l-.71.26a15.6,15.6,0,0,0-.68-1.71l.71-.25C163.54,54.53,163.91,55.48,164.05,55.88Zm3.8-1.59-.15.44a5.32,5.32,0,0,1-3.48,4.06l-.61-.64a5,5,0,0,0,2.46-1.57,5.1,5.1,0,0,0,1-2.56Zm-2.14,1.13-.71.26a14.1,14.1,0,0,0-.59-1.65l.7-.23C165.22,54.11,165.61,55.09,165.71,55.42Z"/><path class="cls-4" d="M175.54,53.53a3.82,3.82,0,0,0-.21.46A7.19,7.19,0,0,1,174,56.53a6.75,6.75,0,0,1-3,2.07l-.7-.63a5.91,5.91,0,0,0,3-1.86,5.45,5.45,0,0,0,1.15-2.21h-2.33a7.48,7.48,0,0,1-1.9,1.82l-.66-.49a6.39,6.39,0,0,0,2.37-2.47,2.71,2.71,0,0,0,.28-.68l.86.29c-.15.23-.31.52-.39.67l-.1.18h1.79a1.78,1.78,0,0,0,.57-.07Z"/><path class="cls-4" d="M180.22,57.18v-1c-.63.35-1,.69-1,1.12s.48.61,1.23.61a14.2,14.2,0,0,0,2.06-.18v.75a17.66,17.66,0,0,1-2.06.12c-1.11,0-2-.26-2-1.18s.9-1.49,1.75-1.92a.58.58,0,0,0-.6-.37,2,2,0,0,0-1.23.53c-.24.25-.46.52-.68.79l-.64-.48a7.39,7.39,0,0,0,1.69-2.16h-1.45v-.7a9.15,9.15,0,0,0,1.27.09H179a3.89,3.89,0,0,0,.17-.89l.77.06a5.54,5.54,0,0,1-.21.8,16.07,16.07,0,0,0,2.2-.21v.69a22.27,22.27,0,0,1-2.45.2,4.27,4.27,0,0,1-.56,1,2.22,2.22,0,0,1,.94-.21,1,1,0,0,1,1,.63c.46-.22.84-.37,1.19-.53l.71-.33.29.7a7.41,7.41,0,0,0-.75.26c-.39.14-.87.34-1.38.58v1.36Z"/><path class="cls-4" d="M189.22,53h.31v-.21a.86.86,0,0,1,.85-.85h0a.86.86,0,0,1,0,1.72h-.2v.14a7.24,7.24,0,0,1-1.13,2.74,5.67,5.67,0,0,1-3,2l-.64-.7a4.91,4.91,0,0,0,2.93-1.77,5.13,5.13,0,0,0,1-2.3h-4.49V53a5.52,5.52,0,0,0,.81.06Zm1.62-.21a.47.47,0,1,0-.93-.13v.13a.45.45,0,0,0,.44.46h0a.45.45,0,0,0,.5-.42v0Z"/><path class="cls-4" d="M193,58a.76.76,0,0,0,.09-.42V53.4a4.87,4.87,0,0,0-.06-.76h.93a6.34,6.34,0,0,0-.07.75v4.1a8.15,8.15,0,0,0,4-2.5l.43.66a8.92,8.92,0,0,1-4.38,2.67,1.73,1.73,0,0,0-.37.16Z"/><path class="cls-4" d="M201.78,54.4l2.72-.54a1.77,1.77,0,0,0,.46-.15l.56.44c-.06.09-.16.23-.22.34a10,10,0,0,1-1.54,2.18l-.65-.39a6.94,6.94,0,0,0,1.28-1.67l-2.61.52v2.12c0,.49.17.66,1,.66a10.88,10.88,0,0,0,2.35-.22v.81a18.15,18.15,0,0,1-2.34.15c-1.53,0-1.78-.39-1.78-1.19V55.32l-1.67.34-.14-.78a17.17,17.17,0,0,0,1.81-.3V53.32a4.85,4.85,0,0,0,0-.76h.88a4.87,4.87,0,0,0-.06.76Zm3-.89a8.45,8.45,0,0,0-.59-1l.48-.2a8.62,8.62,0,0,1,.61,1Zm.74-1.55a8.71,8.71,0,0,1,.62,1l-.49.21a6.85,6.85,0,0,0-.61-1Z"/><path class="cls-4" d="M210.31,56.71a7.06,7.06,0,0,0,2.6-2.82l.46.82a7.62,7.62,0,0,1-2.64,2.71,8,8,0,0,1-2.87,1.1l-.5-.77A7.55,7.55,0,0,0,210.31,56.71Zm-.25-2.4-.59.61a15.93,15.93,0,0,0-1.87-1.6l.55-.58a14.44,14.44,0,0,1,1.91,1.58Z"/><path class="cls-4" d="M220,56.53a20.1,20.1,0,0,0-2.83-1.18v2.31a8.26,8.26,0,0,0,.06,1h-.92a5.54,5.54,0,0,0,.06-1V53.33a4,4,0,0,0-.07-.84h.95v2a24.67,24.67,0,0,1,3.17,1.21Z"/><path class="cls-4" d="M224.44,57.78a.67.67,0,0,1,.66-.66h0a.66.66,0,0,1,0,1.32A.66.66,0,0,1,224.44,57.78Zm.17-4v-1h1.1v1l-.24,2.76h-.61Z"/><path class="cls-4" d="M24.22,171.4l2.48-2.46.22.21-2.48,2.47,2.46,2.48-.22.21-2.46-2.48-2.54,2.49-.22-.22L24,171.63l-2.46-2.49.22-.21Zm-1.57.21a.56.56,0,0,1-.56.58.57.57,0,0,1-.58-.56.58.58,0,0,1,.56-.58h0a.56.56,0,0,1,.51.56ZM24.22,170a.55.55,0,0,1-.56-.54v0a.57.57,0,0,1,1.13,0,.56.56,0,0,1-.56.56Zm0,3.15a.56.56,0,0,1,0,1.12.57.57,0,0,1-.56-.56h0a.59.59,0,0,1,.5-.56Zm1.58-1.57a.58.58,0,0,1,.57-.57.57.57,0,0,1,.57.57.56.56,0,0,1-.57.57h0a.58.58,0,0,1-.61-.54v0Z"/><path class="cls-4" d="M31,169.79c-.12.25-.25.51-.39.75h3.53v3.78c0,.38-.08.58-.35.69a3.78,3.78,0,0,1-1.3.11,2.84,2.84,0,0,0-.22-.68,8.34,8.34,0,0,0,1,0c.13,0,.17,0,.17-.15v-.64H30.47v1.46h-.69v-3.43a5.67,5.67,0,0,1-1.13,1,3.87,3.87,0,0,0-.46-.54,6,6,0,0,0,2-2.34H28.41v-.65h2a8,8,0,0,0,.32-.94l.71.17c-.09.25-.17.51-.27.77H34.9v.65Zm2.46,1.36H30.48v.66h2.93Zm0,1.89v-.65H30.47V173Z"/><path class="cls-4" d="M37.27,170.22a5,5,0,0,1-1.11,1.7,4.45,4.45,0,0,0-.53-.42,3.64,3.64,0,0,0,1-1.45Zm1.44,1.22a6.93,6.93,0,0,1-.5,1.31,7.2,7.2,0,0,1,.85.9l-.45.56a7.67,7.67,0,0,0-.76-.86,5.43,5.43,0,0,1-1.74,1.73,3.57,3.57,0,0,0-.48-.55,4.54,4.54,0,0,0,1.72-1.65,10.42,10.42,0,0,0-.94-.8l.41-.48c.27.2.57.44.86.68a5.93,5.93,0,0,0,.35-1Zm.71-1.6H35.8v-.63h1.5v-1H38v1h1.44Zm-.52,1.85a5.67,5.67,0,0,0-.86-1.43l.54-.27a5,5,0,0,1,.9,1.39Zm3.52-1.77v.33c-.08,3.09-.14,4.16-.38,4.48a.62.62,0,0,1-.54.31,4.18,4.18,0,0,1-1,0,1.64,1.64,0,0,0-.2-.65h.84a.25.25,0,0,0,.27-.13c.16-.2.24-1.15.31-3.73h-.9c-.1,1.92-.43,3.53-1.59,4.55a2.2,2.2,0,0,0-.51-.5c1.06-.89,1.36-2.33,1.44-4.05h-.81v-.66h.87v-1.59h.66v1.58Z"/><path class="cls-4" d="M44.85,173.63a5,5,0,0,1-1.11,1.5,3.28,3.28,0,0,0-.55-.41,3.86,3.86,0,0,0,1-1.27Zm2-.3H43.22v-.6h.69v-2.92h-.6v-.6h.61v-.89h.63v.86h1.17v-.86h.64v.86h.54v.61h-.54v2.93h.5Zm-2.31-3.53v.52h1.18v-.56Zm0,1.73h1.18v-.62H44.55Zm0,1.19h1.17v-.64H44.54Zm1.27.71a6.05,6.05,0,0,1,.8,1.1l-.56.33a7.19,7.19,0,0,0-.78-1.14Zm4,.89c0,.37-.08.57-.32.67a2.44,2.44,0,0,1-1.14.13,2.19,2.19,0,0,0-.2-.66H49c.11,0,.15,0,.15-.16v-1.66H47.8a5.84,5.84,0,0,1-.7,2.52,2,2,0,0,0-.55-.39,6.84,6.84,0,0,0,.67-3.45v-2.7h2.65Zm-.59-2.3v-1.1H47.87V172Zm-1.31-2.77v1h1.31v-1.06Z"/><path class="cls-4" d="M53.42,168.85c-.22.63-.52,1.42-.78,2a2.13,2.13,0,0,1,.67,1.57.85.85,0,0,1-.61,1l-.15,0a2.44,2.44,0,0,1-.54,0,1.32,1.32,0,0,0-.16-.64h.42a.43.43,0,0,0,.25-.07.5.5,0,0,0,.15-.46A2,2,0,0,0,52,170.9c.2-.51.42-1.19.57-1.71H51.7v5.93H51v-6.57h1.9Zm4,3.65c-.35.32-.77.66-1.13.93a3.16,3.16,0,0,0,1.3,1.13,3.26,3.26,0,0,0-.46.58A4.47,4.47,0,0,1,55.06,172h-.7v2.13l1.27-.23v.6l-2.58.57-.23-.67.81-.14v-5.62H57V172H55.69a8.49,8.49,0,0,0,.36,1,6.67,6.67,0,0,0,.85-.83Zm-3-3.29V170h2v-.78Zm0,2.17h2v-.8h-2Z"/><path class="cls-4" d="M59.94,168.86a4,4,0,0,1-.15.57,19.37,19.37,0,0,0-.37,2.94q0,.39,0,.78c.1-.31.26-.67.37-.94l.39.3c-.2.56-.38,1.12-.54,1.69a1.93,1.93,0,0,0,0,.34,1.31,1.31,0,0,1,0,.28H59a9.81,9.81,0,0,1-.28-2.35,23.29,23.29,0,0,1,.34-3.11,2.21,2.21,0,0,1,.06-.62Zm4.69,5.5a6.56,6.56,0,0,0-1-.81h0a1.18,1.18,0,0,1-1,1.31,1.22,1.22,0,0,1-.38,0c-1,0-1.59-.42-1.58-1.14s.58-1.18,1.58-1.18a3.83,3.83,0,0,1,.6,0c0-.52,0-1.16-.06-1.74h-.63a10.87,10.87,0,0,1-1.27-.05v-.71c.42,0,.84.07,1.28.07h.62v-.82a1.93,1.93,0,0,0,0-.48h.85v1.29a8.27,8.27,0,0,0,1.23-.16v.73c-.38.06-.8.1-1.22.13a17.71,17.71,0,0,0,.07,2,4.88,4.88,0,0,1,1.45,1Zm-1.76-1.16a3.1,3.1,0,0,0-.69-.1c-.5,0-.83.22-.83.52s.32.52.8.53a.65.65,0,0,0,.72-.74Z"/><path class="cls-4" d="M70.91,170.51a1.73,1.73,0,0,1-.15.41,1.89,1.89,0,0,1,1.46,1.79c0,1.06-.68,2-2.45,2.29l-.39-.62c1.38-.15,2.1-.85,2.1-1.71a1.21,1.21,0,0,0-.93-1.16,6,6,0,0,1-1.61,2.33,1.94,1.94,0,0,0,.17.58l-.68.2a1.65,1.65,0,0,0-.11-.36,2.62,2.62,0,0,1-1.2.35.89.89,0,0,1-.94-.85v-.15A3,3,0,0,1,68,171.2a4.1,4.1,0,0,1,.08-1h-.36a8.31,8.31,0,0,1-1.24-.06v-.69a11.2,11.2,0,0,0,1.29.1h.42l.06-.51v-.39h.78L69,169a3.43,3.43,0,0,1-.09.49,13.67,13.67,0,0,0,2.56-.3v.69a23.48,23.48,0,0,1-2.66.26,3.21,3.21,0,0,1-.07.8,5.33,5.33,0,0,1,1.19-.16h.21a2.37,2.37,0,0,0,.11-.46Zm-2.69,3.06a10.39,10.39,0,0,1-.16-1.68,2.24,2.24,0,0,0-1.12,1.58c0,.28.12.41.38.41A1.68,1.68,0,0,0,68.22,173.57Zm.5-1.79a7.93,7.93,0,0,0,.11,1.29,4.66,4.66,0,0,0,1.11-1.66h0a4,4,0,0,0-1.18.19Z"/><path class="cls-4" d="M75.53,168.71a14.33,14.33,0,0,0-.33,1.83,2.45,2.45,0,0,1,1.94-1.47c1,0,1.76,1,1.75,2.6,0,2.07-1.3,3-3.19,3.35l-.48-.7c1.63-.25,2.84-.85,2.85-2.68,0-1.16-.38-1.92-1.09-1.92-.9,0-1.73,1.33-1.79,2.3a4.12,4.12,0,0,0,0,.86h-.73a9.67,9.67,0,0,1-.08-1.2,21.24,21.24,0,0,1,.23-2.39,2.58,2.58,0,0,1,.06-.7Z"/><path class="cls-4" d="M86.45,174.64a5.24,5.24,0,0,0-1.65-1.08v.38c0,.56-.41,1.07-1.38,1.07s-1.73-.42-1.72-1.17.67-1.19,1.78-1.19H84v-.84h-.41c-.47,0-1.31-.05-1.83-.11V171a14.11,14.11,0,0,0,1.83.15H84v-.94h-.37a16.19,16.19,0,0,1-1.69-.12v-.68a11.91,11.91,0,0,0,1.67.15H84v-.89h.79v.87a13.3,13.3,0,0,0,1.85-.18V170c-.54.05-1.16.12-1.86.14v1a13.2,13.2,0,0,0,2-.19v.7c-.69.08-1.3.13-2,.15v1A5.94,5.94,0,0,1,86.88,174Zm-2.4-1.31a3.52,3.52,0,0,0-.66-.06c-.63,0-1,.23-1,.54s.27.53.91.53c.42,0,.73-.11.73-.59a1.42,1.42,0,0,0,0-.43Z"/><path class="cls-4" d="M93.51,168.9a5.8,5.8,0,0,0,0,.59v.93h.7l.64,0v.74H93.49a9.76,9.76,0,0,1-.12,1.53c-.07.35-.24.44-.6.44a7,7,0,0,1-1-.11v-.65a4.45,4.45,0,0,0,.71.09c.16,0,.24,0,.26-.18a7.59,7.59,0,0,0,.07-1.07c-.71,0-1.52.13-2.21.19v1.76c0,.77,0,1,1.26,1a12.58,12.58,0,0,0,2.21-.17v.8c-.5,0-1.4.12-2.14.12-1.8,0-2-.42-2-1.64v-1.79l-.66.07-.81.11-.08-.76h.84l.72-.07v-.9a4.33,4.33,0,0,0,0-.72h.82c0,.23,0,.45,0,.67v.88l2.23-.2v-1a4.18,4.18,0,0,0,0-.61Z"/><path class="cls-4" d="M99.4,169.44c-.34.52-1,1.7-1.38,2.39a1.65,1.65,0,0,1,1-.34.89.89,0,0,1,.91.86.22.22,0,0,1,0,.08v1.31a.5.5,0,0,0,.49.48h0c.75,0,1.2-.93,1.41-1.78l.62.51c-.39,1.24-1,2.07-2.15,2.06a1,1,0,0,1-1.13-.84.78.78,0,0,1,0-.16v-1.37a.43.43,0,0,0-.42-.47H98.7c-.56,0-1,.57-1.33,1.16a16.57,16.57,0,0,0-.62,1.66l-.82-.28a58,58,0,0,1,2.59-5.32c.09-.19.21-.39.32-.65l.83.34C99.57,169.18,99.49,169.32,99.4,169.44Z"/><path class="cls-4" d="M105.5,174.08a1.16,1.16,0,0,1-1.18,1.16,1.17,1.17,0,0,1,0-2.34,1.15,1.15,0,0,1,1.17,1.15Zm-.45,0a.72.72,0,1,0-.72.72.72.72,0,0,0,.72-.72h0Z"/><path class="cls-4" d="M24.14,180.14l2.48-2.46.22.22-2.48,2.42,2.46,2.48-.22.22-2.46-2.48L21.65,183l-.22-.22,2.49-2.47-2.46-2.48.22-.22Zm-1.57.22a.56.56,0,0,1-.57.57.57.57,0,0,1-.57-.57.58.58,0,0,1,.57-.57h0a.57.57,0,0,1,.56.53Zm1.58-1.57a.57.57,0,0,1-.56-.56h0a.55.55,0,0,1,.55-.55h0a.56.56,0,1,1,0,1.12Zm0,3.15a.55.55,0,0,1,.56.54v0a.56.56,0,0,1-.56.56.57.57,0,0,1-.56-.56.56.56,0,0,1,.54-.56Zm1.58-1.57a.58.58,0,0,1,.56-.58.57.57,0,0,1,.58.56.56.56,0,0,1-.56.58h0a.57.57,0,0,1-.58-.56h0Z"/><path class="cls-4" d="M29.12,181.32a6.65,6.65,0,0,1-.5,1.91,3.36,3.36,0,0,0-.54-.26,5.37,5.37,0,0,0,.45-1.76Zm.89-.59v3.09h-.62v-3l-1.17.06-.06-.61h.53l.43-.58a7.2,7.2,0,0,0-.94-1.05l.34-.47.2.18a7.49,7.49,0,0,0,.62-1.35l.63.23c-.27.51-.59,1.1-.86,1.5a3.75,3.75,0,0,1,.37.44c.29-.45.56-.91.76-1.3l.59.25c-.43.68-1,1.5-1.5,2.13h1a5.83,5.83,0,0,0-.32-.6l.51-.21a5.91,5.91,0,0,1,.71,1.53l-.53.26a2.3,2.3,0,0,0-.14-.42Zm.69.45a7.42,7.42,0,0,1,.48,1.42l-.56.19a7,7,0,0,0-.4-1.47ZM33.93,177a6.8,6.8,0,0,0,1.29,2.66,2.87,2.87,0,0,0-.54.56h0c-.1,2.26-.2,3.09-.42,3.36a.62.62,0,0,1-.52.27,5.89,5.89,0,0,1-.84,0,1.36,1.36,0,0,0-.19-.64h.73a.24.24,0,0,0,.25-.1,7.32,7.32,0,0,0,.31-2.59H32.88c-.12,1.54-.43,2.71-1.82,3.34a1.88,1.88,0,0,0-.39-.5c1.23-.54,1.46-1.53,1.55-2.84H31.4v-.53l-.11.12a3.7,3.7,0,0,0-.57-.46A4.74,4.74,0,0,0,32,177l.7.12a6.5,6.5,0,0,1-1.16,2.73h2.94a9.24,9.24,0,0,1-1.14-2.73Z"/><path class="cls-4" d="M39.73,181a3.9,3.9,0,0,0,2.91,2.23,4.18,4.18,0,0,0-.45.65,4.33,4.33,0,0,1-3-2.52,4.25,4.25,0,0,1-3,2.49,2.32,2.32,0,0,0-.44-.6A3.89,3.89,0,0,0,38.56,181H35.8v-.7h2.86a5.54,5.54,0,0,0,.07-1v-.37H37.22a5.08,5.08,0,0,1-.69,1.08,4.18,4.18,0,0,0-.66-.37,6.17,6.17,0,0,0,1.27-2.56l.73.16a6.93,6.93,0,0,1-.34,1h1.26V177h.72v1.25h2.37v.7H39.47v.42a5.54,5.54,0,0,1-.06,1h3V181Z"/><path class="cls-4" d="M45,177.62c-.06.19-.12.38-.16.57a17.49,17.49,0,0,0-.38,2.79c0,.26,0,.52,0,.78l.38-.93.39.3a17.33,17.33,0,0,0-.54,1.73,1.93,1.93,0,0,0,0,.34v.28h-.68a9.67,9.67,0,0,1-.28-2.4,23.34,23.34,0,0,1,.34-3c0-.19.06-.42.07-.61Zm1.69,3.63a3.74,3.74,0,0,0-.09.66c0,.33.25.6,1.15.6a7.6,7.6,0,0,0,1.85-.19v.8a10.75,10.75,0,0,1-1.88.14c-1.26,0-1.84-.44-1.84-1.16a5.7,5.7,0,0,1,.13-.91Zm2.7-3.09v.77a17.94,17.94,0,0,1-3.11,0v-.76a12.94,12.94,0,0,0,3.11,0Z"/><path class="cls-4" d="M56.37,183.32a5.25,5.25,0,0,0-1.79-1.21v.4c0,.63-.36,1.2-1.46,1.19s-1.84-.34-1.84-1.26c0-.72.63-1.29,1.94-1.29a4.86,4.86,0,0,1,.54,0v-3a3.51,3.51,0,0,0-.06-.79h.89a3.42,3.42,0,0,1-.07.8,2,2,0,0,0,0,.65,14.28,14.28,0,0,0,2.14-.11v.7c-.65.06-1.57.09-2.17.1,0,.48,0,1.16.06,1.77a5.87,5.87,0,0,1,2.29,1.27Zm-2.58-1.44a4.9,4.9,0,0,0-.67-.07c-.69,0-1.08.23-1.08.6s.39.58,1,.58.75-.23.75-.73a2.94,2.94,0,0,0,0-.42Z"/><path class="cls-4" d="M63.57,178.18l-.46.3c-.38.27-1.28,1.05-1.81,1.49a3,3,0,0,1,.88-.13,2,2,0,0,1,2.16,1.81c0,1.19-1,2-2.62,2-1,0-1.72-.47-1.72-1.14a1.16,1.16,0,0,1,1.22-1,1.47,1.47,0,0,1,1.55,1.31,1.21,1.21,0,0,0,.78-1.16c0-.7-.7-1.2-1.6-1.2a3.67,3.67,0,0,0-2.73,1.47l-.55-.55,1.95-1.61c.41-.34,1.27-1.05,1.64-1.37l-2,.08-.55,0v-.77a2.91,2.91,0,0,0,.59,0c.39,0,2.07,0,2.48-.07a2.43,2.43,0,0,0,.47-.08ZM62.11,183a.89.89,0,0,0-.88-.91c-.3,0-.53.18-.53.41s.38.53.88.53A2.33,2.33,0,0,0,62.11,183Z"/><path class="cls-4" d="M72.57,182.21h-.89v1c0,.38-.09.59-.36.69A3.72,3.72,0,0,1,70,184a2.3,2.3,0,0,0-.25-.66H70.8c.14,0,.19-.05.19-.17v-1H67.22V184h-.69V182.2h-.86v-.64h.86v-2.77h2.2v-.63H66v-.65h6.32v.64H69.44v.63h2.25v2.77h.89Zm-5.35-2.81v.77h1.51v-.76Zm0,2.14h1.51v-.79H67.22Zm2.21-2.13v.76H71v-.77ZM71,181.56v-.79H69.41v.79Z"/><path class="cls-4" d="M77.87,180.32v1h1.7V182H77.88v1c0,.26,0,.29.27.29h.73c.22,0,.26-.15.29-.89a1.8,1.8,0,0,0,.62.27c-.06,1-.26,1.24-.84,1.24H78c-.7,0-.87-.21-.87-.92v-1H76a2.55,2.55,0,0,1-2,2,2.09,2.09,0,0,0-.44-.55c1.16-.37,1.6-.91,1.76-1.47H73.7v-.61h1.68v-1h-.73v-.27a5.39,5.39,0,0,1-1.06.63,2.33,2.33,0,0,0-.42-.53,4.73,4.73,0,0,0,1.4-.88,7.14,7.14,0,0,0-.83-.72l.44-.37a6.58,6.58,0,0,1,.82.66,3.85,3.85,0,0,0,.6-.85H73.9v-.61H76l.46.22a5.08,5.08,0,0,1-1.4,2.08h3.13a6.82,6.82,0,0,1-1.52-2.39l.62-.18a6.65,6.65,0,0,0,.43.89,6,6,0,0,0,.8-.8l.53.37c-.33.3-.71.63-1,.87.13.17.27.34.41.49a7,7,0,0,0,1-.88l.51.36a9.4,9.4,0,0,1-1.09.89,4.19,4.19,0,0,0,1.29.79,3.51,3.51,0,0,0-.48.6,4.7,4.7,0,0,1-1-.61v.24Zm-.72,0H76v1h1.14Z"/><path class="cls-4" d="M83.3,179a8.21,8.21,0,0,1-.82,1.14V184h-.7v-3.13a7.85,7.85,0,0,1-.74.67,3.87,3.87,0,0,0-.48-.59,7.54,7.54,0,0,0,2.08-2.24ZM83,177.4a9.4,9.4,0,0,1-2,1.88,3.58,3.58,0,0,0-.4-.56,6.68,6.68,0,0,0,1.71-1.6Zm4.49,2.89H86.43v2.89c0,.4-.1.6-.38.71a4.82,4.82,0,0,1-1.42.11,2.2,2.2,0,0,0-.22-.7h1.12c.12,0,.18,0,.19-.14v-2.84H83.36v-.66h4.16Zm-.21-2H83.67v-.67H87.3Z"/><path class="cls-4" d="M89.89,177.71a4,4,0,0,1-.15.57,19.37,19.37,0,0,0-.37,2.94,5,5,0,0,0,0,.77c.11-.3.27-.66.38-.93l.38.3c-.2.55-.45,1.31-.54,1.69v.62h-.66a9.23,9.23,0,0,1-.29-2.35,25.06,25.06,0,0,1,.34-3.11,4.2,4.2,0,0,0,.07-.62Zm4.7,5.5a6.56,6.56,0,0,0-1-.81h0c0,.69-.33,1.27-1.36,1.27s-1.59-.42-1.59-1.14.6-1.19,1.59-1.18h.59c0-.51,0-1.15-.06-1.73H90.87v-.71c.43,0,.84.07,1.28.07h.63v-.86a1.93,1.93,0,0,0,0-.48h.85a3.38,3.38,0,0,0,0,.45v.84a9.84,9.84,0,0,0,1.23-.16v.73c-.38.06-.8.1-1.23.13,0,.74.06,1.41.08,2a5.21,5.21,0,0,1,1.45,1Zm-1.77-1.16a2.61,2.61,0,0,0-.69-.1c-.49,0-.83.22-.83.52s.33.52.8.52a.66.66,0,0,0,.72-.74Z"/><path class="cls-4" d="M97.38,181.32a2.76,2.76,0,0,0-.15.8c0,.52.52.9,1.66.9a9.15,9.15,0,0,0,2.56-.28v.82a11.34,11.34,0,0,1-2.54.25c-1.6,0-2.46-.54-2.46-1.52a4.85,4.85,0,0,1,.16-1Zm-.44-3.06a15,15,0,0,0,2,.1c.73,0,1.52-.05,2.07-.1V179c-.51,0-1.37.09-2.06.09a14.29,14.29,0,0,1-2-.09Zm4.88.22-.49.22a6.79,6.79,0,0,0-.6-1l.49-.21a4.74,4.74,0,0,1,.6.94Zm.87-.32-.47.16a8.71,8.71,0,0,0-.62-1l.48-.2a8.5,8.5,0,0,1,.61,1Z"/><path class="cls-4" d="M106.94,179.61a7.65,7.65,0,0,0,3.14,2.22,5.47,5.47,0,0,0-.44.63c-.3-.14-.63-.32-1-.51v2.12H108v-.21h-2.76v.23h-.68V182a9.32,9.32,0,0,1-.94.5,2.52,2.52,0,0,0-.39-.59,7.56,7.56,0,0,0,3-2.31Zm-2.78-.31h-.68v-1.45h2.74v-.65h.71v.64h2.78v1.48H109v-.82h-4.87ZM106,179a6.51,6.51,0,0,1-1.91,1.67,3.64,3.64,0,0,0-.49-.55,4.87,4.87,0,0,0,1.74-1.34Zm2.12,2.6a7.06,7.06,0,0,1-1.48-1.31,6.45,6.45,0,0,1-1.41,1.3Zm-.12,1.67v-1h-2.76v1Zm-.33-4.49a11,11,0,0,1,1.91,1.4l-.52.47a11.19,11.19,0,0,0-1.88-1.47Z"/><path class="cls-4" d="M111.56,180.8a5.51,5.51,0,0,1-.54,1.68,2.34,2.34,0,0,0-.47-.25,3.9,3.9,0,0,0,.47-1.53Zm5.54-1.46a8.61,8.61,0,0,1-.87,2.8,3.66,3.66,0,0,0,1.38,1.38,2.48,2.48,0,0,0-.48.59,3.88,3.88,0,0,1-1.3-1.34,4.68,4.68,0,0,1-1.55,1.35,3.3,3.3,0,0,0-.46-.54,4,4,0,0,0,1.65-1.46,10,10,0,0,1-.59-1.78,5.4,5.4,0,0,1-.4.75,5.08,5.08,0,0,0-.5-.54,2.24,2.24,0,0,0,.22-.4h-.82v3.22c0,.3,0,.49-.24.59a1.75,1.75,0,0,1-.88.12,2.69,2.69,0,0,0-.16-.62h.59c.08,0,.1,0,.1-.1v-3.21h-.42c-.05,1.85-.22,3.16-1.25,3.93a1.64,1.64,0,0,0-.4-.47c.91-.67,1-1.79,1-3.46h-1v-.63h1.45v-.82h-1.15v-.61h1.15v-.86h.68v.86H114v.61h-1.12v.81h1.31v.61a9.15,9.15,0,0,0,.81-2.9l.7.12c-.09.45-.18.91-.29,1.34h2v.64Zm-3.25,3a6.45,6.45,0,0,0-.41-1.55l.48-.14a7,7,0,0,1,.45,1.54Zm1.41-3a11.48,11.48,0,0,0,.59,2.08,7.88,7.88,0,0,0,.58-2.07Z"/><path class="cls-4" d="M120.82,181.55v2c0,.26,0,.42-.22.51a1.76,1.76,0,0,1-.79.09,1.75,1.75,0,0,0-.18-.53h.53c.07,0,.09,0,.09-.1v-2h-.82v-2.69h.68a5.5,5.5,0,0,1,.11-.69H119.1v2.18a9.87,9.87,0,0,1-.55,3.66,2.09,2.09,0,0,0-.5-.37,8.74,8.74,0,0,0,.45-3.29v-2.79h3.18v.6h-.78l-.19.68h1v2.69Zm-.8.44a4.94,4.94,0,0,1-.53,1.54,2.77,2.77,0,0,0-.48-.26,4.25,4.25,0,0,0,.48-1.39Zm0-2h1.11v-.67H120Zm0,1.09h1.12v-.62H120Zm1.44,2.19a6,6,0,0,0-.41-1.21l.45-.17a7.5,7.5,0,0,1,.46,1.19Zm1.78-.08a4.33,4.33,0,0,1-1.39,1,2.83,2.83,0,0,0-.42-.43,3.71,3.71,0,0,0,1.25-.89Zm-.24-4.35a4.84,4.84,0,0,1,.1-.63h-1.22v-.59H125v.59h-1.25c-.06.22-.12.44-.17.64h1.23v3.9h-2.74v-3.9Zm1.22.48h-1.53v.62h1.53Zm0,1.12h-1.54v.62h1.54Zm0,1.12h-1.53v.63h1.53Zm-.08,1.26a7.87,7.87,0,0,1,1,1l-.52.37a8.59,8.59,0,0,0-1-1Z"/><path class="cls-4" d="M127.09,179.1c0,.56,0,1.12,0,1.67.11,1.17.41,2,.9,2s.7-.81.87-1.49l.6.7c-.48,1.27-.94,1.71-1.49,1.71-.74,0-1.43-.72-1.63-2.68-.07-.65-.07-1.54-.07-2a3.21,3.21,0,0,0,0-.69h.9Q127.09,178.71,127.09,179.1Zm5.18,3.1-.77.3a7.25,7.25,0,0,0-1.28-3.76l.74-.24a7.72,7.72,0,0,1,1.31,3.7Z"/><path class="cls-4" d="M138.9,183.57a5.27,5.27,0,0,0-1.65-1.09v.38c0,.57-.41,1.08-1.37,1.08-1.13,0-1.73-.42-1.73-1.17s.67-1.2,1.78-1.19a5,5,0,0,1,.55,0v-.85h-.41a11.35,11.35,0,0,1-1.82-.1v-.71a11.26,11.26,0,0,0,1.82.15h.39v-.93h-.37a14.75,14.75,0,0,1-1.68-.12v-.68a10.58,10.58,0,0,0,1.68.14h.38v-.42a1.93,1.93,0,0,0,0-.48h.8c0,.17,0,.33-.05.5v.36a14.3,14.3,0,0,0,1.85-.18V179c-.54,0-1.16.11-1.87.14V180a19.06,19.06,0,0,0,2-.19v.71c-.69.08-1.31.12-2,.15a6.5,6.5,0,0,0,.05,1,6.1,6.1,0,0,1,2.12,1.16Zm-2.4-1.32c-.22,0-.44-.05-.67-.06-.63,0-1,.24-1,.55s.28.53.91.53c.42,0,.73-.12.73-.6Z"/><path class="cls-4" d="M147.28,179.32c-.44,0-1.14,0-2.22,0v1.16a1.85,1.85,0,0,1,.26,1,2.72,2.72,0,0,1-2.29,2.65l-.64-.63a2.88,2.88,0,0,0,1.92-1.06,1.3,1.3,0,0,1-.52.1,1.25,1.25,0,0,1-1.25-1.25v-.05a1.36,1.36,0,0,1,1.37-1.33h0a1.42,1.42,0,0,1,.42.06v-.63c-1.12,0-2.34,0-3.26.1v-.71l3.28-.06v-.38a2.48,2.48,0,0,0-.06-.54h.86a4.86,4.86,0,0,0,0,.54v.36h2.22Zm-3.35,2.51c.38,0,.67-.31.57-1a.61.61,0,0,0-.58-.35.68.68,0,0,0-.66.68v0a.64.64,0,0,0,.66.62h0Z"/><path class="cls-4" d="M150.45,183a1.17,1.17,0,0,1-1.17,1.17,1.17,1.17,0,1,1,0-2.34,1.17,1.17,0,0,1,1.17,1.17Zm-.45,0a.72.72,0,1,0-.74.72h0A.72.72,0,0,0,150,183h0Z"/><rect class="cls-5" x="19.39" y="67.36" width="38.5" height="38.5" rx="3.33" transform="translate(-48.11 124.95) rotate(-89.8)"/><rect class="cls-5" x="68.29" y="67.54" width="38.5" height="38.5" rx="3.33" transform="translate(0.44 174.03) rotate(-89.8)"/><rect class="cls-5" x="117.19" y="67.72" width="38.5" height="38.5" rx="3.33" transform="translate(49 223.1) rotate(-89.8)"/><rect class="cls-5" x="166.1" y="67.88" width="38.5" height="38.5" rx="3.33" transform="translate(97.57 272.17) rotate(-89.8)"/><rect class="cls-5" x="215" y="68.05" width="38.5" height="38.5" rx="3.33" transform="translate(146.13 321.24) rotate(-89.8)"/><rect class="cls-5" x="263.9" y="68.22" width="38.5" height="38.5" rx="3.33" transform="translate(194.69 370.31) rotate(-89.8)"/><rect class="cls-5" x="19.2" y="116.61" width="38.5" height="38.5" rx="3.33" transform="translate(-97.55 173.84) rotate(-89.8)"/><rect class="cls-5" x="68.12" y="116.79" width="38.5" height="38.5" rx="3.33" transform="translate(-48.98 222.93) rotate(-89.8)"/><rect class="cls-5" x="117.02" y="116.96" width="38.5" height="38.5" rx="3.33" transform="translate(-0.42 272) rotate(-89.8)"/><rect class="cls-5" x="165.92" y="117.12" width="38.5" height="38.5" rx="3.33" transform="translate(48.14 321.06) rotate(-89.8)"/><rect class="cls-5" x="214.82" y="117.3" width="38.5" height="38.5" rx="3.33" transform="translate(96.71 370.14) rotate(-89.8)"/><rect class="cls-5" x="263.72" y="117.48" width="38.5" height="38.5" rx="3.33" transform="translate(145.26 419.22) rotate(-89.8)"/><g class="cls-6"><path class="cls-7" d="M271.57,144.32a4.84,4.84,0,0,1-.17-4.06c.75-1.67,1.53-3.84,5.69-3.54,0,0,2-5.24,6.6-3.54a5.45,5.45,0,0,1,2.77-3.13,5,5,0,0,1,4.67-.2,5.3,5.3,0,0,1,3.42,3.4c.86,2.22.47,4.39-2.7,6.78a29.38,29.38,0,0,1-8.28,4.29c-1.4.4-3.45.55-4.38.82s-2.43,1.15-3.93,1S272.22,145.81,271.57,144.32Z"/><path class="cls-8" d="M275.87,135.44a3.12,3.12,0,0,0-1,1.54c0,.18,0,1.59.43,1.37.14-.06.11-.63.14-.79a3.25,3.25,0,0,1,.32-1c.19-.25.5-.26.7-.48a.36.36,0,0,0-.25-.63.51.51,0,0,0-.39.11"/><path class="cls-8" d="M280,132.62c-1.59.54-1.69,2.58-1.07,3.87.28-.38.2-1.37.32-1.86a8.09,8.09,0,0,1,.37-1.08c.14-.25.56-.66.55-.93h-.11"/><path class="cls-8" d="M281.59,135.4c-.95-.72.16-2.44.69-3.06.18-.22.35-.53.6-.64s.82,0,.65.35-.5.45-.66.66a2.15,2.15,0,0,0-.38,1,2.92,2.92,0,0,1-.89,1.68"/><path class="cls-8" d="M286.79,132c-.89-.59-1.39-2.24,0-2.62,1-.28.13,1,.06,1.34s.38,1.14,0,1.3"/><path class="cls-8" d="M273.33,143.32c-.18-.44-.46-2.09.47-2.63s2.41-1,3.15-.11,1,2.5.27,3.07a2.86,2.86,0,0,1-2.3.36C274.44,143.89,273.58,144,273.33,143.32Z"/><path class="cls-8" d="M289.53,136.16a2.18,2.18,0,0,1-.23-2.75c.81-.89,2.3-2,3.62-.57a2.41,2.41,0,0,1,.17,3.42,1.61,1.61,0,0,1-.23.22A2.54,2.54,0,0,1,289.53,136.16Z"/><path class="cls-9" d="M284.3,141.32l-.19.08a7,7,0,0,1-4.53-.15l.25-.68a6.37,6.37,0,0,0,4,.15,6.5,6.5,0,0,0,2.26-1.38c-.89-1.56-.39-2.39-.21-2.61a1,1,0,0,1,1.1-.35,1.16,1.16,0,0,1,.71,1.19C287.74,139.47,285.66,140.8,284.3,141.32Zm2.32-4.25-.15.11c-.18.23-.24.77.15,1.56a2.09,2.09,0,0,0,.38-1.16c0-.28-.09-.47-.23-.52a.21.21,0,0,0-.15,0Z"/><path class="cls-9" d="M279.22,138.4c.19.39.13.82-.15.95s-.65-.07-.84-.46a.79.79,0,0,1,.14-1C278.64,137.71,279,138,279.22,138.4Z"/><path class="cls-9" d="M286.32,135a.78.78,0,0,1-.15,1c-.28.19-.65-.07-.84-.47a.77.77,0,0,1,.15-1C285.76,134.3,286.13,134.57,286.32,135Z"/></g><line class="cls-10" x1="269.81" y1="129.45" x2="274.28" y2="131.72"/><line class="cls-10" x1="287.56" y1="124.15" x2="285.85" y2="127.8"/><path class="cls-11" d="M273.86,129.39a.62.62,0,0,1-.41-.2.93.93,0,0,1-.21-.33,1.09,1.09,0,0,1,0-.36.6.6,0,0,1,.24-.39,2,2,0,0,1,.44-.28,1.65,1.65,0,0,1,.48-.1v-.34a1.86,1.86,0,0,1-.34.19.62.62,0,0,1-.36,0,.67.67,0,0,1-.36-.19.85.85,0,0,1-.24-.73,2.52,2.52,0,0,1,.13-.47,1.28,1.28,0,0,1,.25-.4.55.55,0,0,1,.31-.18h.39a1.37,1.37,0,0,1,.63.39.7.7,0,0,1,.06.45v1.14a.41.41,0,0,1,.22,0l.13.07a.3.3,0,0,1,.06.24l-.06.12a.64.64,0,0,1-.36.08,1.93,1.93,0,0,1,0,.48.92.92,0,0,1-.34.52A.84.84,0,0,1,273.86,129.39Zm.11-2.34a.57.57,0,0,0,.25-.3,1.38,1.38,0,0,0,.1-.4.51.51,0,0,0-.21-.17.3.3,0,0,0-.29,0,.55.55,0,0,0-.23.27,1,1,0,0,0,0,.42c0,.15.07.22.16.22a.54.54,0,0,0,.22,0Zm.11,1.81a.68.68,0,0,0,.22-.26.53.53,0,0,0,.06-.39,1.78,1.78,0,0,0-.38.1.72.72,0,0,0-.25.21.21.21,0,0,0,0,.26.3.3,0,0,0,.2.13.2.2,0,0,0,.15,0Z"/><path class="cls-11" d="M276.32,128.55a.84.84,0,0,1-.34-.08.89.89,0,0,1-.34-.27,1.47,1.47,0,0,1-.25-.5,1.88,1.88,0,0,1-.06-.58c0-.2.05-.41.09-.61a1.48,1.48,0,0,1,.3-.55,1.55,1.55,0,0,1,.5-.38,1.2,1.2,0,0,1,.62-.08,1,1,0,0,1,.59.33,1,1,0,0,1,.31.5,3,3,0,0,1,.06.42,2.09,2.09,0,0,1,0,.5,1.25,1.25,0,0,1-.12.54,1.2,1.2,0,0,1-.29.45.89.89,0,0,1-.48.27A1.67,1.67,0,0,1,276.32,128.55ZM277,128a.54.54,0,0,0,.28-.33,1,1,0,0,0,.09-.42,1.85,1.85,0,0,0,0-.47,1,1,0,0,0-.11-.43c-.1-.15-.19-.24-.3-.26a.78.78,0,0,0-.8.3,1.13,1.13,0,0,0-.24.49,3.38,3.38,0,0,0,0,.45,2.14,2.14,0,0,0,.08.44.48.48,0,0,0,.28.32,1,1,0,0,0,.42.06.85.85,0,0,0,.3-.15Z"/><path class="cls-11" d="M280.08,128.62a.28.28,0,0,1-.17-.07l-.09-.14a1.38,1.38,0,0,1-.4.15,1.41,1.41,0,0,1-.41,0,1,1,0,0,1-.44-.11,1.65,1.65,0,0,1-.38-.27.8.8,0,0,1-.23-.4,1.24,1.24,0,0,1,0-.47,2.07,2.07,0,0,1,.1-.43,1.48,1.48,0,0,1,.25-.35,1,1,0,0,1,.39-.22,1.14,1.14,0,0,1,.45,0,1.64,1.64,0,0,1,.38.1.42.42,0,0,0-.16-.35,1.11,1.11,0,0,0-.36-.18.62.62,0,0,0-.38,0l-.34.06-.14-.08a.29.29,0,0,1-.06-.22l.07-.13a.91.91,0,0,1,.38-.13H279a2.16,2.16,0,0,1,.52.2.83.83,0,0,1,.45.47,2.61,2.61,0,0,1,.14,1,3.65,3.65,0,0,0,.27,1.35l-.06.12A.41.41,0,0,1,280.08,128.62Zm-.6-.59.17-.15a1,1,0,0,0,0-.39.87.87,0,0,1,0-.36.7.7,0,0,0-.56-.32.64.64,0,0,0-.43.14.59.59,0,0,0-.16.3,1,1,0,0,0,0,.35.59.59,0,0,0,.13.29,1,1,0,0,0,.29.18.63.63,0,0,0,.35.05,1.14,1.14,0,0,0,.26-.09Z"/><path class="cls-11" d="M282.12,128.66l-.12-.06c-.08-.12-.16-.23-.25-.34a1.43,1.43,0,0,1-.19-.37,2.57,2.57,0,0,1-.35.39.79.79,0,0,1-.51.24l-.12-.06a.39.39,0,0,1-.06-.24l.06-.12a.73.73,0,0,0,.38-.24,1,1,0,0,0,.22-.32,1.61,1.61,0,0,0,.12-.33A12,12,0,0,1,281,126a5.55,5.55,0,0,1-.09-1,4.78,4.78,0,0,1,.07-.65.81.81,0,0,1,.19-.38.32.32,0,0,1,.34-.09.51.51,0,0,1,.31.26,1.7,1.7,0,0,1,.16.53,5.32,5.32,0,0,0,.08.61,3.64,3.64,0,0,1,0,.66,3.86,3.86,0,0,1-.11.68l-.15.64c.05.13.1.26.14.39a2.87,2.87,0,0,0,.37.58.26.26,0,0,1,.06.25l-.06.13A.28.28,0,0,1,282.12,128.66Zm-.54-2.49a3.21,3.21,0,0,0,.05-.82v-.41a.57.57,0,0,0-.06-.31c0-.08-.06-.09-.08,0s0,.15-.05.23a2.54,2.54,0,0,0,0,.39,4.35,4.35,0,0,0,.06.52c0,.19.07.38.11.56Z"/><path class="cls-11" d="M283.07,128.58l-.08-.08-.17-.28a.79.79,0,0,1-.12-.3,1,1,0,0,1,0-.25.34.34,0,0,1,.14-.15.24.24,0,0,1,.23,0,.61.61,0,0,1,.24.21.54.54,0,0,1,.37-.07.28.28,0,0,1,.2.18.24.24,0,0,1,0,.23.6.6,0,0,1-.19.23,1,1,0,0,1-.33.2A.55.55,0,0,1,283.07,128.58Zm.3-1.27-.08-.07a.94.94,0,0,1,0-.47l.49-1.91a.29.29,0,0,1,.1-.12.28.28,0,0,1,.18,0l.08.07v.11l-.59,2.3-.07.09a.29.29,0,0,1-.16,0Z"/><g class="cls-6"><path class="cls-7" d="M27.4,93.2a4.84,4.84,0,0,1-.17-4.06c.75-1.67,1.54-3.84,5.69-3.53,0,0,2-5.24,6.6-3.55a5.45,5.45,0,0,1,2.77-3.13A5,5,0,0,1,47,78.74a5.24,5.24,0,0,1,3.42,3.39c.86,2.22.47,4.4-2.7,6.78A29,29,0,0,1,39.4,93.2C38,93.6,36,93.75,35,94s-2.43,1.14-3.93,1S28,94.68,27.4,93.2Z"/><path class="cls-8" d="M31.71,84.32a3,3,0,0,0-1.06,1.55c0,.18,0,1.59.43,1.36.14-.06.11-.63.14-.79a3.25,3.25,0,0,1,.32-1c.19-.25.5-.25.7-.48a.34.34,0,0,0,.08-.49.37.37,0,0,0-.33-.14.61.61,0,0,0-.39.11"/><path class="cls-8" d="M35.84,81.5c-1.59.54-1.69,2.58-1.07,3.87.28-.39.2-1.38.32-1.86a8.09,8.09,0,0,1,.37-1.08c.14-.25.56-.67.55-.93a.2.2,0,0,0-.11,0"/><path class="cls-8" d="M37.42,84.32c-1-.71.16-2.43.69-3.06.18-.22.35-.53.6-.63s.82,0,.65.35-.5.44-.66.65a2.39,2.39,0,0,0-.38,1,2.92,2.92,0,0,1-.89,1.67"/><path class="cls-8" d="M42.62,80.85c-.89-.59-1.39-2.24,0-2.61,1-.29.13,1,.06,1.34s.38,1.14,0,1.3"/><path class="cls-8" d="M29.16,92.19c-.18-.44-.45-2.08.47-2.63s2.41-1,3.15-.1,1,2.49.27,3.06a2.88,2.88,0,0,1-2.29.37C30.27,92.77,29.41,92.82,29.16,92.19Z"/><path class="cls-8" d="M45.36,85a2.18,2.18,0,0,1-.23-2.76c.81-.89,2.31-2,3.62-.56a2.42,2.42,0,0,1,.18,3.41,1.7,1.7,0,0,1-.24.22A2.54,2.54,0,0,1,45.36,85Z"/><path class="cls-9" d="M40.13,90.23l-.19.07a7,7,0,0,1-4.53-.15l.25-.68a6.23,6.23,0,0,0,4,.15,6.5,6.5,0,0,0,2.26-1.38c-.89-1.55-.39-2.39-.21-2.61a1,1,0,0,1,1.1-.35,1.17,1.17,0,0,1,.71,1.19C43.57,88.32,41.49,89.68,40.13,90.23ZM42.45,86a.49.49,0,0,0-.14.11c-.19.24-.25.77.14,1.56a2,2,0,0,0,.38-1.16c0-.27-.09-.47-.23-.52a.26.26,0,0,0-.15,0Z"/><path class="cls-9" d="M35.05,87.32a.77.77,0,0,1-.15,1c-.28.18-.65-.07-.84-.46s-.13-.82.15-1A.62.62,0,0,1,35.05,87.32Z"/><path class="cls-9" d="M42.15,83.83a.77.77,0,0,1-.15,1c-.28.18-.65-.07-.84-.46s-.13-.82.15-1A.66.66,0,0,1,42.15,83.83Z"/></g><path class="cls-12" d="M312.27,46.26a3.52,3.52,0,0,0,1.28-4.82,3.57,3.57,0,0,0-1.28-1.28,3.51,3.51,0,0,0,.47-4.95,3.59,3.59,0,0,0-1.47-1.05,3.52,3.52,0,0,0-2-5.73,3.52,3.52,0,0,0-3-5.29,3.53,3.53,0,0,0-3.9-4.68,3.52,3.52,0,0,0-2.85-4.08,3.56,3.56,0,0,0-1.8.15A3.51,3.51,0,0,0,294.16,11a3.61,3.61,0,0,0-1.76.46,3.53,3.53,0,0,0-5.77-2.15,3.53,3.53,0,0,0-4.53-2.09,3.59,3.59,0,0,0-1.47,1A3.52,3.52,0,0,0,275.82,7a3.57,3.57,0,0,0-1.28,1.28,3.53,3.53,0,0,0-5-.44,3.61,3.61,0,0,0-1,1.44,3.53,3.53,0,0,0-5,.47,3.65,3.65,0,0,0-.76,1.6,3.52,3.52,0,0,0-4.8,1.29,3.55,3.55,0,0,0-.48,1.71A3.52,3.52,0,0,0,253,16.44a3.6,3.6,0,0,0-.17,1.78,3.52,3.52,0,0,0-4.08,2.85,3.59,3.59,0,0,0,.15,1.81,3.52,3.52,0,0,0-3.07,5.26A3.53,3.53,0,0,0,243,32.21a3.57,3.57,0,0,0,.76,1.65,3.53,3.53,0,0,0-2.11,4.51,3.43,3.43,0,0,0,1,1.49,3.51,3.51,0,0,0-1.27,4.81A3.47,3.47,0,0,0,242.66,46a3.52,3.52,0,0,0,1,6,3.52,3.52,0,0,0,.43,5,3.47,3.47,0,0,0,1.63.77A3.52,3.52,0,0,0,247,62.49a3.48,3.48,0,0,0,1.72.48,3.53,3.53,0,0,0,2.1,4.52,3.46,3.46,0,0,0,1.8.16,3.52,3.52,0,0,0,2.86,4.08,3.41,3.41,0,0,0,1.79-.15,3.53,3.53,0,0,0,3.52,3.53,3.48,3.48,0,0,0,1.75-.47,3.51,3.51,0,0,0,5.71,2.11,3.52,3.52,0,0,0,6,1.08,3.53,3.53,0,0,0,4.82,1.28,3.47,3.47,0,0,0,1.27-1.28,3.52,3.52,0,0,0,5,.46,3.45,3.45,0,0,0,1-1.46,3.52,3.52,0,0,0,5.74-2.06,3.53,3.53,0,0,0,4.82-1.31,3.6,3.6,0,0,0,.46-1.69,3.53,3.53,0,0,0,4.52-2.12,3.48,3.48,0,0,0,.16-1.78A3.52,3.52,0,0,0,306.13,65a3.56,3.56,0,0,0-.16-1.8A3.53,3.53,0,0,0,309,58a3.51,3.51,0,0,0,2.1-5.72,3.5,3.5,0,0,0,1.08-6Z"/><path class="cls-13" d="M277.34,78.24a2.12,2.12,0,0,1-1.82-1.06,1.44,1.44,0,0,0-1.09-.7h-.13a1.42,1.42,0,0,0-1.07.49,2.08,2.08,0,0,1-1.61.75,2.41,2.41,0,0,1-.38,0,2.14,2.14,0,0,1-1.61-1.37,1.4,1.4,0,0,0-1-.87,2.41,2.41,0,0,0-.38,0,1.39,1.39,0,0,0-.89.32,2.1,2.1,0,0,1-1.36.49,2,2,0,0,1-.72-.13,2.13,2.13,0,0,1-1.35-1.62,1.41,1.41,0,0,0-.79-1,1.5,1.5,0,0,0-.6-.13,1.46,1.46,0,0,0-.7.18,2.15,2.15,0,0,1-1.06.28,1.9,1.9,0,0,1-1-.29,2.1,2.1,0,0,1-1-1.83,1.42,1.42,0,0,0-1.42-1.41,1.48,1.48,0,0,0-.46.08,2.24,2.24,0,0,1-.73.12,2,2,0,0,1-1.35-.49,2.1,2.1,0,0,1-.71-2,1.42,1.42,0,0,0-1.19-1.63l-.21,0h-.58A2.12,2.12,0,0,1,250,64.31a2.41,2.41,0,0,1,.13-.75,1.37,1.37,0,0,0-.17-1.28,1.42,1.42,0,0,0-1.14-.61,2.11,2.11,0,0,1-2.1-2.11A2.18,2.18,0,0,1,247,58.5a1.41,1.41,0,0,0-.52-1.92,1.62,1.62,0,0,0-.48-.17,2.12,2.12,0,0,1-1.62-1.36,2.15,2.15,0,0,1,.38-2.08,1.4,1.4,0,0,0-.18-2,1.52,1.52,0,0,0-.41-.24,2.12,2.12,0,0,1-.62-3.62,1.41,1.41,0,0,0,.49-1.2,1.37,1.37,0,0,0-.69-1.1,2.09,2.09,0,0,1-.78-2.86,2.19,2.19,0,0,1,.78-.79,1.37,1.37,0,0,0,.69-1.1,1.41,1.41,0,0,0-.48-1.2,2.1,2.1,0,0,1-.26-3,2.2,2.2,0,0,1,.9-.63,1.42,1.42,0,0,0,.85-1.82,1.52,1.52,0,0,0-.24-.41A2.1,2.1,0,0,1,246,29.64,1.43,1.43,0,0,0,247.18,28a1.4,1.4,0,0,0-.16-.43,2.11,2.11,0,0,1,.67-2.91,2.14,2.14,0,0,1,1.23-.32,1.42,1.42,0,0,0,1.37-1.47,1.51,1.51,0,0,0-.07-.37,2.15,2.15,0,0,1,.38-2.08,2.11,2.11,0,0,1,1.61-.74,2.28,2.28,0,0,1,.37,0h.24a1.37,1.37,0,0,0,1-.41,1.4,1.4,0,0,0,.4-1.23,2.11,2.11,0,0,1,2.07-2.49,2,2,0,0,1,.73.13,1.61,1.61,0,0,0,.48.08,1.46,1.46,0,0,0,.81-.25,1.39,1.39,0,0,0,.6-1.15,2.12,2.12,0,0,1,2.1-2.1,2.1,2.1,0,0,1,1.07.29,1.46,1.46,0,0,0,.7.18,1.35,1.35,0,0,0,.6-.13,1.42,1.42,0,0,0,.8-1,2.13,2.13,0,0,1,2-1.69,2.17,2.17,0,0,1,1.37.5,1.4,1.4,0,0,0,.91.33,1.51,1.51,0,0,0,1.36-.91,2.12,2.12,0,0,1,1.62-1.36h.36a2.14,2.14,0,0,1,1.62.76,1.42,1.42,0,0,0,1.08.5h.12a1.42,1.42,0,0,0,1.1-.69,2.11,2.11,0,0,1,2.89-.76,2,2,0,0,1,.76.76,1.41,1.41,0,0,0,1.09.7h.13a1.33,1.33,0,0,0,1.07-.49,2.19,2.19,0,0,1,1.61-.75h.38a2.11,2.11,0,0,1,1.61,1.37,1.41,1.41,0,0,0,1,.87,1.15,1.15,0,0,0,.37,0,1.37,1.37,0,0,0,.89-.32,2.12,2.12,0,0,1,2.08-.36A2.09,2.09,0,0,1,291,11.66a1.46,1.46,0,0,0,.79,1,1.45,1.45,0,0,0,1.3-.05,2.2,2.2,0,0,1,1.06-.27,2,2,0,0,1,1,.28,2.08,2.08,0,0,1,1.08,1.92A1.42,1.42,0,0,0,297.64,16a1.39,1.39,0,0,0,.46-.08,2.33,2.33,0,0,1,.73-.12,2,2,0,0,1,1.35.49,2.07,2.07,0,0,1,.71,2,1.45,1.45,0,0,0,1.2,1.64h.43a2,2,0,0,1,.35,0,2.11,2.11,0,0,1,2,2.84A1.42,1.42,0,0,0,305,24a1.39,1.39,0,0,0,1.14.61,2.11,2.11,0,0,1,2.11,2.12,2.05,2.05,0,0,1-.29,1.05,1.43,1.43,0,0,0,.53,1.93,1.38,1.38,0,0,0,.47.16,2.09,2.09,0,0,1,1.72,2.42,2.05,2.05,0,0,1-.48,1,1.43,1.43,0,0,0,.2,2,1.29,1.29,0,0,0,.39.23,2.1,2.1,0,0,1,1.25,2.71,2,2,0,0,1-.63.89,1.42,1.42,0,0,0,.19,2.29,2.09,2.09,0,0,1,0,3.65,1.44,1.44,0,0,0-.49,2,1.54,1.54,0,0,0,.28.34,2.1,2.1,0,0,1,.27,3,2,2,0,0,1-.91.63,1.43,1.43,0,0,0-.84,1.83,2,2,0,0,0,.23.4,2.1,2.1,0,0,1-1.26,3.43,1.47,1.47,0,0,0-1,2.08,2.1,2.1,0,0,1-.78,2.88,2.05,2.05,0,0,1-1.06.28,1.43,1.43,0,0,0-1.39,1.45,1.61,1.61,0,0,0,.07.43,2.1,2.1,0,0,1-.38,2.08,2,2,0,0,1-1.61.74h0a2.28,2.28,0,0,1-.37,0h-.24a1.41,1.41,0,0,0-1.4,1.64,2.09,2.09,0,0,1-1.67,2.44,2.6,2.6,0,0,1-.4,0,2.08,2.08,0,0,1-.73-.13,1.51,1.51,0,0,0-.48-.08,1.57,1.57,0,0,0-.81.25,1.47,1.47,0,0,0-.6,1.15A2.08,2.08,0,0,1,295,73.7a1.93,1.93,0,0,1-1,.28,2.15,2.15,0,0,1-1.07-.29,1.45,1.45,0,0,0-1.3,0,1.47,1.47,0,0,0-.8,1,2,2,0,0,1-1.36,1.61,1.85,1.85,0,0,1-.7.13,2.16,2.16,0,0,1-1.37-.5,1.41,1.41,0,0,0-.91-.33,1.49,1.49,0,0,0-.36,0,1.43,1.43,0,0,0-1,.87,2.09,2.09,0,0,1-1.62,1.35,2.16,2.16,0,0,1-.36,0,2.14,2.14,0,0,1-1.62-.76,1.42,1.42,0,0,0-1.08-.5h-.12a1.44,1.44,0,0,0-1.09.69,2.11,2.11,0,0,1-1.83,1Z"/><path class="cls-14" d="M33.39,9.13c-1.53.45-4,2.89-2.39,7.33s5.42,3.38,4.79,7.86-14.94,6.6-15.68,1.17c0,0-1.92,2.06,1.59,4.82s10,2.72,13.69-.87,2.7-8.24.19-10.39S29.32,14.14,33.39,9.13Z"/><path class="cls-14" d="M41.22,18.41A7.3,7.3,0,0,0,42.47,22C43.26,23.23,45,23.7,44,32.58a25.28,25.28,0,0,0,1.85-4.81c.41-2,1.22-5.56,3.11-5.67s2.58,1.27,3.09,2.77a3.63,3.63,0,0,0,4.78,1.88,3.39,3.39,0,0,0,1-.66c2.7-2.11,3.79-2.11,6.08-1s3.66,2,4.18,1.45-1.94-2.42-3-3.4-4.75-2.71-6.82-1.4-3.1,2.75-4.3.1-7.85-3-9.24,1.58a7.09,7.09,0,0,1-1.48-1.61C42.8,20.88,41.22,18.92,41.22,18.41Z"/><path class="cls-14" d="M71.82,19.66c-.12,1.89.15,5.5.15,7A7.36,7.36,0,0,0,73,30.85c.8,1.15,1.43,1.72,2.07,0a5.34,5.34,0,0,0-.45-4.59,34,34,0,0,1-2.21-5.62C72.45,20.06,72,19.09,71.82,19.66Z"/><path class="cls-14" d="M80.92,9.08c0,.57-.21,9.12-.5,11.18s-1,8,.54,11,1.08.23,1.32-.63a18.78,18.78,0,0,0,.94-6.82c-.22-3.33-.78-6-.72-7.63S81.78,9.54,80.92,9.08Z"/><path class="cls-14" d="M91.53,23.8c1-.29,5.11-1.07,4.38-4.35s-6-.59-5.46,3.48,3.76,4.78,6.69,5.48,10.08,1.91,10.78-1.57c0,0,1,1.55-1.67,3.32s-9.65,3.06-15-.69-2.84-9.58-1.46-11.07,3.8-2.8,6.2-1.07S97.44,24.39,91.53,23.8Z"/><path class="cls-14" d="M130.42,16a6.76,6.76,0,0,0-.49.7,7.8,7.8,0,0,0-1.16,3.81,9.25,9.25,0,0,0,.93,3.54c.07.17.15.34.22.52,1.18,2.76,6,6.36,9.15,4.88a5.2,5.2,0,0,1-5.2,1.15c-3-1.08-8.14-3.6-8.32-10.15s8-8.62,10-8.39l-1.73,1.28A19,19,0,0,0,130.42,16Z"/><path class="cls-14" d="M148,20.85a3.39,3.39,0,0,1,1.56,1.93,6.46,6.46,0,0,1,.26.69,11.06,11.06,0,0,1,.09,5.7,3.25,3.25,0,0,1-.6,1.29c-1.22,1.06-6.83,2.17-7.91-.14-1.83-3.92,6.32-6,10.6-1.37-.85.25-8.72-2.28-8.07.59s4.52.54,4.79-3.06c.13-1.81-1-5.63-3.54-6.25a5.79,5.79,0,0,0,.68.13l.71.12A6.4,6.4,0,0,1,148,20.85Z"/><path class="cls-14" d="M162.9,22.57c-1-2.14-5.93-2.75-7.05,1a9.61,9.61,0,0,0-.77-1.58c-.46-.74-2.18-2-2.14-2.46a6,6,0,0,0,1,2.88c.65,1,2.08,1.4,1.27,8.57a5.78,5.78,0,0,0,1.67-2.78c.16-.76,0-2.65.23-3.4a5.61,5.61,0,0,1,1.63-2.3c.74-.57,1.78-.26,2.63-.25a2.61,2.61,0,0,1,1.3.21A.24.24,0,0,1,162.9,22.57Z"/><path class="cls-14" d="M172,8.61c0,.58-.18,9.12-.44,11.19s-.83,8,.47,11,.95.23,1.16-.63a20.94,20.94,0,0,0,.83-6.82c-.19-3.32-.69-6-.63-7.63S172.75,9.08,172,8.61Z"/><path class="cls-14" d="M172.15,29.71c-2-.22-8.56-.88-8.62-3.84s7.4-6,8.22-1.39c-.81-.61-2.54-2.23-4.42.54-1.48,2.19,2.19,4.78,5.11,1.89"/><path class="cls-15" d="M271.22,52.94a3.94,3.94,0,0,1-.22-2.42s-.5-2.6,1.35-3.17a4.3,4.3,0,0,1,5.37-1.5s2.37-.19,2.94,1.89c0,0,1.18,1,1,2,0,0-1.7.24-2.05-.08,0,0-1.82.33-2.1,0a15.71,15.71,0,0,1-2.45.73,5.91,5.91,0,0,1-1.83,1.11S271.9,52.9,271.22,52.94Z"/><line class="cls-15" x1="270.99" y1="50.52" x2="273.18" y2="51.58"/><line class="cls-15" x1="272.34" y1="47.35" x2="275.01" y2="50.47"/><line class="cls-15" x1="277.71" y1="45.85" x2="277.46" y2="49.74"/><line class="cls-15" x1="280.65" y1="47.74" x2="279.56" y2="49.71"/><path class="cls-16" d="M266.67,57.09a1.74,1.74,0,0,1-.26-.15,1.19,1.19,0,0,1-.23-.31,1.39,1.39,0,0,1-.14-.54,1.57,1.57,0,0,1,0-.53,2.11,2.11,0,0,1,.16-.34,1.6,1.6,0,0,1,.25-.27.91.91,0,0,1,.37-.18,1,1,0,0,1,.42,0,.64.64,0,0,1,.33.19.21.21,0,0,1,0,.19l-.06.08a.17.17,0,0,1-.17,0,.42.42,0,0,0-.3-.15h-.28a.57.57,0,0,0-.22.16,1,1,0,0,0-.15.24,2.33,2.33,0,0,0-.07.25,1.6,1.6,0,0,0,0,.31,1.07,1.07,0,0,0,.1.36.68.68,0,0,0,.2.24.47.47,0,0,0,.25.07.49.49,0,0,0,.24,0,.53.53,0,0,1,.25,0h.08a.28.28,0,0,1,0,.18l-.07.08a2.34,2.34,0,0,1-.38.09A.85.85,0,0,1,266.67,57.09Z"/><path class="cls-16" d="M268.27,57.43l-.08-.06a8.34,8.34,0,0,1,0-1c0-.34.07-.68.1-1a.44.44,0,0,1,.08-.11.25.25,0,0,1,.17,0h.08a3.08,3.08,0,0,1,0,.43v.44a1.71,1.71,0,0,1,.25-.22,1.69,1.69,0,0,1,.28-.12h.67a.25.25,0,0,1,0,.17l-.07.08h-.36a.57.57,0,0,0-.37.12l-.26.28a1.59,1.59,0,0,0-.15.29,4.64,4.64,0,0,0-.11.51l-.06.08A.17.17,0,0,1,268.27,57.43Z"/><path class="cls-16" d="M270.55,57.84a.67.67,0,0,1-.23-.1.55.55,0,0,1-.21-.24.89.89,0,0,1-.12-.39,1.55,1.55,0,0,1,0-.43,3.09,3.09,0,0,1,.14-.43,1.09,1.09,0,0,1,.28-.36,1.35,1.35,0,0,1,.42-.2.86.86,0,0,1,.45,0,.93.93,0,0,1,.55.71v.31a1.51,1.51,0,0,1-.07.37,1,1,0,0,1-.16.37.66.66,0,0,1-.27.28.67.67,0,0,1-.37.14A1.44,1.44,0,0,1,270.55,57.84Zm.54-.33a.48.48,0,0,0,.24-.2.81.81,0,0,0,.13-.3l.06-.33a.68.68,0,0,0,0-.37.37.37,0,0,0-.18-.23.66.66,0,0,0-.28,0,.53.53,0,0,0-.33.15,1.11,1.11,0,0,0-.25.32c0,.11-.06.22-.08.33a1.71,1.71,0,0,0,0,.32.41.41,0,0,0,.17.27.63.63,0,0,0,.29.1A.64.64,0,0,0,271.09,57.51Z"/><path class="cls-16" d="M272.75,58.2l-.08-.06a3.73,3.73,0,0,1,.06-.82l.12-.82a.44.44,0,0,1,.08-.11.25.25,0,0,1,.17,0l.08.06a3,3,0,0,1-.08.83l-.12.84-.06.07A.2.2,0,0,1,272.75,58.2Zm.29-2.12a.5.5,0,0,1-.21-.22c-.05-.09-.09-.18-.13-.27a.81.81,0,0,1,0-.22.26.26,0,0,1,.11-.14.22.22,0,0,1,.22,0,.41.41,0,0,1,.18.25c.11-.12.21-.16.31-.13s.17.07.19.12a.15.15,0,0,1,0,.16.39.39,0,0,1-.14.17c-.07.05-.14.11-.24.17A.68.68,0,0,1,273,56.08Z"/><path class="cls-16" d="M274.61,58.64a.47.47,0,0,1-.2-.12l-.18-.14a.48.48,0,0,1,0-.17.5.5,0,0,1,.08-.12.25.25,0,0,1,.17,0l.19.17a.36.36,0,0,0,.27.09.48.48,0,0,0,.31-.08.18.18,0,0,0,.11-.19c0-.07-.05-.14-.16-.18l-.36-.18a.83.83,0,0,1-.32-.27,1.09,1.09,0,0,1-.14-.31.66.66,0,0,1,0-.28.7.7,0,0,1,.11-.23,1.16,1.16,0,0,1,.24-.2,1.06,1.06,0,0,1,.33-.14.91.91,0,0,1,.33,0,.6.6,0,0,1,.27.2.24.24,0,0,1,.07.25l-.06.08a.17.17,0,0,1-.17,0c-.13-.13-.23-.21-.32-.21a.53.53,0,0,0-.24.06.58.58,0,0,0-.2.21.3.3,0,0,0,0,.26.79.79,0,0,0,.17.19,1,1,0,0,0,.31.15.89.89,0,0,1,.36.23.48.48,0,0,1,.13.31.71.71,0,0,1,0,.29.49.49,0,0,1-.22.23.64.64,0,0,1-.36.11A1.52,1.52,0,0,1,274.61,58.64Z"/><path class="cls-16" d="M276.64,59a.56.56,0,0,1-.2-.11,1.57,1.57,0,0,0-.19-.15.25.25,0,0,1,0-.17.41.41,0,0,1,.07-.11.25.25,0,0,1,.17,0l.2.17a.36.36,0,0,0,.27.09.51.51,0,0,0,.3-.07.21.21,0,0,0,.12-.2.22.22,0,0,0-.16-.18l-.37-.17a.94.94,0,0,1-.32-.28.85.85,0,0,1-.13-.31.66.66,0,0,1,0-.28,1.63,1.63,0,0,1,.11-.23l.24-.2a1,1,0,0,1,.33-.13.62.62,0,0,1,.33,0,.48.48,0,0,1,.27.19.24.24,0,0,1,.07.25l-.06.08a.22.22,0,0,1-.16,0,.66.66,0,0,0-.32-.22A.57.57,0,0,0,277,57a.64.64,0,0,0-.19.21.24.24,0,0,0,0,.26.52.52,0,0,0,.17.19,1,1,0,0,0,.31.15.86.86,0,0,1,.35.23.44.44,0,0,1,.14.31.72.72,0,0,1-.06.29.43.43,0,0,1-.21.23.67.67,0,0,1-.37.11A1.19,1.19,0,0,1,276.64,59Z"/><path class="cls-16" d="M279.55,59.54a.25.25,0,0,1-.12-.07v-.11h-.31a.76.76,0,0,1-.3,0,.75.75,0,0,1-.3-.14,1.14,1.14,0,0,1-.24-.25.6.6,0,0,1-.12-.32,1.93,1.93,0,0,1,0-.34,1.55,1.55,0,0,1,.14-.29.66.66,0,0,1,.22-.22.72.72,0,0,1,.31-.11.91.91,0,0,1,.33,0l.26.12a.28.28,0,0,0-.07-.27,1.08,1.08,0,0,0-.24-.18.6.6,0,0,0-.27-.06h-.25l-.1-.07a.25.25,0,0,1,0-.17l.07-.08a.71.71,0,0,1,.29,0,1.55,1.55,0,0,1,.31.07,1.71,1.71,0,0,1,.35.21.63.63,0,0,1,.26.4,1.89,1.89,0,0,1,0,.75,2.8,2.8,0,0,0,0,1l-.06.08A.28.28,0,0,1,279.55,59.54Zm-.36-.51.15-.08V58.4a.48.48,0,0,0-.36-.3.44.44,0,0,0-.32,0,.45.45,0,0,0-.16.2,1.14,1.14,0,0,0-.06.25.33.33,0,0,0,.06.22.58.58,0,0,0,.18.17.43.43,0,0,0,.24.08.61.61,0,0,0,.3,0Z"/><path class="cls-16" d="M281.43,59.86l-.07-.06a.32.32,0,0,1,0-.27,1.89,1.89,0,0,1,.09-.34,1.87,1.87,0,0,0,.08-.34.81.81,0,0,0,0-.31.64.64,0,0,0-.1-.26.27.27,0,0,0-.21-.12.36.36,0,0,0-.25.11l-.25.24a1.38,1.38,0,0,0-.2.33l-.08.43v.12l-.06.08a.25.25,0,0,1-.17,0l-.08-.06a7,7,0,0,1,.06-.91,8.65,8.65,0,0,1,.11-.89.47.47,0,0,1,.07-.12.25.25,0,0,1,.17,0l.08.06a1.4,1.4,0,0,1,0,.29v.29l.23-.19a1.11,1.11,0,0,1,.27-.13.47.47,0,0,1,.33,0,.6.6,0,0,1,.3.24.76.76,0,0,1,.16.38,1.14,1.14,0,0,1,0,.58c-.06.24-.09.42-.11.52a.79.79,0,0,1-.11.29A.23.23,0,0,1,281.43,59.86Z"/><path class="cls-16" d="M283,60.17a.59.59,0,0,1-.28-.24,1,1,0,0,1-.12-.49,3.81,3.81,0,0,1,.12-1h-.33l-.08-.06a.28.28,0,0,1,0-.18l.06-.08a.37.37,0,0,1,.21,0h.24a2.33,2.33,0,0,1,.17-.69.25.25,0,0,1,.17,0l.08.06a.26.26,0,0,1,0,.21l-.08.48.72.11.08.06a.17.17,0,0,1,0,.17l-.05.08a.94.94,0,0,1-.41,0H283c-.06.43-.1.72-.11.86a.92.92,0,0,0,0,.33c0,.09.11.13.24.13a1.48,1.48,0,0,0,.42,0l.08.06a.19.19,0,0,1,0,.18l-.08.09a.8.8,0,0,1-.31.09A1.05,1.05,0,0,1,283,60.17Z"/></g></g></g></g></svg>