<svg xmlns="http://www.w3.org/2000/svg" xmlns:xlink="http://www.w3.org/1999/xlink" viewBox="0 0 337.52 209.12"><defs><style>.cls-1,.cls-11,.cls-12,.cls-13,.cls-6{fill:none;}.cls-2{fill:#eaeaea;}.cls-3{fill:#f7d479;}.cls-4{clip-path:url(#clip-path);}.cls-5{fill:#fff;}.cls-11,.cls-12,.cls-13,.cls-6{stroke:#ea7a5d;}.cls-6{stroke-width:0.75px;}.cls-7{fill:#956533;}.cls-8{fill:#e7b626;}.cls-9{fill:#e99325;}.cls-10{fill:#9a6633;}.cls-12{stroke-linecap:round;stroke-linejoin:round;}.cls-13{stroke-miterlimit:10;}.cls-14{fill:#ea7a5d;}</style><clipPath id="clip-path" transform="translate(5.09 5.35)"><rect class="cls-1" width="322.28" height="194.79" rx="8.5"/></clipPath></defs><g id="レイヤー_2" data-name="レイヤー 2"><g id="レイヤー_1-2" data-name="レイヤー 1"><g id="レイヤー_2-2" data-name="レイヤー 2"><g id="背景"><rect class="cls-2" x="16" y="9.68" width="321.52" height="199.44" rx="8.82"/><rect id="表" class="cls-3" x="5.09" y="5.35" width="322.28" height="194.79" rx="8.5"/><g class="cls-4"><path class="cls-5" d="M218.48,90.08a5.75,5.75,0,0,0,0-9.93,5.74,5.74,0,0,0-1.72-9.77,5.76,5.76,0,0,0-.75-8.1,5.82,5.82,0,0,0-2.65-1.23,5.74,5.74,0,0,0-5-8.59,5.73,5.73,0,0,0-6.38-7.6,5.73,5.73,0,0,0-7.6-6.38,5.74,5.74,0,0,0-8.6-5,5.74,5.74,0,0,0-9.32-3.4,5.74,5.74,0,0,0-9.77-1.72,5.74,5.74,0,0,0-9.93,0,5.74,5.74,0,0,0-8.09-.64,5.68,5.68,0,0,0-1.67,2.4,5.76,5.76,0,0,0-8.1.75,5.82,5.82,0,0,0-1.23,2.65,5.73,5.73,0,0,0-8.59,5,5.73,5.73,0,0,0-7.6,6.38,5.73,5.73,0,0,0-6.64,4.65,5.8,5.8,0,0,0,.26,3,5.72,5.72,0,0,0-5.76,5.7,5.65,5.65,0,0,0,.76,2.89,5.75,5.75,0,0,0-4.63,6.68,5.68,5.68,0,0,0,1.23,2.65A5.74,5.74,0,0,0,105,80.19a5.74,5.74,0,0,0,0,9.93,5.74,5.74,0,0,0,1.72,9.77,5.74,5.74,0,0,0,3.4,9.32,5.74,5.74,0,0,0,5,8.6,5.75,5.75,0,0,0,6.38,7.6,5.73,5.73,0,0,0,4.65,6.64,5.8,5.8,0,0,0,3-.26,5.74,5.74,0,0,0,8.59,5,5.75,5.75,0,0,0,6.68,4.63,5.68,5.68,0,0,0,2.65-1.23,5.74,5.74,0,0,0,9.77,1.72,5.75,5.75,0,0,0,9.93,0,5.74,5.74,0,0,0,9.77-1.72,5.74,5.74,0,0,0,9.32-3.4,5.74,5.74,0,0,0,8.6-5,5.75,5.75,0,0,0,7.6-6.38,5.73,5.73,0,0,0,6.38-7.6,5.74,5.74,0,0,0,5-8.6,5.74,5.74,0,0,0,3.4-9.32,5.74,5.74,0,0,0,1.72-9.77Z" transform="translate(5.09 5.35)"/><path class="cls-6" d="M161.76,143.27a4.33,4.33,0,0,1-3.74-2.16,1.42,1.42,0,0,0-1.09-.69h-.13a1.4,1.4,0,0,0-1.07.5,4.4,4.4,0,0,1-3.31,1.54,3.81,3.81,0,0,1-.75-.07,4.35,4.35,0,0,1-3.32-2.77,1.38,1.38,0,0,0-.95-.87,1.14,1.14,0,0,0-.37-.05,1.4,1.4,0,0,0-.9.32,4.32,4.32,0,0,1-7-2.56,1.42,1.42,0,0,0-.8-1,1.39,1.39,0,0,0-.6-.14,1.31,1.31,0,0,0-.69.19,4.52,4.52,0,0,1-2.18.57,4.24,4.24,0,0,1-2.14-.58,4.31,4.31,0,0,1-2.16-3.74,1.43,1.43,0,0,0-.61-1.14,1.39,1.39,0,0,0-.81-.26,1.5,1.5,0,0,0-.47.08,4.45,4.45,0,0,1-1.49.26,4.31,4.31,0,0,1-4.31-4.31,4.77,4.77,0,0,1,.07-.76,1.43,1.43,0,0,0-.4-1.23,1.38,1.38,0,0,0-1-.42h-.23a4.52,4.52,0,0,1-.74.06,4.32,4.32,0,0,1-4.34-4.3,4.45,4.45,0,0,1,.26-1.49,1.41,1.41,0,0,0-.17-1.29,1.45,1.45,0,0,0-1.15-.6,4.32,4.32,0,0,1-3.74-6.48,1.48,1.48,0,0,0-1-2.09,4.32,4.32,0,0,1-2.56-7,1.42,1.42,0,0,0-.2-2,1.23,1.23,0,0,0-.4-.23,4.32,4.32,0,0,1-1.3-7.37,1.42,1.42,0,0,0,.16-2,1.31,1.31,0,0,0-.36-.3A4.33,4.33,0,0,1,104.17,83a4.38,4.38,0,0,1,1.57-1.57,1.41,1.41,0,0,0,.2-2.29,4.33,4.33,0,0,1,1.3-7.38,1.42,1.42,0,0,0,.82-1.83,1.5,1.5,0,0,0-.22-.39,4.32,4.32,0,0,1,2.56-7,1.42,1.42,0,0,0,1-.8,1.46,1.46,0,0,0,0-1.29A4.32,4.32,0,0,1,115.14,54a1.42,1.42,0,0,0,1.15-.61,1.39,1.39,0,0,0,.17-1.28,4.32,4.32,0,0,1,2.59-5.53,4.45,4.45,0,0,1,1.49-.26,4.52,4.52,0,0,1,.74.06h.23a1.45,1.45,0,0,0,1-.41,1.43,1.43,0,0,0,.4-1.23,4.31,4.31,0,0,1,3.48-5,3.91,3.91,0,0,1,.76-.07,4.71,4.71,0,0,1,1.49.25,1.27,1.27,0,0,0,.47.09,1.39,1.39,0,0,0,.81-.26,1.42,1.42,0,0,0,.61-1.15,4.31,4.31,0,0,1,2.16-3.77,4.23,4.23,0,0,1,2.14-.57,4.45,4.45,0,0,1,2.17.57,1.46,1.46,0,0,0,1.29,0,1.42,1.42,0,0,0,.8-1,4.32,4.32,0,0,1,7-2.56,1.4,1.4,0,0,0,.9.32,1.57,1.57,0,0,0,.37-.05,1.4,1.4,0,0,0,1-.87,4.36,4.36,0,0,1,3.32-2.78,4.74,4.74,0,0,1,.75-.06,4.4,4.4,0,0,1,3.31,1.54,1.4,1.4,0,0,0,1.07.5h.13a1.42,1.42,0,0,0,1.09-.69,4.33,4.33,0,0,1,5.92-1.57,4.38,4.38,0,0,1,1.57,1.57,1.42,1.42,0,0,0,1.09.69h.13a1.4,1.4,0,0,0,1.07-.5,4.38,4.38,0,0,1,3.32-1.54,4.74,4.74,0,0,1,.75.06,4.33,4.33,0,0,1,3.31,2.78,1.42,1.42,0,0,0,1,.87,1.57,1.57,0,0,0,.37.05,1.4,1.4,0,0,0,.9-.32,4.38,4.38,0,0,1,2.79-1,4.27,4.27,0,0,1,4.2,3.56,1.42,1.42,0,0,0,.8,1,1.34,1.34,0,0,0,.59.13,1.43,1.43,0,0,0,.7-.18,4.41,4.41,0,0,1,2.18-.57,4.23,4.23,0,0,1,2.14.57A4.31,4.31,0,0,1,193,38.47a1.42,1.42,0,0,0,.61,1.15,1.39,1.39,0,0,0,.81.26,1.27,1.27,0,0,0,.47-.09,4.69,4.69,0,0,1,1.48-.25,4.25,4.25,0,0,1,2.77,1,4.32,4.32,0,0,1,1.48,4.06,1.43,1.43,0,0,0,.4,1.23,1.45,1.45,0,0,0,1,.41h.23a4.49,4.49,0,0,1,.73-.06,4.31,4.31,0,0,1,4.34,4.28,4.1,4.1,0,0,1-.26,1.51,1.43,1.43,0,0,0,.89,1.81,1.26,1.26,0,0,0,.43.08,4.33,4.33,0,0,1,3.75,6.48,1.34,1.34,0,0,0,0,1.29,1.42,1.42,0,0,0,1,.8,4.32,4.32,0,0,1,2.56,7,1.4,1.4,0,0,0-.27,1.26,1.38,1.38,0,0,0,.87,1,4.34,4.34,0,0,1,1.3,7.38,1.42,1.42,0,0,0-.16,2,1.31,1.31,0,0,0,.36.3,4.33,4.33,0,0,1,1.57,5.92,4.38,4.38,0,0,1-1.57,1.57,1.41,1.41,0,0,0-.5,1.93,1.31,1.31,0,0,0,.3.36,4.33,4.33,0,0,1-1.3,7.37,1.39,1.39,0,0,0-.87,1,1.42,1.42,0,0,0,.27,1.27,4.32,4.32,0,0,1-2.56,7,1.42,1.42,0,0,0-1,2.09,4.33,4.33,0,0,1-3.75,6.48,1.43,1.43,0,0,0-1.4,1.44,1.38,1.38,0,0,0,.08.45A4.31,4.31,0,0,1,203,124h0a4.49,4.49,0,0,1-.73-.06H202a1.38,1.38,0,0,0-1,.42,1.43,1.43,0,0,0-.4,1.23,4.32,4.32,0,0,1-1.48,4.06,4.25,4.25,0,0,1-2.77,1,4.39,4.39,0,0,1-1.48-.26,1.5,1.5,0,0,0-.47-.08,1.39,1.39,0,0,0-.81.26,1.42,1.42,0,0,0-.61,1.18,4.31,4.31,0,0,1-4.28,4.32h0a4.52,4.52,0,0,1-2.18-.57,1.32,1.32,0,0,0-.7-.19,1.35,1.35,0,0,0-.59.14,1.42,1.42,0,0,0-.8,1,4.33,4.33,0,0,1-2.78,3.31,4.28,4.28,0,0,1-1.46.26,4.38,4.38,0,0,1-2.79-1,1.4,1.4,0,0,0-.9-.32,1.14,1.14,0,0,0-.37.05,1.39,1.39,0,0,0-1,.87,4.3,4.3,0,0,1-3.31,2.77,3.81,3.81,0,0,1-.75.07,4.39,4.39,0,0,1-3.31-1.54,1.4,1.4,0,0,0-1.07-.5h-.13a1.42,1.42,0,0,0-1.09.69A4.35,4.35,0,0,1,161.76,143.27Z" transform="translate(5.09 5.35)"/><path class="cls-7" d="M124.41,91.54c-1.87.56-4.87,3.55-2.9,9s6.64,4.12,5.89,9.65-18.25,8.14-19.19,1.49c0,0-2.34,2.53,2,5.9s12.26,3.28,16.76-1.12,3.27-10.11.18-12.73S119.45,97.69,124.41,91.54Z" transform="translate(5.09 5.35)"/><path class="cls-7" d="M134.07,102.86a8.9,8.9,0,0,0,1.55,4.36c1,1.54,3.16,2.1,2,13a31.19,31.19,0,0,0,2.25-5.9c.49-2.39,1.48-6.81,3.79-6.95s3.16,1.54,3.79,3.37a4.45,4.45,0,0,0,5.87,2.28,4.38,4.38,0,0,0,1.23-.81c3.3-2.6,4.63-2.6,7.44-1.26s4.49,2.46,5.13,1.75-2.39-3-3.66-4.14-5.82-3.3-8.35-1.68-3.79,3.37-5.27.14-9.62-3.66-11.3,2a8.29,8.29,0,0,1-1.83-2C136,105.88,134,103.5,134.07,102.86Z" transform="translate(5.09 5.35)"/><path class="cls-7" d="M171.5,104.27c-.14,2.31.21,6.74.21,8.56A9,9,0,0,0,173,118c1,1.4,1.76,2.11,2.53,0a6.58,6.58,0,0,0-.56-5.62c-.91-1.82-2.74-6.18-2.74-6.88S171.71,103.57,171.5,104.27Z" transform="translate(5.09 5.35)"/><path class="cls-7" d="M182.59,91.28c0,.7-.21,11.16-.56,13.69s-1.12,9.83.7,13.41,1.34.28,1.62-.77a23.26,23.26,0,0,0,1.12-8.36c-.28-4.07-1-7.37-.91-9.34S183.65,91.84,182.59,91.28Z" transform="translate(5.09 5.35)"/><path class="cls-7" d="M195.65,109.25c1.2-.35,6.25-1.33,5.34-5.33s-7.37-.71-6.67,4.28,4.63,5.83,8.21,6.67,12.36,2.25,13.21-2c0,0,1.19,1.9-2,4.08s-11.8,3.79-18.4-.78-3.51-11.72-1.82-13.55,4.63-3.44,7.58-1.33S202.89,110,195.65,109.25Z" transform="translate(5.09 5.35)"/><path class="cls-8" d="M169.06,98.42c-.23-.24-.09-1,.38-1.83a4,4,0,0,0,.42-2.29c-.05-.42.52-.61,1.36-.24s3,2,2.85,2.48A6.87,6.87,0,0,1,171.83,99,4.47,4.47,0,0,1,169.06,98.42Z" transform="translate(5.09 5.35)"/><path class="cls-8" d="M121.88,75.43c0-3.37.09-8,4.21-11.89S135,54.27,146.6,60c0,0,11.7-12.83,23.12-2.53a16.76,16.76,0,0,1,11.61-5.81c7.4-.37,10.39,1.69,13.67,4.87s6,6.37,5.9,13.76-3.75,13.2-15.64,16.39a91.83,91.83,0,0,1-28.83,2.71c-4.5-.47-10.58-2.43-13.58-2.71s-8.33.46-12.45-1.78S121.88,80.39,121.88,75.43Z" transform="translate(5.09 5.35)"/><path class="cls-9" d="M144.61,54.84a9.11,9.11,0,0,0-4.85,3.23c-.28.49-1.68,4.63-.35,4.42.49,0,1.05-1.69,1.33-2.11a11.25,11.25,0,0,1,2.11-2.6c.84-.49,1.76-.14,2.6-.56a1.09,1.09,0,0,0,0-2.1,1.59,1.59,0,0,0-1.26-.14" transform="translate(5.09 5.35)"/><path class="cls-9" d="M159.77,51.54c-5.19-.29-7.86,5.47-7.58,9.9,1.26-.78,2.18-3.73,3.09-5a20.19,20.19,0,0,1,2.32-2.66c.7-.56,2.38-1.26,2.66-2-.07-.14-.14-.14-.28-.21" transform="translate(5.09 5.35)"/><path class="cls-9" d="M161.11,61.37c-1.9-3.16,3.3-6.82,5.54-8a6.12,6.12,0,0,1,2.46-1.12c1.06,0,2.39.91,1.48,1.75-.57.49-2,.71-2.67,1.13a6.58,6.58,0,0,0-2.25,2.38,9.22,9.22,0,0,1-4.49,3.8" transform="translate(5.09 5.35)"/><path class="cls-9" d="M180.07,57.57c-1.9-2.73-1.41-8.07,3.09-7.51,3.22.35-.78,3-1.41,3.93s-.21,3.72-1.54,3.72" transform="translate(5.09 5.35)"/><path class="cls-9" d="M128.11,74.57c0-1.48,1.12-6.53,4.42-7s8.07,0,9.2,3.38,0,8.35-2.81,9.12-5.76-.7-7-1.61S128.11,76.67,128.11,74.57Z" transform="translate(5.09 5.35)"/><path class="cls-9" d="M183.08,72.78c-.91-1.68-.84-6.6,2.53-8.21s8.92-2.95,11.1,2.59-1.41,9.76-4.43,10.4S184.63,77.23,183.08,72.78Z" transform="translate(5.09 5.35)"/><path class="cls-7" d="M162,81.67h-.63c-5.09-.15-10.12-3.17-12.87-5.71L150,74.31c2.67,2.46,7.23,5,11.42,5.11a20.2,20.2,0,0,0,8.1-1.35c-.74-5.5,1.67-7.32,2.45-7.76a3.07,3.07,0,0,1,3.56.27,3.69,3.69,0,0,1,.67,4.27C174.08,80.25,166.54,81.67,162,81.67Zm11.63-9.56a1.33,1.33,0,0,0-.55.15c-.82.46-1.59,1.94-1.4,4.66a6.39,6.39,0,0,0,2.44-2.9c.31-.79.29-1.46,0-1.75a.6.6,0,0,0-.51-.16Z" transform="translate(5.09 5.35)"/><path class="cls-7" d="M150.79,67.25c.1,1.35-.59,2.5-1.53,2.57s-1.79-1-1.89-2.31.59-2.5,1.53-2.57S150.69,65.9,150.79,67.25Z" transform="translate(5.09 5.35)"/><path class="cls-7" d="M175.24,65.6c.09,1.35-.59,2.5-1.54,2.57s-1.79-1-1.89-2.32.59-2.5,1.53-2.57S175.14,64.25,175.24,65.6Z" transform="translate(5.09 5.35)"/><path class="cls-7" d="M131.56,97.31h-2.25v-.9h2v-.34h-2v-.83a15.1,15.1,0,0,0,1.77-.26h0l-.19-.33h0a20.82,20.82,0,0,1-4.09.37h0l0,.34h0a18.38,18.38,0,0,0,2-.08v.79h-2.16v.34h2.16v.9h-2.38v.34m0,0h2.38v1.08a.14.14,0,0,1-.06.12h-.86v.38h.86a.63.63,0,0,0,.4-.14.43.43,0,0,0,.17-.35v-1h2.25m0,0v0Z" transform="translate(5.09 5.35)"/><path class="cls-7" d="M137.3,95.35h-2.45c.1-.27.19-.55.26-.82h0l-.44-.08h0a6.36,6.36,0,0,1-.4,1.21,6.05,6.05,0,0,1-.75,1.28h0l.3.21m.06,0a6.58,6.58,0,0,0,.87-1.44H135v3.63h.42V98h1.63V97.7h-1.63V97H137v-.33h-1.6v-.85h1.76v-.33Z" transform="translate(5.09 5.35)"/><path class="cls-7" d="M133.23,96h0a8,8,0,0,0,.61-1.48h0l-.44-.08h0a6,6,0,0,1-.54,1.43,8.12,8.12,0,0,1-.85,1.38v.06l.28.23m.06,0a7.54,7.54,0,0,0,.53-.73v2.63h.41V96.08Z" transform="translate(5.09 5.35)"/><path class="cls-7" d="M141,94.86a1.87,1.87,0,0,0-1.15.44,2.2,2.2,0,0,0-.7,1,15,15,0,0,1,.21-1.62h-.43a9.36,9.36,0,0,0-.16,1.83,8.41,8.41,0,0,0,.1,1.42h.39a3.34,3.34,0,0,1,.28-1.46,1.8,1.8,0,0,1,.69-.83,1.44,1.44,0,0,1,.78-.25.68.68,0,0,1,.62.4,2.35,2.35,0,0,1,.25,1.22,1.75,1.75,0,0,1-.61,1.54,3.59,3.59,0,0,1-1.77.51h0l.1.35h0a3.76,3.76,0,0,0,2.08-.62,2.23,2.23,0,0,0,.71-1.85,2.72,2.72,0,0,0-.37-1.55A1.19,1.19,0,0,0,141,94.86Z" transform="translate(5.09 5.35)"/><path class="cls-7" d="M145.38,94.78h-.46a10.2,10.2,0,0,1-.1,1.23,3.78,3.78,0,0,1-.22.88,5.42,5.42,0,0,1-.32.69,4.25,4.25,0,0,1-.41.63,3.71,3.71,0,0,1-.55.57h0l.27.3h.06A4.85,4.85,0,0,0,145,97.35a6.77,6.77,0,0,0,.51-2.63h0S145.4,94.78,145.38,94.78Z" transform="translate(5.09 5.35)"/><path class="cls-7" d="M148.08,94.29a.63.63,0,0,0-.45.18.57.57,0,0,0-.2.44.64.64,0,0,0,.19.45.59.59,0,0,0,.47.19.67.67,0,0,0,.44-.18.62.62,0,0,0,0-.88h0A.64.64,0,0,0,148.08,94.29Zm0,.28a.35.35,0,0,1,.25.1.36.36,0,0,1,.11.26.32.32,0,0,1-.11.24.35.35,0,0,1-.25.1.38.38,0,0,1-.35-.35.33.33,0,0,1,.11-.25A.35.35,0,0,1,148.08,94.57Z" transform="translate(5.09 5.35)"/><path class="cls-7" d="M147.64,97.05a7,7,0,0,1-.32-2.18h0m0-.05h-.45m0,.05a9.66,9.66,0,0,0,.15,1.52,6.29,6.29,0,0,0,.53,1.64,4.8,4.8,0,0,0,.82,1.18h.06l.35-.31h0a4.4,4.4,0,0,1-1.14-1.85Z" transform="translate(5.09 5.35)"/><path class="cls-7" d="M151.58,96.31h0l.31-.36h0a11.32,11.32,0,0,0-2-1h0l-.24.35h0A15.39,15.39,0,0,1,151.58,96.31Z" transform="translate(5.09 5.35)"/><path class="cls-7" d="M153.94,96.34h0a4.58,4.58,0,0,1-.67.9,7.4,7.4,0,0,1-.82.66,4.79,4.79,0,0,1-1.19.56,7,7,0,0,1-1.58.33h0l.1.42h0a8.54,8.54,0,0,0,1.87-.4,5.3,5.3,0,0,0,1.53-.88,4.88,4.88,0,0,0,1.21-1.39Z" transform="translate(5.09 5.35)"/><path class="cls-7" d="M160,98.83h-2.3V95.37h2.08m.05,0V95m-.05,0h-4.64v.35h2v3.46H155v.34h5v-.34h0Z" transform="translate(5.09 5.35)"/><path class="cls-7" d="M165.72,96.89h-1.81v-.41h1.44V95.41h-4.3V97a5.39,5.39,0,0,1-.17,1.33,2.43,2.43,0,0,1-.43.92h0l.28.21m.06,0a4.24,4.24,0,0,0,.76-2.65v-.29h1.87v.41h-1.58v.34h1v.06a1.58,1.58,0,0,1-.37,1.06,2.17,2.17,0,0,1-1,.66h0l.17.28h0A2.21,2.21,0,0,0,163.21,98h1.64a1.91,1.91,0,0,1-.1.67.47.47,0,0,1-.45.18h-.57v.37h.47a2.44,2.44,0,0,0,.54,0,.64.64,0,0,0,.51-.56,2.56,2.56,0,0,0,.09-.78v0h-2a2.54,2.54,0,0,0,0-.39h2.4v-.34Zm4.09-3.71v.38h-3.36v-.38Z" transform="translate(5.09 5.35)"/><rect class="cls-7" x="165.8" y="99.98" width="5.04" height="0.4" rx="0.04"/><path class="cls-10" d="M107.69,150v1.9h-.83v-1.14h-6.15v1.16H99.9V150h1.24a6.9,6.9,0,0,0-.7-1l.76-.32a5.93,5.93,0,0,1,.85,1.2l-.29.14h1.66a7.37,7.37,0,0,0-.66-1.24l.76-.26a5.58,5.58,0,0,1,.73,1.28l-.55.22h1.64a9.81,9.81,0,0,0,.9-1.4l.93.29c-.29.38-.6.78-.88,1.11Zm-3.59,3.56-.27.68H107v2.92h-.87v-.33h-4.71v.34h-.84v-2.93H103c.07-.22.13-.47.18-.68h-1.82v-2.21h4.91v2.21Zm2.07,1.44h-4.71v1.08h4.71Zm-4-2.1h3.25V152h-3.25Z" transform="translate(5.09 5.35)"/><path class="cls-10" d="M113.62,155a8.73,8.73,0,0,0,3.18,1.28,3.44,3.44,0,0,0-.58.78,8.48,8.48,0,0,1-3.37-1.77v1.89H112v-1.83a9.12,9.12,0,0,1-3.34,1.7,3.81,3.81,0,0,0-.57-.75,9.09,9.09,0,0,0,3.17-1.3h-2.91v-.74H112v-.57h-2.77V153H112v-.56h-3.23v-.69h1.92a4.36,4.36,0,0,0-.39-.85h-1.91v-.73h1.39a6.74,6.74,0,0,0-.68-1.27l.76-.25a6.06,6.06,0,0,1,.75,1.34l-.48.18h1v-1.61H112v1.61h.93v-1.61h.83v1.61h1l-.35-.12a8,8,0,0,0,.65-1.39l.91.23c-.26.46-.54.93-.78,1.28h1.35v.73h-1.81c-.18.32-.37.63-.53.89h2v.7h-3.33v.56h2.89v.66h-2.89v.57h3.71v.74Zm-2.42-4.12a3.6,3.6,0,0,1,.4.84l-.27.05h2c.15-.29.29-.59.41-.89Z" transform="translate(5.09 5.35)"/><path class="cls-10" d="M119.92,155.35h-2v.79h-.81v-7h2.77Zm-2-5.42v1.85h1.13v-1.89Zm1.13,4.64v-2h-1v2Zm5.29-2.39v.94h1v.77h-1v2.31c0,.45-.1.69-.41.82a4.69,4.69,0,0,1-1.54.14,3.33,3.33,0,0,0-.29-.82h1.19c.14,0,.19-.05.19-.18v-2.29H120.1v-.77h3.42v-.94h-3.44v-.77h2.23v-1h-1.88v-.76h1.88v-1.07h.88v1.07h1.93v.76h-1.93v1h2.28v.77Zm-3.08,1.94a6.85,6.85,0,0,1,1.17,1.56l-.74.45a7.17,7.17,0,0,0-1.14-1.6Z" transform="translate(5.09 5.35)"/><path class="cls-10" d="M126.85,152.2v5H126V149h3.47v3.27Zm0-2.62v.65h1.77v-.65Zm1.77,2v-.7h-1.77v.7Zm5.12,4.54c0,.5-.1.78-.44.93a5,5,0,0,1-1.63.15,4.29,4.29,0,0,0-.27-.86h-2.54v.44h-.8v-3.93h3.52v3.44h1.07c.16,0,.21,0,.21-.21v-3.86h-2.67v-3.29h3.55Zm-4.88-2.59v.74h1.9v-.74Zm1.9,2.16v-.78h-1.9v.78Zm.27-6.08v.65h1.83v-.65Zm1.83,2v-.72H131v.72Z" transform="translate(5.09 5.35)"/><path class="cls-10" d="M140.49,150.66a.79.79,0,1,1,.8.78h0a.76.76,0,0,1-.79-.75Zm0,4.55a.79.79,0,1,1,.81.77h0a.76.76,0,0,1-.79-.73v0Z" transform="translate(5.09 5.35)"/><path class="cls-10" d="M146.22,155.52H148V151h-1.4v-.69a5.3,5.3,0,0,0,1.69-.54h.8v5.73h1.63v.92h-4.53Z" transform="translate(5.09 5.35)"/><path class="cls-10" d="M151.46,153.09c0-2.25.94-3.42,2.42-3.42s2.42,1.17,2.42,3.42-.94,3.47-2.42,3.47S151.46,155.32,151.46,153.09Zm3.85,0c0-1.84-.61-2.55-1.43-2.55s-1.42.71-1.42,2.55.6,2.59,1.42,2.59,1.43-.76,1.43-2.59Zm-2.12-.05a.68.68,0,0,1,.63-.73h.06a.73.73,0,0,1,0,1.46.67.67,0,0,1-.69-.67V153Z" transform="translate(5.09 5.35)"/><path class="cls-10" d="M158.43,152a1,1,0,1,1,1,1A1,1,0,0,1,158.43,152Zm0,3.6a1,1,0,0,1,.7-1.23,1,1,0,0,1,1.23.71.92.92,0,0,1,0,.52,1,1,0,0,1-.7,1.23,1,1,0,0,1-1.23-.71A.92.92,0,0,1,158.43,155.55Z" transform="translate(5.09 5.35)"/><path class="cls-10" d="M162.48,153.09c0-2.25.94-3.42,2.42-3.42s2.42,1.17,2.42,3.42-.94,3.47-2.42,3.47S162.48,155.32,162.48,153.09Zm3.85,0c0-1.84-.61-2.55-1.43-2.55s-1.42.71-1.42,2.55.6,2.59,1.42,2.59S166.33,154.92,166.33,153.09Zm-2.12-.05a.68.68,0,0,1,.63-.73h.06a.73.73,0,0,1,0,1.46.67.67,0,0,1-.69-.67Z" transform="translate(5.09 5.35)"/><path class="cls-10" d="M168,153.09c0-2.25.94-3.42,2.42-3.42s2.42,1.17,2.42,3.42-.94,3.47-2.42,3.47S168,155.32,168,153.09Zm3.85,0c0-1.84-.61-2.55-1.43-2.55s-1.42.71-1.42,2.55.6,2.59,1.42,2.59,1.42-.76,1.42-2.59Zm-2.12-.05a.68.68,0,0,1,.63-.73h.06a.73.73,0,0,1,0,1.46.67.67,0,0,1-.7-.66V153Z" transform="translate(5.09 5.35)"/><path class="cls-10" d="M183.12,153.19a1.93,1.93,0,0,0-1.49-.73,2,2,0,0,0-1.64,1.19l-.82-.45a2.83,2.83,0,0,1,2.47-1.68,2.87,2.87,0,0,1,2.15,1,1.89,1.89,0,0,0,1.49.74,1.94,1.94,0,0,0,1.63-1.2l.82.46a2.7,2.7,0,0,1-3.52,1.48,2.76,2.76,0,0,1-1.09-.82Z" transform="translate(5.09 5.35)"/><path class="cls-10" d="M194.34,155.52h1.8V151h-1.4v-.69a5.3,5.3,0,0,0,1.69-.54h.8v5.73h1.64v.92h-4.53Z" transform="translate(5.09 5.35)"/><path class="cls-10" d="M199.64,155.78l.59-.68a1.94,1.94,0,0,0,1.27.51c.95,0,1.8-.65,1.84-2.59a2.59,2.59,0,0,1-1.76.83,1.86,1.86,0,0,1-2-1.73,1.71,1.71,0,0,1,0-.32,2.16,2.16,0,0,1,2.15-2.17h.1c1.4,0,2.57,1,2.57,3.23,0,2.6-1.34,3.66-2.79,3.66A2.81,2.81,0,0,1,199.64,155.78Zm3.66-3.55c-.13-1.2-.71-1.76-1.5-1.76a1.23,1.23,0,0,0-1.25,1.23v.1a1.12,1.12,0,0,0,1,1.24,1.22,1.22,0,0,0,.27,0,2,2,0,0,0,1.5-.77Z" transform="translate(5.09 5.35)"/><path class="cls-10" d="M206.54,152a1,1,0,1,1,1,1A1,1,0,0,1,206.54,152Zm0,3.6a1,1,0,0,1,.7-1.23,1,1,0,0,1,1.23.71.92.92,0,0,1,0,.52,1,1,0,0,1-.7,1.23,1,1,0,0,1-1.23-.71A.92.92,0,0,1,206.54,155.55Z" transform="translate(5.09 5.35)"/><path class="cls-10" d="M210.59,153.09c0-2.25.94-3.42,2.42-3.42s2.42,1.17,2.42,3.42-.94,3.47-2.42,3.47S210.59,155.32,210.59,153.09Zm3.85,0c0-1.84-.61-2.55-1.43-2.55s-1.42.71-1.42,2.55.6,2.59,1.42,2.59S214.44,154.92,214.44,153.09Zm-2.12-.05a.68.68,0,0,1,.63-.73H213a.73.73,0,0,1,0,1.46.67.67,0,0,1-.69-.67Z" transform="translate(5.09 5.35)"/><path class="cls-10" d="M216.1,153.09c0-2.25.94-3.42,2.42-3.42s2.42,1.17,2.42,3.42-.94,3.47-2.42,3.47S216.1,155.32,216.1,153.09Zm3.85,0c0-1.84-.61-2.55-1.43-2.55s-1.42.71-1.42,2.55.6,2.59,1.42,2.59,1.48-.76,1.48-2.59Zm-2.12-.05a.68.68,0,0,1,.63-.73h.06a.73.73,0,1,1,0,1.46.67.67,0,0,1-.69-.67V153Z" transform="translate(5.09 5.35)"/><path class="cls-10" d="M104.19,167.86a8.36,8.36,0,0,0,1.32.08H108a2.75,2.75,0,0,0-.33.88h-2.24c-1.84,0-3.19-.31-4.05-1.79a4.74,4.74,0,0,1-1.32,2,4.16,4.16,0,0,0-.73-.6A5.15,5.15,0,0,0,101,164.7l.91.08a10.63,10.63,0,0,1-.23,1.23,2.69,2.69,0,0,0,1.53,1.65V164h-2.17v-.84h5.29V164h-2.21v1.38h2.68v.82h-2.68Zm-3.51-4.38h-.86v-2.16h3.44v-1h.94v1h3.47v2.16h-.89v-1.33h-6.1Z" transform="translate(5.09 5.35)"/><path class="cls-10" d="M115.75,160.63a12.88,12.88,0,0,1-1,2v6.28h-.86v-5a8.45,8.45,0,0,1-1,1.07,5.48,5.48,0,0,0-.52-.91,9.67,9.67,0,0,0,2.48-3.67Zm3.25,2.85a9.7,9.7,0,0,0,2.4,3.59,3.65,3.65,0,0,0-.66.7,10.68,10.68,0,0,1-2.19-3.43v4.59h-.86v-4.35a10,10,0,0,1-2.25,3.25,3.27,3.27,0,0,0-.65-.69,9,9,0,0,0,2.5-3.66h-2.11v-.86h2.51v-2.18h.86v2.18h2.59v.86Z" transform="translate(5.09 5.35)"/><path class="cls-10" d="M133.23,160.9v7.88h-.93v-.57h-4.43v.61H127v-7.93Zm-5.36.89v2.29h4.43v-2.3Zm4.43,5.54V165h-4.43v2.38Z" transform="translate(5.09 5.35)"/><path class="cls-10" d="M140.56,162.41a.79.79,0,1,1,.79.79A.79.79,0,0,1,140.56,162.41Zm0,4.56a.79.79,0,1,1,.81.77h0a.76.76,0,0,1-.79-.75Z" transform="translate(5.09 5.35)"/><path class="cls-10" d="M152.09,161.36v6.91h-.8v-.49H147.5v.53h-.77v-6.94Zm-4.59.77v2h3.79v-2Zm3.79,4.86V164.9H147.5V167Z" transform="translate(5.09 5.35)"/><path class="cls-10" d="M160.54,168.1H156.9v.25h-.67v-2.8a4.78,4.78,0,0,1-.46.44,2.56,2.56,0,0,0-.2-.26v1.11h-1.48v.69h-.65v-6.19h2.13v3.92a4.88,4.88,0,0,0,1.1-1.59h-.82v-.53h1.41v-.5H156v-.5h1.27v-.48h-1.4v-.53h2v2.54h-.71l.24.08c-.08.17-.18.35-.28.53h1a4.44,4.44,0,0,0,.22-.61h-.18v-.53h1.44v-.5h-1.3v-.5h1.33v-.48H158.2v-.53h2.09v2.54h-1.46l.32.07-.29.54h1.48v.59h-1.68v.52h1.49v.51h-1.49v.54h1.49V167h-1.49v.57h1.88ZM154.09,162v1.69h.81V162Zm.81,4.15v-1.79h-.81v1.79Zm3.11-1.29H156.9v.52H158Zm0,1H156.9v.54H158Zm-1.11,1.62H158v-.57h-1.1Z" transform="translate(5.09 5.35)"/><path class="cls-10" d="M167,161.36v6.91h-.8v-.49h-3.8v.53h-.77v-6.94Zm-4.6.77v2h3.8v-2Zm3.8,4.86V164.9h-3.8V167Z" transform="translate(5.09 5.35)"/><path class="cls-10" d="M171,163.66a1,1,0,1,1-.94,1.06v-.06a1,1,0,0,1,.9-1Z" transform="translate(5.09 5.35)"/><path class="cls-10" d="M181,161.5v.61h-1.6a3.54,3.54,0,0,1,.41.67l-.66.27a4.21,4.21,0,0,0-.55-.94h-.46a5,5,0,0,1-.79.93,3.72,3.72,0,0,0-.61-.43,3,3,0,0,0,.51-.5h-1.33a3.27,3.27,0,0,1,.28.67l-.64.27a5.14,5.14,0,0,0-.38-.94H175a6,6,0,0,1-.74,1l-.61-.41a5.23,5.23,0,0,0,1.21-1.9l.71.19c-.07.18-.15.36-.23.53h2v.59a4.36,4.36,0,0,0,.66-1.33l.71.18a4.41,4.41,0,0,1-.24.54Zm-.25,4.16V166c-.09,1.12-.2,1.63-.4,1.84a.74.74,0,0,1-.56.24,8.34,8.34,0,0,1-1,0,1.72,1.72,0,0,0-.21-.7,6.32,6.32,0,0,0,.87,0,.45.45,0,0,0,.28-.06,2,2,0,0,0,.24-1h-2.22v2.07H177v-1.77a7.93,7.93,0,0,1-2.77,1.67,3.56,3.56,0,0,0-.49-.6,7.7,7.7,0,0,0,2.65-1.37H175.1l-.07.25-.74-.11a20.61,20.61,0,0,0,.5-2.06H177v-.68h-2.58V163h5.87v2h-2.56v.63Zm-5.36-.63-.15.63H177V165Zm2.34-.64h1.82v-.68h-1.82Z" transform="translate(5.09 5.35)"/><path class="cls-10" d="M183.44,167.17c1.82-1.61,2.9-2.62,2.9-3.54a1,1,0,0,0-1-1h-.14a1.82,1.82,0,0,0-1.28.65l-.53-.53a2.48,2.48,0,0,1,1.93-.9,1.73,1.73,0,0,1,1.91,1.55,1.62,1.62,0,0,1,0,.22c0,1-1.05,2.11-2.43,3.39.34,0,.73,0,1.05,0h1.68v.82h-4.11Z" transform="translate(5.09 5.35)"/><path class="cls-10" d="M189.32,169.11a1.58,1.58,0,0,0,1.15-1.43h-.14a.76.76,0,0,1-.81-.69v-.09a.78.78,0,0,1,.78-.78h0c.6,0,.92.5.92,1.32a2.29,2.29,0,0,1-1.7,2.26Z" transform="translate(5.09 5.35)"/><path class="cls-10" d="M195.59,166.21h-2.87v-.66l2.68-3.64h1.08v3.54h.83v.76h-.83v1.57h-.89Zm0-.76v-2.62h0c-.18.3-.4.6-.59.9l-1.3,1.72Z" transform="translate(5.09 5.35)"/><path class="cls-10" d="M205.83,167.35c0,.5-.13.74-.46.86a5.24,5.24,0,0,1-1.72.16,3.5,3.5,0,0,0-.32-.81h1.46c.19,0,.24-.07.24-.24v-1.44h-3.66a4.52,4.52,0,0,1-1.38,2.5,3,3,0,0,0-.57-.56,5,5,0,0,0,1.38-4v-2.59h5Zm-.8-2.19v-1.22h-3.46a7.43,7.43,0,0,1-.07,1.22ZM201.57,162v1.22H205V162Z" transform="translate(5.09 5.35)"/><path class="cls-10" d="M214.36,168.1h-3.63v.25h-.68v-2.8a4.78,4.78,0,0,1-.46.44,2.56,2.56,0,0,0-.2-.26v1.11h-1.48v.69h-.65v-6.19h2.13v3.92a4.88,4.88,0,0,0,1.1-1.59h-.82v-.53h1.41v-.5h-1.27v-.5h1.27v-.48h-1.4v-.53h2v2.54H211l.24.08c-.08.17-.18.35-.28.53h1a4.44,4.44,0,0,0,.22-.61H212v-.53h1.44v-.5h-1.33v-.5h1.33v-.48H212v-.53h2.08v2.54h-1.46l.32.07c-.1.19-.19.37-.29.54h1.48v.59h-1.68v.52H214v.51h-1.5v.54H214V167h-1.5v.57h1.88ZM207.91,162v1.69h.82V162Zm.82,4.15v-1.79h-.82v1.79Zm3.1-1.29h-1.1v.52h1.1Zm0,1h-1.1v.54h1.1Zm-1.1,1.62h1.1v-.57h-1.1Z" transform="translate(5.09 5.35)"/><path class="cls-10" d="M220.83,161.36v6.91H220v-.49h-3.8v.53h-.76v-6.94Zm-4.6.77v2H220v-2ZM220,167V164.9h-3.8V167Z" transform="translate(5.09 5.35)"/><path class="cls-10" d="M31.06,177.59v.66h-4.9v-.66Zm0,1.57v.62H29v3h-.73v-3H26.16v-.66Z" transform="translate(5.09 5.35)"/><path class="cls-10" d="M33,182.15h1.41v-3.5H33.34v-.54a3.85,3.85,0,0,0,1.32-.42h.63v4.46h1.28v.71H33Z" transform="translate(5.09 5.35)"/><path class="cls-10" d="M37.74,182.38l.46-.53a1.55,1.55,0,0,0,1,.39c.74,0,1.41-.5,1.44-2a2,2,0,0,1-1.38.65,1.47,1.47,0,0,1-1.6-1.33,1.22,1.22,0,0,1,0-.27,1.68,1.68,0,0,1,1.7-1.68h.07c1.1,0,2,.79,2,2.51,0,2-1,2.84-2.18,2.84A2.17,2.17,0,0,1,37.74,182.38Zm2.88-2.76c-.11-.94-.57-1.37-1.19-1.37a1,1,0,0,0-1,1,.88.88,0,0,0,.74,1h.26a1.56,1.56,0,0,0,1.19-.63Z" transform="translate(5.09 5.35)"/><path class="cls-10" d="M42.46,182.22l.42-.55a2,2,0,0,0,1.39.57c.65,0,1.13-.3,1.13-.82s-.45-.91-1.75-.91v-.64c1.15,0,1.58-.37,1.58-.86s-.38-.73-1-.73a1.91,1.91,0,0,0-1.2.5l-.44-.53a2.49,2.49,0,0,1,1.68-.65c1,0,1.78.49,1.78,1.35a1.31,1.31,0,0,1-1.06,1.2h0a1.42,1.42,0,0,1,1.24,1.3c0,.93-.89,1.48-1.94,1.48A2.46,2.46,0,0,1,42.46,182.22Z" transform="translate(5.09 5.35)"/><path class="cls-10" d="M47.57,179.87h3.56v.62H47.57Z" transform="translate(5.09 5.35)"/><path class="cls-10" d="M52.33,180.26c0-1.75.74-2.66,1.9-2.66s1.9.91,1.9,2.66S55.4,183,54.23,183,52.33,182,52.33,180.26Zm3,0c0-1.44-.47-2-1.12-2s-1.11.54-1.11,2,.47,2,1.11,2,1.14-.58,1.14-2Zm-1.66,0a.55.55,0,1,1,1.09-.15.38.38,0,0,1,0,.15.55.55,0,0,1-1.09.15A.38.38,0,0,1,53.67,180.26Z" transform="translate(5.09 5.35)"/><path class="cls-10" d="M57.21,181.53a1.51,1.51,0,0,1,1.07-1.33h0A1.46,1.46,0,0,1,57.5,179c0-.82.7-1.35,1.65-1.35A1.47,1.47,0,0,1,60.8,179a1.56,1.56,0,0,1-.78,1.2h0a1.44,1.44,0,0,1,1,1.35c0,.78-.69,1.39-1.9,1.39S57.21,182.37,57.21,181.53Zm3,0c0-.62-.64-.8-1.48-1.09a1.2,1.2,0,0,0-.73,1c0,.52.46.88,1.16.88s1-.3,1-.79ZM60.07,179a.83.83,0,0,0-.81-.83h-.11c-.5,0-.87.27-.87.73s.53.79,1.24,1a1.17,1.17,0,0,0,.54-.91Z" transform="translate(5.09 5.35)"/><path class="cls-10" d="M62,182.22l.42-.55a2,2,0,0,0,1.39.57c.65,0,1.14-.3,1.14-.82s-.46-.91-1.76-.91v-.64c1.15,0,1.58-.37,1.58-.86s-.38-.73-1-.73a1.91,1.91,0,0,0-1.2.5l-.44-.53a2.49,2.49,0,0,1,1.68-.65c1,0,1.78.49,1.78,1.35a1.3,1.3,0,0,1-1.06,1.2h0a1.42,1.42,0,0,1,1.24,1.3c0,.93-.89,1.48-1.94,1.48A2.46,2.46,0,0,1,62,182.22Z" transform="translate(5.09 5.35)"/><path class="cls-10" d="M66.87,182.24l.41-.55a2,2,0,0,0,1.38.55,1.05,1.05,0,0,0,1.18-.94.13.13,0,0,0,0-.06c0-.65-.47-1-1.16-1a1.79,1.79,0,0,0-1,.29l-.42-.26.17-2.54h3v.74H68.2l-.11,1.31a1.94,1.94,0,0,1,.85-.18A1.58,1.58,0,0,1,70.71,181a1.93,1.93,0,0,1,0,.24A1.81,1.81,0,0,1,68.88,183h-.16A2.62,2.62,0,0,1,66.87,182.24Z" transform="translate(5.09 5.35)"/><path class="cls-10" d="M79.05,178.78c-.28,1.67-.79,3.55-2,4.63a5.37,5.37,0,0,0-.57-.5,6.88,6.88,0,0,0,1.75-4.24Zm2.17-1.55c.21,2.37.66,4.55,2,5.6a3.86,3.86,0,0,0-.66.55c-1.3-1.13-1.77-3.19-2-5.44H78.07v-.71Z" transform="translate(5.09 5.35)"/><path class="cls-10" d="M90.46,182.44v.67H83.93v-.67h2.89v-2.07h-2.2v-.66h2.2v-1.85H84.29v-.67h5.79v.67H87.53v1.85h2.29v.66H87.53v2.07Z" transform="translate(5.09 5.35)"/><path class="cls-10" d="M97.81,180.61h-3v2c0,.42-.1.61-.41.73a5.12,5.12,0,0,1-1.46.12,2.9,2.9,0,0,0-.3-.7h1.27c.17,0,.19,0,.19-.17v-2h-3v-.68h3v-1.13h.4a8.68,8.68,0,0,0,1.28-.9H92v-.66h4.59l.15-.05.52.39a11,11,0,0,1-2.36,1.77v.61h3Z" transform="translate(5.09 5.35)"/><path class="cls-10" d="M102.14,178.35v.89h2.32v2.54c0,.36-.08.56-.35.67a4,4,0,0,1-1.28.12,2.28,2.28,0,0,0-.23-.68h1c.13,0,.16,0,.16-.14v-1.84h-1.61v3.55h-.7v-3.55H100v2.65h-.68v-3.31h2.18v-.89h-2.9v-.66h2.89v-1h.72v1h3v.66Z" transform="translate(5.09 5.35)"/><path class="cls-10" d="M112.4,180.23h-2.93v3.2h-.73v-3.2h-2.87v-.65h2.87V178c-.77.1-1.56.18-2.3.25a2.15,2.15,0,0,0-.18-.61,27.27,27.27,0,0,0,4.92-.79l.52.57a17,17,0,0,1-2.23.48v1.72h2.93Z" transform="translate(5.09 5.35)"/><path class="cls-10" d="M116.73,176.92v.36c.06,1,.45,4.25,3.18,5.51a2.36,2.36,0,0,0-.52.57,5.87,5.87,0,0,1-3-3.94,6,6,0,0,1-2.81,4,2.44,2.44,0,0,0-.57-.54c2.93-1.55,2.88-4.94,2.93-5.91Z" transform="translate(5.09 5.35)"/><path class="cls-10" d="M123.77,182.07h-2.54v.55h-.58v-5.54h3.12Zm-2.54-4.4v1.56h.7v-1.56Zm0,3.8h.7v-1.69h-.7Zm2-3.8h-.71v1.56h.71Zm0,3.8v-1.69h-.71v1.65Zm4-3.25h-1v4.38c0,.4-.08.6-.36.72a4.46,4.46,0,0,1-1.41.11,2.28,2.28,0,0,0-.23-.68,10.65,10.65,0,0,0,1.13,0c.14,0,.18,0,.18-.17v-4.37H124v-.66h3.23Z" transform="translate(5.09 5.35)"/><path class="cls-10" d="M129.78,182.35c1.65-1.43,2.63-2.33,2.63-3.14a.89.89,0,0,0-.86-.93h-.14a1.73,1.73,0,0,0-1.17.59l-.48-.48a2.29,2.29,0,0,1,1.76-.79,1.55,1.55,0,0,1,1.72,1.36,1.48,1.48,0,0,1,0,.21c0,.93-.95,1.87-2.19,3h2.46v.73H129.8Z" transform="translate(5.09 5.35)"/><path class="cls-10" d="M134.77,179.87h3.57v.62h-3.57Z" transform="translate(5.09 5.35)"/><path class="cls-10" d="M139.43,182.22l.41-.55a2,2,0,0,0,1.4.57c.65,0,1.13-.3,1.13-.82s-.45-.91-1.75-.91v-.64c1.15,0,1.58-.37,1.58-.86s-.38-.73-.95-.73a1.85,1.85,0,0,0-1.2.5l-.45-.53a2.59,2.59,0,0,1,1.68-.65c1,0,1.79.49,1.79,1.35a1.31,1.31,0,0,1-1.06,1.2h0a1.42,1.42,0,0,1,1.24,1.3c0,.93-.89,1.48-1.94,1.48A2.48,2.48,0,0,1,139.43,182.22Z" transform="translate(5.09 5.35)"/><path class="cls-10" d="M144.54,179.87h3.56v.62h-3.56Z" transform="translate(5.09 5.35)"/><path class="cls-10" d="M149.52,182.15h1.41v-3.5h-1.09v-.54a3.85,3.85,0,0,0,1.32-.42h.63v4.46h1.28v.71h-3.55Z" transform="translate(5.09 5.35)"/><path class="cls-10" d="M154.08,182.24l.4-.55a2,2,0,0,0,1.38.55,1.05,1.05,0,0,0,1.18-.94.13.13,0,0,0,0-.06c0-.65-.47-1-1.16-1a1.7,1.7,0,0,0-1,.29l-.43-.26.17-2.54h3v.74h-2.26l-.12,1.32a1.94,1.94,0,0,1,.85-.18,1.58,1.58,0,0,1,1.77,1.34,2.44,2.44,0,0,1,0,.27A1.81,1.81,0,0,1,156,183h-.16A2.55,2.55,0,0,1,154.08,182.24Z" transform="translate(5.09 5.35)"/><path class="cls-10" d="M164.55,178.78c-.1.43-.22.85-.35,1.25h3v.62h-1.39v1.87h1.55v.65h-3.94v-.65h1.72v-1.87H164v-.21a7.35,7.35,0,0,1-1.31,2.27,5.66,5.66,0,0,0-.49-.49v1.15h-.64v-4a8.3,8.3,0,0,1-.72.85,5.7,5.7,0,0,0-.37-.69,7.64,7.64,0,0,0,1.81-2.8l.64.21a13,13,0,0,1-.72,1.45v3.77a7.35,7.35,0,0,0,1.6-3.35h-1.24v-.65H164c.08-.44.16-.9.22-1.38l.7.08c-.07.45-.14.89-.22,1.3h2.7v.62Z" transform="translate(5.09 5.35)"/><path class="cls-10" d="M173.9,178.78a11.71,11.71,0,0,1-1.54,2.85,6.13,6.13,0,0,1,1,.76l-.48.65a10.6,10.6,0,0,0-2.77-1.86l.43-.57c.39.18.82.4,1.23.64a9.7,9.7,0,0,0,1.15-2h-2.3a8.43,8.43,0,0,1-1.57,2.22,3.91,3.91,0,0,0-.65-.4,9,9,0,0,0,2.28-4l.76.18c-.14.41-.3.84-.49,1.26h2.47Z" transform="translate(5.09 5.35)"/><path class="cls-10" d="M179.28,179.14a7.77,7.77,0,0,0,2.8,3,2.56,2.56,0,0,0-.51.58,8.68,8.68,0,0,1-2.57-2.79v3.54h-.72v-3.53a8,8,0,0,1-2.58,2.8,3.46,3.46,0,0,0-.51-.57,7.21,7.21,0,0,0,2.79-3h-2.49v-.67h2.79v-1.72H179v1.74h2.8v.67Z" transform="translate(5.09 5.35)"/><path class="cls-10" d="M184.38,181.78c0,.35.16.44.5.51a5.56,5.56,0,0,0,.91.05,11.83,11.83,0,0,0,2.52-.24v.84a21.85,21.85,0,0,1-2.56.15,8.06,8.06,0,0,1-1.2-.08c-.59-.11-.92-.4-.92-1v-4a3.49,3.49,0,0,0-.06-.65h.86a4.74,4.74,0,0,0-.05.65v1.54a19.31,19.31,0,0,0,2.67-.86,3.16,3.16,0,0,0,.71-.36l.32.74c-.24.1-.53.23-.77.31a30.19,30.19,0,0,1-2.93.93Zm3.39-3.52a10.08,10.08,0,0,0-.59-1l.47-.2a9.05,9.05,0,0,1,.59,1Zm.71-1.51a9.12,9.12,0,0,1,.6,1l-.47.2a7.72,7.72,0,0,0-.59-1Z" transform="translate(5.09 5.35)"/><path class="cls-10" d="M190,182.63a3.41,3.41,0,0,0,1.25-1.78,12.34,12.34,0,0,0,.22-2.91,2.88,2.88,0,0,0-.06-.59h.84v.58a15.51,15.51,0,0,1-.23,3.12,4.13,4.13,0,0,1-1.3,2Zm3.36.07a2.4,2.4,0,0,0,0-.46v-4.33a5.61,5.61,0,0,0,0-.58h.84v4.58a5.17,5.17,0,0,0,2-1.68l.44.63a7.63,7.63,0,0,1-2.48,2,1.38,1.38,0,0,0-.28.19Z" transform="translate(5.09 5.35)"/><path class="cls-10" d="M199.5,182.15h1.42v-3.5h-1.1v-.54a3.85,3.85,0,0,0,1.32-.42h.63v4.46h1.29v.71H199.5Z" transform="translate(5.09 5.35)"/><path class="cls-10" d="M204.63,177.54H208v.74h-2.5v1.58h2.11v.74H205.5v2.26h-.87Z" transform="translate(5.09 5.35)"/><path class="cls-10" d="M220.06,178.28h-1.7v-.74h4.26v.74h-1.7v4.58h-.86Z" transform="translate(5.09 5.35)"/><path class="cls-10" d="M223.8,177.54h3.37v.74h-2.5v1.44h2.11v.73h-2.11v1.68h2.58v.73H223.8Z" transform="translate(5.09 5.35)"/><path class="cls-10" d="M228.83,177.54h.86v4.59h2.53v.73h-3.39Z" transform="translate(5.09 5.35)"/><path class="cls-10" d="M238.12,180.26c0-1.75.74-2.66,1.9-2.66s1.9.91,1.9,2.66S241.18,183,240,183,238.12,182,238.12,180.26Zm3,0c0-1.44-.47-2-1.12-2s-1.12.54-1.12,2,.48,2,1.12,2,1.14-.58,1.14-2Zm-1.67,0a.55.55,0,1,1,1.1,0h0a.55.55,0,0,1-1.1,0Z" transform="translate(5.09 5.35)"/><path class="cls-10" d="M245.37,181.5h-2.59v-.59l2.43-3.23h1v3.15H247v.67h-.76v1.36h-.81Zm0-.67V179.5a6.7,6.7,0,0,1,0-1h0c-.17.27-.37.54-.54.8l-1.18,1.53Z" transform="translate(5.09 5.35)"/><path class="cls-10" d="M247.9,182.35c1.65-1.43,2.63-2.33,2.63-3.14a.89.89,0,0,0-.86-.93h-.14a1.68,1.68,0,0,0-1.16.59l-.48-.48a2.27,2.27,0,0,1,1.75-.79,1.56,1.56,0,0,1,1.73,1.37,1.34,1.34,0,0,1,0,.2c0,.93-1,1.87-2.2,3h2.52v.73h-3.8Z" transform="translate(5.09 5.35)"/><path class="cls-10" d="M252.89,179.87h3.56v.62h-3.56Z" transform="translate(5.09 5.35)"/><path class="cls-10" d="M257.69,180.44c0-2,1.06-2.84,2.19-2.84a2.18,2.18,0,0,1,1.52.57l-.47.52a1.55,1.55,0,0,0-1-.39c-.75,0-1.4.51-1.45,2a2,2,0,0,1,1.39-.63,1.47,1.47,0,0,1,1.61,1.32,1.31,1.31,0,0,1,0,.28,1.68,1.68,0,0,1-1.7,1.68h-.08C258.61,183,257.69,182.16,257.69,180.44Zm3,.83a.87.87,0,0,0-.72-1,.66.66,0,0,0-.28,0,1.56,1.56,0,0,0-1.19.63c.11.93.57,1.36,1.18,1.36a1,1,0,0,0,1-1Z" transform="translate(5.09 5.35)"/><path class="cls-10" d="M265.38,178.43h-2.84v-.74h3.8v.53a6.23,6.23,0,0,0-1.72,4.64h-.88A6.67,6.67,0,0,1,265.38,178.43Z" transform="translate(5.09 5.35)"/><path class="cls-10" d="M267.31,182.22l.42-.55a2,2,0,0,0,1.39.57c.65,0,1.14-.3,1.14-.82s-.46-.91-1.76-.91v-.64c1.15,0,1.58-.37,1.58-.86s-.38-.73-.95-.73a1.91,1.91,0,0,0-1.2.5l-.44-.53a2.49,2.49,0,0,1,1.68-.65c1,0,1.78.49,1.78,1.35a1.3,1.3,0,0,1-1.06,1.2h0a1.42,1.42,0,0,1,1.24,1.3c0,.93-.89,1.48-1.94,1.48A2.48,2.48,0,0,1,267.31,182.22Z" transform="translate(5.09 5.35)"/><path class="cls-10" d="M272.42,179.87H276v.62h-3.57Z" transform="translate(5.09 5.35)"/><path class="cls-10" d="M277.22,180.44c0-2,1.06-2.84,2.2-2.84a2.16,2.16,0,0,1,1.51.57l-.47.52a1.55,1.55,0,0,0-1-.39c-.75,0-1.4.51-1.44,2a2,2,0,0,1,1.39-.63A1.47,1.47,0,0,1,281,181a1.22,1.22,0,0,1,0,.27,1.68,1.68,0,0,1-1.7,1.68h-.07C278.15,183,277.22,182.16,277.22,180.44Zm3,.83a.87.87,0,0,0-.72-1,.66.66,0,0,0-.28,0,1.54,1.54,0,0,0-1.18.63c.11.93.56,1.36,1.17,1.36a1,1,0,0,0,1-1Z" transform="translate(5.09 5.35)"/><path class="cls-10" d="M284.91,178.43h-2.83v-.74h3.8v.53a6.24,6.24,0,0,0-1.73,4.64h-.88A6.67,6.67,0,0,1,284.91,178.43Z" transform="translate(5.09 5.35)"/><path class="cls-10" d="M287,180.26c0-1.75.74-2.66,1.9-2.66s1.9.91,1.9,2.66-.74,2.69-1.9,2.69S287,182,287,180.26Zm3,0c0-1.44-.47-2-1.12-2s-1.11.54-1.11,2,.47,2,1.11,2S290,181.68,290,180.26Zm-1.66,0a.54.54,0,0,1,.49-.57h.05a.54.54,0,0,1,.55.53v0a.53.53,0,0,1-.5.56h-.05a.53.53,0,0,1-.57-.48.24.24,0,0,1,0-.12Z" transform="translate(5.09 5.35)"/><path class="cls-10" d="M291.83,181.53a1.51,1.51,0,0,1,1.07-1.33h0a1.46,1.46,0,0,1-.78-1.21c0-.82.7-1.35,1.65-1.35a1.47,1.47,0,0,1,1.65,1.38,1.56,1.56,0,0,1-.78,1.2h0a1.44,1.44,0,0,1,1,1.35c0,.78-.68,1.39-1.89,1.39S291.83,182.37,291.83,181.53Zm3,0c0-.62-.64-.8-1.48-1.09a1.21,1.21,0,0,0-.74,1c0,.52.47.88,1.17.88s1-.3,1-.79Zm-.14-2.49a.83.83,0,0,0-.81-.83h-.11c-.51,0-.87.27-.87.73s.53.79,1.24,1a1.17,1.17,0,0,0,.54-.91Z" transform="translate(5.09 5.35)"/><path class="cls-11" d="M76.74,9.11l-4,17.4s-.09,3,2.32,3.61L96.13,35s3.19.47,3.85-2.4l4-17.2a6.56,6.56,0,0,0,3.51-4.72c.84-3.66-2.43-5.82-2.43-5.82L82.24-.43s-5.49-.91-6.66,4.17C75.53,3.78,75,7.48,76.74,9.11Z" transform="translate(5.09 5.35)"/><path class="cls-11" d="M208.91,4A17,17,0,0,0,199.79.09a7.5,7.5,0,0,0-5.93,2c-5.5,5.5-1.1,13.53.2,15.08s16.44,18.61,22.52,21.54,10.12,2,12.14,0,5-5.89.09-13.79c-2.78-4.46-6.6-8.33-10.28-12q-2.53-2.55-5.14-5A56.22,56.22,0,0,0,208.91,4Z" transform="translate(5.09 5.35)"/><path class="cls-11" d="M207,10.91s-.61-.74-2.78,1.49-2.46,3-2.2,3.82,2.23-.62,3.11-1.55S207.71,11.46,207,10.91Z" transform="translate(5.09 5.35)"/><path class="cls-11" d="M214.66,17.05s-.35-1.45-3.94,2-2.85,4.78-2.85,4.78.33,1.17,2.53-1.16S215.66,18,214.66,17.05Z" transform="translate(5.09 5.35)"/><path class="cls-11" d="M220.69,24.57s-.29-1.33-3,1.49-2.52,3.17-2.2,3.69,2.36-.94,3.88-2.72S220.69,24.57,220.69,24.57Z" transform="translate(5.09 5.35)"/><path class="cls-12" d="M278.23,3.78s5.95,2.54,7.18,6c0,0,8.42,5.73,4.93,12.31,0,0,2.76,13.82-10.58,18.72,0,0-5.94,7-13.16,2.8,0,0-6,.39-8.23-3,0,0,4-5.28,5.82-5.35,0,0,4.1-5.85,5.68-5.79,0,0,4.13-8.65,4.71-8.66,0,0,.5-6,2-8C276.54,12.83,276.45,5.78,278.23,3.78Z" transform="translate(5.09 5.35)"/><line class="cls-12" x1="290.5" y1="15.13" x2="281.63" y2="18.18"/><line class="cls-12" x1="295.43" y1="27.44" x2="279.67" y2="26.2"/><line class="cls-12" x1="284.85" y1="46.16" x2="274.96" y2="34.86"/><line class="cls-12" x1="271.69" y1="48.96" x2="269.28" y2="40.65"/><circle class="cls-12" cx="54.92" cy="27.35" r="18.51"/><path class="cls-13" d="M38,16s4.56-1.3,7.69,0" transform="translate(5.09 5.35)"/><path class="cls-13" d="M45.45,16s4.56-1.3,7.69,0" transform="translate(5.09 5.35)"/><path class="cls-13" d="M52.89,16s4.56-1.3,7.69,0" transform="translate(5.09 5.35)"/><path class="cls-13" d="M38.52,22s4.56-1.3,7.69,0" transform="translate(5.09 5.35)"/><path class="cls-13" d="M46,22s4.56-1.3,7.69,0" transform="translate(5.09 5.35)"/><path class="cls-13" d="M53.44,22s4.56-1.3,7.69,0" transform="translate(5.09 5.35)"/><path class="cls-13" d="M38.52,28.23s4.56-1.3,7.69,0" transform="translate(5.09 5.35)"/><path class="cls-13" d="M46,28.23s4.56-1.3,7.69,0" transform="translate(5.09 5.35)"/><path class="cls-13" d="M53.44,28.23s4.56-1.3,7.69,0" transform="translate(5.09 5.35)"/><line class="cls-12" x1="50.54" y1="15.14" x2="50.54" y2="20.16"/><line class="cls-12" x1="50.75" y1="22.37" x2="50.75" y2="25.96"/><line class="cls-12" x1="50.75" y1="28.7" x2="50.75" y2="32.28"/><line class="cls-12" x1="51.1" y1="34.89" x2="51.1" y2="39.58"/><line class="cls-12" x1="58.79" y1="14.8" x2="58.79" y2="19.82"/><line class="cls-12" x1="58.79" y1="22.37" x2="58.79" y2="25.96"/><line class="cls-12" x1="58.79" y1="28.36" x2="58.79" y2="31.94"/><line class="cls-12" x1="58.79" y1="34.64" x2="58.79" y2="39.33"/><path class="cls-14" d="M23.91,70.06a4,4,0,0,1-.21.84,2.55,2.55,0,0,1-.31.59,1,1,0,0,1-.4.34,7.73,7.73,0,0,1-2.13.41h-1c-.14,0-.34,0-.32-.25a1.57,1.57,0,0,1,.45-.71,9.58,9.58,0,0,1,.94-.86c.49-.41,1-.81,1.53-1.17.18-.13-.08-.25-.19-.27a1,1,0,0,0-.68.1c-.53.37-1,.76-1.54,1.17a11.8,11.8,0,0,0-1,1,1.43,1.43,0,0,0-.47.81c0,.32.38.45.63.51a4.82,4.82,0,0,0,1.42.12,10.47,10.47,0,0,0,2.94-.49,2.45,2.45,0,0,0,1.41-2.15c0-.25-1-.27-1,0Z" transform="translate(5.09 5.35)"/><path class="cls-14" d="M17.28,67.69a10.28,10.28,0,0,0-1.09.43,4.92,4.92,0,0,0-.82.43,1.23,1.23,0,0,0-.52.49c-.3.57.75.91,1.11,1a13.23,13.23,0,0,0,2.48.54c.55.08,1.1.15,1.66.18.11,0,.34,0,.25-.19s-.38-.24-.54-.26h0c-.11,0-.43,0-.4.16s.44.27.57.28h0l-.28-.44h-.26l-.81-.09a16.19,16.19,0,0,1-2.08-.38,3.7,3.7,0,0,1-.72-.28c.11.07-.1-.08,0,0s0,0,0,0h0v-.18a1.21,1.21,0,0,1,.42-.39,5.12,5.12,0,0,1,.73-.39c.36-.16.74-.31,1.12-.44.22-.07,0-.26-.11-.31a1,1,0,0,0-.68-.09Z" transform="translate(5.09 5.35)"/><path class="cls-14" d="M13.79,66.67a7,7,0,0,0-.7.4A4.43,4.43,0,0,0,12,68a.74.74,0,0,0-.18.47.56.56,0,0,0,.33.45,3.81,3.81,0,0,0,2.28.3A7.08,7.08,0,0,0,16,68.85c.12,0,.34-.19.15-.3a1,1,0,0,0-.69,0h-.2l-.3.07H13.87a1.83,1.83,0,0,1-.82-.19H13l-.08-.07a.2.2,0,0,1-.07-.16v-.15l.12-.21h0v0L13,67.7l.24-.22.25-.18h.07l.13-.09c.24-.15.48-.29.73-.42s.14-.23,0-.28a1.06,1.06,0,0,0-.7.09Z" transform="translate(5.09 5.35)"/><path class="cls-14" d="M5.91,67.52H8.56c.72,0,1.44,0,2.16.11a4.85,4.85,0,0,1,.83.11,1.71,1.71,0,0,1,.49.14,1,1,0,0,0,.71,0c.17-.07.2-.2,0-.28A5.35,5.35,0,0,0,11,67.21c-.75-.08-1.51-.11-2.27-.13H5.65c-.12,0-.43,0-.37.22s.48.18.61.18Z" transform="translate(5.09 5.35)"/><path class="cls-14" d="M35,74.12c-2.52-1.16-5.09-2.22-7.67-3.24A100.6,100.6,0,0,0,12.39,66a22.76,22.76,0,0,0-7.07-.72c-.58,0-.57.45,0,.4a20.19,20.19,0,0,1,6,.57,69.92,69.92,0,0,1,7.38,2c4.36,1.43,8.63,3.11,12.84,4.91.88.38,1.76.76,2.62,1.16a1,1,0,0,0,.69,0c.09,0,.38-.19.16-.29Z" transform="translate(5.09 5.35)"/><path class="cls-14" d="M22.75,69.22a2.91,2.91,0,0,1-.88-1.09,9.84,9.84,0,0,1-.66-1.57c-.14-.41-.27-.83-.37-1.25a1.63,1.63,0,0,0-.07-.3h0a1.26,1.26,0,0,1,.18-.14h.11a.43.43,0,0,1,.16,0,1,1,0,0,1,.43,0,4.42,4.42,0,0,1,.92.4,4.52,4.52,0,0,1,2.13,2.85A7.39,7.39,0,0,1,25,70.31c0,.32,1,.49,1,.26a7.79,7.79,0,0,0-.28-2.15A5.1,5.1,0,0,0,23.4,65.2a5.52,5.52,0,0,0-2.29-.84,1.63,1.63,0,0,0-1.1.22.26.26,0,0,0-.15.3A10.29,10.29,0,0,0,20.15,66c.38,1.24.9,2.73,2.06,3.44a.86.86,0,0,0,.68.11c.2-.09,0-.24-.1-.31Z" transform="translate(5.09 5.35)"/><path class="cls-14" d="M18.25,67.68s.24.12.24.15h0v-.07h0l-.09-.15L18,66.85A14,14,0,0,1,17.22,65a1.46,1.46,0,0,0-.1-.34,1.41,1.41,0,0,1,0-.29v-.1h.28l.24.07.23.07H18l.52.21a3.42,3.42,0,0,1,.43.21,4.82,4.82,0,0,1,.5.27l.1.06s.14.09.06,0l.18.13.16.13c.06,0,0-.06,0,0l.06.07a.93.93,0,0,0,.64.25c.12,0,.39,0,.25-.21a2.88,2.88,0,0,0-.73-.57,10.57,10.57,0,0,0-1-.56,6.91,6.91,0,0,0-2.26-.7,1,1,0,0,0-.73.15c-.14.15-.07.44,0,.62a9.79,9.79,0,0,0,.79,2c.15.33.32.66.5,1a1.1,1.1,0,0,0,.53.59c.14.06.5.17.63,0s-.18-.29-.27-.33Z" transform="translate(5.09 5.35)"/><path class="cls-14" d="M15.16,66.78a9.6,9.6,0,0,1-.66-1A3.41,3.41,0,0,1,13.9,64v-.07h0a.52.52,0,0,1,.1-.11h.06l.34.13.17.07.09.05h0q.35.16.69.36l.85.52a.89.89,0,0,0,.68,0c.12,0,.36-.15.17-.28a9.9,9.9,0,0,0-2.32-1.22,2.68,2.68,0,0,0-.93-.16,1,1,0,0,0-.79.3,1,1,0,0,0,0,.75,4.51,4.51,0,0,0,.39,1,9.82,9.82,0,0,0,.87,1.42c.12.16.45.14.62.12s.46-.1.34-.26Z" transform="translate(5.09 5.35)"/><path class="cls-14" d="M6.78,63.18c.86.1,1.74.12,2.6.22a11,11,0,0,1,3.57.81,1,1,0,0,0,.71.06c.18-.07.2-.19,0-.28a12.58,12.58,0,0,0-4-1c-.95-.11-1.9-.14-2.84-.25-.12,0-.5,0-.52.16s.38.23.49.24Z" transform="translate(5.09 5.35)"/><path class="cls-12" d="M12.14,57,1.94,43.53s3.38,0,4.34,1.57c0,0,3.36-4.17,6.4-1.29,0,0,1.19-4.71,5.26-2.43,0,0,.22-4.8,4.51-3.5,0,0,.88-4.93,2.62-4.73L29,48.78s-.42,4-6.52,6.65S12.14,57,12.14,57Z" transform="translate(5.09 5.35)"/><path class="cls-12" d="M3.27,43.64s-6.19-5.22,1.1-8.38c0,0,2.34-8.49,12-6" transform="translate(5.09 5.35)"/><path class="cls-12" d="M15.1,30.27s6.81-6.4,9.44,3" transform="translate(5.09 5.35)"/><path class="cls-12" d="M7.47,41s-1.24-7.19,6-6.39c0,0,3.81-3.58,7.32-.06" transform="translate(5.09 5.35)"/><path class="cls-12" d="M10.81,47.7s3.53,6.49,4.29,6.6" transform="translate(5.09 5.35)"/><line class="cls-12" x1="21.74" y1="50.96" x2="24.66" y2="57.71"/><path class="cls-12" d="M22.49,42.64S25.05,48.89,25,50" transform="translate(5.09 5.35)"/><path class="cls-11" d="M249,21c-3,1.56-8.77,3.73-10.32,3.58a3.32,3.32,0,0,1-1.42-.73c-.92-.74-.61-1.71.7-1.88,1.54-.2,7.14-.43,9.79-3.18" transform="translate(5.09 5.35)"/><path class="cls-12" d="M251.07,18.92a13.34,13.34,0,0,0,1.33-2.08A10.75,10.75,0,0,0,249,4.39c-2.58-2.06-6-2.52-9.19-2.38H239a10.66,10.66,0,0,0-5.93,2.35c-3.47,3-4.43,8.06-3.44,12.37,1.05,4.58,4.62,8.71,8.3,11.45a23,23,0,0,0,10.13,4.29c3.68.6,7.65-1.68,10.73-3.63,4.36-2.74,9.64-10.08,9-16.77a12.36,12.36,0,0,0-.62-2.82,11.15,11.15,0,0,0-15.53-6.2,12.63,12.63,0,0,0-1.37.81,1.78,1.78,0,0,0-.8.87" transform="translate(5.09 5.35)"/><path class="cls-12" d="M251.51,7.32c4-3.38,9.09-2.8,12,1.57,2.63,4,.67,9-1.78,12.53-2.21,3.2-4.85,6.11-8.64,7.39a14,14,0,0,1-8.67,0c-4.21-1.36-7.56-4.72-9.72-8.58a14.91,14.91,0,0,1-2-6,7.81,7.81,0,0,1,6.65-8.82,7,7,0,0,1,.8-.07,9.7,9.7,0,0,1,6.17,1.42A8.24,8.24,0,0,1,250,11.88c.33,1.54.17,3.15.42,4.7a6,6,0,0,0,3.06,4.53c1.94,1,4.4.39,6.17,1.77a.83.83,0,0,1,.34.44.84.84,0,0,1-.26.7c-.82.87-2.2.73-3.29.67a11.79,11.79,0,0,1-3-.57,8.9,8.9,0,0,1-4.22-3c-2.17-2.81-2.69-6.63-2.4-10.08a20,20,0,0,1,.56-3.35" transform="translate(5.09 5.35)"/><path class="cls-14" d="M272.9,56a2.23,2.23,0,0,1-.48-2.14,8.23,8.23,0,0,1,1.44-1.93,5.39,5.39,0,0,1,.87-.78l.15-.09h-.32l.06.09a2.13,2.13,0,0,1,.11.9,9.71,9.71,0,0,1-.1,1.21c-.08.63-.18,1.26-.31,1.88-.05.22.93.27,1,0q.18-.9.3-1.8a10.71,10.71,0,0,0,.11-1.39,1.74,1.74,0,0,0-.18-1c-.23-.33-.8-.29-1.13-.18a2.53,2.53,0,0,0-1,.64,9.43,9.43,0,0,0-1.8,2.18,1.69,1.69,0,0,0-.25,1.35,3.88,3.88,0,0,0,.59,1.25c.18.24,1.12.08,1-.14Z" transform="translate(5.09 5.35)"/><path class="cls-14" d="M279.52,53.43c.13-.33.26-.66.37-1a4.6,4.6,0,0,0,.32-1.68.7.7,0,0,0-.29-.6,1.45,1.45,0,0,0-1.18-.18,10.77,10.77,0,0,0-3.46,1.84,1.7,1.7,0,0,0-.58.69c-.07.26.89.51,1,.23a1.24,1.24,0,0,1,.41-.5,7.28,7.28,0,0,1,.84-.62,10.82,10.82,0,0,1,2.14-1.1l.45-.14h0a1,1,0,0,1-.38-.11h0c0,.07,0,.07,0,0v.09a1.22,1.22,0,0,1,0,.27,4.74,4.74,0,0,1-.31,1.53,9.4,9.4,0,0,1-.39,1c-.09.23.85.53,1,.24Z" transform="translate(5.09 5.35)"/><path class="cls-14" d="M282.64,51.41a7.08,7.08,0,0,0,.25-.78,3.74,3.74,0,0,0,.17-1.37.73.73,0,0,0-.25-.47,1.34,1.34,0,0,0-1-.09A3.57,3.57,0,0,0,280,49.94a6,6,0,0,0-.79,1.14c-.09.17.29.2.38.2s.5,0,.59-.22a6.38,6.38,0,0,1,.53-.82,5.09,5.09,0,0,1,.58-.65l.37-.3h0l.11-.06h.12s.07.11,0,.05a.62.62,0,0,1,.07.23,3.24,3.24,0,0,1-.14,1.2,6.4,6.4,0,0,1-.26.85c-.1.27.87.25,1,0Z" transform="translate(5.09 5.35)"/><path class="cls-14" d="M287.25,45.26a35.29,35.29,0,0,1-3.88,3.45c-.21.16-.43.31-.65.45a2,2,0,0,1-.46.22c-.19.06-.18.2,0,.29a1.05,1.05,0,0,0,.7,0,3.94,3.94,0,0,0,1.06-.59c.46-.32.9-.68,1.33-1,.82-.69,1.6-1.42,2.38-2.16l.5-.5c.14-.14-.26-.25-.33-.26a.74.74,0,0,0-.63.1Z" transform="translate(5.09 5.35)"/><path class="cls-14" d="M262.35,60.07c2.63-.87,5.22-1.85,7.8-2.86a99.3,99.3,0,0,0,14.22-6.63,22,22,0,0,0,5.57-4.21c.14-.16-.77-.28-1,0a20.24,20.24,0,0,1-4.82,3.72,70.56,70.56,0,0,1-6.84,3.58c-4.16,1.93-8.44,3.63-12.76,5.19-.9.32-1.81.65-2.72,1-.62.2.23.41.52.31Z" transform="translate(5.09 5.35)"/><path class="cls-14" d="M275.1,55.26a3.63,3.63,0,0,1,2.52,1,10.19,10.19,0,0,1,.83.64l.09.08c.13.08-.22-.13-.07-.09h0a1.5,1.5,0,0,1-.22.5,2.55,2.55,0,0,1-1.05.65,4.32,4.32,0,0,1-3.62-.12,6.87,6.87,0,0,1-1.78-1.29,1,1,0,0,0-.64-.25c-.11,0-.41,0-.25.22a6.77,6.77,0,0,0,6.41,2.07c.7-.19,2-.57,2.11-1.45a.33.33,0,0,0-.13-.37,10.26,10.26,0,0,0-.89-.71c-1.07-.77-2.54-1.66-3.92-1.39-.18,0-.22.14-.07.27a1,1,0,0,0,.68.19Z" transform="translate(5.09 5.35)"/><path class="cls-14" d="M279.24,53.53a.66.66,0,0,1-.28,0h-.08l.28.08s.21.07.07,0l.21.07.46.17,1,.39.22.1h.06l.12.06.4.21.17.1h.07a.52.52,0,0,1,.11.1h0a.17.17,0,0,1,0,.1V55l-.1.1a4.65,4.65,0,0,1-1.57.79,8.31,8.31,0,0,1-1.11.32l-.41.08h-.2c-.11,0-.43-.06-.4.14s.42.29.56.3a5,5,0,0,0,2.05-.34,5.93,5.93,0,0,0,1.92-.9c.14-.12.32-.3.26-.5s-.38-.42-.58-.55a11.32,11.32,0,0,0-2-1c-.37-.14-.75-.28-1.13-.4a1.51,1.51,0,0,0-.86-.13c-.21.07,0,.25.1.31a.91.91,0,0,0,.68.12Z" transform="translate(5.09 5.35)"/><path class="cls-14" d="M281.48,51.91l.28.06.31.07h.28a6.38,6.38,0,0,1,.87.3l.36.18a2.25,2.25,0,0,1,.36.24.84.84,0,0,1,.23.23h0v.16h0v.06l-.06.09-.05.05h0a1.44,1.44,0,0,1-.25.18h-.07l-.16.08a5.24,5.24,0,0,1-.69.28h-.28l-.29.09-.29.08c-.12,0-.35.15-.17.28a1,1,0,0,0,.69,0c.29-.07.57-.16.85-.25a5.58,5.58,0,0,0,1.46-.69,1,1,0,0,0,.37-.49.55.55,0,0,0-.19-.51,4.18,4.18,0,0,0-1.72-.93,10.43,10.43,0,0,0-1.36-.35,1,1,0,0,0-.69.1c-.17.13.07.24.19.26Z" transform="translate(5.09 5.35)"/><path class="cls-14" d="M289.71,49c-.73.54-1.4,1.14-2.13,1.67-.56.41-1.13.81-1.72,1.16a6.85,6.85,0,0,1-1.61.78c-.19,0-.18.19,0,.28a1,1,0,0,0,.7.06,11.74,11.74,0,0,0,3.44-2c.5-.37,1-.74,1.47-1.13l.5-.4.21-.18c.17-.12,0-.24-.15-.28a.92.92,0,0,0-.69,0Z" transform="translate(5.09 5.35)"/><path class="cls-12" d="M295.4,65.43l-.52-18.59s3,2.17,2.88,4.2c0,0,5.69-1.59,6.57,2.93,0,0,4.08-3.45,6.27,1.2,0,0,3.27-4.16,6.29-.24,0,0,3.94-3.86,5.37-2.57l-6.51,16.47s-2.95,3.31-10.11,1.77S295.4,65.43,295.4,65.43Z" transform="translate(5.09 5.35)"/><path class="cls-12" d="M296,47.78s-2.2-8.66,6.36-6.82c0,0,7.54-6.1,14.56,2.37" transform="translate(5.09 5.35)"/><path class="cls-12" d="M315.18,43.39s10.2-1.37,6.55,8.72" transform="translate(5.09 5.35)"/><path class="cls-12" d="M301.46,48.12s3.5-7.24,9.5-1.86c0,0,5.72-.76,6.61,4.64" transform="translate(5.09 5.35)"/><path class="cls-12" d="M300.16,56.27s-1,8.07-.39,8.66" transform="translate(5.09 5.35)"/><line class="cls-12" x1="311.82" y1="63.49" x2="310.12" y2="71.41"/><path class="cls-12" d="M313.87,59.22s-1.71,7.24-2.51,8.2" transform="translate(5.09 5.35)"/><path class="cls-11" d="M298,11.16l-1.69,16.62s.27,2.85,2.58,3.09L319.05,33s3,.07,3.3-2.68l1.71-16.46A6.15,6.15,0,0,0,326.77,9c.36-3.51-2.93-5.14-2.93-5.14L302,1.67s-5.22-.22-5.72,4.64C296.28,6.31,296.24,9.85,298,11.16Z" transform="translate(5.09 5.35)"/><path class="cls-12" d="M61.13,56.24s-6.69-8.7,7-15c0,0,4.27-5.85,11-3.13,0,0,6.33-3.6,9.94,1.46,0,0,13,2.65,11.51,12.17s-19.13,10-19.13,10S65.52,64.11,61.13,56.24Z" transform="translate(5.09 5.35)"/><path class="cls-12" d="M69.34,42.39s1.63,3,2.37,3.45" transform="translate(5.09 5.35)"/><line class="cls-12" x1="84.35" y1="44.7" x2="84.75" y2="48.79"/><path class="cls-12" d="M89.14,40.88s-.38,2.54-1.42,3.39" transform="translate(5.09 5.35)"/><path class="cls-12" d="M113.3,36.93s-3.51-7.21-1.85-11.46c0,0-3.23-12.2,5.4-15.53,0,0,8.64-15.18,25.1-8.93,0,0,11.21-1.69,14.61,8.07,0,0,6,4.55,5.29,9.46,0,0-8,1.68-9.8.28,0,0-8.58,2.15-10,.8,0,0-10.89,4.75-11.43,4.29,0,0-5.38,5.24-8.36,5.91C122.24,29.78,116.57,36.52,113.3,36.93Z" transform="translate(5.09 5.35)"/><line class="cls-12" x1="116.54" y1="30.82" x2="127.33" y2="35.17"/><line class="cls-12" x1="121.94" y1="15.29" x2="135.69" y2="29.26"/><line class="cls-12" x1="147.04" y1="6.36" x2="147.12" y2="24.97"/><line class="cls-12" x1="161.65" y1="14.43" x2="157.14" y2="24.17"/><path class="cls-11" d="M42.07,59.31c-2.07-.16-5.74-.88-6.5-1.45a2.08,2.08,0,0,1-.5-.83c-.24-.68.23-1.08,1-.75s3.84,2.06,6.09,1.48" transform="translate(5.09 5.35)"/><path class="cls-12" d="M43.83,58.89a7.71,7.71,0,0,0,1.36-.65A7,7,0,0,0,47.08,56a6.77,6.77,0,0,0,.31-5.33,8.31,8.31,0,0,0-4-4.18L43,46.28a6.51,6.51,0,0,0-3.83-.68,7.74,7.74,0,0,0-5.74,5.32,13.06,13.06,0,0,0,.64,8.6A14.22,14.22,0,0,0,38,65c1.72,1.48,4.5,1.57,6.72,1.55,3.15,0,8.23-2.15,10-5.84A7.09,7.09,0,0,0,55.25,59,6.77,6.77,0,0,0,50,51a6.15,6.15,0,0,0-.86-.13,5.57,5.57,0,0,0-1,0,1,1,0,0,0-.69.2" transform="translate(5.09 5.35)"/><path class="cls-12" d="M47.77,53a4.65,4.65,0,0,1,5.7,4.64c.09,2.91-2.52,4.87-4.92,5.93a10.83,10.83,0,0,1-6.85,1.07,8.45,8.45,0,0,1-4.51-2.74,11,11,0,0,1-2.3-7.56,9.09,9.09,0,0,1,.86-3.73A4.75,4.75,0,0,1,42,48.15a4.93,4.93,0,0,1,.46.23,6,6,0,0,1,2.74,2.71,5,5,0,0,1,.25,3.82c-.32.9-.92,1.69-1.29,2.57a3.66,3.66,0,0,0,.14,3.3c.71,1.11,2.16,1.61,2.64,2.89a.5.5,0,0,1,0,.34.45.45,0,0,1-.36.28c-.7.19-1.37-.33-1.92-.71a7.18,7.18,0,0,1-1.38-1.26,5.42,5.42,0,0,1-1.23-2.91,9,9,0,0,1,2-6,11.88,11.88,0,0,1,1.36-1.56" transform="translate(5.09 5.35)"/><path class="cls-12" d="M185.75,19.42s-3.64,6.86-11.72-.09c0,0-5-1-5.24-6.16,0,0-4.17-3-2-6.82,0,0-2.11-9.16,4.45-11s12,9.38,12,9.38S189.52,14.29,185.75,19.42Z" transform="translate(5.09 5.35)"/><path class="cls-12" d="M174.43,18.21A10.55,10.55,0,0,0,176,15.67" transform="translate(5.09 5.35)"/><line class="cls-12" x1="174.65" y1="18.07" x2="177.16" y2="16.61"/><path class="cls-12" d="M167.64,5.91a5,5,0,0,1,2.6-.08" transform="translate(5.09 5.35)"/><circle class="cls-12" cx="248.44" cy="58.88" r="15.16"/><path class="cls-13" d="M233.63,48.62s3.74-1.07,6.3,0" transform="translate(5.09 5.35)"/><path class="cls-13" d="M239.76,48.62s3.74-1.07,6.3,0" transform="translate(5.09 5.35)"/><path class="cls-13" d="M245.85,48.62s3.74-1.07,6.3,0" transform="translate(5.09 5.35)"/><path class="cls-13" d="M234.09,53.53s3.73-1.07,6.3,0" transform="translate(5.09 5.35)"/><path class="cls-13" d="M240.22,53.53s3.73-1.07,6.3,0" transform="translate(5.09 5.35)"/><path class="cls-13" d="M246.31,53.53s3.73-1.07,6.3,0" transform="translate(5.09 5.35)"/><path class="cls-13" d="M234.09,58.63s3.73-1.07,6.3,0" transform="translate(5.09 5.35)"/><path class="cls-13" d="M240.22,58.63s3.73-1.07,6.3,0" transform="translate(5.09 5.35)"/><path class="cls-13" d="M246.31,58.63s3.73-1.07,6.3,0" transform="translate(5.09 5.35)"/><line class="cls-12" x1="244.85" y1="48.88" x2="244.85" y2="52.99"/><line class="cls-12" x1="245.02" y1="54.8" x2="245.02" y2="57.74"/><line class="cls-12" x1="245.02" y1="59.98" x2="245.02" y2="62.92"/><line class="cls-12" x1="245.31" y1="65.05" x2="245.31" y2="68.9"/><line class="cls-12" x1="251.61" y1="48.6" x2="251.61" y2="52.71"/><line class="cls-12" x1="251.61" y1="54.8" x2="251.61" y2="57.74"/><line class="cls-12" x1="251.61" y1="59.71" x2="251.61" y2="62.64"/><line class="cls-12" x1="251.61" y1="64.85" x2="251.61" y2="68.69"/><path class="cls-6" d="M27.32,13.63a13.94,13.94,0,0,0,4.37-6.94,6.19,6.19,0,0,0-.88-5.12C27.05-3.67,19.9-1.14,18.45-.29S1.12,10.71-2.13,15.25s-3,8-1.62,9.93S.39,30.07,7.51,27.1a59,59,0,0,0,11.23-6.8C20.35,19.15,22,18,23.52,16.78A45.66,45.66,0,0,0,27.32,13.63Z" transform="translate(5.09 5.35)"/><path class="cls-6" d="M21.88,11.16s.69-.4-.85-2.47-2.1-2.41-2.82-2.31.2,1.91.85,2.75S21.34,11.65,21.88,11.16Z" transform="translate(5.09 5.35)"/><path class="cls-6" d="M15.84,16.58s1.23-.09-1.12-3.49-3.53-3-3.53-3-1,.11.61,2.22S14.94,17.27,15.84,16.58Z" transform="translate(5.09 5.35)"/><path class="cls-6" d="M8.89,20.51s1.12-.06-.82-2.64-2.26-2.49-2.73-2.29.45,2.06,1.71,3.54S8.89,20.51,8.89,20.51Z" transform="translate(5.09 5.35)"/></g></g></g></g></g></svg>